<svg title="Самолет" width="180" height="160" viewBox="0 0 180 160" fill="none" xmlns="http://www.w3.org/2000/svg">
<g clip-path="url(#clip0_10079_21576949)">
<rect width="180" height="160" fill="white"/>
<path d="M180.889 122.222L184.607 119.51H180.005H38.5658H38.0768L37.6818 119.798L0.162936 147.164L-3.55505 149.876H1.04688H142.486H142.975L143.37 149.588L180.889 122.222Z" fill="#42AB44" stroke="white" stroke-width="3"/>
<path d="M180.889 113.598L184.607 110.886H180.005H38.5658H38.0768L37.6818 111.174L0.162936 138.54L-3.55505 141.252H1.04688H142.486H142.975L143.37 140.964L180.889 113.598Z" fill="#42AB44" stroke="white" stroke-width="3"/>
<path d="M180.889 105.487L184.607 102.775H180.005H38.5658H38.0768L37.6818 103.063L0.162936 130.43L-3.55505 133.141H1.04688H142.486H142.975L143.37 132.853L180.889 105.487Z" fill="#42AB44" stroke="white" stroke-width="3"/>
<mask id="mask0_10079_21576949" style="mask-type:alpha" maskUnits="userSpaceOnUse" x="1" y="104" width="180" height="28">
<path d="M180.005 104.275H38.5658L1.04688 131.641H142.486L180.005 104.275Z" fill="#42AB44"/>
</mask>
<g mask="url(#mask0_10079_21576949)">
<path d="M189.438 107.538H4.41406L0.327716 110.055H185.352L189.438 107.538Z" fill="url(#paint0_linear_10079_21576949)"/>
<path d="M176.657 115.412H-8.36719L-12.4535 117.928H172.571L176.657 115.412Z" fill="url(#paint1_linear_10079_21576949)"/>
<path d="M103.318 123.31H-21.1875L-25.2739 125.826H99.2314L103.318 123.31Z" fill="url(#paint2_linear_10079_21576949)"/>
<path d="M169.403 125.801H123.763C118.058 125.801 111.66 126.848 109.597 128.118C107.533 129.389 110.532 130.436 116.237 130.436H161.878C167.583 130.436 173.981 129.389 176.044 128.118C178.108 126.848 175.22 125.801 169.403 125.801Z" fill="url(#paint3_linear_10079_21576949)" stroke="#1D1D1B" stroke-miterlimit="10"/>
<path d="M-2.09375 111.55H181.029" stroke="#1D1D1B" stroke-miterlimit="10"/>
<path d="M-15.3281 119.697H167.794" stroke="#1D1D1B" stroke-miterlimit="10"/>
</g>
<g filter="url(#filter0_f_10079_21576949)">
<path d="M162.499 116.992C162.591 116.965 162.682 116.91 162.773 116.883C162.804 116.856 162.864 116.829 162.895 116.829C162.956 116.802 163.017 116.774 163.077 116.72C163.138 116.666 163.199 116.639 163.26 116.612C164.081 116.041 163.625 115.525 163.442 115.118C163.442 115.091 163.412 115.036 163.412 115.009C163.29 114.466 163.321 113.326 154.65 113.76C150.422 113.977 133.507 114.873 114.098 115.878L112.759 114.004L111.208 104.282L106.553 104.499L104.393 108.03L102.598 108.41L97.9435 114.955L94.658 116.91C80.2378 117.671 66.2741 118.404 56.5998 118.92C55.2308 119.001 53.9227 119.056 52.6449 119.137C51.8235 118.974 51.063 118.703 50.6067 118.241C49.2377 116.802 50.485 114.249 49.2072 114.004C47.9599 113.733 43.6704 114.004 43.6704 114.004L37.5556 117.1C37.5251 117.046 37.4947 116.965 37.4034 116.937C36.6733 116.503 33.5702 116.747 33.5702 116.747L30.528 120.739L30.1325 120.929C23.896 121.636 21.736 122.152 21.736 122.152L19.4848 122.966C19.4848 122.966 18.3287 123.319 25.4475 123.781L17.2031 126.85L21.1276 126.632L31.6232 124.134C35.9128 124.324 40.2631 124.433 44.6439 124.433C50.0895 124.433 55.6263 124.297 61.3761 124.053C62.8059 123.998 64.5096 123.917 66.3349 123.835C68.069 123.754 69.9552 123.672 71.9022 123.564C71.9022 123.564 74.7314 123.971 82.915 123.727C82.8541 123.808 82.7933 123.944 82.702 124.107C82.337 124.731 79.6294 126.388 77.1348 127.311C74.6402 128.235 66.0915 131.222 66.0915 131.222H66.8825L64.1404 131.575L70.3161 131.222L105.884 122.477C106.705 122.423 107.527 122.369 108.348 122.287C111.907 122.016 114.645 121.5 116.045 121.201C123.042 120.821 130.891 120.359 136.641 120.06C140.291 119.87 143.698 119.626 146.771 119.327C147.106 119.3 147.44 119.273 147.775 119.246C155.107 118.54 160.4 117.671 162.104 117.128C162.256 117.1 162.378 117.046 162.499 116.992Z" fill="url(#paint4_linear_10079_21576949)"/>
</g>
<path d="M105.712 60.6897L98.1481 55.9093L65.3234 31.3604L60.5781 31.9354L69.2838 40.8492L68.3918 41.8197L83.7695 58.3534L86.3384 63.7807L105.712 60.6897Z" fill="url(#paint5_linear_10079_21576949)"/>
<mask id="mask1_10079_21576949" style="mask-type:alpha" maskUnits="userSpaceOnUse" x="17" y="55" width="149" height="28">
<path d="M17.3021 76.5044C17.3021 76.5044 20.2991 71.9756 47.8433 68.3095C75.3875 64.6433 137.79 56.4124 146.531 55.2982C155.273 54.1839 158.876 57.0953 160.732 58.4252C162.587 59.7551 166.298 61.7679 165.977 63.8526C165.691 65.9372 158.52 69.6034 145.497 71.2927C132.474 72.982 108.926 76.5044 108.926 76.5044C108.926 76.5044 81.7741 80.0627 69.8573 81.3207C57.9405 82.5787 45.5242 82.6506 31.2169 81.177C16.9096 79.7033 17.2664 78.5891 17.2664 78.5891V76.5044H17.3021Z" fill="#88BBFB"/>
</mask>
<g mask="url(#mask1_10079_21576949)">
<path d="M17.3021 76.5044C17.3021 76.5044 20.2991 71.9756 47.8433 68.3095C75.3875 64.6433 137.79 56.4124 146.531 55.2982C155.273 54.1839 158.876 57.0953 160.732 58.4252C162.587 59.7551 166.298 61.7679 165.977 63.8526C165.691 65.9372 158.52 69.6034 145.497 71.2927C132.474 72.982 108.926 76.5044 108.926 76.5044C108.926 76.5044 81.7741 80.0627 69.8573 81.3207C57.9405 82.5787 45.5242 82.6506 31.2169 81.177C16.9096 79.7033 17.2664 78.5891 17.2664 78.5891V76.5044H17.3021Z" fill="url(#paint6_linear_10079_21576949)"/>
<g filter="url(#filter1_f_10079_21576949)">
<path d="M31.2501 81.1768C45.5217 82.6504 57.9737 82.5785 69.8904 81.3205C81.8072 80.0625 108.959 76.5042 108.959 76.5042C108.959 76.5042 132.507 73.0537 145.53 71.3285C158.553 69.6032 165.724 65.973 166.01 63.8883C166.295 61.8036 162.62 59.7908 160.765 58.4609C158.446 64.3915 110.386 66.7278 66.2155 72.9459C22.0449 79.164 17.3352 76.5402 17.3352 76.5402V78.6248C17.2996 78.5889 16.9428 79.7031 31.2501 81.1768Z" fill="url(#paint7_linear_10079_21576949)"/>
</g>
</g>
<path d="M23.0781 72.9097L14.0156 62.8817C14.0156 62.8817 16.9413 62.3066 19.1534 63.3849C21.3655 64.4632 27.2882 70.7172 27.2882 70.7172L23.0781 72.9097Z" fill="#88BBFB"/>
<path d="M26.9297 78.5889H37.2766L30.8544 87.8621L26.9297 88.4012V78.5889Z" fill="#2168DA"/>
<path d="M23.5078 74.132C23.5078 74.132 30.3225 73.5569 35.8884 76.9714C41.4544 80.386 67.286 78.4091 59.722 74.096C52.1581 69.7829 48.9113 69.3516 48.9113 69.3516L31.2858 72.0473L23.5078 74.132Z" fill="url(#paint8_linear_10079_21576949)"/>
<path d="M23.5092 74.1318L17.0156 55.8729C17.0156 55.8729 21.1901 55.1899 23.5092 55.8729C25.7927 56.5198 32.429 62.9176 38.6371 66.5838C44.8453 70.25 48.877 69.3155 48.877 69.3155C48.877 69.3155 43.6679 71.7236 35.319 72.8378C27.0058 73.988 23.5092 74.1318 23.5092 74.1318Z" fill="url(#paint9_linear_10079_21576949)"/>
<path fill-rule="evenodd" clip-rule="evenodd" d="M94.1275 80.5028C85.2718 81.1308 80.6328 80.0984 80.6328 80.0984C81.7389 78.0137 91.1581 76.2165 104.074 74.671C116.99 73.1255 125.339 73.5927 125.339 73.5927C125.339 73.5927 124.233 75.9649 119.38 76.9354C118.609 77.0897 117.846 77.2404 117.062 77.3902L104.644 104.612L98.5073 105.474L99.1138 99.3998H98.1862C98.1862 99.3998 98.6857 91.8519 98.6857 89.5156C98.6857 87.1793 96.6163 83.0099 95.0464 81.4285L94.1275 80.5028Z" fill="url(#paint10_linear_10079_21576949)"/>
</g>
<defs>
<filter id="filter0_f_10079_21576949" x="15.2031" y="102.282" width="150.531" height="31.293" filterUnits="userSpaceOnUse" color-interpolation-filters="sRGB">
<feFlood flood-opacity="0" result="BackgroundImageFix"/>
<feBlend mode="normal" in="SourceGraphic" in2="BackgroundImageFix" result="shape"/>
<feGaussianBlur stdDeviation="1" result="effect1_foregroundBlur_10079_21576949"/>
</filter>
<filter id="filter1_f_10079_21576949" x="13.3281" y="54.4609" width="156.695" height="31.8125" filterUnits="userSpaceOnUse" color-interpolation-filters="sRGB">
<feFlood flood-opacity="0" result="BackgroundImageFix"/>
<feBlend mode="normal" in="SourceGraphic" in2="BackgroundImageFix" result="shape"/>
<feGaussianBlur stdDeviation="2" result="effect1_foregroundBlur_10079_21576949"/>
</filter>
<linearGradient id="paint0_linear_10079_21576949" x1="-0.132592" y1="110.338" x2="0.0246983" y2="104.849" gradientUnits="userSpaceOnUse">
<stop stop-color="#EFBD6C"/>
<stop offset="1" stop-color="#FFF48E"/>
</linearGradient>
<linearGradient id="paint1_linear_10079_21576949" x1="-12.9138" y1="118.212" x2="-12.7566" y2="112.722" gradientUnits="userSpaceOnUse">
<stop stop-color="#EFBD6C"/>
<stop offset="1" stop-color="#FFF48E"/>
</linearGradient>
<linearGradient id="paint2_linear_10079_21576949" x1="-25.7342" y1="126.11" x2="-25.4897" y2="120.499" gradientUnits="userSpaceOnUse">
<stop stop-color="#EFBD6C"/>
<stop offset="1" stop-color="#FFF48E"/>
</linearGradient>
<linearGradient id="paint3_linear_10079_21576949" x1="104.986" y1="130.958" x2="107.191" y2="118.836" gradientUnits="userSpaceOnUse">
<stop stop-color="#EFBD6C"/>
<stop offset="1" stop-color="#FFF48E"/>
</linearGradient>
<linearGradient id="paint4_linear_10079_21576949" x1="49.3746" y1="93.46" x2="126.589" y2="143.452" gradientUnits="userSpaceOnUse">
<stop/>
<stop offset="1" stop-color="#0357CA"/>
</linearGradient>
<linearGradient id="paint5_linear_10079_21576949" x1="83.1451" y1="31.3604" x2="83.1451" y2="63.7807" gradientUnits="userSpaceOnUse">
<stop stop-color="#88BBFB"/>
<stop offset="1" stop-color="#88BBFB" stop-opacity="0"/>
</linearGradient>
<linearGradient id="paint6_linear_10079_21576949" x1="91.6309" y1="55.0493" x2="91.6309" y2="71.2281" gradientUnits="userSpaceOnUse">
<stop stop-color="#88BBFB"/>
<stop offset="1" stop-color="#88BBFB" stop-opacity="0"/>
</linearGradient>
<linearGradient id="paint7_linear_10079_21576949" x1="91.6777" y1="48.6423" x2="91.6865" y2="82.2732" gradientUnits="userSpaceOnUse">
<stop/>
<stop offset="1" stop-color="#0357CA"/>
</linearGradient>
<linearGradient id="paint8_linear_10079_21576949" x1="42.3029" y1="69.3516" x2="43.765" y2="78.7064" gradientUnits="userSpaceOnUse">
<stop stop-color="#0C57D4"/>
<stop offset="1" stop-color="#0C57D4" stop-opacity="0"/>
</linearGradient>
<linearGradient id="paint9_linear_10079_21576949" x1="27.5225" y1="53.2286" x2="16.247" y2="72.3394" gradientUnits="userSpaceOnUse">
<stop stop-color="#88BBFB"/>
<stop offset="0.671447" stop-color="#063C87"/>
<stop offset="1" stop-color="#88BBFB"/>
</linearGradient>
<linearGradient id="paint10_linear_10079_21576949" x1="95.3754" y1="69.4978" x2="116.948" y2="79.6987" gradientUnits="userSpaceOnUse">
<stop stop-color="#88BBFB"/>
<stop offset="0.671447" stop-color="#063C87"/>
<stop offset="1" stop-color="#88BBFB"/>
</linearGradient>
<clipPath id="clip0_10079_21576949">
<rect width="180" height="160" fill="white"/>
</clipPath>
</defs>
</svg>
