<svg title="Машина" viewBox="0 0 180 160" xmlns="http://www.w3.org/2000/svg" fill="none"><g filter="url(#a)"><path fill="#FFC737" d="M171.334 117.529c-22.079 2.002-82.847-72.714-31.469-63.326 51.377 9.387 47.429 61.88 31.469 63.326Z"/></g><path fill="url(#b)" d="M23.804 89.63h6.308v1.874c3.07 2.953 5.146 9.123 5.146 16.413 0 7.291-2.077 13.461-5.146 16.413v1.874h-6.308c-5.218 0-9.3-8.023-9.3-18.287 0-10.263 4.082-18.286 9.3-18.286Z"/><path fill="url(#c)" d="M23.804 89.63h6.308v1.874c3.07 2.953 5.146 9.123 5.146 16.413 0 7.291-2.077 13.461-5.146 16.413v1.874h-6.308c-5.218 0-9.3-8.023-9.3-18.287 0-10.263 4.082-18.286 9.3-18.286Z"/><path fill="#1C1C1C" d="M30.794 89.63c5.219 0 9.3 8.024 9.3 18.287 0 10.264-4.081 18.287-9.3 18.287-5.218 0-9.299-8.023-9.299-18.287 0-10.263 4.08-18.286 9.3-18.286ZM79.731 81.974h67.317l23.022 6.7v27.348H79.731V81.974Z"/><path fill="url(#d)" d="M152.364 89.63h6.139l1.625 1.874c3.07 2.953 1.535 9.123 1.535 16.413 0 7.291 1.535 13.461-1.535 16.413l-1.625 1.874h-6.139c-5.219 0-9.3-8.023-9.3-18.287 0-10.263 4.081-18.286 9.3-18.286Z"/><path fill="url(#e)" d="M152.364 89.63h6.139l1.625 1.874c3.07 2.953 1.535 9.123 1.535 16.413 0 7.291 1.535 13.461-1.535 16.413l-1.625 1.874h-6.139c-5.219 0-9.3-8.023-9.3-18.287 0-10.263 4.081-18.286 9.3-18.286Z"/><path fill="#1C1C1C" d="M158.474 89.63c5.219 0 9.299 8.024 9.299 18.287 0 10.264-4.08 18.287-9.299 18.287-5.218 0-9.299-8.023-9.299-18.287 0-10.263 4.081-18.286 9.299-18.286Z"/><path fill="url(#f)" d="M158.47 118.262c-2.493 0-4.514-4.632-4.514-10.345 0-5.713 2.021-10.345 4.514-10.345 2.493 0 4.514 4.632 4.514 10.345 0 5.713-2.021 10.345-4.514 10.345Z"/><path fill="url(#g)" d="M158.47 118.262c-2.493 0-4.514-4.632-4.514-10.345 0-5.713 2.021-10.345 4.514-10.345 2.493 0 4.514 4.632 4.514 10.345 0 5.713-2.021 10.345-4.514 10.345Z"/><path fill="url(#h)" d="M159.842 107.918c0-4.439-1.227-8.247-2.943-9.714.488-.407 1.011-.651 1.571-.651 2.492 0 4.514 4.643 4.514 10.344 0 5.723-2.022 10.345-4.514 10.345-.56 0-1.083-.224-1.571-.651 1.716-1.426 2.943-5.214 2.943-9.673Z"/><path fill="url(#i)" d="M159.842 107.918c0-4.439-1.227-8.247-2.943-9.714.488-.407 1.011-.651 1.571-.651 2.492 0 4.514 4.643 4.514 10.344 0 5.723-2.022 10.345-4.514 10.345-.56 0-1.083-.224-1.571-.651 1.716-1.426 2.943-5.214 2.943-9.673Z"/><path fill="#1C1C1C" d="M156.507 113.253c-1.287 0-2.33-2.389-2.33-5.336 0-2.946 1.043-5.335 2.33-5.335 1.286 0 2.329 2.389 2.329 5.335 0 2.947-1.043 5.336-2.329 5.336Z"/><path fill="url(#j)" d="M156.147 111.298c-.808 0-1.463-1.514-1.463-3.381 0-1.866.655-3.38 1.463-3.38s1.462 1.514 1.462 3.38c0 1.867-.654 3.381-1.462 3.381Z"/><path fill="url(#k)" d="M156.147 111.298c-.808 0-1.463-1.514-1.463-3.381 0-1.866.655-3.38 1.463-3.38s1.462 1.514 1.462 3.38c0 1.867-.654 3.381-1.462 3.381Z"/><path stroke="#fff" stroke-miterlimit="10" d="M158.474 122.131c-3.919 0-7.096-6.364-7.096-14.214 0-7.85 3.177-14.213 7.096-14.213s7.096 6.363 7.096 14.213c0 7.85-3.177 14.214-7.096 14.214Z"/><path fill="url(#l)" d="M90.098 89.63h6.14l1.625 1.874c3.069 2.953 1.534 9.123 1.534 16.413 0 7.29 1.535 13.46-1.534 16.413l-1.625 1.873h-6.14c-5.218 0-9.3-8.023-9.3-18.286 0-10.263 4.082-18.287 9.3-18.287Z"/><path fill="url(#m)" d="M90.098 89.63h6.14l1.625 1.874c3.069 2.953 1.534 9.123 1.534 16.413 0 7.29 1.535 13.46-1.534 16.413l-1.625 1.873h-6.14c-5.218 0-9.3-8.023-9.3-18.286 0-10.263 4.082-18.287 9.3-18.287Z"/><path fill="#1C1C1C" d="M96.2 89.63c5.219 0 9.3 8.024 9.3 18.287s-4.081 18.286-9.3 18.286c-5.218 0-9.299-8.023-9.299-18.286 0-10.263 4.081-18.287 9.3-18.287Z"/><path fill="url(#n)" d="M96.204 118.262c-2.493 0-4.514-4.632-4.514-10.345 0-5.713 2.021-10.345 4.514-10.345 2.494 0 4.515 4.632 4.515 10.345 0 5.713-2.021 10.345-4.514 10.345Z"/><path fill="url(#o)" d="M96.204 118.262c-2.493 0-4.514-4.632-4.514-10.345 0-5.713 2.021-10.345 4.514-10.345 2.494 0 4.515 4.632 4.515 10.345 0 5.713-2.021 10.345-4.514 10.345Z"/><path fill="#050304" d="M97.577 107.917c0-4.439-1.228-8.247-2.943-9.713.487-.407 1.01-.652 1.57-.652 2.492 0 4.515 4.643 4.515 10.345 0 5.722-2.023 10.345-4.514 10.345-.56 0-1.084-.224-1.571-.652 1.715-1.425 2.943-5.213 2.943-9.673Z"/><path fill="url(#p)" d="M97.577 107.917c0-4.439-1.228-8.247-2.943-9.713.487-.407 1.01-.652 1.57-.652 2.492 0 4.515 4.643 4.515 10.345 0 5.722-2.023 10.345-4.514 10.345-.56 0-1.084-.224-1.571-.652 1.715-1.425 2.943-5.213 2.943-9.673Z"/><path fill="#1C1C1C" d="M94.233 113.253c-1.286 0-2.33-2.389-2.33-5.336 0-2.946 1.044-5.335 2.33-5.335 1.287 0 2.33 2.389 2.33 5.335 0 2.947-1.043 5.336-2.33 5.336Z"/><path fill="url(#q)" d="M93.865 111.297c-.807 0-1.462-1.514-1.462-3.381 0-1.866.655-3.38 1.462-3.38.808 0 1.463 1.514 1.463 3.38 0 1.867-.655 3.381-1.463 3.381Z"/><path fill="url(#r)" d="M93.865 111.297c-.807 0-1.462-1.514-1.462-3.381 0-1.866.655-3.38 1.462-3.38.808 0 1.463 1.514 1.463 3.38 0 1.867-.655 3.381-1.463 3.381Z"/><path stroke="#fff" stroke-miterlimit="10" d="M96.2 122.131c-3.919 0-7.096-6.364-7.096-14.214 0-7.85 3.177-14.214 7.097-14.214 3.919 0 7.096 6.364 7.096 14.214 0 7.85-3.177 14.214-7.096 14.214Z"/><path fill="url(#s)" d="M12.652 80.548s8.27-3.319 12.767-5.355c3.033-1.365 9.443-2.933 13.326-3.808 1.968-.448 3.792-1.528 5.218-3.116.47-.509 1.011-1.12 1.661-1.812l2.294-2.362c4.911-5.091 12.387-9.184 18.58-11.954 6.248-2.77 12.82-3.177 19.52-3.177 0 0 24.287.082 31.257.082 6.97 0 32.936 1.547 50.758 26.513 3.665 3.177 8.125 8.736 8.523 17.207.108 2.526.108-1.588.108 4.806 0 6.109-.903 18.45-6.898 18.45h-3.106c.488-2.505.741-5.213.741-8.085 0-12.401-4.948-22.135-11.25-22.135s-11.249 9.714-11.249 22.135c0 2.872.271 5.6.74 8.085h-38.768c.469-2.505.74-5.234.74-8.085 0-12.584-5.002-22.44-11.412-22.44-6.41 0-11.412 9.856-11.412 22.44 0 2.872.253 5.6.74 8.085H13.844c-3.485 0-6.464-2.79-7.114-6.639L5.32 90.384l7.332-9.836Z"/><path fill="url(#t)" d="M12.652 80.548s8.27-3.319 12.767-5.355c3.033-1.365 9.443-2.933 13.326-3.808 1.968-.448 3.792-1.528 5.218-3.116.47-.509 1.011-1.12 1.661-1.812l2.294-2.362c4.911-5.091 12.387-9.184 18.58-11.954 6.248-2.77 12.82-3.177 19.52-3.177 0 0 24.287.082 31.257.082 6.97 0 32.936 1.547 50.758 26.513 3.665 3.177 8.125 8.736 8.523 17.207.108 2.526.108-1.588.108 4.806 0 6.109-.903 18.45-6.898 18.45h-3.106c.488-2.505.741-5.213.741-8.085 0-12.401-4.948-22.135-11.25-22.135s-11.249 9.714-11.249 22.135c0 2.872.271 5.6.74 8.085h-38.768c.469-2.505.74-5.234.74-8.085 0-12.584-5.002-22.44-11.412-22.44-6.41 0-11.412 9.856-11.412 22.44 0 2.872.253 5.6.74 8.085H13.844c-3.485 0-6.464-2.79-7.114-6.639L5.32 90.384l7.332-9.836Z" style="mix-blend-mode:hard-light"/><path fill="url(#u)" d="M12.652 80.548s8.27-3.319 12.767-5.355c3.033-1.365 9.443-2.933 13.326-3.808 1.968-.448 3.792-1.528 5.218-3.116.47-.509 1.011-1.12 1.661-1.812l2.294-2.362c4.911-5.091 12.387-9.184 18.58-11.954 6.248-2.77 12.82-3.177 19.52-3.177 0 0 24.287.082 31.257.082 6.97 0 32.936 1.547 50.758 26.513 3.665 3.177 8.125 8.736 8.523 17.207.108 2.526.108-1.588.108 4.806 0 6.109-.903 18.45-6.898 18.45h-3.106c.488-2.505.741-5.213.741-8.085 0-12.401-4.948-22.135-11.25-22.135s-11.249 9.714-11.249 22.135c0 2.872.271 5.6.74 8.085h-38.768c.469-2.505.74-5.234.74-8.085 0-12.584-5.002-22.44-11.412-22.44-6.41 0-11.412 9.856-11.412 22.44 0 2.872.253 5.6.74 8.085H13.844c-3.485 0-6.464-2.79-7.114-6.639L5.32 90.384l7.332-9.836Z"/><path fill="url(#v)" d="M148.602 77.738s-36.855-6.435-58.523 1.1c0 0 7.35.937 19.303.57 11.972-.367 39.22-1.67 39.22-1.67Z" style="mix-blend-mode:soft-light"/><g filter="url(#w)"><path fill="url(#x)" d="m52.74 90.364 32.087-11.526s.199 8.553-4.569 10.772c-4.766 2.22-18.652 3.89-22.173 2.83-3.522-1.078-5.345-2.076-5.345-2.076Z"/></g><path fill="#1C1C1C" d="M82.714 50.594h23.42c1.228 0 1.95 1.466 1.246 2.545l-9.047 13.99c-2.112 3.502-1.643 3.299-5.886 3.299H44.36c-.993 0-1.48-1.303-.74-2.036l2.672-2.627c9.931-9.755 22.932-15.171 36.42-15.171Z"/><path fill="url(#y)" d="M82.714 50.594h23.42c1.228 0 1.95 1.466 1.246 2.545l-9.047 13.99c-2.112 3.502-1.643 3.299-5.886 3.299H44.36c-.993 0-1.48-1.303-.74-2.036l2.672-2.627c9.931-9.755 22.932-15.171 36.42-15.171Z"/><mask id="A" width="65" height="21" x="43" y="50" maskUnits="userSpaceOnUse" style="mask-type:alpha"><path fill="url(#z)" d="M82.73 50.716h23.419c1.228 0 1.951 1.466 1.246 2.545l-9.046 13.99c-2.113 3.503-1.643 3.299-5.887 3.299H44.376c-.993 0-1.48-1.303-.74-2.036l2.672-2.627c9.932-9.755 22.933-15.171 36.422-15.171Z"/></mask><g mask="url(#A)"><mask id="C" width="108" height="34" x="35" y="39" maskUnits="userSpaceOnUse" style="mask-type:alpha"><path fill="url(#B)" d="M138.165 46.223c-23.224 3.948-58.589 18.01-64.91 23.284v3.483l-37.7-3.483 37.7-28.614c2.752-4.5 88.134 1.383 64.91 5.33Z"/></mask><g mask="url(#C)"><path fill="url(#D)" d="M110.559 49.253c-23.224 3.948-58.588 18.01-64.91 23.284v3.483l60.283-1.076 15.87-17.127c2.753-4.5 11.982-12.512-11.243-8.564Z"/></g></g><path fill="url(#E)" d="M94.43 73.503s-16.432 2.77-24.576 6.435c-8.144 3.665-11.466 6.516-11.466 6.516s9.137-4.561 18.563-7.595c9.425-3.035 17.479-5.356 17.479-5.356Z"/><path fill="url(#F)" d="M160.109 80.691s-14.716-1.038-17.497 18.328c-1.174 8.125 6.681 17.024 6.681 17.024l-.487-17.024 9.155-13.888 2.148-4.44Z" opacity=".5"/><path fill="url(#G)" d="M97.734 80.69s-14.716-1.038-17.497 18.328c-1.174 8.125 6.681 17.024 6.681 17.024l-.487-17.024 9.155-13.908 2.148-4.42Z"/><path fill="url(#H)" d="M84.702 81.2c-3.413 1.405-16.324 6.618-28.91 10.467-.74-.265-1.336-.509-1.805-.713l-.578-.264c13.994-4.154 29.379-10.427 31.42-11.282a32.387 32.387 0 0 1-.127 1.792Z"/><path fill="url(#I)" fill-opacity=".5" d="M84.702 81.2c-3.413 1.405-16.324 6.618-28.91 10.467-.74-.265-1.336-.509-1.805-.713l-.578-.264c13.994-4.154 29.379-10.427 31.42-11.282a32.387 32.387 0 0 1-.127 1.792Z"/><path fill="url(#J)" d="M105.807 116.022c.253-1.975.38-4.032.38-6.13 0-12.401-4.461-22.501-9.968-22.501s-9.967 10.1-9.967 22.501c0 2.098.126 4.155.379 6.13 0 0-4.876-11.078.234-24.233 2.059-5.294 5.725-7.921 9.354-7.921 3.63 0 7.241 2.647 9.354 7.921 5.11 12.768.234 24.233.234 24.233Z"/><path fill="url(#K)" d="M167.881 116.022c.252-1.975.379-4.032.379-6.13 0-12.401-4.46-22.501-9.968-22.501-5.507 0-9.967 10.1-9.967 22.501 0 2.098.126 4.155.379 6.13 0 0-5.092-12.544.235-24.233 2.347-5.132 5.724-7.921 9.353-7.921 3.63 0 6.952 2.81 9.354 7.921 2.257 4.786 2.943 10.813 2.058 18.103-.559 4.521-1.823 6.13-1.823 6.13Z"/><path fill="url(#L)" d="M47.634 72.81h30.491c-6.681 1.772-11.9 4.032-15.655 6.028-5.995 3.177-9.483 4.826-13.15 4.826H16.07s3.034-3.97 16.794-8.491a47.005 47.005 0 0 1 14.77-2.362Z"/><path fill="url(#M)" d="m58.18 98.713 8 .224c1.86.061 3.54 1.303 4.316 3.197l1.661 4.052c.126.326-.162.652-.451.509l-13.688-7.249c-.325-.183-.198-.733.163-.733Z"/><path fill="url(#N)" fill-rule="evenodd" d="M58.185 97.501h-.014c-.74 0-1.243.59-1.383 1.212-.142.63.06 1.434.738 1.816l.012.007 13.712 7.263.013.006c1.195.59 2.387-.776 1.872-2.103l-.005-.012-1.666-4.064c-.949-2.314-2.996-3.826-5.262-3.9H66.2l-8.015-.225Zm12.301 4.633c-.776-1.894-2.456-3.136-4.316-3.197l-7.999-.224c-.361 0-.487.55-.162.733l13.687 7.249c.289.143.578-.183.451-.509l-1.661-4.052Z" clip-rule="evenodd"/><path fill="url(#O)" d="m58.18 98.713 8 .224c1.86.061 3.54 1.303 4.316 3.197l1.661 4.052c.126.326-.162.652-.451.509l-13.688-7.249c-.325-.183-.198-.733.163-.733Z"/><path fill="url(#P)" d="M158.172 75.519c3.864-2.363 8.162-1.1 10.275-.062 2.112 1.039 3.557 2.709 4.135 3.809l1.661 4.052c.126.326-.163.651-.452.509 0 0-4.171-2.403-9.281-4.256-4.658-1.67-8.18-2.932-6.338-4.052Z"/><path fill="url(#Q)" d="M158.172 75.519c3.864-2.363 8.162-1.1 10.275-.062 2.112 1.039 3.557 2.709 4.135 3.809l1.661 4.052c.126.326-.163.651-.452.509 0 0-4.171-2.403-9.281-4.256-4.658-1.67-8.18-2.932-6.338-4.052Z"/><path fill="#fff" d="m8.297 98.713-1.968.224c-.578.061-.993.346-.993 3.197s1.192 4.297 1.192 4.297c-.037.326 2.347-6.985 2.347-6.985.108-.183.072-.733-.578-.733ZM18.122 107.713h29.415c2.437 0 4.604-1.751 5.38-4.337l2.294-7.494-1.842-1.833c-3.467-3.42-7.927-5.315-12.531-5.315H23.25c-5.273 0-10.31 2.464-13.904 6.822l-.144.163 3.828 8.492c.993 2.138 2.961 3.502 5.092 3.502Z"/><path fill="url(#R)" d="M18.122 107.713h29.415c2.437 0 4.604-1.751 5.38-4.337l2.294-7.494-1.842-1.833c-3.467-3.42-7.927-5.315-12.531-5.315H23.25c-5.273 0-10.31 2.464-13.904 6.822l-.144.163 3.828 8.492c.993 2.138 2.961 3.502 5.092 3.502Z"/><path fill="url(#S)" fill-rule="evenodd" d="m57.094 95.326-2.653-2.64-.003-.003c-3.76-3.71-8.599-5.766-13.597-5.766H23.254c-5.712 0-11.17 2.664-15.069 7.379l-.95 1.072 4.362 9.675.004.01c1.266 2.725 3.78 4.478 6.524 4.478H47.54c3.128 0 5.91-2.244 6.91-5.568l2.644-8.637Zm-4.173 8.05c-.776 2.586-2.943 4.338-5.38 4.338H18.124c-2.13 0-4.099-1.365-5.092-3.503l-3.828-8.492.145-.162c3.593-4.358 8.63-6.822 13.904-6.822H40.84c4.605 0 9.065 1.894 12.532 5.315l1.841 1.832-2.293 7.494Z" clip-rule="evenodd"/><g filter="url(#T)"><path fill="url(#U)" d="M18.122 107.76h29.415c2.437 0 4.604-1.751 5.38-4.337l2.294-7.494-1.842-1.833c-3.467-3.42-7.927-5.315-12.531-5.315H23.25c-5.273 0-10.31 2.464-13.904 6.822l-.144.163 3.828 8.492c.993 2.138 2.961 3.502 5.092 3.502Z"/><path fill="url(#V)" d="M18.122 107.76h29.415c2.437 0 4.604-1.751 5.38-4.337l2.294-7.494-1.842-1.833c-3.467-3.42-7.927-5.315-12.531-5.315H23.25c-5.273 0-10.31 2.464-13.904 6.822l-.144.163 3.828 8.492c.993 2.138 2.961 3.502 5.092 3.502Z"/></g><path fill="#1C1C1C" d="M14.505 106.248a2.201 2.201 0 0 1-.199-.204H51.36c-.072.061-.126.142-.198.204H14.505ZM53.016 103.05l-.073.204H12.604l-.09-.204h40.502ZM55.078 95.74H9.231l-.018-.02.145-.163H54.86l.217.183ZM53.945 100.037l-.072.203H11.26l-.09-.203h42.776ZM52.438 104.537c-.037.061-.073.143-.109.204H13.326c-.036-.061-.072-.143-.108-.204h39.22ZM53.469 101.543l-.054.204H11.938l-.09-.204h41.62ZM49.389 91.036c.126.061.235.143.361.204H14.34c.109-.061.235-.143.343-.204H49.39ZM51.63 92.543c.09.061.18.142.253.204H12.175c.09-.061.163-.143.253-.204H51.63ZM45.982 89.529c.199.06.398.142.596.203H17.506a5.59 5.59 0 0 1 .614-.203h27.862ZM54.844 97.043l-.054.204H9.9l-.09-.204h45.034ZM53.348 94.03c0 .02.018.02 0 0l.199.203H10.535c.072-.061.127-.143.199-.204h42.614ZM54.39 98.55l-.072.203H10.584l-.108-.203h43.915ZM138.885 116.022c.217-1.69.397-3.502.614-5.437.361-3.401.741-6.923 1.192-9.611 1.264-7.576 3.268-12.931 9.715-17.94.289-.225.577-.449.83-.652 2.149-1.65 3.341-2.566 3.016-3.992-.289-1.344-1.571-2.77-2.799-4.154-1.102-1.242-2.257-2.525-2.582-3.686l-.163.061c.361 1.202 1.463 2.444 2.637 3.768 1.209 1.364 2.455 2.77 2.744 4.052.289 1.283-.867 2.179-2.943 3.767-.271.204-.542.428-.849.652-6.5 5.05-8.505 10.447-9.787 18.083-.451 2.708-.83 6.211-1.191 9.632a214.262 214.262 0 0 1-.614 5.437l.18.02Z"/><path fill="url(#W)" d="M21.38 109.038h14.225c4.93 0 14.68 1.099 18.383 3.115l4.965 2.688H10.152c-.973 0 4.596-5.803 11.229-5.803Z"/><mask id="aa" width="172" height="69" x="5" y="48" maskUnits="userSpaceOnUse" style="mask-type:alpha"><path fill="url(#X)" d="M12.652 80.548s8.27-3.319 12.767-5.355c3.033-1.365 9.443-2.933 13.326-3.808 1.968-.448 3.792-1.528 5.218-3.116.47-.509 1.011-1.12 1.661-1.812l2.294-2.362c4.911-5.091 12.387-9.184 18.58-11.954 6.248-2.77 12.82-3.177 19.52-3.177 0 0 24.287.082 31.257.082 6.97 0 32.936 1.547 50.758 26.513 3.665 3.177 8.125 8.736 8.523 17.207.108 2.526.108-1.588.108 4.806 0 6.109-.903 18.45-6.898 18.45h-3.106c.488-2.505.741-5.213.741-8.085 0-12.401-4.948-22.135-11.25-22.135s-11.249 9.714-11.249 22.135c0 2.872.271 5.6.74 8.085h-38.768c.469-2.505.74-5.234.74-8.085 0-12.584-5.002-22.44-11.412-22.44-6.41 0-11.412 9.856-11.412 22.44 0 2.872.253 5.6.74 8.085H13.844c-3.485 0-6.464-2.79-7.114-6.639L5.32 90.384l7.332-9.836Z"/><path fill="url(#Y)" d="M12.652 80.548s8.27-3.319 12.767-5.355c3.033-1.365 9.443-2.933 13.326-3.808 1.968-.448 3.792-1.528 5.218-3.116.47-.509 1.011-1.12 1.661-1.812l2.294-2.362c4.911-5.091 12.387-9.184 18.58-11.954 6.248-2.77 12.82-3.177 19.52-3.177 0 0 24.287.082 31.257.082 6.97 0 32.936 1.547 50.758 26.513 3.665 3.177 8.125 8.736 8.523 17.207.108 2.526.108-1.588.108 4.806 0 6.109-.903 18.45-6.898 18.45h-3.106c.488-2.505.741-5.213.741-8.085 0-12.401-4.948-22.135-11.25-22.135s-11.249 9.714-11.249 22.135c0 2.872.271 5.6.74 8.085h-38.768c.469-2.505.74-5.234.74-8.085 0-12.584-5.002-22.44-11.412-22.44-6.41 0-11.412 9.856-11.412 22.44 0 2.872.253 5.6.74 8.085H13.844c-3.485 0-6.464-2.79-7.114-6.639L5.32 90.384l7.332-9.836Z"/><path fill="url(#Z)" d="M12.652 80.548s8.27-3.319 12.767-5.355c3.033-1.365 9.443-2.933 13.326-3.808 1.968-.448 3.792-1.528 5.218-3.116.47-.509 1.011-1.12 1.661-1.812l2.294-2.362c4.911-5.091 12.387-9.184 18.58-11.954 6.248-2.77 12.82-3.177 19.52-3.177 0 0 24.287.082 31.257.082 6.97 0 32.936 1.547 50.758 26.513 3.665 3.177 8.125 8.736 8.523 17.207.108 2.526.108-1.588.108 4.806 0 6.109-.903 18.45-6.898 18.45h-3.106c.488-2.505.741-5.213.741-8.085 0-12.401-4.948-22.135-11.25-22.135s-11.249 9.714-11.249 22.135c0 2.872.271 5.6.74 8.085h-38.768c.469-2.505.74-5.234.74-8.085 0-12.584-5.002-22.44-11.412-22.44-6.41 0-11.412 9.856-11.412 22.44 0 2.872.253 5.6.74 8.085H13.844c-3.485 0-6.464-2.79-7.114-6.639L5.32 90.384l7.332-9.836Z"/></mask><g mask="url(#aa)"><g style="mix-blend-mode:screen"><path fill="url(#ab)" d="M-9.01 100.945c-.241-.261-.014-.674.307-.558l8.813 3.175 1.368.489c5.482 1.958 8.355 8.576 6.086 14.018l-2.1-1.108-.563-3.561c-.549-3.465-2.676-6.502-5.658-8.076l-8.16-4.306a.34.34 0 0 1-.094-.073Z"/><path fill="url(#ac)" d="M-9.01 100.945c-.241-.261-.014-.674.307-.558l8.813 3.175 1.368.489c5.482 1.958 8.355 8.576 6.086 14.018l-2.1-1.108-.563-3.561c-.549-3.465-2.676-6.502-5.658-8.076l-8.16-4.306a.34.34 0 0 1-.094-.073Z"/></g><path fill="url(#ad)" d="M5.016 119.229c0-13.805 11.19-24.996 24.996-24.996h31.344A20 20 0 0 1 80.21 107.56l4.13 11.668H5.015Z" style="mix-blend-mode:multiply"/></g><path fill="url(#ae)" d="m98.932 70.428 44.962.142s.397.02 7.547.02c7.151 0 6.591-2.402 5.634-3.502C142.9 50.635 115.67 50.94 115.67 50.94c-1.426-.204-2.871.265-3.755 1.222-1.987 2.158-3.901 5.416-7.169 10.04-2.745 3.889-5.814 8.226-5.814 8.226Z"/><mask id="ag" width="60" height="21" x="98" y="50" maskUnits="userSpaceOnUse" style="mask-type:alpha"><path fill="url(#af)" d="m98.932 70.428 44.962.142s.397.02 7.547.02c7.151 0 6.591-2.402 5.634-3.502C142.9 50.635 115.67 50.94 115.67 50.94c-1.426-.204-2.871.265-3.755 1.222-1.987 2.158-3.901 5.416-7.169 10.04-2.745 3.889-5.814 8.226-5.814 8.226Z"/></mask><g mask="url(#ag)"><path fill="url(#ah)" d="M142.448 58.617c-9.622-2.706-34.886 5.078-48.167 13.605l57.321 4.44c2.193-7.752.469-15.338-9.154-18.045Z" style="mix-blend-mode:overlay"/></g><path fill="url(#ai)" d="m131.18 70.51 25.388.102.018.02-25.406-.102v-.02Z"/><path fill="#1C1C1C" d="M104.922 70.164c-.108.163-.181.264-.181.264h.181v.02l-6.013-.02s2.961-4.663 5.868-8.226c.055-.062.091-.123.145-.163v8.125ZM142.304 56.336c.036.02.054.02.09.041l.271.122c.163.082.307.143.47.224l.27.123c.235.101.452.224.687.346.054.02.126.06.18.102.181.101.361.183.542.285.09.04.18.101.271.142.162.082.325.183.487.265.091.04.163.081.253.142.235.123.451.265.686.387.072.041.127.082.199.123.18.101.343.203.523.305.091.061.163.102.253.163.181.102.343.224.524.326.072.04.126.081.199.122.234.142.451.285.686.448.072.04.144.102.216.142.163.123.343.224.506.347.072.06.163.101.235.163.198.142.379.264.578.407.036.02.09.06.126.081.217.163.451.326.668.51.072.06.145.101.217.162.162.122.325.265.487.387.073.061.145.122.217.163.217.183.451.367.668.55.018.02.036.04.072.061.199.163.398.346.596.53.072.06.145.122.199.183.162.142.325.285.487.448.055.06.127.102.181.163.217.203.415.407.632.61.036.041.072.082.126.123.181.163.343.346.524.53.072.06.126.142.199.203.162.163.325.346.487.509.054.061.09.102.145.142l.595.672a.34.34 0 0 1 .073.102c.921 1.12 1.372 3.442-5.688 3.442h-2.619c-1.209-3.89-4.008-9.612-6.518-14.296ZM135.258 70.55l-5.544-.02c-2.203-10.467-5.507-16.474-7.331-19.162 1.661.183 3.557.448 5.616.835 1.643 2.402 4.785 7.962 7.259 18.347ZM50.759 91.24c.415-.163 42.163-16.19 43.463-16.413.596-.122.903-1.14.903-3.034 0-.491-.02-.98-.047-1.406l-.172.067c.105 1.743.066 4.03-.702 4.17-1.318.244-41.766 15.76-43.5 16.433l.055.183ZM9.594 87.513l3.774-1.262a5.42 5.42 0 0 0 1.318-.652 4.879 4.879 0 0 1 2.763-.876h30.264c.722 0 1.426.163 2.076.489l.686.326c.578.285 1.21.448 1.842.489l7.837.509.018-.204-7.837-.51a4.89 4.89 0 0 1-1.77-.467l-.686-.326a4.97 4.97 0 0 0-2.148-.489H17.485a5.006 5.006 0 0 0-2.853.916 4.66 4.66 0 0 1-1.264.632L9.594 87.35v.163ZM43.632 68.392c-.451.427-.451 1.079-.144 1.527a1.181 1.181 0 0 1 .144-1.527l.759-.754-.759.754ZM75.203 51.164ZM71.5 51.856ZM57.989 114.596h16.793c1.48 0 2.817-.835 3.611-2.24.795-1.405.885-3.136.253-4.643l-3.051-7.29c-1.282-3.075-4.063-5.05-7.079-5.05H56.761a1.88 1.88 0 0 1-1.156-.407l-3.593-2.81-.108.162 3.593 2.79c.38.285.813.448 1.264.448h11.755c2.944 0 5.652 1.934 6.916 4.948l3.052 7.291c.596 1.445.505 3.095-.253 4.439-.758 1.344-2.04 2.138-3.449 2.138H57.989v.224Z"/><path fill="#1C1C1C" d="M129.804 116.042c.018-.081 2.546-8.654 3.701-19.997 1.048-10.487 1.12-25.556-4.604-37.815-1.535-3.279-2.998-6.231-4.352-8.756l-.162.102c1.354 2.524 2.816 5.477 4.351 8.756 5.688 12.218 5.634 27.246 4.587 37.713-1.138 11.322-3.666 19.875-3.684 19.957l.163.04ZM105.378 69.634h9.552c.795 0 1.445-.734 1.445-1.63v-2.586c0-.855-.578-1.547-1.318-1.629l-8.487-.896c-.668-.06-1.282.387-1.499 1.1l-1.065 3.462c-.325 1.079.379 2.179 1.372 2.179Z"/><path fill="url(#aj)" d="M105.073 63.993c.217-.713.849-1.16 1.499-1.1l8.487.896c.379.041.704.245.957.55-1.517 1.874-4.749 4.928-9.968 5.295h-.668c-.993 0-1.697-1.12-1.372-2.18l1.065-3.461Z"/><path fill="url(#ak)" d="M105.073 63.993c.217-.713.849-1.16 1.499-1.1l8.487.896c.379.041.704.245.957.55-1.517 1.874-4.749 4.928-9.968 5.295h-.668c-.993 0-1.697-1.12-1.372-2.18l1.065-3.461Z"/><path fill="url(#al)" d="M12.555 90.425s-5.562-2.81 0-9.836c-4.695 1.426-7.458 6.618-7.223 9.775.199 2.525 2.474 2.382 4.37 2.057 1.101-.184 2.853-1.996 2.853-1.996Z"/><path fill="url(#am)" d="M91.938 71.854s-18.6-1.63-32.196 6.984c-13.597 8.614-11.9 10.793-11.9 10.793s5.923-6.394 17.696-11.363c11.773-4.969 26.4-6.414 26.4-6.414Z"/><path fill="url(#an)" d="M105.755 65.602c0 .957.271 1.914 1.608 1.914 1.336 0 4.153-1.69 4.153-2.647 0-.957-1.987-.998-3.341-.998-1.336.02-2.42.774-2.42 1.731Z"/><g filter="url(#ao)"><path fill="#fff" d="m59.638 86.706.537-8.02.536 8.02 7.13.604-7.13.603-.536 18.233-.537-18.233-7.13-.603 7.13-.604Z"/></g><g filter="url(#ap)"><path fill="#fff" d="m11.318 88.32.536-8.021.537 8.02 7.13.605-7.13.603-.537 18.233-.536-18.233-7.13-.603 7.13-.604Z"/></g><path fill="url(#aq)" d="M15.803 108.715h32.093l5.387 1.892H13.109l2.694-1.892Z"/><path fill="url(#ar)" d="M15.803 108.715h32.093l5.387 1.892H13.109l2.694-1.892Z"/><g style="mix-blend-mode:screen"><path fill="url(#as)" d="M73.574 100.201a.652.652 0 0 1 1.032.233l2.446 5.739c1.577 3.629-1.082 7.685-5.039 7.685H59.437V112.4l9.745-2.089a5.28 5.28 0 0 0 4.172-5.161v-4.46c0-.187.08-.365.22-.489Z"/><path fill="url(#at)" d="M73.574 100.201a.652.652 0 0 1 1.032.233l2.446 5.739c1.577 3.629-1.082 7.685-5.039 7.685H59.437V112.4l9.745-2.089a5.28 5.28 0 0 0 4.172-5.161v-4.46c0-.187.08-.365.22-.489Z"/></g><path fill="url(#au)" d="M100.922 71.938h45.593v2.237l-45.593-2.237Z"/><path fill="url(#av)" d="M0 0h21.713v.959H0z" transform="matrix(.54166 -.8406 .77498 .63199 97.734 69.335)"/><g filter="url(#aw)"><path fill="url(#ax)" d="M89.23 139.6c46.968 0 85.043-1.943 85.043-4.34 0-2.396-38.075-4.339-85.042-4.339-46.968 0-85.043 1.943-85.043 4.339 0 2.397 38.075 4.34 85.043 4.34Z"/></g><g filter="url(#ay)"><path fill="#B5E2FF" d="m73.594 23.16-5.774 10h11.547l-5.773-10Zm1 21.322V32.16h-2v12.322h2Z"/></g><path fill="#B5E2FF" d="m166.234 25.337-8.66 15h17.321l-8.661-15Zm1.5 31.445V38.837h-3v17.945h3ZM23.672 25.301l-11.547 20h23.094l-11.547-20Zm2 40.071V43.301h-4v22.071h4Z"/><defs><linearGradient id="b" x1="21.504" x2="25.628" y1="119.761" y2="130.73" gradientUnits="userSpaceOnUse"><stop/><stop offset="1" stop-color="#5AB94C"/></linearGradient><linearGradient id="c" x1="13.881" x2="17.476" y1="115.908" y2="115.908" gradientUnits="userSpaceOnUse"><stop stop-color="#157DFF"/><stop offset="1" stop-color="#0366DB" stop-opacity=".021"/></linearGradient><linearGradient id="d" x1="148.425" x2="141.954" y1="114.596" y2="124.288" gradientUnits="userSpaceOnUse"><stop/><stop offset="1" stop-color="#FFCA42"/></linearGradient><linearGradient id="e" x1="142.494" x2="145.782" y1="115.908" y2="115.908" gradientUnits="userSpaceOnUse"><stop stop-color="#157DFF"/><stop offset="1" stop-color="#0366DB" stop-opacity=".021"/></linearGradient><linearGradient id="f" x1="152.094" x2="153.605" y1="97.572" y2="105.954" gradientUnits="userSpaceOnUse"><stop/><stop offset="1" stop-color="#3137C5"/></linearGradient><linearGradient id="g" x1="153.684" x2="155.249" y1="112.437" y2="112.437" gradientUnits="userSpaceOnUse"><stop stop-color="#157DFF"/><stop offset="1" stop-color="#0366DB" stop-opacity=".021"/></linearGradient><linearGradient id="h" x1="161.162" x2="152.318" y1="105.856" y2="106.769" gradientUnits="userSpaceOnUse"><stop/><stop offset="1" stop-color="#3137C5"/></linearGradient><linearGradient id="i" x1="156.716" x2="157.77" y1="112.418" y2="112.418" gradientUnits="userSpaceOnUse"><stop stop-color="#157DFF"/><stop offset="1" stop-color="#0366DB" stop-opacity=".021"/></linearGradient><linearGradient id="j" x1="156.733" x2="154.683" y1="107.25" y2="108.228" gradientUnits="userSpaceOnUse"><stop/><stop offset="1" stop-color="#3137C5"/></linearGradient><linearGradient id="k" x1="154.596" x2="155.103" y1="109.395" y2="109.395" gradientUnits="userSpaceOnUse"><stop stop-color="#157DFF"/><stop offset="1" stop-color="#0366DB" stop-opacity=".021"/></linearGradient><linearGradient id="l" x1="86.756" x2="83.197" y1="116.365" y2="124.809" gradientUnits="userSpaceOnUse"><stop/><stop offset="1" stop-color="#8AD557"/></linearGradient><linearGradient id="m" x1="80.228" x2="83.517" y1="115.907" y2="115.907" gradientUnits="userSpaceOnUse"><stop stop-color="#157DFF"/><stop offset="1" stop-color="#0366DB" stop-opacity=".021"/></linearGradient><linearGradient id="n" x1="91.69" x2="96.713" y1="107.361" y2="108.218" gradientUnits="userSpaceOnUse"><stop/><stop offset="1" stop-color="#3137C5"/></linearGradient><linearGradient id="o" x1="91.419" x2="92.983" y1="112.437" y2="112.437" gradientUnits="userSpaceOnUse"><stop stop-color="#157DFF"/><stop offset="1" stop-color="#0366DB" stop-opacity=".021"/></linearGradient><linearGradient id="p" x1="95.163" x2="101.563" y1="117.228" y2="114.463" gradientUnits="userSpaceOnUse"><stop stop-color="#3B4B80"/><stop offset="1" stop-color="#3B4B80" stop-opacity="0"/></linearGradient><linearGradient id="q" x1="94.452" x2="92.402" y1="107.249" y2="108.227" gradientUnits="userSpaceOnUse"><stop/><stop offset="1" stop-color="#3137C5"/></linearGradient><linearGradient id="r" x1="92.315" x2="92.822" y1="109.394" y2="109.394" gradientUnits="userSpaceOnUse"><stop stop-color="#157DFF"/><stop offset="1" stop-color="#0366DB" stop-opacity=".021"/></linearGradient><linearGradient id="s" x1="207.226" x2="58.424" y1="123.695" y2="136.125" gradientUnits="userSpaceOnUse"><stop/><stop offset=".526" stop-color="#42AB44"/><stop offset=".891" stop-color="#AAE75A"/></linearGradient><linearGradient id="t" x1="5.321" x2="29.855" y1="97.611" y2="97.242" gradientUnits="userSpaceOnUse"><stop stop-color="#E1EEF6"/><stop offset="1" stop-color="#0366DB" stop-opacity=".021"/></linearGradient><linearGradient id="u" x1="127.513" x2="120.046" y1="121.841" y2="97.873" gradientUnits="userSpaceOnUse"><stop stop-color="#2B32AB"/><stop offset="1" stop-color="#232888" stop-opacity="0"/></linearGradient><linearGradient id="v" x1="119.34" x2="119.34" y1="75.178" y2="79.493" gradientUnits="userSpaceOnUse"><stop stop-color="#88BBFB"/><stop offset="1" stop-color="#88BBFB" stop-opacity="0"/></linearGradient><linearGradient id="x" x1="76.686" x2="83.331" y1="89.125" y2="84.139" gradientUnits="userSpaceOnUse"><stop stop-color="#fff"/><stop offset="1" stop-color="#6DAEE3"/></linearGradient><linearGradient id="y" x1="77.958" x2="79.684" y1="52.271" y2="66.569" gradientUnits="userSpaceOnUse"><stop stop-color="#020306"/><stop offset="1" stop-color="#2F36BB"/></linearGradient><linearGradient id="z" x1="75.475" x2="75.475" y1="50.716" y2="70.552" gradientUnits="userSpaceOnUse"><stop stop-color="#3B4B81"/><stop offset="1" stop-color="#8BCBFF"/></linearGradient><linearGradient id="B" x1="88.765" x2="84.227" y1="70.852" y2="58.86" gradientUnits="userSpaceOnUse"><stop stop-color="#fff" stop-opacity="0"/><stop offset="1" stop-color="#A8D8FF"/></linearGradient><linearGradient id="D" x1="61.159" x2="56.621" y1="73.882" y2="61.89" gradientUnits="userSpaceOnUse"><stop stop-color="#fff" stop-opacity="0"/><stop offset="1" stop-color="#A8D8FF"/></linearGradient><linearGradient id="E" x1="73.608" x2="91.061" y1="85.567" y2="75.754" gradientUnits="userSpaceOnUse"><stop stop-color="#fff" stop-opacity="0"/><stop offset="1" stop-color="#6DAEE3"/></linearGradient><linearGradient id="F" x1="154.115" x2="142.667" y1="94.695" y2="85.029" gradientUnits="userSpaceOnUse"><stop stop-color="#fff" stop-opacity="0"/><stop offset="1" stop-color="#6DAEE3"/></linearGradient><linearGradient id="G" x1="91.74" x2="80.292" y1="94.694" y2="85.028" gradientUnits="userSpaceOnUse"><stop stop-color="#fff" stop-opacity="0"/><stop offset="1" stop-color="#6DAEE3"/></linearGradient><linearGradient id="H" x1="70.704" x2="71.602" y1="79.239" y2="91.602" gradientUnits="userSpaceOnUse"><stop stop-color="#C2DBEC"/><stop offset=".653" stop-color="#F3FAFE"/><stop offset="1" stop-color="#fff"/></linearGradient><linearGradient id="I" x1="80.345" x2="82.541" y1="81.444" y2="90.678" gradientUnits="userSpaceOnUse"><stop stop-color="#fff"/><stop offset="1" stop-color="#fff" stop-opacity="0"/></linearGradient><linearGradient id="J" x1="99.953" x2="89.619" y1="96.61" y2="83.879" gradientUnits="userSpaceOnUse"><stop stop-color="#fff" stop-opacity="0"/><stop offset="1" stop-color="#6DAEE3"/></linearGradient><linearGradient id="K" x1="162.058" x2="151.743" y1="96.61" y2="83.795" gradientUnits="userSpaceOnUse"><stop stop-color="#fff" stop-opacity="0"/><stop offset="1" stop-color="#FFCA42"/></linearGradient><linearGradient id="L" x1="53.198" x2="33.713" y1="72.811" y2="96.702" gradientUnits="userSpaceOnUse"><stop stop-color="#fff" stop-opacity="0"/><stop offset=".521" stop-color="#D6ECFF"/><stop offset="1" stop-color="#6DAEE3"/></linearGradient><linearGradient id="M" x1="67.302" x2="65.737" y1="101.89" y2="97.14" gradientUnits="userSpaceOnUse"><stop stop-color="#fff" stop-opacity="0"/><stop offset="1" stop-color="#6DAEE3"/></linearGradient><linearGradient id="N" x1="67.639" x2="65.392" y1="101.64" y2="95.619" gradientUnits="userSpaceOnUse"><stop stop-color="#fff" stop-opacity="0"/><stop offset="1" stop-color="#6DAEE3"/></linearGradient><linearGradient id="O" x1="68.544" x2="72.012" y1="104.634" y2="102.611" gradientUnits="userSpaceOnUse"><stop stop-color="#fff"/><stop offset="1" stop-color="#6DAEE3"/></linearGradient><linearGradient id="P" x1="169.301" x2="166.174" y1="78.063" y2="83.968" gradientUnits="userSpaceOnUse"><stop/><stop offset="1" stop-color="#DC9E00"/></linearGradient><linearGradient id="Q" x1="171.029" x2="162.329" y1="86.514" y2="76.262" gradientUnits="userSpaceOnUse"><stop stop-color="#FEB73F"/><stop offset=".865" stop-color="#FFCA42" stop-opacity="0"/></linearGradient><linearGradient id="R" x1="39.556" x2="36.691" y1="96.255" y2="84.487" gradientUnits="userSpaceOnUse"><stop stop-color="#fff" stop-opacity="0"/><stop offset="1" stop-color="#6DAEE3"/></linearGradient><linearGradient id="S" x1="40.128" x2="36.419" y1="95.879" y2="82.019" gradientUnits="userSpaceOnUse"><stop stop-color="#fff" stop-opacity="0"/><stop offset="1" stop-color="#6DAEE3"/></linearGradient><linearGradient id="U" x1="55.211" x2="40.996" y1="85.242" y2="112.366" gradientUnits="userSpaceOnUse"><stop/><stop offset="1" stop-color="#3137C5"/></linearGradient><linearGradient id="V" x1="7.819" x2="15.789" y1="102.417" y2="102.417" gradientUnits="userSpaceOnUse"><stop stop-color="#157DFF"/><stop offset="1" stop-color="#0366DB" stop-opacity=".021"/></linearGradient><linearGradient id="W" x1="32.222" x2="32.222" y1="109.038" y2="114.841" gradientUnits="userSpaceOnUse"><stop stop-color="#6DAEE3"/><stop offset="1" stop-color="#fff" stop-opacity="0"/></linearGradient><linearGradient id="X" x1="154.508" x2="93.004" y1="90.208" y2="83.232" gradientUnits="userSpaceOnUse"><stop/><stop offset="1" stop-color="#42AB44"/></linearGradient><linearGradient id="Y" x1="5.321" x2="29.855" y1="97.611" y2="97.242" gradientUnits="userSpaceOnUse"><stop stop-color="#E1EEF6"/><stop offset="1" stop-color="#0366DB" stop-opacity=".021"/></linearGradient><linearGradient id="Z" x1="129.879" x2="121.878" y1="128.671" y2="102.254" gradientUnits="userSpaceOnUse"><stop stop-color="#42AB44"/><stop offset="1" stop-color="#42AB44" stop-opacity="0"/></linearGradient><linearGradient id="ab" x1="-3.441" x2="3.203" y1="108.493" y2="103.765" gradientUnits="userSpaceOnUse"><stop/><stop offset="1" stop-color="#3137C5"/></linearGradient><linearGradient id="ac" x1="6.212" x2="5.312" y1="104.399" y2="106.103" gradientUnits="userSpaceOnUse"><stop stop-color="#157DFF"/><stop offset="1" stop-color="#0366DB" stop-opacity=".021"/></linearGradient><linearGradient id="ad" x1="43.54" x2="42.066" y1="116.435" y2="90.891" gradientUnits="userSpaceOnUse"><stop stop-color="#0057D6"/><stop offset="1" stop-color="#EE7248" stop-opacity="0"/></linearGradient><linearGradient id="ae" x1="130.56" x2="132.422" y1="52.559" y2="66.718" gradientUnits="userSpaceOnUse"><stop stop-color="#020306"/><stop offset="1" stop-color="#454FBC"/></linearGradient><linearGradient id="af" x1="130.56" x2="132.422" y1="52.559" y2="66.718" gradientUnits="userSpaceOnUse"><stop stop-color="#020306"/><stop offset="1" stop-color="#454FBC"/></linearGradient><linearGradient id="ah" x1="112.963" x2="111.491" y1="67.366" y2="60.691" gradientUnits="userSpaceOnUse"><stop stop-color="#fff" stop-opacity="0"/><stop offset="1" stop-color="#6DAEE3"/></linearGradient><linearGradient id="ai" x1="143.883" x2="143.883" y1="70.51" y2="70.632" gradientUnits="userSpaceOnUse"><stop stop-color="#3B4B81"/><stop offset="1" stop-color="#8BCBFF"/></linearGradient><linearGradient id="aj" x1="112.395" x2="110.272" y1="65.595" y2="69.786" gradientUnits="userSpaceOnUse"><stop/><stop offset="1" stop-color="#3137C5"/></linearGradient><linearGradient id="ak" x1="103.564" x2="105.658" y1="67.734" y2="67.734" gradientUnits="userSpaceOnUse"><stop stop-color="#157DFF"/><stop offset="1" stop-color="#0366DB" stop-opacity=".021"/></linearGradient><linearGradient id="al" x1="10.718" x2="12.974" y1="89.457" y2="89.015" gradientUnits="userSpaceOnUse"><stop stop-color="#fff"/><stop offset="1" stop-color="#6DAEE3"/></linearGradient><linearGradient id="am" x1="80.731" x2="89.417" y1="84.951" y2="77.972" gradientUnits="userSpaceOnUse"><stop stop-color="#fff" stop-opacity="0"/><stop offset="1" stop-color="#6DAEE3"/></linearGradient><linearGradient id="an" x1="106.454" x2="111.615" y1="68.377" y2="67.356" gradientUnits="userSpaceOnUse"><stop stop-color="#fff" stop-opacity="0"/><stop offset="1" stop-color="#6DAEE3"/></linearGradient><linearGradient id="aq" x1="13.109" x2="13.315" y1="108.363" y2="111.797" gradientUnits="userSpaceOnUse"><stop/><stop offset="1" stop-color="#3137C5"/></linearGradient><linearGradient id="ar" x1="54.49" x2="47.531" y1="110.075" y2="110.075" gradientUnits="userSpaceOnUse"><stop stop-color="#157DFF"/><stop offset="1" stop-color="#0366DB" stop-opacity=".021"/></linearGradient><linearGradient id="as" x1="65.715" x2="70.689" y1="105.323" y2="113.38" gradientUnits="userSpaceOnUse"><stop/><stop offset="1" stop-color="#3137C5"/></linearGradient><linearGradient id="at" x1="81.023" x2="77.393" y1="109.844" y2="109.844" gradientUnits="userSpaceOnUse"><stop stop-color="#157DFF"/><stop offset="1" stop-color="#0366DB" stop-opacity=".021"/></linearGradient><linearGradient id="au" x1="126.375" x2="95.554" y1="76.315" y2="68.134" gradientUnits="userSpaceOnUse"><stop stop-color="#fff" stop-opacity="0"/><stop offset="1" stop-color="#6DAEE3"/></linearGradient><linearGradient id="av" x1="2.454" x2="23.085" y1=".503" y2=".405" gradientUnits="userSpaceOnUse"><stop stop-color="#fff" stop-opacity="0"/><stop offset=".594" stop-color="#6DAEE3"/><stop offset="1" stop-color="#6DAEE3" stop-opacity="0"/></linearGradient><filter id="a" width="122.18" height="124.183" x="89.773" y="23.386" color-interpolation-filters="sRGB" filterUnits="userSpaceOnUse"><feFlood flood-opacity="0" result="BackgroundImageFix"/><feBlend in="SourceGraphic" in2="BackgroundImageFix" result="shape"/><feGaussianBlur result="effect1_foregroundBlur_10079_21639352" stdDeviation="15"/></filter><filter id="w" width="40.086" height="21.929" x="48.742" y="78.838" color-interpolation-filters="sRGB" filterUnits="userSpaceOnUse"><feFlood flood-opacity="0" result="BackgroundImageFix"/><feColorMatrix in="SourceAlpha" result="hardAlpha" values="0 0 0 0 0 0 0 0 0 0 0 0 0 0 0 0 0 0 127 0"/><feOffset dy="4"/><feGaussianBlur stdDeviation="2"/><feComposite in2="hardAlpha" operator="out"/><feColorMatrix values="0 0 0 0 0 0 0 0 0 0 0 0 0 0 0 0 0 0 0.25 0"/><feBlend in2="BackgroundImageFix" result="effect1_dropShadow_10079_21639352"/><feBlend in="SourceGraphic" in2="effect1_dropShadow_10079_21639352" result="shape"/></filter><filter id="T" width="53.008" height="26.979" x="9.203" y="80.781" color-interpolation-filters="sRGB" filterUnits="userSpaceOnUse"><feFlood flood-opacity="0" result="BackgroundImageFix"/><feBlend in="SourceGraphic" in2="BackgroundImageFix" result="shape"/><feColorMatrix in="SourceAlpha" result="hardAlpha" values="0 0 0 0 0 0 0 0 0 0 0 0 0 0 0 0 0 0 127 0"/><feOffset dx="7" dy="-8"/><feGaussianBlur stdDeviation="5"/><feComposite in2="hardAlpha" k2="-1" k3="1" operator="arithmetic"/><feColorMatrix values="0 0 0 0 0.490196 0 0 0 0 0.717647 0 0 0 0 0.905882 0 0 0 1 0"/><feBlend in2="shape" mode="hard-light" result="effect1_innerShadow_10079_21639352"/></filter><filter id="ao" width="19.336" height="31.461" x="50.508" y="76.685" color-interpolation-filters="sRGB" filterUnits="userSpaceOnUse"><feFlood flood-opacity="0" result="BackgroundImageFix"/><feBlend in="SourceGraphic" in2="BackgroundImageFix" result="shape"/><feGaussianBlur result="effect1_foregroundBlur_10079_21639352" stdDeviation="1"/></filter><filter id="ap" width="21.336" height="33.461" x="1.188" y="77.299" color-interpolation-filters="sRGB" filterUnits="userSpaceOnUse"><feFlood flood-opacity="0" result="BackgroundImageFix"/><feBlend in="SourceGraphic" in2="BackgroundImageFix" result="shape"/><feGaussianBlur result="effect1_foregroundBlur_10079_21639352" stdDeviation="1.5"/></filter><filter id="aw" width="178.086" height="16.679" x=".188" y="126.921" color-interpolation-filters="sRGB" filterUnits="userSpaceOnUse"><feFlood flood-opacity="0" result="BackgroundImageFix"/><feBlend in="SourceGraphic" in2="BackgroundImageFix" result="shape"/><feGaussianBlur result="effect1_foregroundBlur_10079_21639352" stdDeviation="2"/></filter><filter id="ay" width="19.547" height="29.323" x="63.82" y="19.16" color-interpolation-filters="sRGB" filterUnits="userSpaceOnUse"><feFlood flood-opacity="0" result="BackgroundImageFix"/><feBlend in="SourceGraphic" in2="BackgroundImageFix" result="shape"/><feGaussianBlur result="effect1_foregroundBlur_10079_21639352" stdDeviation="2"/></filter><radialGradient id="ax" cx="0" cy="0" r="1" gradientTransform="matrix(-.00027 2.28938 -44.8679 -.00533 89.23 135.26)" gradientUnits="userSpaceOnUse"><stop stop-color="#6A99DD"/><stop offset="1" stop-color="#A0C0EF"/></radialGradient></defs></svg>
