<svg title="Машина" width="212" height="160" viewBox="0 0 212 160" fill="none" xmlns="http://www.w3.org/2000/svg">
<rect width="180" height="160" transform="translate(1)" fill="white"/>
<g filter="url(#filter0_f_10079_21639352)">
<path d="M171.334 117.529C149.255 119.531 88.4873 44.8147 139.865 54.2025C191.242 63.5903 187.294 116.083 171.334 117.529Z" fill="#FFC737"/>
</g>
<path d="M23.804 89.6309C23.822 89.6309 23.8581 89.6309 23.8762 89.6309H30.1116V91.5043C33.1813 94.457 35.2578 100.627 35.2578 107.917C35.2578 115.208 33.1813 121.378 30.1116 124.33V126.204H23.804C18.5855 126.204 14.5046 118.181 14.5046 107.917C14.5046 97.6541 18.5855 89.6309 23.804 89.6309Z" fill="url(#paint0_linear_10079_21639352)"/>
<path d="M23.804 89.6309C23.822 89.6309 23.8581 89.6309 23.8762 89.6309H30.1116V91.5043C33.1813 94.457 35.2578 100.627 35.2578 107.917C35.2578 115.208 33.1813 121.378 30.1116 124.33V126.204H23.804C18.5855 126.204 14.5046 118.181 14.5046 107.917C14.5046 97.6541 18.5855 89.6309 23.804 89.6309Z" fill="url(#paint1_linear_10079_21639352)"/>
<path d="M30.7944 89.6309C36.0129 89.6309 40.0938 97.6541 40.0938 107.917C40.0938 118.181 36.0129 126.204 30.7944 126.204C25.5759 126.204 21.4951 118.181 21.4951 107.917C21.4951 97.6541 25.5759 89.6309 30.7944 89.6309Z" fill="black"/>
<path d="M79.7312 81.9741H147.048L170.07 88.6738V116.022H79.7312V81.9741Z" fill="black"/>
<path d="M152.364 89.6309C152.382 89.6309 152.418 89.6309 152.436 89.6309H158.503L160.128 91.5043C163.198 94.457 161.663 100.627 161.663 107.917C161.663 115.208 163.198 121.378 160.128 124.33L158.503 126.204H152.364C147.145 126.204 143.064 118.181 143.064 107.917C143.064 97.6541 147.145 89.6309 152.364 89.6309Z" fill="url(#paint2_linear_10079_21639352)"/>
<path d="M152.364 89.6309C152.382 89.6309 152.418 89.6309 152.436 89.6309H158.503L160.128 91.5043C163.198 94.457 161.663 100.627 161.663 107.917C161.663 115.208 163.198 121.378 160.128 124.33L158.503 126.204H152.364C147.145 126.204 143.064 118.181 143.064 107.917C143.064 97.6541 147.145 89.6309 152.364 89.6309Z" fill="url(#paint3_linear_10079_21639352)"/>
<path d="M158.474 89.6309C163.693 89.6309 167.773 97.6541 167.773 107.917C167.773 118.181 163.693 126.204 158.474 126.204C153.256 126.204 149.175 118.181 149.175 107.917C149.175 97.6541 153.256 89.6309 158.474 89.6309Z" fill="black"/>
<path d="M158.47 118.262C155.977 118.262 153.956 113.63 153.956 107.917C153.956 102.204 155.977 97.5723 158.47 97.5723C160.963 97.5723 162.984 102.204 162.984 107.917C162.984 113.63 160.963 118.262 158.47 118.262Z" fill="url(#paint4_linear_10079_21639352)"/>
<path d="M158.47 118.262C155.977 118.262 153.956 113.63 153.956 107.917C153.956 102.204 155.977 97.5723 158.47 97.5723C160.963 97.5723 162.984 102.204 162.984 107.917C162.984 113.63 160.963 118.262 158.47 118.262Z" fill="url(#paint5_linear_10079_21639352)"/>
<path d="M159.842 107.918C159.842 103.479 158.615 99.6706 156.899 98.2044C157.387 97.7971 157.91 97.5527 158.47 97.5527C160.962 97.5527 162.984 102.196 162.984 107.897C162.984 113.62 160.962 118.242 158.47 118.242C157.91 118.242 157.387 118.018 156.899 117.591C158.615 116.165 159.842 112.377 159.842 107.918Z" fill="url(#paint6_linear_10079_21639352)"/>
<path d="M159.842 107.918C159.842 103.479 158.615 99.6706 156.899 98.2044C157.387 97.7971 157.91 97.5527 158.47 97.5527C160.962 97.5527 162.984 102.196 162.984 107.897C162.984 113.62 160.962 118.242 158.47 118.242C157.91 118.242 157.387 118.018 156.899 117.591C158.615 116.165 159.842 112.377 159.842 107.918Z" fill="url(#paint7_linear_10079_21639352)"/>
<path d="M156.507 113.253C155.22 113.253 154.177 110.864 154.177 107.917C154.177 104.971 155.22 102.582 156.507 102.582C157.793 102.582 158.836 104.971 158.836 107.917C158.836 110.864 157.793 113.253 156.507 113.253Z" fill="black"/>
<path d="M156.147 111.298C155.339 111.298 154.684 109.784 154.684 107.917C154.684 106.051 155.339 104.537 156.147 104.537C156.955 104.537 157.609 106.051 157.609 107.917C157.609 109.784 156.955 111.298 156.147 111.298Z" fill="url(#paint8_linear_10079_21639352)"/>
<path d="M156.147 111.298C155.339 111.298 154.684 109.784 154.684 107.917C154.684 106.051 155.339 104.537 156.147 104.537C156.955 104.537 157.609 106.051 157.609 107.917C157.609 109.784 156.955 111.298 156.147 111.298Z" fill="url(#paint9_linear_10079_21639352)"/>
<path d="M158.474 122.131C154.555 122.131 151.378 115.767 151.378 107.917C151.378 100.067 154.555 93.7036 158.474 93.7036C162.393 93.7036 165.57 100.067 165.57 107.917C165.57 115.767 162.393 122.131 158.474 122.131Z" stroke="white" stroke-miterlimit="10"/>
<path d="M90.0982 89.6304C90.1163 89.6304 90.1524 89.6304 90.1704 89.6304H96.2376L97.8627 91.5038C100.932 94.4565 99.3975 100.627 99.3975 107.917C99.3975 115.207 100.932 121.377 97.8627 124.33L96.2376 126.203H90.0982C84.8797 126.203 80.7988 118.18 80.7988 107.917C80.7988 97.6536 84.8797 89.6304 90.0982 89.6304Z" fill="url(#paint10_linear_10079_21639352)"/>
<path d="M90.0982 89.6304C90.1163 89.6304 90.1524 89.6304 90.1704 89.6304H96.2376L97.8627 91.5038C100.932 94.4565 99.3975 100.627 99.3975 107.917C99.3975 115.207 100.932 121.377 97.8627 124.33L96.2376 126.203H90.0982C84.8797 126.203 80.7988 118.18 80.7988 107.917C80.7988 97.6536 84.8797 89.6304 90.0982 89.6304Z" fill="url(#paint11_linear_10079_21639352)"/>
<path d="M96.2007 89.6304C101.419 89.6304 105.5 97.6536 105.5 107.917C105.5 118.18 101.419 126.203 96.2007 126.203C90.9822 126.203 86.9013 118.18 86.9013 107.917C86.9013 97.6536 90.9822 89.6304 96.2007 89.6304Z" fill="black"/>
<path d="M96.2045 118.262C93.7114 118.262 91.6903 113.63 91.6903 107.917C91.6903 102.204 93.7114 97.5723 96.2045 97.5723C98.6977 97.5723 100.719 102.204 100.719 107.917C100.719 113.63 98.6977 118.262 96.2045 118.262Z" fill="url(#paint12_linear_10079_21639352)"/>
<path d="M96.2045 118.262C93.7114 118.262 91.6903 113.63 91.6903 107.917C91.6903 102.204 93.7114 97.5723 96.2045 97.5723C98.6977 97.5723 100.719 102.204 100.719 107.917C100.719 113.63 98.6977 118.262 96.2045 118.262Z" fill="url(#paint13_linear_10079_21639352)"/>
<path d="M97.5768 107.917C97.5768 103.478 96.349 99.6701 94.6336 98.2039C95.1211 97.7966 95.6447 97.5522 96.2045 97.5522C98.6964 97.5522 100.719 102.195 100.719 107.897C100.719 113.619 98.6964 118.242 96.2045 118.242C95.6447 118.242 95.1211 118.018 94.6336 117.59C96.349 116.165 97.5768 112.377 97.5768 107.917Z" fill="#050304"/>
<path d="M97.5768 107.917C97.5768 103.478 96.349 99.6701 94.6336 98.2039C95.1211 97.7966 95.6447 97.5522 96.2045 97.5522C98.6964 97.5522 100.719 102.195 100.719 107.897C100.719 113.619 98.6964 118.242 96.2045 118.242C95.6447 118.242 95.1211 118.018 94.6336 117.59C96.349 116.165 97.5768 112.377 97.5768 107.917Z" fill="url(#paint14_linear_10079_21639352)"/>
<path d="M94.2331 113.253C92.9467 113.253 91.9038 110.864 91.9038 107.917C91.9038 104.971 92.9467 102.582 94.2331 102.582C95.5196 102.582 96.5625 104.971 96.5625 107.917C96.5625 110.864 95.5196 113.253 94.2331 113.253Z" fill="black"/>
<path d="M93.8655 111.297C93.0577 111.297 92.4029 109.783 92.4029 107.916C92.4029 106.05 93.0577 104.536 93.8655 104.536C94.6733 104.536 95.3281 106.05 95.3281 107.916C95.3281 109.783 94.6733 111.297 93.8655 111.297Z" fill="url(#paint15_linear_10079_21639352)"/>
<path d="M93.8655 111.297C93.0577 111.297 92.4029 109.783 92.4029 107.916C92.4029 106.05 93.0577 104.536 93.8655 104.536C94.6733 104.536 95.3281 106.05 95.3281 107.916C95.3281 109.783 94.6733 111.297 93.8655 111.297Z" fill="url(#paint16_linear_10079_21639352)"/>
<path d="M96.2005 122.131C92.2812 122.131 89.1041 115.767 89.1041 107.917C89.1041 100.067 92.2812 93.7031 96.2005 93.7031C100.12 93.7031 103.297 100.067 103.297 107.917C103.297 115.767 100.12 122.131 96.2005 122.131Z" stroke="white" stroke-miterlimit="10"/>
<path d="M12.6525 80.5483C12.6525 80.5483 20.9226 77.2291 25.4188 75.1927C28.4523 73.8283 34.8625 72.2603 38.7448 71.3847C40.713 70.9367 42.5368 69.8574 43.9633 68.2691C44.4328 67.76 44.9745 67.1491 45.6245 66.4567L47.9178 64.0945C52.8293 59.0036 60.3049 54.9105 66.4984 52.1411C72.7461 49.3716 79.3189 48.9644 86.018 48.9644C86.018 48.9644 110.305 49.0458 117.275 49.0458C124.245 49.0458 150.211 50.5934 168.033 75.5592C171.698 78.736 176.158 84.2952 176.556 92.7665C176.664 95.2916 176.664 91.1781 176.664 97.5723C176.664 103.681 175.761 116.022 169.766 116.022C163.771 116.022 166.66 116.022 166.66 116.022C167.148 113.517 167.401 110.809 167.401 107.937C167.401 95.536 162.453 85.8021 156.151 85.8021C149.849 85.8021 144.902 95.5156 144.902 107.937C144.902 110.809 145.173 113.537 145.642 116.022H106.874C107.343 113.517 107.614 110.788 107.614 107.937C107.614 95.3527 102.612 85.4967 96.2021 85.4967C89.7919 85.4967 84.7901 95.3527 84.7901 107.937C84.7901 110.809 85.0429 113.537 85.5305 116.022H13.8442C10.3592 116.022 7.37982 113.232 6.72977 109.383L5.32132 90.384L12.6525 80.5483Z" fill="url(#paint17_linear_10079_21639352)"/>
<path d="M12.6525 80.5483C12.6525 80.5483 20.9226 77.2291 25.4188 75.1927C28.4523 73.8283 34.8625 72.2603 38.7448 71.3847C40.713 70.9367 42.5368 69.8574 43.9633 68.2691C44.4328 67.76 44.9745 67.1491 45.6245 66.4567L47.9178 64.0945C52.8293 59.0036 60.3049 54.9105 66.4984 52.1411C72.7461 49.3716 79.3189 48.9644 86.018 48.9644C86.018 48.9644 110.305 49.0458 117.275 49.0458C124.245 49.0458 150.211 50.5934 168.033 75.5592C171.698 78.736 176.158 84.2952 176.556 92.7665C176.664 95.2916 176.664 91.1781 176.664 97.5723C176.664 103.681 175.761 116.022 169.766 116.022C163.771 116.022 166.66 116.022 166.66 116.022C167.148 113.517 167.401 110.809 167.401 107.937C167.401 95.536 162.453 85.8021 156.151 85.8021C149.849 85.8021 144.902 95.5156 144.902 107.937C144.902 110.809 145.173 113.537 145.642 116.022H106.874C107.343 113.517 107.614 110.788 107.614 107.937C107.614 95.3527 102.612 85.4967 96.2021 85.4967C89.7919 85.4967 84.7901 95.3527 84.7901 107.937C84.7901 110.809 85.0429 113.537 85.5305 116.022H13.8442C10.3592 116.022 7.37982 113.232 6.72977 109.383L5.32132 90.384L12.6525 80.5483Z" fill="url(#paint18_linear_10079_21639352)" style="mix-blend-mode:hard-light"/>
<path d="M12.6525 80.5483C12.6525 80.5483 20.9226 77.2291 25.4188 75.1927C28.4523 73.8283 34.8625 72.2603 38.7448 71.3847C40.713 70.9367 42.5368 69.8574 43.9633 68.2691C44.4328 67.76 44.9745 67.1491 45.6245 66.4567L47.9178 64.0945C52.8293 59.0036 60.3049 54.9105 66.4984 52.1411C72.7461 49.3716 79.3189 48.9644 86.018 48.9644C86.018 48.9644 110.305 49.0458 117.275 49.0458C124.245 49.0458 150.211 50.5934 168.033 75.5592C171.698 78.736 176.158 84.2952 176.556 92.7665C176.664 95.2916 176.664 91.1781 176.664 97.5723C176.664 103.681 175.761 116.022 169.766 116.022C163.771 116.022 166.66 116.022 166.66 116.022C167.148 113.517 167.401 110.809 167.401 107.937C167.401 95.536 162.453 85.8021 156.151 85.8021C149.849 85.8021 144.902 95.5156 144.902 107.937C144.902 110.809 145.173 113.537 145.642 116.022H106.874C107.343 113.517 107.614 110.788 107.614 107.937C107.614 95.3527 102.612 85.4967 96.2021 85.4967C89.7919 85.4967 84.7901 95.3527 84.7901 107.937C84.7901 110.809 85.0429 113.537 85.5305 116.022H13.8442C10.3592 116.022 7.37982 113.232 6.72977 109.383L5.32132 90.384L12.6525 80.5483Z" fill="url(#paint19_linear_10079_21639352)"/>
<g style="mix-blend-mode:soft-light">
<path d="M148.602 77.7382C148.602 77.7382 111.747 71.3033 90.0789 78.8379C90.0789 78.8379 97.4281 79.7746 109.382 79.408C121.354 79.0415 148.602 77.7382 148.602 77.7382Z" fill="url(#paint20_linear_10079_21639352)"/>
</g>
<g filter="url(#filter1_d_10079_21639352)">
<path d="M52.7397 90.3637L84.8269 78.8379C84.8269 78.8379 85.0256 87.3906 80.2585 89.6102C75.4915 91.8299 61.6057 93.4997 58.0846 92.4408C54.5634 91.3615 52.7397 90.3637 52.7397 90.3637Z" fill="url(#paint21_linear_10079_21639352)"/>
</g>
<path d="M82.7138 50.5938H106.134C107.362 50.5938 108.084 52.0599 107.38 53.1392L98.3331 67.129C96.2205 70.6315 96.6899 70.4279 92.4466 70.4279H44.3608C43.3677 70.4279 42.8801 69.1246 43.6205 68.3916L46.2929 65.7646C56.2242 56.0105 69.2253 50.5938 82.7138 50.5938Z" fill="black"/>
<path d="M82.7138 50.5938H106.134C107.362 50.5938 108.084 52.0599 107.38 53.1392L98.3331 67.129C96.2205 70.6315 96.6899 70.4279 92.4466 70.4279H44.3608C43.3677 70.4279 42.8801 69.1246 43.6205 68.3916L46.2929 65.7646C56.2242 56.0105 69.2253 50.5938 82.7138 50.5938Z" fill="url(#paint22_linear_10079_21639352)"/>
<mask id="mask0_10079_21639352" style="mask-type:alpha" maskUnits="userSpaceOnUse" x="43" y="50" width="65" height="21">
<path d="M82.7295 50.7158H106.149C107.377 50.7158 108.1 52.182 107.395 53.2613L98.3488 67.2511C96.2361 70.7536 96.7056 70.55 92.4622 70.55H44.3764C43.3833 70.55 42.8958 69.2467 43.6361 68.5136L46.3085 65.8867C56.2399 56.1325 69.2409 50.7158 82.7295 50.7158Z" fill="url(#paint23_linear_10079_21639352)"/>
</mask>
<g mask="url(#mask0_10079_21639352)">
<mask id="mask1_10079_21639352" style="mask-type:alpha" maskUnits="userSpaceOnUse" x="35" y="39" width="108" height="34">
<path d="M138.165 46.2234C114.941 50.1713 79.5762 64.2332 73.2541 69.5069V72.9905L35.5547 69.5069L73.2541 40.8926C76.0066 36.3931 161.389 42.2755 138.165 46.2234Z" fill="url(#paint24_linear_10079_21639352)"/>
</mask>
<g mask="url(#mask1_10079_21639352)">
<path d="M110.559 49.2532C87.335 53.2011 51.9705 67.263 45.6484 72.5367V76.0203L105.932 74.9442L121.802 57.8169C124.555 53.3174 133.784 45.3053 110.559 49.2532Z" fill="url(#paint25_linear_10079_21639352)"/>
</g>
</g>
<path d="M94.4297 73.5029C94.4297 73.5029 77.9978 76.2724 69.8541 79.9378C61.7104 83.6033 58.388 86.4542 58.388 86.4542C58.388 86.4542 67.5248 81.8927 76.9505 78.8586C86.3763 75.8244 94.4297 73.5029 94.4297 73.5029Z" fill="url(#paint26_linear_10079_21639352)"/>
<path opacity="0.5" d="M160.109 80.6914C160.109 80.6914 145.393 79.6528 142.612 99.0187C141.438 107.144 149.293 116.043 149.293 116.043L148.806 99.0187L157.961 85.1307L160.109 80.6914Z" fill="url(#paint27_linear_10079_21639352)"/>
<path d="M97.7344 80.6909C97.7344 80.6909 83.0179 79.6524 80.2371 99.0182C79.0634 107.143 86.9182 116.042 86.9182 116.042L86.4307 99.0182L95.5856 85.1098L97.7344 80.6909Z" fill="url(#paint28_linear_10079_21639352)"/>
<path d="M84.7017 81.2002C81.289 82.6053 68.3782 87.8184 55.7925 91.6671C55.0522 91.4024 54.4563 91.158 53.9868 90.9544L53.409 90.6896C67.4031 86.5355 82.7877 80.2635 84.8281 79.4082C84.8101 79.8358 84.774 80.4671 84.7017 81.2002Z" fill="url(#paint29_linear_10079_21639352)"/>
<path d="M84.7017 81.2002C81.289 82.6053 68.3782 87.8184 55.7925 91.6671C55.0522 91.4024 54.4563 91.158 53.9868 90.9544L53.409 90.6896C67.4031 86.5355 82.7877 80.2635 84.8281 79.4082C84.8101 79.8358 84.774 80.4671 84.7017 81.2002Z" fill="url(#paint30_linear_10079_21639352)" fill-opacity="0.5"/>
<path d="M105.807 116.022C106.06 114.047 106.187 111.99 106.187 109.892C106.187 97.4909 101.726 87.3906 96.2191 87.3906C90.7117 87.3906 86.2516 97.4909 86.2516 109.892C86.2516 111.99 86.378 114.047 86.6308 116.022C86.6308 116.022 81.7554 104.944 86.8655 91.7891C88.924 86.4946 92.5896 83.8677 96.2191 83.8677C99.8485 83.8677 103.46 86.5149 105.573 91.7891C110.683 104.557 105.807 116.022 105.807 116.022Z" fill="url(#paint31_linear_10079_21639352)"/>
<path d="M167.881 116.022C168.133 114.047 168.26 111.99 168.26 109.892C168.26 97.4909 163.8 87.3906 158.292 87.3906C152.785 87.3906 148.325 97.4909 148.325 109.892C148.325 111.99 148.451 114.047 148.704 116.022C148.704 116.022 143.612 103.478 148.939 91.7891C151.286 86.6575 154.663 83.8677 158.292 83.8677C161.922 83.8677 165.244 86.6779 167.646 91.7891C169.903 96.5746 170.589 102.602 169.704 109.892C169.145 114.413 167.881 116.022 167.881 116.022Z" fill="url(#paint32_linear_10079_21639352)"/>
<path d="M47.6343 72.8105H78.125C71.4439 74.5822 66.2254 76.8425 62.4696 78.8382C56.4747 82.0149 52.9865 83.6644 49.32 83.6644H16.0707C16.0707 83.6644 19.1042 79.6935 32.8636 75.1727C37.6668 73.5844 42.6505 72.8105 47.6343 72.8105Z" fill="url(#paint33_linear_10079_21639352)"/>
<path d="M58.1809 98.7129L66.1801 98.9369C68.04 98.998 69.7193 100.24 70.4957 102.134L72.157 106.186C72.2834 106.512 71.9945 106.838 71.7056 106.695L58.0184 99.446C57.6933 99.2627 57.8197 98.7129 58.1809 98.7129Z" fill="url(#paint34_linear_10079_21639352)"/>
<path fill-rule="evenodd" clip-rule="evenodd" d="M58.1846 97.501H58.1712C57.4309 97.501 56.9284 98.0912 56.7883 98.7131C56.6463 99.3437 56.8478 100.147 57.5259 100.529L57.5378 100.536L71.25 107.799L71.2632 107.805C72.4576 108.395 73.6497 107.029 73.1346 105.702L73.1302 105.69L71.4643 101.626C70.5153 99.3118 68.4675 97.7999 66.2018 97.7255L66.1995 97.7254L58.1846 97.501ZM70.486 102.134C69.7096 100.24 68.0303 98.9979 66.1704 98.9368L58.1712 98.7128C57.81 98.7128 57.6836 99.2627 58.0087 99.4459L71.6958 106.695C71.9848 106.838 72.2737 106.512 72.1473 106.186L70.486 102.134Z" fill="url(#paint35_linear_10079_21639352)"/>
<path d="M58.1809 98.7129L66.1801 98.9369C68.04 98.998 69.7193 100.24 70.4957 102.134L72.157 106.186C72.2834 106.512 71.9945 106.838 71.7056 106.695L58.0184 99.446C57.6933 99.2627 57.8197 98.7129 58.1809 98.7129Z" fill="url(#paint36_linear_10079_21639352)"/>
<path d="M158.172 75.5186C162.036 73.1564 166.334 74.4189 168.447 75.4575C170.559 76.496 172.004 78.1659 172.582 79.2655L174.243 83.3179C174.369 83.6437 174.08 83.9695 173.791 83.8269C173.791 83.8269 169.62 81.424 164.51 79.5709C159.852 77.9011 156.33 76.6386 158.172 75.5186Z" fill="url(#paint37_linear_10079_21639352)"/>
<path d="M158.172 75.5186C162.036 73.1564 166.334 74.4189 168.447 75.4575C170.559 76.496 172.004 78.1659 172.582 79.2655L174.243 83.3179C174.369 83.6437 174.08 83.9695 173.791 83.8269C173.791 83.8269 169.62 81.424 164.51 79.5709C159.852 77.9011 156.33 76.6386 158.172 75.5186Z" fill="url(#paint38_linear_10079_21639352)"/>
<path d="M8.29709 98.7129L6.32889 98.9369C5.75107 98.998 5.33576 99.2831 5.33576 102.134C5.33576 104.985 6.52751 106.431 6.52751 106.431C6.4914 106.757 8.87491 99.446 8.87491 99.446C8.98325 99.2627 8.94714 98.7129 8.29709 98.7129Z" fill="white"/>
<path d="M18.1219 107.713H47.5367C49.9744 107.713 52.1412 105.962 52.9177 103.376L55.2109 95.882L53.3691 94.0493C49.9022 90.6282 45.4421 88.7344 40.8376 88.7344H23.2501C17.9774 88.7344 12.9396 91.1984 9.34621 95.5562L9.20175 95.7191L13.0298 104.211C14.023 106.349 15.9912 107.713 18.1219 107.713Z" fill="white"/>
<path d="M18.1219 107.713H47.5367C49.9744 107.713 52.1412 105.962 52.9177 103.376L55.2109 95.882L53.3691 94.0493C49.9022 90.6282 45.4421 88.7344 40.8376 88.7344H23.2501C17.9774 88.7344 12.9395 91.1984 9.34621 95.5562L9.20174 95.7191L13.0298 104.211C14.023 106.349 15.9912 107.713 18.1219 107.713Z" fill="url(#paint39_linear_10079_21639352)"/>
<path fill-rule="evenodd" clip-rule="evenodd" d="M57.0938 95.3256L54.4407 92.6856L54.4381 92.6831C50.6775 88.9722 45.8391 86.917 40.841 86.917H23.2536C17.5425 86.917 12.084 89.5814 8.1854 94.2957L7.2348 95.3677L11.5966 105.043L11.6011 105.053C12.8669 107.778 15.3802 109.531 18.1254 109.531H47.5402C50.6682 109.531 53.4505 107.287 54.4505 103.963L57.0938 95.3256ZM52.9212 103.376C52.1447 105.962 49.9779 107.714 47.5402 107.714H18.1254C15.9946 107.714 14.0264 106.349 13.0333 104.211L9.20522 95.7195L9.34969 95.5566C12.943 91.1988 17.9809 88.7348 23.2536 88.7348H40.841C45.4456 88.7348 49.9057 90.6286 53.3726 94.0497L55.2144 95.8824L52.9212 103.376Z" fill="url(#paint40_linear_10079_21639352)"/>
<g filter="url(#filter2_i_10079_21639352)">
<path d="M18.1219 107.76H47.5367C49.9744 107.76 52.1412 106.009 52.9177 103.423L55.2109 95.9289L53.3691 94.0962C49.9022 90.6751 45.4421 88.7812 40.8376 88.7812H23.2501C17.9774 88.7812 12.9395 91.2452 9.34621 95.6031L9.20174 95.766L13.0298 104.258C14.023 106.396 15.9912 107.76 18.1219 107.76Z" fill="url(#paint41_linear_10079_21639352)"/>
<path d="M18.1219 107.76H47.5367C49.9744 107.76 52.1412 106.009 52.9177 103.423L55.2109 95.9289L53.3691 94.0962C49.9022 90.6751 45.4421 88.7812 40.8376 88.7812H23.2501C17.9774 88.7812 12.9395 91.2452 9.34621 95.6031L9.20174 95.766L13.0298 104.258C14.023 106.396 15.9912 107.76 18.1219 107.76Z" fill="url(#paint42_linear_10079_21639352)"/>
</g>
<path d="M14.5051 106.248C14.4329 106.186 14.3606 106.105 14.3065 106.044H51.3594C51.2871 106.105 51.233 106.186 51.1608 106.248H14.5051Z" fill="black"/>
<path d="M53.0156 103.05L52.9434 103.254H12.6041L12.5138 103.05H53.0156Z" fill="black"/>
<path d="M55.0781 95.7399H9.23141L9.21336 95.7195L9.35781 95.5566H54.8614L55.0781 95.7399Z" fill="black"/>
<path d="M53.9453 100.037L53.8731 100.24H11.2586L11.1683 100.037H53.9453Z" fill="black"/>
<path d="M52.4375 104.537C52.4014 104.598 52.3653 104.68 52.3292 104.741H13.3261C13.29 104.68 13.2539 104.598 13.2178 104.537H52.4375Z" fill="black"/>
<path d="M53.4688 101.543L53.4146 101.747H11.9377L11.8474 101.543H53.4688Z" fill="black"/>
<path d="M49.3889 91.0361C49.5153 91.0972 49.6236 91.1787 49.75 91.2398H14.3402C14.4486 91.1787 14.575 91.0972 14.6833 91.0361H49.3889Z" fill="black"/>
<path d="M51.63 92.543C51.7203 92.6041 51.8106 92.6855 51.8828 92.7466H12.1755C12.2658 92.6855 12.338 92.6041 12.4283 92.543H51.63Z" fill="black"/>
<path d="M45.9822 89.5288C46.1809 89.5899 46.3795 89.6714 46.5781 89.7324H17.5064C17.705 89.651 17.9036 89.5899 18.1203 89.5288H45.9822Z" fill="black"/>
<path d="M54.8438 97.043L54.7896 97.2466H9.89993L9.80965 97.043H54.8438Z" fill="black"/>
<path d="M53.3482 94.0293C53.3482 94.0497 53.3663 94.0497 53.3482 94.0293L53.5469 94.2329H10.5351C10.6074 94.1718 10.6615 94.0904 10.7338 94.0293H53.3482Z" fill="black"/>
<path d="M54.3906 98.5498L54.3184 98.7534H10.5844L10.476 98.5498H54.3906Z" fill="black"/>
<path d="M138.885 116.022C139.102 114.332 139.282 112.52 139.499 110.585C139.86 107.184 140.24 103.662 140.691 100.974C141.955 93.3983 143.959 88.0426 150.406 83.0332C150.695 82.8092 150.983 82.5852 151.236 82.3816C153.385 80.7321 154.577 79.8157 154.252 78.3903C153.963 77.0463 152.681 75.6208 151.453 74.2361C150.351 72.9939 149.196 71.711 148.871 70.5503L148.708 70.6114C149.069 71.8128 150.171 73.055 151.345 74.3787C152.554 75.743 153.8 77.1481 154.089 78.431C154.378 79.7139 153.222 80.6099 151.146 82.1983C150.875 82.4019 150.604 82.6259 150.297 82.8499C143.797 87.9001 141.792 93.2965 140.51 100.933C140.059 103.641 139.68 107.144 139.319 110.565C139.12 112.499 138.921 114.332 138.705 116.002L138.885 116.022Z" fill="black"/>
<path d="M21.3805 109.038H35.6054C40.535 109.038 50.2858 110.137 53.9875 112.153L58.9531 114.841H10.1517C9.17917 114.841 14.7478 109.038 21.3805 109.038Z" fill="url(#paint43_linear_10079_21639352)"/>
<mask id="mask2_10079_21639352" style="mask-type:alpha" maskUnits="userSpaceOnUse" x="5" y="48" width="172" height="69">
<path d="M12.6525 80.5483C12.6525 80.5483 20.9226 77.2291 25.4188 75.1927C28.4523 73.8283 34.8625 72.2603 38.7448 71.3847C40.713 70.9367 42.5368 69.8574 43.9633 68.2691C44.4328 67.76 44.9745 67.1491 45.6245 66.4567L47.9178 64.0945C52.8293 59.0036 60.3049 54.9105 66.4984 52.1411C72.7461 49.3716 79.3189 48.9644 86.018 48.9644C86.018 48.9644 110.305 49.0458 117.275 49.0458C124.245 49.0458 150.211 50.5934 168.033 75.5592C171.698 78.736 176.158 84.2952 176.556 92.7665C176.664 95.2916 176.664 91.1781 176.664 97.5723C176.664 103.681 175.761 116.022 169.766 116.022C163.771 116.022 166.66 116.022 166.66 116.022C167.148 113.517 167.401 110.809 167.401 107.937C167.401 95.536 162.453 85.8021 156.151 85.8021C149.849 85.8021 144.902 95.5156 144.902 107.937C144.902 110.809 145.173 113.537 145.642 116.022H106.874C107.343 113.517 107.614 110.788 107.614 107.937C107.614 95.3527 102.612 85.4967 96.2021 85.4967C89.7919 85.4967 84.7901 95.3527 84.7901 107.937C84.7901 110.809 85.0429 113.537 85.5305 116.022H13.8442C10.3592 116.022 7.37982 113.232 6.72977 109.383L5.32132 90.384L12.6525 80.5483Z" fill="url(#paint44_linear_10079_21639352)"/>
<path d="M12.6525 80.5483C12.6525 80.5483 20.9226 77.2291 25.4188 75.1927C28.4523 73.8283 34.8625 72.2603 38.7448 71.3847C40.713 70.9367 42.5368 69.8574 43.9633 68.2691C44.4328 67.76 44.9745 67.1491 45.6245 66.4567L47.9178 64.0945C52.8293 59.0036 60.3049 54.9105 66.4984 52.1411C72.7461 49.3716 79.3189 48.9644 86.018 48.9644C86.018 48.9644 110.305 49.0458 117.275 49.0458C124.245 49.0458 150.211 50.5934 168.033 75.5592C171.698 78.736 176.158 84.2952 176.556 92.7665C176.664 95.2916 176.664 91.1781 176.664 97.5723C176.664 103.681 175.761 116.022 169.766 116.022C163.771 116.022 166.66 116.022 166.66 116.022C167.148 113.517 167.401 110.809 167.401 107.937C167.401 95.536 162.453 85.8021 156.151 85.8021C149.849 85.8021 144.902 95.5156 144.902 107.937C144.902 110.809 145.173 113.537 145.642 116.022H106.874C107.343 113.517 107.614 110.788 107.614 107.937C107.614 95.3527 102.612 85.4967 96.2021 85.4967C89.7919 85.4967 84.7901 95.3527 84.7901 107.937C84.7901 110.809 85.0429 113.537 85.5305 116.022H13.8442C10.3592 116.022 7.37982 113.232 6.72977 109.383L5.32132 90.384L12.6525 80.5483Z" fill="url(#paint45_linear_10079_21639352)"/>
<path d="M12.6525 80.5483C12.6525 80.5483 20.9226 77.2291 25.4188 75.1927C28.4523 73.8283 34.8625 72.2603 38.7448 71.3847C40.713 70.9367 42.5368 69.8574 43.9633 68.2691C44.4328 67.76 44.9745 67.1491 45.6245 66.4567L47.9178 64.0945C52.8293 59.0036 60.3049 54.9105 66.4984 52.1411C72.7461 49.3716 79.3189 48.9644 86.018 48.9644C86.018 48.9644 110.305 49.0458 117.275 49.0458C124.245 49.0458 150.211 50.5934 168.033 75.5592C171.698 78.736 176.158 84.2952 176.556 92.7665C176.664 95.2916 176.664 91.1781 176.664 97.5723C176.664 103.681 175.761 116.022 169.766 116.022C163.771 116.022 166.66 116.022 166.66 116.022C167.148 113.517 167.401 110.809 167.401 107.937C167.401 95.536 162.453 85.8021 156.151 85.8021C149.849 85.8021 144.902 95.5156 144.902 107.937C144.902 110.809 145.173 113.537 145.642 116.022H106.874C107.343 113.517 107.614 110.788 107.614 107.937C107.614 95.3527 102.612 85.4967 96.2021 85.4967C89.7919 85.4967 84.7901 95.3527 84.7901 107.937C84.7901 110.809 85.0429 113.537 85.5305 116.022H13.8442C10.3592 116.022 7.37982 113.232 6.72977 109.383L5.32132 90.384L12.6525 80.5483Z" fill="url(#paint46_linear_10079_21639352)"/>
</mask>
<g mask="url(#mask2_10079_21639352)">
<g style="mix-blend-mode:screen">
<path d="M-9.01095 100.945C-9.25113 100.684 -9.02394 100.271 -8.70336 100.387L0.109557 103.562L1.47764 104.051C6.95997 106.009 9.83335 112.627 7.56393 118.069L5.46474 116.961L4.9011 113.4C4.35246 109.935 2.2252 106.898 -0.756938 105.324L-8.91708 101.018C-8.95182 101 -8.9836 100.975 -9.01095 100.945Z" fill="url(#paint47_linear_10079_21639352)"/>
<path d="M-9.01095 100.945C-9.25113 100.684 -9.02394 100.271 -8.70336 100.387L0.109557 103.562L1.47764 104.051C6.95997 106.009 9.83335 112.627 7.56393 118.069L5.46474 116.961L4.9011 113.4C4.35246 109.935 2.2252 106.898 -0.756938 105.324L-8.91708 101.018C-8.95182 101 -8.9836 100.975 -9.01095 100.945Z" fill="url(#paint48_linear_10079_21639352)"/>
</g>
<g style="mix-blend-mode:multiply">
<path d="M5.01562 119.229C5.01562 105.424 16.2068 94.2329 30.0118 94.2329H61.3558C69.8292 94.2329 77.383 99.5726 80.2099 107.561L84.3394 119.229H5.01562Z" fill="url(#paint49_linear_10079_21639352)"/>
</g>
</g>
<path d="M98.9317 70.428L143.894 70.5705C143.894 70.5705 144.291 70.5909 151.441 70.5909C158.592 70.5909 158.032 68.188 157.075 67.0884C142.9 50.6345 115.67 50.94 115.67 50.94C114.244 50.7364 112.799 51.2047 111.915 52.1618C109.928 54.3204 108.014 57.5785 104.746 62.2011C102.001 66.0905 98.9317 70.428 98.9317 70.428Z" fill="url(#paint50_linear_10079_21639352)"/>
<mask id="mask3_10079_21639352" style="mask-type:alpha" maskUnits="userSpaceOnUse" x="98" y="50" width="60" height="21">
<path d="M98.9317 70.428L143.894 70.5705C143.894 70.5705 144.291 70.5909 151.441 70.5909C158.592 70.5909 158.032 68.188 157.075 67.0884C142.9 50.6345 115.67 50.94 115.67 50.94C114.244 50.7364 112.799 51.2047 111.915 52.1618C109.928 54.3204 108.014 57.5785 104.746 62.2011C102.001 66.0905 98.9317 70.428 98.9317 70.428Z" fill="url(#paint51_linear_10079_21639352)"/>
</mask>
<g mask="url(#mask3_10079_21639352)">
<g style="mix-blend-mode:overlay">
<path d="M142.448 58.6175C132.826 55.9113 107.562 63.6945 94.2812 72.2219L151.602 76.6619C153.795 68.9097 152.071 61.3237 142.448 58.6175Z" fill="url(#paint52_linear_10079_21639352)"/>
</g>
</g>
<path d="M131.18 70.5098L156.568 70.6116L156.586 70.632L131.18 70.5301V70.5098Z" fill="url(#paint53_linear_10079_21639352)"/>
<path d="M104.922 70.1637C104.814 70.3266 104.741 70.4284 104.741 70.4284H104.922V70.4487L98.9089 70.4284C98.9089 70.4284 101.87 65.7651 104.777 62.2015C104.832 62.1404 104.868 62.0793 104.922 62.0386V70.1637Z" fill="black"/>
<path d="M142.304 56.3364C142.34 56.3568 142.358 56.3568 142.394 56.3772C142.484 56.4179 142.575 56.4586 142.665 56.4993C142.828 56.5808 142.972 56.6419 143.135 56.7233C143.225 56.7641 143.315 56.8048 143.405 56.8455C143.64 56.9473 143.857 57.0695 144.092 57.1917C144.146 57.2121 144.218 57.2528 144.272 57.2935C144.453 57.3953 144.633 57.4768 144.814 57.5786C144.904 57.6193 144.994 57.6804 145.085 57.7212C145.247 57.8026 145.41 57.9044 145.572 57.9859C145.663 58.0266 145.735 58.0673 145.825 58.1284C146.06 58.2506 146.276 58.3932 146.511 58.5153C146.583 58.5561 146.638 58.5968 146.71 58.6375C146.89 58.7393 147.053 58.8412 147.233 58.943C147.324 59.0041 147.396 59.0448 147.486 59.1059C147.667 59.2077 147.829 59.3299 148.01 59.4317C148.082 59.4724 148.136 59.5132 148.209 59.5539C148.443 59.6964 148.66 59.839 148.895 60.0019C148.967 60.0426 149.039 60.1037 149.111 60.1444C149.274 60.2666 149.454 60.3684 149.617 60.4906C149.689 60.5517 149.78 60.5924 149.852 60.6535C150.05 60.7961 150.231 60.9182 150.43 61.0608C150.466 61.0811 150.52 61.1219 150.556 61.1422C150.773 61.3051 151.007 61.4681 151.224 61.6513C151.296 61.7124 151.369 61.7531 151.441 61.8142C151.603 61.9364 151.766 62.079 151.928 62.2011C152.001 62.2622 152.073 62.3233 152.145 62.3641C152.362 62.5473 152.596 62.7306 152.813 62.9139C152.831 62.9342 152.849 62.9546 152.885 62.975C153.084 63.1379 153.283 63.3211 153.481 63.5044C153.553 63.5655 153.626 63.6266 153.68 63.6877C153.842 63.8302 154.005 63.9728 154.167 64.1357C154.222 64.1968 154.294 64.2375 154.348 64.2986C154.565 64.5022 154.763 64.7059 154.98 64.9095C155.016 64.9502 155.052 64.991 155.106 65.0317C155.287 65.1946 155.449 65.3779 155.63 65.5611C155.702 65.6222 155.756 65.7037 155.829 65.7648C155.991 65.9277 156.154 66.111 156.316 66.2739C156.37 66.335 156.406 66.3757 156.461 66.4164C156.659 66.6404 156.858 66.8644 157.056 67.0884C157.093 67.1291 157.111 67.1495 157.129 67.1902C158.05 68.3102 158.501 70.6317 151.441 70.6317H148.822C147.613 66.7422 144.814 61.0201 142.304 56.3364Z" fill="black"/>
<path d="M135.258 70.5502L129.714 70.5298C127.511 60.0629 124.207 54.0557 122.383 51.3677C124.044 51.5509 125.94 51.8157 127.999 52.2026C129.642 54.6055 132.784 60.1648 135.258 70.5502Z" fill="black"/>
<path d="M50.759 91.24C51.1743 91.077 92.922 75.0509 94.2222 74.8269C94.818 74.7047 95.125 73.6865 95.125 71.7927C95.125 71.3018 95.1046 70.8135 95.0782 70.3867L94.9063 70.4536C95.0109 72.1974 94.9717 74.4841 94.2041 74.6232C92.8859 74.8676 52.4383 90.3847 50.7048 91.0567L50.759 91.24Z" fill="black"/>
<path d="M9.59426 87.5131L13.3682 86.2506C13.8377 86.0877 14.271 85.884 14.6863 85.5989C15.5169 85.0288 16.474 84.7233 17.449 84.7233H47.7126C48.4348 84.7233 49.1391 84.8862 49.7891 85.212L50.4753 85.5379C51.0531 85.8229 51.6851 85.9859 52.3171 86.0266L60.1538 86.5357L60.1719 86.332L52.3351 85.8229C51.7212 85.7822 51.1253 85.6193 50.5656 85.3546L49.8794 85.0288C49.1932 84.7029 48.4709 84.54 47.7306 84.54H17.4852C16.474 84.54 15.4808 84.8659 14.6322 85.4564C14.2349 85.7415 13.8015 85.9451 13.3682 86.0877L9.59426 87.3502V87.5131Z" fill="black"/>
<path d="M43.6322 68.3916C43.1808 68.8193 43.1808 69.4709 43.4878 69.9189C43.1808 69.4913 43.1808 68.8396 43.6322 68.3916L44.3906 67.6382L43.6322 68.3916Z" fill="black"/>
<path d="M75.2031 51.1636C74.3725 51.2858 73.5599 51.4283 72.7293 51.5912C73.5419 51.4283 74.3725 51.2858 75.2031 51.1636Z" fill="black"/>
<path d="M71.5 51.8564C70.6874 52.0397 69.8749 52.2434 69.0804 52.4674C69.8929 52.2434 70.6874 52.0397 71.5 51.8564Z" fill="black"/>
<path d="M57.989 114.596H74.782C76.2627 114.596 77.5989 113.761 78.3934 112.356C79.1879 110.951 79.2782 109.22 78.6462 107.713L75.5946 100.423C74.3126 97.348 71.5318 95.3727 68.5163 95.3727H56.7612C56.3459 95.3727 55.9486 95.2302 55.6055 94.9655L52.0122 92.1553L51.9038 92.3182L55.4972 95.108C55.8764 95.3931 56.3098 95.556 56.7612 95.556H68.5163C71.4595 95.556 74.1681 97.4905 75.4321 100.504L78.4837 107.795C79.0796 109.24 78.9893 110.89 78.2309 112.234C77.4725 113.578 76.1905 114.372 74.782 114.372H57.989V114.596Z" fill="black"/>
<path d="M129.804 116.042C129.822 115.961 132.35 107.388 133.505 96.0452C134.553 85.558 134.625 70.4889 128.901 58.23C127.366 54.9514 125.903 51.9987 124.549 49.4736L124.387 49.5755C125.741 52.1005 127.203 55.0533 128.738 58.3318C134.426 70.55 134.372 85.5783 133.325 96.0452C132.187 107.367 129.659 115.92 129.641 116.002L129.804 116.042Z" fill="black"/>
<path d="M105.378 69.6336H114.93C115.725 69.6336 116.375 68.9005 116.375 68.0045V65.4183C116.375 64.5631 115.797 63.8707 115.057 63.7892L106.57 62.8932C105.902 62.8322 105.288 63.2802 105.071 63.9929L104.006 67.4547C103.681 68.534 104.385 69.6336 105.378 69.6336Z" fill="black"/>
<path d="M105.073 63.9929C105.29 63.2802 105.922 62.8322 106.572 62.8932L115.059 63.7892C115.438 63.83 115.763 64.0336 116.016 64.3391C114.499 66.2125 111.267 69.2671 106.048 69.6336H105.38C104.387 69.6336 103.683 68.5136 104.008 67.4547L105.073 63.9929Z" fill="url(#paint54_linear_10079_21639352)"/>
<path d="M105.073 63.9929C105.29 63.2802 105.922 62.8322 106.572 62.8932L115.059 63.7892C115.438 63.83 115.763 64.0336 116.016 64.3391C114.499 66.2125 111.267 69.2671 106.048 69.6336H105.38C104.387 69.6336 103.683 68.5136 104.008 67.4547L105.073 63.9929Z" fill="url(#paint55_linear_10079_21639352)"/>
<path d="M12.5547 90.425C12.5547 90.425 6.99313 87.6148 12.5547 80.5894C7.85987 82.0148 5.09715 87.2075 5.33189 90.3639C5.53051 92.889 7.8057 92.7464 9.70168 92.4206C10.8032 92.2373 12.5547 90.425 12.5547 90.425Z" fill="url(#paint56_linear_10079_21639352)"/>
<path d="M91.9375 71.8537C91.9375 71.8537 73.3388 70.2246 59.7419 78.8384C46.145 87.4522 47.8424 89.6311 47.8424 89.6311C47.8424 89.6311 53.765 83.2369 65.5382 78.2682C77.3113 73.2995 91.9375 71.8537 91.9375 71.8537Z" fill="url(#paint57_linear_10079_21639352)"/>
<path d="M105.755 65.602C105.755 66.5591 106.026 67.5162 107.363 67.5162C108.699 67.5162 111.516 65.826 111.516 64.8689C111.516 63.9118 109.529 63.8711 108.175 63.8711C106.839 63.8915 105.755 64.6449 105.755 65.602Z" fill="url(#paint58_linear_10079_21639352)"/>
<g filter="url(#filter3_f_10079_21639352)">
<path d="M59.6378 86.706L60.1745 78.6851L60.7111 86.706L67.8411 87.3098L60.7111 87.9135L60.1745 106.146L59.6378 87.9135L52.5078 87.3098L59.6378 86.706Z" fill="white"/>
</g>
<g filter="url(#filter4_f_10079_21639352)">
<path d="M11.3175 88.3198L11.8542 80.2988L12.3908 88.3198L19.5208 88.9235L12.3908 89.5273L11.8542 107.76L11.3175 89.5273L4.1875 88.9235L11.3175 88.3198Z" fill="white"/>
</g>
<path d="M15.8025 108.715H47.8963L53.2826 110.607H13.1094L15.8025 108.715Z" fill="url(#paint59_linear_10079_21639352)"/>
<path d="M15.8025 108.715H47.8963L53.2826 110.607H13.1094L15.8025 108.715Z" fill="url(#paint60_linear_10079_21639352)"/>
<g style="mix-blend-mode:screen">
<path d="M73.5736 100.201C73.9069 99.9063 74.4313 100.024 74.6059 100.434L77.052 106.173C78.6295 109.802 75.97 113.858 72.0133 113.858H59.4375V112.4L69.1818 110.311C71.6153 109.789 73.3538 107.638 73.3538 105.15V100.69C73.3538 100.503 73.4338 100.325 73.5736 100.201Z" fill="url(#paint61_linear_10079_21639352)"/>
<path d="M73.5736 100.201C73.9069 99.9063 74.4313 100.024 74.6059 100.434L77.052 106.173C78.6295 109.802 75.97 113.858 72.0133 113.858H59.4375V112.4L69.1818 110.311C71.6153 109.789 73.3538 107.638 73.3538 105.15V100.69C73.3538 100.503 73.4338 100.325 73.5736 100.201Z" fill="url(#paint62_linear_10079_21639352)"/>
</g>
<path d="M100.922 71.9375H146.515V74.1751L100.922 71.9375Z" fill="url(#paint63_linear_10079_21639352)"/>
<rect width="21.7134" height="0.958594" transform="matrix(0.541663 -0.840596 0.774979 0.631987 97.7344 69.335)" fill="url(#paint64_linear_10079_21639352)"/>
<g filter="url(#filter5_f_10079_21639352)">
<path d="M89.2305 139.6C136.198 139.6 174.273 137.657 174.273 135.26C174.273 132.864 136.198 130.921 89.2305 130.921C42.2625 130.921 4.1875 132.864 4.1875 135.26C4.1875 137.657 42.2625 139.6 89.2305 139.6Z" fill="url(#paint65_radial_10079_21639352)"/>
</g>
<g filter="url(#filter6_f_10079_21639352)">
<path d="M73.5938 23.1595L67.8202 33.1595L79.3673 33.1595L73.5938 23.1595ZM74.5938 44.4824L74.5938 32.1595L72.5938 32.1595L72.5938 44.4824L74.5938 44.4824Z" fill="#B5E2FF"/>
</g>
<path d="M166.234 25.3366L157.574 40.3366L174.895 40.3366L166.234 25.3366ZM167.734 56.7817L167.734 38.8366L164.734 38.8366L164.734 56.7817L167.734 56.7817Z" fill="#B5E2FF"/>
<path d="M23.6719 25.301L12.1249 45.301L35.2189 45.301L23.6719 25.301ZM25.6719 65.3721L25.6719 43.301L21.6719 43.301L21.6719 65.3721L25.6719 65.3721Z" fill="#B5E2FF"/>
<defs>
<filter id="filter0_f_10079_21639352" x="89.7734" y="23.3862" width="122.18" height="124.183" filterUnits="userSpaceOnUse" color-interpolation-filters="sRGB">
<feFlood flood-opacity="0" result="BackgroundImageFix"/>
<feBlend mode="normal" in="SourceGraphic" in2="BackgroundImageFix" result="shape"/>
<feGaussianBlur stdDeviation="15" result="effect1_foregroundBlur_10079_21639352"/>
</filter>
<filter id="filter1_d_10079_21639352" x="48.7422" y="78.8379" width="40.0859" height="21.9292" filterUnits="userSpaceOnUse" color-interpolation-filters="sRGB">
<feFlood flood-opacity="0" result="BackgroundImageFix"/>
<feColorMatrix in="SourceAlpha" type="matrix" values="0 0 0 0 0 0 0 0 0 0 0 0 0 0 0 0 0 0 127 0" result="hardAlpha"/>
<feOffset dy="4"/>
<feGaussianBlur stdDeviation="2"/>
<feComposite in2="hardAlpha" operator="out"/>
<feColorMatrix type="matrix" values="0 0 0 0 0 0 0 0 0 0 0 0 0 0 0 0 0 0 0.25 0"/>
<feBlend mode="normal" in2="BackgroundImageFix" result="effect1_dropShadow_10079_21639352"/>
<feBlend mode="normal" in="SourceGraphic" in2="effect1_dropShadow_10079_21639352" result="shape"/>
</filter>
<filter id="filter2_i_10079_21639352" x="9.20312" y="80.7812" width="53.0078" height="26.979" filterUnits="userSpaceOnUse" color-interpolation-filters="sRGB">
<feFlood flood-opacity="0" result="BackgroundImageFix"/>
<feBlend mode="normal" in="SourceGraphic" in2="BackgroundImageFix" result="shape"/>
<feColorMatrix in="SourceAlpha" type="matrix" values="0 0 0 0 0 0 0 0 0 0 0 0 0 0 0 0 0 0 127 0" result="hardAlpha"/>
<feOffset dx="7" dy="-8"/>
<feGaussianBlur stdDeviation="5"/>
<feComposite in2="hardAlpha" operator="arithmetic" k2="-1" k3="1"/>
<feColorMatrix type="matrix" values="0 0 0 0 0.490196 0 0 0 0 0.717647 0 0 0 0 0.905882 0 0 0 1 0"/>
<feBlend mode="hard-light" in2="shape" result="effect1_innerShadow_10079_21639352"/>
</filter>
<filter id="filter3_f_10079_21639352" x="50.5078" y="76.6851" width="19.3359" height="31.4609" filterUnits="userSpaceOnUse" color-interpolation-filters="sRGB">
<feFlood flood-opacity="0" result="BackgroundImageFix"/>
<feBlend mode="normal" in="SourceGraphic" in2="BackgroundImageFix" result="shape"/>
<feGaussianBlur stdDeviation="1" result="effect1_foregroundBlur_10079_21639352"/>
</filter>
<filter id="filter4_f_10079_21639352" x="1.1875" y="77.2988" width="21.3359" height="33.4609" filterUnits="userSpaceOnUse" color-interpolation-filters="sRGB">
<feFlood flood-opacity="0" result="BackgroundImageFix"/>
<feBlend mode="normal" in="SourceGraphic" in2="BackgroundImageFix" result="shape"/>
<feGaussianBlur stdDeviation="1.5" result="effect1_foregroundBlur_10079_21639352"/>
</filter>
<filter id="filter5_f_10079_21639352" x="0.1875" y="126.921" width="178.086" height="16.6787" filterUnits="userSpaceOnUse" color-interpolation-filters="sRGB">
<feFlood flood-opacity="0" result="BackgroundImageFix"/>
<feBlend mode="normal" in="SourceGraphic" in2="BackgroundImageFix" result="shape"/>
<feGaussianBlur stdDeviation="2" result="effect1_foregroundBlur_10079_21639352"/>
</filter>
<filter id="filter6_f_10079_21639352" x="63.8203" y="19.1597" width="19.5469" height="29.3228" filterUnits="userSpaceOnUse" color-interpolation-filters="sRGB">
<feFlood flood-opacity="0" result="BackgroundImageFix"/>
<feBlend mode="normal" in="SourceGraphic" in2="BackgroundImageFix" result="shape"/>
<feGaussianBlur stdDeviation="2" result="effect1_foregroundBlur_10079_21639352"/>
</filter>
<linearGradient id="paint0_linear_10079_21639352" x1="21.5039" y1="119.761" x2="25.6281" y2="130.73" gradientUnits="userSpaceOnUse">
<stop/>
<stop offset="1" stop-color="#5AB94C"/>
</linearGradient>
<linearGradient id="paint1_linear_10079_21639352" x1="13.8808" y1="115.908" x2="17.476" y2="115.908" gradientUnits="userSpaceOnUse">
<stop stop-color="#157DFF"/>
<stop offset="1" stop-color="#0366DB" stop-opacity="0.0208333"/>
</linearGradient>
<linearGradient id="paint2_linear_10079_21639352" x1="148.425" y1="114.596" x2="141.954" y2="124.288" gradientUnits="userSpaceOnUse">
<stop/>
<stop offset="1" stop-color="#FFCA42"/>
</linearGradient>
<linearGradient id="paint3_linear_10079_21639352" x1="142.494" y1="115.908" x2="145.782" y2="115.908" gradientUnits="userSpaceOnUse">
<stop stop-color="#157DFF"/>
<stop offset="1" stop-color="#0366DB" stop-opacity="0.0208333"/>
</linearGradient>
<linearGradient id="paint4_linear_10079_21639352" x1="152.094" y1="97.5723" x2="153.605" y2="105.954" gradientUnits="userSpaceOnUse">
<stop/>
<stop offset="1" stop-color="#3137C5"/>
</linearGradient>
<linearGradient id="paint5_linear_10079_21639352" x1="153.684" y1="112.437" x2="155.249" y2="112.437" gradientUnits="userSpaceOnUse">
<stop stop-color="#157DFF"/>
<stop offset="1" stop-color="#0366DB" stop-opacity="0.0208333"/>
</linearGradient>
<linearGradient id="paint6_linear_10079_21639352" x1="161.162" y1="105.856" x2="152.318" y2="106.769" gradientUnits="userSpaceOnUse">
<stop/>
<stop offset="1" stop-color="#3137C5"/>
</linearGradient>
<linearGradient id="paint7_linear_10079_21639352" x1="156.716" y1="112.418" x2="157.77" y2="112.418" gradientUnits="userSpaceOnUse">
<stop stop-color="#157DFF"/>
<stop offset="1" stop-color="#0366DB" stop-opacity="0.0208333"/>
</linearGradient>
<linearGradient id="paint8_linear_10079_21639352" x1="156.733" y1="107.25" x2="154.683" y2="108.228" gradientUnits="userSpaceOnUse">
<stop/>
<stop offset="1" stop-color="#3137C5"/>
</linearGradient>
<linearGradient id="paint9_linear_10079_21639352" x1="154.596" y1="109.395" x2="155.103" y2="109.395" gradientUnits="userSpaceOnUse">
<stop stop-color="#157DFF"/>
<stop offset="1" stop-color="#0366DB" stop-opacity="0.0208333"/>
</linearGradient>
<linearGradient id="paint10_linear_10079_21639352" x1="86.756" y1="116.365" x2="83.1965" y2="124.809" gradientUnits="userSpaceOnUse">
<stop/>
<stop offset="1" stop-color="#8AD557"/>
</linearGradient>
<linearGradient id="paint11_linear_10079_21639352" x1="80.2283" y1="115.907" x2="83.5167" y2="115.907" gradientUnits="userSpaceOnUse">
<stop stop-color="#157DFF"/>
<stop offset="1" stop-color="#0366DB" stop-opacity="0.0208333"/>
</linearGradient>
<linearGradient id="paint12_linear_10079_21639352" x1="91.6902" y1="107.361" x2="96.7135" y2="108.218" gradientUnits="userSpaceOnUse">
<stop/>
<stop offset="1" stop-color="#3137C5"/>
</linearGradient>
<linearGradient id="paint13_linear_10079_21639352" x1="91.4189" y1="112.437" x2="92.9829" y2="112.437" gradientUnits="userSpaceOnUse">
<stop stop-color="#157DFF"/>
<stop offset="1" stop-color="#0366DB" stop-opacity="0.0208333"/>
</linearGradient>
<linearGradient id="paint14_linear_10079_21639352" x1="95.163" y1="117.228" x2="101.563" y2="114.463" gradientUnits="userSpaceOnUse">
<stop stop-color="#3B4B80"/>
<stop offset="1" stop-color="#3B4B80" stop-opacity="0"/>
</linearGradient>
<linearGradient id="paint15_linear_10079_21639352" x1="94.4519" y1="107.249" x2="92.4018" y2="108.227" gradientUnits="userSpaceOnUse">
<stop/>
<stop offset="1" stop-color="#3137C5"/>
</linearGradient>
<linearGradient id="paint16_linear_10079_21639352" x1="92.315" y1="109.394" x2="92.8217" y2="109.394" gradientUnits="userSpaceOnUse">
<stop stop-color="#157DFF"/>
<stop offset="1" stop-color="#0366DB" stop-opacity="0.0208333"/>
</linearGradient>
<linearGradient id="paint17_linear_10079_21639352" x1="207.226" y1="123.695" x2="58.424" y2="136.125" gradientUnits="userSpaceOnUse">
<stop/>
<stop offset="0.526105" stop-color="#42AB44"/>
<stop offset="0.890975" stop-color="#AAE75A"/>
</linearGradient>
<linearGradient id="paint18_linear_10079_21639352" x1="5.32129" y1="97.6105" x2="29.8554" y2="97.2418" gradientUnits="userSpaceOnUse">
<stop stop-color="#E1EEF6"/>
<stop offset="1" stop-color="#0366DB" stop-opacity="0.0208333"/>
</linearGradient>
<linearGradient id="paint19_linear_10079_21639352" x1="127.513" y1="121.841" x2="120.046" y2="97.8725" gradientUnits="userSpaceOnUse">
<stop stop-color="#2B32AB"/>
<stop offset="1" stop-color="#232888" stop-opacity="0"/>
</linearGradient>
<linearGradient id="paint20_linear_10079_21639352" x1="119.34" y1="75.1782" x2="119.34" y2="79.4931" gradientUnits="userSpaceOnUse">
<stop stop-color="#88BBFB"/>
<stop offset="1" stop-color="#88BBFB" stop-opacity="0"/>
</linearGradient>
<linearGradient id="paint21_linear_10079_21639352" x1="76.6856" y1="89.1249" x2="83.3307" y2="84.1394" gradientUnits="userSpaceOnUse">
<stop stop-color="white"/>
<stop offset="1" stop-color="#6DAEE3"/>
</linearGradient>
<linearGradient id="paint22_linear_10079_21639352" x1="77.9584" y1="52.271" x2="79.6842" y2="66.5686" gradientUnits="userSpaceOnUse">
<stop stop-color="#020306"/>
<stop offset="1" stop-color="#2F36BB"/>
</linearGradient>
<linearGradient id="paint23_linear_10079_21639352" x1="75.4751" y1="50.7158" x2="75.4751" y2="70.5522" gradientUnits="userSpaceOnUse">
<stop stop-color="#3B4B81"/>
<stop offset="1" stop-color="#8BCBFF"/>
</linearGradient>
<linearGradient id="paint24_linear_10079_21639352" x1="88.7649" y1="70.8523" x2="84.2265" y2="58.8602" gradientUnits="userSpaceOnUse">
<stop stop-color="white" stop-opacity="0"/>
<stop offset="1" stop-color="#A8D8FF"/>
</linearGradient>
<linearGradient id="paint25_linear_10079_21639352" x1="61.1593" y1="73.882" x2="56.6209" y2="61.8899" gradientUnits="userSpaceOnUse">
<stop stop-color="white" stop-opacity="0"/>
<stop offset="1" stop-color="#A8D8FF"/>
</linearGradient>
<linearGradient id="paint26_linear_10079_21639352" x1="73.608" y1="85.5665" x2="91.0615" y2="75.7544" gradientUnits="userSpaceOnUse">
<stop stop-color="white" stop-opacity="0"/>
<stop offset="1" stop-color="#6DAEE3"/>
</linearGradient>
<linearGradient id="paint27_linear_10079_21639352" x1="154.115" y1="94.6946" x2="142.667" y2="85.0287" gradientUnits="userSpaceOnUse">
<stop stop-color="white" stop-opacity="0"/>
<stop offset="1" stop-color="#6DAEE3"/>
</linearGradient>
<linearGradient id="paint28_linear_10079_21639352" x1="91.74" y1="94.6941" x2="80.2919" y2="85.0282" gradientUnits="userSpaceOnUse">
<stop stop-color="white" stop-opacity="0"/>
<stop offset="1" stop-color="#6DAEE3"/>
</linearGradient>
<linearGradient id="paint29_linear_10079_21639352" x1="70.7037" y1="79.2386" x2="71.6016" y2="91.6019" gradientUnits="userSpaceOnUse">
<stop stop-color="#C2DBEC"/>
<stop offset="0.652809" stop-color="#F3FAFE"/>
<stop offset="1" stop-color="white"/>
</linearGradient>
<linearGradient id="paint30_linear_10079_21639352" x1="80.3447" y1="81.4438" x2="82.5412" y2="90.6783" gradientUnits="userSpaceOnUse">
<stop stop-color="white"/>
<stop offset="1" stop-color="white" stop-opacity="0"/>
</linearGradient>
<linearGradient id="paint31_linear_10079_21639352" x1="99.9527" y1="96.6098" x2="89.6192" y2="83.8789" gradientUnits="userSpaceOnUse">
<stop stop-color="white" stop-opacity="0"/>
<stop offset="1" stop-color="#6DAEE3"/>
</linearGradient>
<linearGradient id="paint32_linear_10079_21639352" x1="162.058" y1="96.6098" x2="151.743" y2="83.7951" gradientUnits="userSpaceOnUse">
<stop stop-color="white" stop-opacity="0"/>
<stop offset="1" stop-color="#FFCA42"/>
</linearGradient>
<linearGradient id="paint33_linear_10079_21639352" x1="53.1979" y1="72.8105" x2="33.7127" y2="96.7022" gradientUnits="userSpaceOnUse">
<stop stop-color="white" stop-opacity="0"/>
<stop offset="0.520833" stop-color="#D6ECFF"/>
<stop offset="1" stop-color="#6DAEE3"/>
</linearGradient>
<linearGradient id="paint34_linear_10079_21639352" x1="67.3025" y1="101.89" x2="65.7375" y2="97.1401" gradientUnits="userSpaceOnUse">
<stop stop-color="white" stop-opacity="0"/>
<stop offset="1" stop-color="#6DAEE3"/>
</linearGradient>
<linearGradient id="paint35_linear_10079_21639352" x1="67.6392" y1="101.64" x2="65.3917" y2="95.6188" gradientUnits="userSpaceOnUse">
<stop stop-color="white" stop-opacity="0"/>
<stop offset="1" stop-color="#6DAEE3"/>
</linearGradient>
<linearGradient id="paint36_linear_10079_21639352" x1="68.5445" y1="104.634" x2="72.0117" y2="102.611" gradientUnits="userSpaceOnUse">
<stop stop-color="white"/>
<stop offset="1" stop-color="#6DAEE3"/>
</linearGradient>
<linearGradient id="paint37_linear_10079_21639352" x1="169.301" y1="78.0626" x2="166.174" y2="83.9675" gradientUnits="userSpaceOnUse">
<stop/>
<stop offset="1" stop-color="#DC9E00"/>
</linearGradient>
<linearGradient id="paint38_linear_10079_21639352" x1="171.029" y1="86.5139" x2="162.329" y2="76.2616" gradientUnits="userSpaceOnUse">
<stop stop-color="#FEB73F"/>
<stop offset="0.864583" stop-color="#FFCA42" stop-opacity="0"/>
</linearGradient>
<linearGradient id="paint39_linear_10079_21639352" x1="39.5555" y1="96.2554" x2="36.6912" y2="84.4875" gradientUnits="userSpaceOnUse">
<stop stop-color="white" stop-opacity="0"/>
<stop offset="1" stop-color="#6DAEE3"/>
</linearGradient>
<linearGradient id="paint40_linear_10079_21639352" x1="40.1284" y1="95.8787" x2="36.419" y2="82.0186" gradientUnits="userSpaceOnUse">
<stop stop-color="white" stop-opacity="0"/>
<stop offset="1" stop-color="#6DAEE3"/>
</linearGradient>
<linearGradient id="paint41_linear_10079_21639352" x1="55.211" y1="85.2416" x2="40.9958" y2="112.366" gradientUnits="userSpaceOnUse">
<stop/>
<stop offset="1" stop-color="#3137C5"/>
</linearGradient>
<linearGradient id="paint42_linear_10079_21639352" x1="7.81876" y1="102.417" x2="15.7893" y2="102.417" gradientUnits="userSpaceOnUse">
<stop stop-color="#157DFF"/>
<stop offset="1" stop-color="#0366DB" stop-opacity="0.0208333"/>
</linearGradient>
<linearGradient id="paint43_linear_10079_21639352" x1="32.2216" y1="109.038" x2="32.2216" y2="114.841" gradientUnits="userSpaceOnUse">
<stop stop-color="#6DAEE3"/>
<stop offset="1" stop-color="white" stop-opacity="0"/>
</linearGradient>
<linearGradient id="paint44_linear_10079_21639352" x1="154.508" y1="90.2083" x2="93.0044" y2="83.2318" gradientUnits="userSpaceOnUse">
<stop/>
<stop offset="1" stop-color="#42AB44"/>
</linearGradient>
<linearGradient id="paint45_linear_10079_21639352" x1="5.32129" y1="97.6105" x2="29.8554" y2="97.2418" gradientUnits="userSpaceOnUse">
<stop stop-color="#E1EEF6"/>
<stop offset="1" stop-color="#0366DB" stop-opacity="0.0208333"/>
</linearGradient>
<linearGradient id="paint46_linear_10079_21639352" x1="129.879" y1="128.671" x2="121.878" y2="102.254" gradientUnits="userSpaceOnUse">
<stop stop-color="#42AB44"/>
<stop offset="1" stop-color="#42AB44" stop-opacity="0"/>
</linearGradient>
<linearGradient id="paint47_linear_10079_21639352" x1="-3.44068" y1="108.493" x2="3.20276" y2="103.765" gradientUnits="userSpaceOnUse">
<stop/>
<stop offset="1" stop-color="#3137C5"/>
</linearGradient>
<linearGradient id="paint48_linear_10079_21639352" x1="6.21187" y1="104.399" x2="5.31244" y2="106.103" gradientUnits="userSpaceOnUse">
<stop stop-color="#157DFF"/>
<stop offset="1" stop-color="#0366DB" stop-opacity="0.0208333"/>
</linearGradient>
<linearGradient id="paint49_linear_10079_21639352" x1="43.5401" y1="116.435" x2="42.0664" y2="90.891" gradientUnits="userSpaceOnUse">
<stop stop-color="#0057D6"/>
<stop offset="1" stop-color="#EE7248" stop-opacity="0"/>
</linearGradient>
<linearGradient id="paint50_linear_10079_21639352" x1="130.56" y1="52.5586" x2="132.422" y2="66.7184" gradientUnits="userSpaceOnUse">
<stop stop-color="#020306"/>
<stop offset="1" stop-color="#454FBC"/>
</linearGradient>
<linearGradient id="paint51_linear_10079_21639352" x1="130.56" y1="52.5586" x2="132.422" y2="66.7184" gradientUnits="userSpaceOnUse">
<stop stop-color="#020306"/>
<stop offset="1" stop-color="#454FBC"/>
</linearGradient>
<linearGradient id="paint52_linear_10079_21639352" x1="112.963" y1="67.3664" x2="111.491" y2="60.6908" gradientUnits="userSpaceOnUse">
<stop stop-color="white" stop-opacity="0"/>
<stop offset="1" stop-color="#6DAEE3"/>
</linearGradient>
<linearGradient id="paint53_linear_10079_21639352" x1="143.883" y1="70.5098" x2="143.883" y2="70.632" gradientUnits="userSpaceOnUse">
<stop stop-color="#3B4B81"/>
<stop offset="1" stop-color="#8BCBFF"/>
</linearGradient>
<linearGradient id="paint54_linear_10079_21639352" x1="112.395" y1="65.595" x2="110.272" y2="69.7858" gradientUnits="userSpaceOnUse">
<stop/>
<stop offset="1" stop-color="#3137C5"/>
</linearGradient>
<linearGradient id="paint55_linear_10079_21639352" x1="103.564" y1="67.7345" x2="105.658" y2="67.7345" gradientUnits="userSpaceOnUse">
<stop stop-color="#157DFF"/>
<stop offset="1" stop-color="#0366DB" stop-opacity="0.0208333"/>
</linearGradient>
<linearGradient id="paint56_linear_10079_21639352" x1="10.7184" y1="89.4575" x2="12.9736" y2="89.0149" gradientUnits="userSpaceOnUse">
<stop stop-color="white"/>
<stop offset="1" stop-color="#6DAEE3"/>
</linearGradient>
<linearGradient id="paint57_linear_10079_21639352" x1="80.731" y1="84.9506" x2="89.4168" y2="77.9716" gradientUnits="userSpaceOnUse">
<stop stop-color="white" stop-opacity="0"/>
<stop offset="1" stop-color="#6DAEE3"/>
</linearGradient>
<linearGradient id="paint58_linear_10079_21639352" x1="106.454" y1="68.3771" x2="111.615" y2="67.3564" gradientUnits="userSpaceOnUse">
<stop stop-color="white" stop-opacity="0"/>
<stop offset="1" stop-color="#6DAEE3"/>
</linearGradient>
<linearGradient id="paint59_linear_10079_21639352" x1="13.1093" y1="108.363" x2="13.3148" y2="111.797" gradientUnits="userSpaceOnUse">
<stop/>
<stop offset="1" stop-color="#3137C5"/>
</linearGradient>
<linearGradient id="paint60_linear_10079_21639352" x1="54.4902" y1="110.075" x2="47.5307" y2="110.075" gradientUnits="userSpaceOnUse">
<stop stop-color="#157DFF"/>
<stop offset="1" stop-color="#0366DB" stop-opacity="0.0208333"/>
</linearGradient>
<linearGradient id="paint61_linear_10079_21639352" x1="65.7147" y1="105.323" x2="70.6891" y2="113.38" gradientUnits="userSpaceOnUse">
<stop/>
<stop offset="1" stop-color="#3137C5"/>
</linearGradient>
<linearGradient id="paint62_linear_10079_21639352" x1="81.0228" y1="109.844" x2="77.3926" y2="109.844" gradientUnits="userSpaceOnUse">
<stop stop-color="#157DFF"/>
<stop offset="1" stop-color="#0366DB" stop-opacity="0.0208333"/>
</linearGradient>
<linearGradient id="paint63_linear_10079_21639352" x1="126.375" y1="76.3153" x2="95.5543" y2="68.1343" gradientUnits="userSpaceOnUse">
<stop stop-color="white" stop-opacity="0"/>
<stop offset="1" stop-color="#6DAEE3"/>
</linearGradient>
<linearGradient id="paint64_linear_10079_21639352" x1="2.4545" y1="0.50291" x2="23.0854" y2="0.405089" gradientUnits="userSpaceOnUse">
<stop stop-color="white" stop-opacity="0"/>
<stop offset="0.59375" stop-color="#6DAEE3"/>
<stop offset="1" stop-color="#6DAEE3" stop-opacity="0"/>
</linearGradient>
<radialGradient id="paint65_radial_10079_21639352" cx="0" cy="0" r="1" gradientUnits="userSpaceOnUse" gradientTransform="translate(89.2305 135.26) rotate(90.0068) scale(2.28938 44.8679)">
<stop stop-color="#6A99DD"/>
<stop offset="1" stop-color="#A0C0EF"/>
</radialGradient>
</defs>
</svg>
