<svg title="Кинотеатр" viewBox="0 0 180 160" xmlns="http://www.w3.org/2000/svg" fill="none"><g clip-path="url(#a)"><g filter="url(#b)"><path fill="url(#c)" d="M99.164 149.759c44.644 0 80.836-1.799 80.836-4.02 0-2.22-36.192-4.02-80.836-4.02-44.645 0-80.836 1.8-80.836 4.02 0 2.221 36.192 4.02 80.836 4.02Z"/></g><mask id="e" width="107" height="10" x="49" y="64" maskUnits="userSpaceOnUse" style="mask-type:alpha"><path fill="#D3EEFF" d="M153.263 73.624H51.711a2.511 2.511 0 0 1-2.54-2.539v-3.777a2.511 2.511 0 0 1 2.54-2.539h101.614a2.51 2.51 0 0 1 2.538 2.539v3.777c0 1.362-1.176 2.539-2.6 2.539Z"/><path fill="url(#d)" d="M153.263 73.624H51.711a2.511 2.511 0 0 1-2.54-2.539v-3.777a2.511 2.511 0 0 1 2.54-2.539h101.614a2.51 2.51 0 0 1 2.538 2.539v3.777c0 1.362-1.176 2.539-2.6 2.539Z"/></mask><g mask="url(#e)"><path fill="#D3EEFF" d="M153.263 73.624H51.711a2.511 2.511 0 0 1-2.54-2.539v-3.777a2.511 2.511 0 0 1 2.54-2.539h101.614a2.51 2.51 0 0 1 2.538 2.539v3.777c0 1.362-1.176 2.539-2.6 2.539Z"/><path fill="url(#f)" d="M153.263 73.624H51.711a2.511 2.511 0 0 1-2.54-2.539v-3.777a2.511 2.511 0 0 1 2.54-2.539h101.614a2.51 2.51 0 0 1 2.538 2.539v3.777c0 1.362-1.176 2.539-2.6 2.539Z"/><path fill="#D3EEFF" d="M153.263 73.624H51.711a2.511 2.511 0 0 1-2.54-2.539v-3.777a2.511 2.511 0 0 1 2.54-2.539h101.614a2.51 2.51 0 0 1 2.538 2.539v3.777c0 1.362-1.176 2.539-2.6 2.539Z"/><path fill="url(#g)" d="M153.263 73.624H51.711a2.511 2.511 0 0 1-2.54-2.539v-3.777a2.511 2.511 0 0 1 2.54-2.539h101.614a2.51 2.51 0 0 1 2.538 2.539v3.777c0 1.362-1.176 2.539-2.6 2.539Z"/><g filter="url(#h)"><path fill="url(#i)" d="M149.056 59.87c-3.926-2.103-8.87-.162-8.87-.162s3.417-6.227-5.351-8.615c-8.77-2.326-3.849-3.773-9.225-11.832-5.377-8.058-12.594-1.139-15.588-4.067-3.058-2.93 4.451-10.642-6.447-11.145-10.899-.503-1.202 13.582-6.365 13.343-4.525-.208-8.651 6.172-9.62 7.8 1.319-2.294 7.29-14.044-9.512-9.798-18.612 4.72-6.953 20.568-6.953 20.568s-9.226-11.831-17.196-3.83c-5.025 5.098-3.979 10.105-2.52 13.086l-.518.162c.307.263.617.463.927.663 4.857 2.704 13.094-.015 13.094-.015s.259 1.313 1.16 2.533c.957 1.408 2.618 2.786 5.457 2.173a15.729 15.729 0 0 0 4.55-1.711c1.905-1.152 2.663-2.357 2.663-2.357s1.406 1.367 4.602 2.692c3.446 1.46 9.06 2.96 17.247 2.718 6.075-.154 9.296-.749 10.987-1.415 2.734-1.113 1.516-2.41 1.516-2.41s2.478 1.665 5.431 2.731c2.324.851 4.983 1.346 7.01.324 4.576-2.269 8.655-2.08 8.655-2.08s1.979 1.393 4.602 2.692c3.622 1.779 8.47 3.304 11.217.517 0 0 1.639-.916 1.708-2.4.084-3.22.017-8.678-2.661-10.165Z"/></g></g><path fill="#D3EEFF" d="M75.606 73.748H52.633l11.765 70.22h17.09l-5.882-70.22Z"/><path fill="url(#j)" d="M75.606 73.748H52.633l11.765 70.22h17.09l-5.882-70.22Z"/><path fill="url(#k)" d="M98.582 73.748H75.61l5.883 70.22h17.09v-70.22Z"/><path fill="#D3EEFF" d="M121.613 73.748H98.578v70.22h17.091l5.944-70.22Z"/><path fill="url(#l)" d="M121.613 73.748H98.578v70.22h17.091l5.944-70.22Z"/><path fill="url(#m)" d="M144.589 73.748h-22.973l-5.944 70.22h17.152l11.765-70.22Z"/><mask id="o" width="93" height="71" x="52" y="73" maskUnits="userSpaceOnUse" style="mask-type:alpha"><path fill="url(#n)" fill-rule="evenodd" d="M52.64 73.748h45.942v70.22H64.406L52.64 73.748Zm68.976 0h-23.03v70.22h34.238l11.765-70.22h-22.973Z" clip-rule="evenodd"/></mask><g mask="url(#o)"><g filter="url(#p)"><path fill="url(#q)" d="m54.063 73.624 80.647 9.165-5.325 61.178 11.306.124 10.094-70.467H54.063Z"/></g><path fill="url(#r)" d="M83.675 136.604c9.752-5.017 11.759-20.551 4.482-34.695-7.277-14.144-21.082-21.542-30.834-16.524-9.753 5.017-11.76 20.551-4.483 34.695 7.277 14.143 21.082 21.542 30.835 16.524Z"/></g><path fill="#fff" d="m50.64 73.748 3.53.248 12.88 68.238 16.41 1.734H64.015L50.64 73.748ZM25.516 86.441l27.121 18.577-27.121 18.577L48.55 104.77 25.516 86.441Z"/><path fill="url(#s)" d="M146.635 54.676c-3.901-1.92-8.607.247-8.607.247s3.034-6.378-5.573-8.359c-8.607-1.92-3.901-3.592-9.474-11.394s-12.261-.557-15.295-3.343c-3.096-2.787 3.839-10.837-6.75-10.837-10.588 0-.557 13.623-5.573 13.623-4.396 0-8.111 6.564-8.978 8.236 1.176-2.353 6.44-14.366-9.66-9.35-17.834 5.572-5.82 20.867-5.82 20.867s-9.475-11.394-16.843-3.034c-4.645 5.325-3.406 10.279-1.858 13.19l-.496.185c.31.248.62.434.93.62 4.83 2.476 12.693-.62 12.693-.62s.31 1.3 1.239 2.477c.99 1.362 2.662 2.663 5.387 1.92a15.038 15.038 0 0 0 4.335-1.92c1.795-1.238 2.476-2.477 2.476-2.477s1.425 1.3 4.583 2.477c3.405 1.3 8.916 2.539 16.842 1.92 5.883-.434 8.979-1.177 10.589-1.92 2.601-1.238 1.362-2.477 1.362-2.477s2.477 1.548 5.387 2.477c2.292.743 4.892 1.115 6.812 0 4.334-2.477 8.297-2.477 8.297-2.477s1.982 1.3 4.583 2.477c3.591 1.61 8.359 2.91 10.898 0 0 0 1.548-.99 1.548-2.477-.062-3.22-.372-8.669-3.034-10.031Z"/><path fill="url(#t)" d="M146.637 54.676c-3.901-1.92-8.607.247-8.607.247s3.034-6.378-5.573-8.359c-8.607-1.92-3.901-3.592-9.474-11.394-1.672-2.353-3.468-3.343-5.202-3.653.124.372.124.743.062 1.115.434.371.929.68 1.363 1.114 1.548 1.548 1.795 3.53.805 5.511-.62 1.177-2.291 1.548-3.406.867-1.053-.62-1.424-1.858-1.053-2.972-.433-.372-.929-.743-1.3-1.115-1.239-1.176-1.672-2.662-1.3-4.148-2.168.495-4.025 1.052-5.264-.124-3.096-2.725 3.839-10.775-6.749-10.775-.372 0-.681 0-.991.062.248.434.31.929.31 1.486.123.062.309.124.433.248.557.371.991.867 1.238 1.486 1.177.62 1.796 2.105 1.053 3.406-.681 1.176-1.796 1.981-3.096 2.229a9.316 9.316 0 0 1-1.796.186h-.805c-.062 0-.805.062-.31 0-.123 0-.247 0-.37.062.495 2.477.804 4.52-1.115 4.52-.372 0-.682.062-1.053.124.371.31.62.681.681 1.114.186 1.115.681 2.168.681 3.344 0 2.415-2.29 3.84-4.52 3.034-1.177-.433-2.23-1.733-1.734-3.034.124-.31.124-.619.248-.929.124-.371.31-.68.557-.928-1.92 1.981-3.344 4.52-3.901 5.51 1.177-2.352 6.44-14.365-9.66-9.35-.31.124-.62.186-.929.31 2.168-.186 4.459.31 6.13 1.796 1.115.99.93 3.22-.495 3.9-.124.063-.31.125-.433.187.186 2.662-2.353 6.006-4.335 7.43-1.672 1.177-3.715 1.92-5.697 1.239-2.724-.991-3.343-4.025-3.405-6.564 0-.372.062-.681.185-.99-.061-.063-.061-.125-.123-.187C65.21 47.06 71.03 54.49 71.03 54.49s-6.811-8.236-13.375-5.573a4.774 4.774 0 0 1 1.92 1.92c1.3.371 2.477 1.052 3.158 2.229.99 1.734.557 4.025-.929 5.387-1.177 1.115-3.034 1.362-4.644.99-.31.31-.681.558-1.239.682-1.052.371-2.476.124-3.467-.372-.434-.247-.805-.557-1.177-.867-.062-.061-.247-.247-.371-.433a11.077 11.077 0 0 0 1.362 6.192l-.495.186c.31.248.619.433.928.62 4.83 2.476 12.694-.62 12.694-.62s.31 1.3 1.239 2.477c.99 1.362 2.663 2.662 5.387 1.92a15.038 15.038 0 0 0 4.335-1.92c1.795-1.239 2.477-2.477 2.477-2.477s1.424 1.3 4.582 2.477c3.405 1.3 8.916 2.539 16.843 1.92 5.882-.434 8.978-1.177 10.588-1.92 2.601-1.239 1.362-2.477 1.362-2.477s2.477 1.548 5.388 2.477c2.291.743 4.892 1.114 6.811 0 4.335-2.477 8.298-2.477 8.298-2.477s1.981 1.3 4.582 2.477c3.591 1.61 8.359 2.91 10.898 0 0 0 1.548-.99 1.548-2.477-.124-3.344-.433-8.793-3.096-10.155Zm-71.334 5.201c-.124 1.796-.929 3.654-2.105 5.016-.558.681-1.548.867-2.415.62-.31.123-.62.185-.93.247-3.405.433-5.572-3.592-3.22-6.192.62-.681 1.363-.991 2.23-1.115.496-.805 1.115-1.424 1.982-1.796 2.353-1.052 4.644.681 4.458 3.22Zm22.292 3.715c-2.477 1.92-7.245 1.363-9.846-.247-.99-.62-1.3-1.61-1.114-2.539-.93-1.981-.93-3.777.495-5.45-.867-2.6.062-5.634 3.468-5.572a2.4 2.4 0 0 1 2.353 1.858c.062 0 .062.061.124.061.371.124.68.372.928.62.682.495 1.177 1.176 1.549 1.92.371.742.433 1.485.371 2.167.929.247 1.796.743 2.477 1.61 1.424 1.795.929 4.272-.805 5.572Zm5.511-14.551c-.619-.805-.805-1.61-.557-2.353-.062-.248-.124-.495-.124-.62 0 .063.062.063.062.125-.124-.31-.248-.62-.186-.93 0-.247.062-.557.124-.804.186-.558.495-1.177.805-1.734-.619-.558-.929-1.362-.681-2.415.743-3.53 4.334-3.468 7.183-3.406 1.733 0 2.476 1.486 2.353 2.787 1.672.99 1.919 3.963-.496 4.458-.371.062-.99.31-1.362.248-.062 0-.062 0-.124.062-.062.185-.062.371-.062.371-.247.929-.433 1.92-.805 2.787-1.114 2.6-4.149 4.025-6.13 1.424Zm13.004 12.137c-1.301 2.353-4.83 3.22-6.688.99-.372-.433-.557-.928-.681-1.424-.434.248-.867.434-1.362.434-1.425 0-2.353-1.115-2.477-2.477-.062-.93.185-1.858.681-2.54.062-.804.495-1.671 1.238-1.98 1.796-.806 3.468-2.23 5.511-2.168 2.539.062 3.592 2.477 3.901 4.644.124 1.486.62 3.096-.123 4.52Zm15.232-8.112c-.495 1.61-2.043 1.981-3.22 1.548-.309.867-1.052 1.548-2.229 1.61-2.724.062-5.449.062-6.997-2.663-1.238-2.29-.681-5.387 1.362-6.997 1.92-1.61 4.892-1.486 6.75.186.495.433.805.929 1.053 1.424.557 0 1.052.062 1.609.124.805.124 1.549.99 1.734 1.734.186.99.248 1.981-.062 3.034Zm13.252 8.73c-.186 1.673-.248 3.159-1.548 4.46-1.053.99-3.158.99-3.901-.496-.062-.062-.062-.124-.062-.124-.062-.062-.124-.062-.186-.124.433.248-.124-.062-.248-.062l-.557-.186c-.929-.31-1.796-.619-2.663-1.052-1.734-.93-2.972-2.91-1.548-4.706.991-1.239 2.663-1.425 4.149-1.61 1.115-.124 2.167-.124 3.282-.124 1.238 0 2.353.99 2.477 2.23.495.37.867 1.052.805 1.795Z" style="mix-blend-mode:multiply"/><g filter="url(#u)"><path fill="url(#v)" d="M42.474 135.451c17.823 0 32.27-13.436 32.27-30.011 0-16.574-14.447-30.01-32.27-30.01-17.823 0-32.27 13.436-32.27 30.01 0 16.575 14.447 30.011 32.27 30.011Z"/></g><path fill="url(#w)" d="M44.278 134.243c15.912 0 28.81-12.894 28.81-28.8s-12.898-28.8-28.81-28.8c-15.91 0-28.81 12.894-28.81 28.8s12.9 28.8 28.81 28.8Z"/><path fill="url(#x)" d="M44.278 134.243c15.912 0 28.81-12.894 28.81-28.8s-12.898-28.8-28.81-28.8c-15.91 0-28.81 12.894-28.81 28.8s12.9 28.8 28.81 28.8Z"/><path fill="url(#y)" d="M40.677 134.243c15.911 0 28.81-12.894 28.81-28.8s-12.899-28.8-28.81-28.8-28.81 12.894-28.81 28.8 12.899 28.8 28.81 28.8Z"/><mask id="A" width="59" height="59" x="11" y="76" maskUnits="userSpaceOnUse" style="mask-type:alpha"><path fill="url(#z)" d="M40.677 134.243c15.911 0 28.81-12.894 28.81-28.8s-12.899-28.8-28.81-28.8-28.81 12.894-28.81 28.8 12.899 28.8 28.81 28.8Z"/></mask><g mask="url(#A)"><path fill="url(#B)" d="m81.375 105.083 5.042-28.44-84.269 61.92h55.287l23.94-33.48Z"/></g><path fill="#FEFFCF" d="M64.55 90.43c7.923 13.723 3.181 31.431-10.537 39.351-6.86 3.96-14.403 4.573-21.42 3.219 7.377 1.978 15.413 1.497 22.584-2.643 13.718-7.92 18.46-25.628 10.537-39.35-4.142-7.174-10.549-11.791-18.238-13.59 6.706 1.535 13.113 6.153 17.074 13.014Z"/><path fill="url(#C)" d="M64.55 90.43c7.923 13.723 3.181 31.431-10.537 39.351-6.86 3.96-14.403 4.573-21.42 3.219 7.377 1.978 15.413 1.497 22.584-2.643 13.718-7.92 18.46-25.628 10.537-39.35-4.142-7.174-10.549-11.791-18.238-13.59 6.706 1.535 13.113 6.153 17.074 13.014Z"/><path fill="url(#D)" fill-rule="evenodd" d="M36.989 89.569h-4.255V121.1h4.255V89.569Zm.003.066 23.079 15.807-23.079 15.808V89.635Z" clip-rule="evenodd"/><path fill="#fff" d="M55.813 105.443 32.734 89.635v31.615l23.079-15.807Z"/><path fill="url(#E)" d="M146.637 54.676c-3.901-1.92-8.607.247-8.607.247s3.034-6.378-5.573-8.359c-8.607-1.92-3.901-3.592-9.474-11.394-1.672-2.353-3.468-3.343-5.202-3.653.124.372.124.743.062 1.115.434.371.929.68 1.363 1.114 1.548 1.548 1.795 3.53.805 5.511-.62 1.177-2.291 1.548-3.406.867-1.053-.62-1.424-1.858-1.053-2.972-.433-.372-.929-.743-1.3-1.115-1.239-1.176-1.672-2.662-1.3-4.148-2.168.495-4.025 1.052-5.264-.124-3.096-2.725 3.839-10.775-6.749-10.775-.372 0-.681 0-.991.062.248.434.31.929.31 1.486.123.062.309.124.433.248.557.371.991.867 1.238 1.486 1.177.62 1.796 2.105 1.053 3.406-.681 1.176-1.796 1.981-3.096 2.229a9.316 9.316 0 0 1-1.796.186h-.805c-.062 0-.805.062-.31 0-.123 0-.247 0-.37.062.495 2.477.804 4.52-1.115 4.52-.372 0-.682.062-1.053.124.371.31.62.681.681 1.114.186 1.115.681 2.168.681 3.344 0 2.415-2.29 3.84-4.52 3.034-1.177-.433-2.23-1.733-1.734-3.034.124-.31.124-.619.248-.929.124-.371.31-.68.557-.928-1.92 1.981-3.344 4.52-3.901 5.51 1.177-2.352 6.44-14.365-9.66-9.35-.31.124-.62.186-.929.31 2.168-.186 4.459.31 6.13 1.796 1.115.99.93 3.22-.495 3.9-.124.063-.31.125-.433.187.186 2.662-2.353 6.006-4.335 7.43-1.672 1.177-3.715 1.92-5.697 1.239-2.724-.991-3.343-4.025-3.405-6.564 0-.372.062-.681.185-.99-.061-.063-.061-.125-.123-.187C65.21 47.06 71.03 54.49 71.03 54.49s-6.811-8.236-13.375-5.573a4.774 4.774 0 0 1 1.92 1.92c1.3.371 2.477 1.052 3.158 2.229.99 1.734.557 4.025-.929 5.387-1.177 1.115-3.034 1.362-4.644.99-.31.31-.681.558-1.239.682-1.052.371-2.476.124-3.467-.372-.434-.247-.805-.557-1.177-.867-.062-.061-.247-.247-.371-.433a11.077 11.077 0 0 0 1.362 6.192l-.495.186c.31.248.619.433.928.62 4.83 2.476 12.694-.62 12.694-.62s.31 1.3 1.239 2.477c.99 1.362 2.663 2.662 5.387 1.92a15.038 15.038 0 0 0 4.335-1.92c1.795-1.239 2.477-2.477 2.477-2.477s1.424 1.3 4.582 2.477c3.405 1.3 8.916 2.539 16.843 1.92 5.882-.434 8.978-1.177 10.588-1.92 2.601-1.239 1.362-2.477 1.362-2.477s2.477 1.548 5.388 2.477c2.291.743 4.892 1.114 6.811 0 4.335-2.477 8.298-2.477 8.298-2.477s1.981 1.3 4.582 2.477c3.591 1.61 8.359 2.91 10.898 0 0 0 1.548-.99 1.548-2.477-.124-3.344-.433-8.793-3.096-10.155Zm-71.334 5.201c-.124 1.796-.929 3.654-2.105 5.016-.558.681-1.548.867-2.415.62-.31.123-.62.185-.93.247-3.405.433-5.572-3.592-3.22-6.192.62-.681 1.363-.991 2.23-1.115.496-.805 1.115-1.424 1.982-1.796 2.353-1.052 4.644.681 4.458 3.22Zm22.292 3.715c-2.477 1.92-7.245 1.363-9.846-.247-.99-.62-1.3-1.61-1.114-2.539-.93-1.981-.93-3.777.495-5.45-.867-2.6.062-5.634 3.468-5.572a2.4 2.4 0 0 1 2.353 1.858c.062 0 .062.061.124.061.371.124.68.372.928.62.682.495 1.177 1.176 1.549 1.92.371.742.433 1.485.371 2.167.929.247 1.796.743 2.477 1.61 1.424 1.795.929 4.272-.805 5.572Zm5.511-14.551c-.619-.805-.805-1.61-.557-2.353-.062-.248-.124-.495-.124-.62 0 .063.062.063.062.125-.124-.31-.248-.62-.186-.93 0-.247.062-.557.124-.804.186-.558.495-1.177.805-1.734-.619-.558-.929-1.362-.681-2.415.743-3.53 4.334-3.468 7.183-3.406 1.733 0 2.476 1.486 2.353 2.787 1.672.99 1.919 3.963-.496 4.458-.371.062-.99.31-1.362.248-.062 0-.062 0-.124.062-.062.185-.062.371-.062.371-.247.929-.433 1.92-.805 2.787-1.114 2.6-4.149 4.025-6.13 1.424Zm13.004 12.137c-1.301 2.353-4.83 3.22-6.688.99-.372-.433-.557-.928-.681-1.424-.434.248-.867.434-1.362.434-1.425 0-2.353-1.115-2.477-2.477-.062-.93.185-1.858.681-2.54.062-.804.495-1.671 1.238-1.98 1.796-.806 3.468-2.23 5.511-2.168 2.539.062 3.592 2.477 3.901 4.644.124 1.486.62 3.096-.123 4.52Zm15.232-8.112c-.495 1.61-2.043 1.981-3.22 1.548-.309.867-1.052 1.548-2.229 1.61-2.724.062-5.449.062-6.997-2.663-1.238-2.29-.681-5.387 1.362-6.997 1.92-1.61 4.892-1.486 6.75.186.495.433.805.929 1.053 1.424.557 0 1.052.062 1.609.124.805.124 1.549.99 1.734 1.734.186.99.248 1.981-.062 3.034Zm13.252 8.73c-.186 1.673-.248 3.159-1.548 4.46-1.053.99-3.158.99-3.901-.496-.062-.062-.062-.124-.062-.124-.062-.062-.124-.062-.186-.124.433.248-.124-.062-.248-.062l-.557-.186c-.929-.31-1.796-.619-2.663-1.052-1.734-.93-2.972-2.91-1.548-4.706.991-1.239 2.663-1.425 4.149-1.61 1.115-.124 2.167-.124 3.282-.124 1.238 0 2.353.99 2.477 2.23.495.37.867 1.052.805 1.795Z"/><path fill="url(#F)" d="m161.289 52.942.805 2.291-.867.124 12.075-1.92-.619-4.272-9.536 1.486v2.044l-1.053-1.858-3.653.557-.186 1.548-.805-1.424-2.229.372-.619 1.052 1.424 1.053-1.982-.124-1.672 2.725v-.062l1.487 1.052-1.92-.371-7.369 12.013 3.716 2.29 8.235-13.498-1.114-1.239 1.672.434-.31.495 1.115-1.857-.434-2.168 1.362 2.044-.928.124 3.219-.496.186-2.415Z"/><g fill="#CAA37D" style="mix-blend-mode:multiply"><path d="m162.086 55.233-.867.124 12.075-1.92-.31-2.166-11.641 1.857.743 2.105ZM156.578 53.871l-10.094 16.534 1.796 1.114 8.236-13.499-1.115-1.238 1.672.433-.31.496 1.115-1.858-.433-2.105-.867.123ZM161.223 53.128l-3.778.62 1.363 1.98-.929.124 3.22-.495.124-2.23Z"/></g><path fill="#D3EEFF" d="M168.596 78.269h-40.744l6.192 65.451h28.36l6.192-65.451Z"/><path fill="url(#G)" d="M168.596 78.269h-40.744l6.192 65.451h28.36l6.192-65.451Z"/><mask id="I" width="50" height="8" x="123" y="73" maskUnits="userSpaceOnUse" style="mask-type:alpha"><path fill="url(#H)" d="M171.999 80.003h-47.618a.978.978 0 0 1-.99-.991v-4.335c0-.557.433-.99.99-.99h47.618c.558 0 .991.433.991.99v4.335c0 .557-.433.99-.991.99Z"/></mask><g mask="url(#I)"><path fill="url(#J)" d="M171.999 80.003h-47.618a.978.978 0 0 1-.99-.991v-4.335c0-.557.433-.99.99-.99h47.618c.558 0 .991.433.991.99v4.335c0 .557-.433.99-.991.99Z"/><g style="mix-blend-mode:multiply"><path fill="#1C1C1C" d="M171.999 80.003h-47.618a.978.978 0 0 1-.99-.991v-4.335c0-.557.433-.99.99-.99h47.618c.558 0 .991.433.991.99v4.335c0 .557-.433.99-.991.99Z"/><path fill="url(#K)" d="M171.999 80.003h-47.618a.978.978 0 0 1-.99-.991v-4.335c0-.557.433-.99.99-.99h47.618c.558 0 .991.433.991.99v4.335c0 .557-.433.99-.991.99Z"/></g><path fill="url(#L)" d="M168.999 78.003h-47.618a.978.978 0 0 1-.99-.991v-4.335c0-.557.433-.99.99-.99h47.618c.558 0 .991.433.991.99v4.335c0 .557-.433.99-.991.99Z"/></g><path fill="#D3EEFF" d="M167.417 67.06h-38.515a2.973 2.973 0 0 0-2.972 2.973v3.715h44.46v-3.715c.062-1.672-1.301-2.972-2.973-2.972Z"/><path fill="url(#M)" d="M167.417 67.06h-38.515a2.973 2.973 0 0 0-2.972 2.973v3.715h44.46v-3.715c.062-1.672-1.301-2.972-2.973-2.972Z"/><path fill="#fff" d="M126.301 70.652a2.973 2.973 0 0 1 2.972-2.972h38.516c.991 0 1.858.495 2.415 1.238-.434-1.115-1.486-1.92-2.787-1.92h-38.515a2.973 2.973 0 0 0-2.972 2.973v3.715h.371v-3.034Z"/><path fill="url(#N)" d="m127.969 79.816 35.543 3.53-4.954 60.374h3.839l6.007-63.904h-40.435Z"/><g filter="url(#O)"><path fill="#fff" d="m158.87 70.157-28.484 1.796a.488.488 0 0 1-.495-.496v-1.796c0-.247.185-.495.495-.495h28.484c.248 0 .495.186.495.495 0 .248-.185.434-.495.496Z"/></g><g filter="url(#P)"><path fill="#fff" d="m134.042 86.38 4.273 51.767c.062 1.053.929 1.796 1.981 1.796a1.956 1.956 0 0 0 1.982-1.982V86.194a1.956 1.956 0 0 0-1.982-1.981h-4.272c-1.177 0-2.044.99-1.982 2.167Z"/></g><mask id="R" width="46" height="35" x="125" y="96" maskUnits="userSpaceOnUse" style="mask-type:alpha"><path fill="url(#Q)" d="m167.232 130.035 3.22-33.561h-44.46l3.158 33.561h38.082Z"/></mask><g mask="url(#R)"><path fill="url(#S)" d="m167.232 130.035 3.22-33.561h-44.46l3.158 33.561h38.082Z"/><g filter="url(#T)"><path fill="#1C1C1C" d="m121.156 97.085 39.983 3.084-3.151 33.255h7.821l3.487-36.339h-48.14Z"/><path fill="url(#U)" d="m121.156 97.085 39.983 3.084-3.151 33.255h7.821l3.487-36.339h-48.14Z"/></g></g></g><defs><linearGradient id="d" x1="63.064" x2="63.367" y1="65.958" y2="75.532" gradientUnits="userSpaceOnUse"><stop stop-color="#F4FAFF"/><stop offset="1" stop-color="#F4FAFF" stop-opacity="0"/></linearGradient><linearGradient id="f" x1="63.064" x2="63.367" y1="65.958" y2="75.532" gradientUnits="userSpaceOnUse"><stop stop-color="#F4FAFF"/><stop offset="1" stop-color="#F4FAFF" stop-opacity="0"/></linearGradient><linearGradient id="g" x1="63.064" x2="63.367" y1="65.958" y2="75.532" gradientUnits="userSpaceOnUse"><stop stop-color="#F4FAFF"/><stop offset="1" stop-color="#F4FAFF" stop-opacity="0"/></linearGradient><linearGradient id="j" x1="56.39" x2="94.276" y1="83.179" y2="124.072" gradientUnits="userSpaceOnUse"><stop stop-color="#F4FAFF"/><stop offset="1" stop-color="#F4FAFF" stop-opacity="0"/></linearGradient><linearGradient id="k" x1="87.096" x2="87.096" y1="73.748" y2="143.968" gradientUnits="userSpaceOnUse"><stop stop-color="#E7473D"/><stop offset="1" stop-color="#FF8532"/></linearGradient><linearGradient id="l" x1="101.578" x2="139.156" y1="83.179" y2="115.558" gradientUnits="userSpaceOnUse"><stop stop-color="#F4FAFF"/><stop offset="1" stop-color="#F4FAFF" stop-opacity="0"/></linearGradient><linearGradient id="m" x1="130.131" x2="130.131" y1="73.748" y2="143.968" gradientUnits="userSpaceOnUse"><stop stop-color="#E7473D"/><stop offset="1" stop-color="#FF8532"/></linearGradient><linearGradient id="n" x1="98.615" x2="98.615" y1="73.748" y2="143.968" gradientUnits="userSpaceOnUse"><stop stop-color="#E7473D"/><stop offset="1" stop-color="#FF8532"/></linearGradient><linearGradient id="q" x1="102.426" x2="102.424" y1="114.179" y2="144.091" gradientUnits="userSpaceOnUse"><stop/><stop offset="1" stop-color="#0357CA"/></linearGradient><linearGradient id="r" x1="72.489" x2="83.674" y1="114.862" y2="136.605" gradientUnits="userSpaceOnUse"><stop/><stop offset="1" stop-color="#0357CA"/></linearGradient><linearGradient id="s" x1="100.237" x2="100.237" y1="20.99" y2="69.32" gradientUnits="userSpaceOnUse"><stop stop-color="#FFF48F"/><stop offset="1" stop-color="#FFA24D"/></linearGradient><linearGradient id="t" x1="100.304" x2="100.304" y1="20.99" y2="69.444" gradientUnits="userSpaceOnUse"><stop stop-color="#FFF48F"/><stop offset="1" stop-color="#FFA24D"/></linearGradient><linearGradient id="v" x1="15.278" x2="63.948" y1="82.982" y2="149.204" gradientUnits="userSpaceOnUse"><stop stop-color="#C9E59A"/><stop offset="1" stop-color="#42AB44"/></linearGradient><linearGradient id="w" x1="63.092" x2="41.199" y1="76.642" y2="79.432" gradientUnits="userSpaceOnUse"><stop/><stop offset="1" stop-opacity="0"/></linearGradient><linearGradient id="x" x1="33.593" x2="68.194" y1="76.642" y2="106.846" gradientUnits="userSpaceOnUse"><stop stop-color="#42AB44"/><stop offset="1" stop-color="#42AB44" stop-opacity="0"/></linearGradient><linearGradient id="B" x1="44.282" x2="68.169" y1="93.651" y2="113.022" gradientUnits="userSpaceOnUse"><stop stop-color="#2A842B"/><stop offset="1" stop-color="#42AB44" stop-opacity="0"/></linearGradient><linearGradient id="C" x1="55.126" x2="49.276" y1="74.809" y2="139.212" gradientUnits="userSpaceOnUse"><stop stop-color="#CBE482"/><stop offset="1" stop-color="#CBE482" stop-opacity="0"/></linearGradient><linearGradient id="D" x1="46.403" x2="46.402" y1="107.802" y2="121.25" gradientUnits="userSpaceOnUse"><stop/><stop offset="1" stop-color="#0357CA"/></linearGradient><linearGradient id="F" x1="158.936" x2="158.936" y1="49.165" y2="71.519" gradientUnits="userSpaceOnUse"><stop stop-color="#FFF48F"/><stop offset="1" stop-color="#FFA24D"/></linearGradient><linearGradient id="G" x1="133.157" x2="164.685" y1="87.059" y2="138.61" gradientUnits="userSpaceOnUse"><stop stop-color="#F4FAFF"/><stop offset="1" stop-color="#F4FAFF" stop-opacity="0"/></linearGradient><linearGradient id="H" x1="136.102" x2="162.483" y1="66.282" y2="85.704" gradientUnits="userSpaceOnUse"><stop stop-color="#80F982"/><stop offset="1" stop-color="#42AB44"/></linearGradient><linearGradient id="J" x1="148.19" x2="148.19" y1="73.686" y2="80.003" gradientUnits="userSpaceOnUse"><stop stop-color="#80F982"/><stop offset="1" stop-color="#42AB44"/></linearGradient><linearGradient id="K" x1="179.255" x2="178.196" y1="77.476" y2="68.172" gradientUnits="userSpaceOnUse"><stop stop-color="#3BAB43"/><stop offset="1" stop-color="#294ECE" stop-opacity="0"/></linearGradient><linearGradient id="L" x1="133.102" x2="159.483" y1="64.282" y2="83.704" gradientUnits="userSpaceOnUse"><stop stop-color="#80F982"/><stop offset="1" stop-color="#42AB44"/></linearGradient><linearGradient id="M" x1="131.719" x2="132.132" y1="67.959" y2="75.172" gradientUnits="userSpaceOnUse"><stop stop-color="#F4FAFF"/><stop offset="1" stop-color="#F4FAFF" stop-opacity="0"/></linearGradient><linearGradient id="Q" x1="148.222" x2="148.222" y1="96.474" y2="130.035" gradientUnits="userSpaceOnUse"><stop stop-color="#80F982"/><stop offset="1" stop-color="#42AB44"/></linearGradient><linearGradient id="S" x1="148.222" x2="148.222" y1="96.474" y2="130.035" gradientUnits="userSpaceOnUse"><stop stop-color="#80F982"/><stop offset="1" stop-color="#42AB44"/></linearGradient><linearGradient id="U" x1="175.376" x2="150.234" y1="118.889" y2="81.63" gradientUnits="userSpaceOnUse"><stop stop-color="#3BAB43"/><stop offset="1" stop-color="#294ECE" stop-opacity="0"/></linearGradient><filter id="b" width="169.672" height="16.04" x="14.328" y="137.719" color-interpolation-filters="sRGB" filterUnits="userSpaceOnUse"><feFlood flood-opacity="0" result="BackgroundImageFix"/><feBlend in="SourceGraphic" in2="BackgroundImageFix" result="shape"/><feGaussianBlur result="effect1_foregroundBlur_10079_21660961" stdDeviation="2"/></filter><filter id="h" width="103.531" height="51.934" x="49.203" y="23.036" color-interpolation-filters="sRGB" filterUnits="userSpaceOnUse"><feFlood flood-opacity="0" result="BackgroundImageFix"/><feBlend in="SourceGraphic" in2="BackgroundImageFix" result="shape"/><feGaussianBlur result="effect1_foregroundBlur_10079_21660961" stdDeviation=".5"/></filter><filter id="p" width="116.719" height="90.467" x="44.063" y="63.624" color-interpolation-filters="sRGB" filterUnits="userSpaceOnUse"><feFlood flood-opacity="0" result="BackgroundImageFix"/><feBlend in="SourceGraphic" in2="BackgroundImageFix" result="shape"/><feGaussianBlur result="effect1_foregroundBlur_10079_21660961" stdDeviation="5"/></filter><filter id="u" width="74.539" height="70.022" x="5.203" y="70.43" color-interpolation-filters="sRGB" filterUnits="userSpaceOnUse"><feFlood flood-opacity="0" result="BackgroundImageFix"/><feBlend in="SourceGraphic" in2="BackgroundImageFix" result="shape"/><feGaussianBlur result="effect1_foregroundBlur_10079_21660961" stdDeviation="2.5"/></filter><filter id="O" width="31.477" height="4.787" x="128.891" y="68.166" color-interpolation-filters="sRGB" filterUnits="userSpaceOnUse"><feFlood flood-opacity="0" result="BackgroundImageFix"/><feBlend in="SourceGraphic" in2="BackgroundImageFix" result="shape"/><feGaussianBlur result="effect1_foregroundBlur_10079_21660961" stdDeviation=".5"/></filter><filter id="P" width="12.242" height="59.73" x="132.039" y="82.213" color-interpolation-filters="sRGB" filterUnits="userSpaceOnUse"><feFlood flood-opacity="0" result="BackgroundImageFix"/><feBlend in="SourceGraphic" in2="BackgroundImageFix" result="shape"/><feGaussianBlur result="effect1_foregroundBlur_10079_21660961" stdDeviation="1"/></filter><filter id="T" width="52.141" height="40.339" x="119.156" y="95.085" color-interpolation-filters="sRGB" filterUnits="userSpaceOnUse"><feFlood flood-opacity="0" result="BackgroundImageFix"/><feBlend in="SourceGraphic" in2="BackgroundImageFix" result="shape"/><feGaussianBlur result="effect1_foregroundBlur_10079_21660961" stdDeviation="1"/></filter><radialGradient id="c" cx="0" cy="0" r="1" gradientTransform="rotate(90.007 -23.279 122.445) scale(2.12098 42.6483)" gradientUnits="userSpaceOnUse"><stop stop-color="#6A99DD"/><stop offset="1" stop-color="#A0C0EF"/></radialGradient><radialGradient id="i" cx="0" cy="0" r="1" gradientTransform="rotate(92.644 27.879 72.653) scale(12.7492 26.8714)" gradientUnits="userSpaceOnUse"><stop stop-color="#6A99DD"/><stop offset="1" stop-color="#A0C0EF"/></radialGradient><radialGradient id="y" cx="0" cy="0" r="1" gradientTransform="rotate(45.382 -101.458 86.33) scale(42.3709 44.3899)" gradientUnits="userSpaceOnUse"><stop offset=".411" stop-color="#42AB44"/><stop offset="1" stop-color="#D6F3A4"/></radialGradient><radialGradient id="z" cx="0" cy="0" r="1" gradientTransform="rotate(45.382 -101.458 86.33) scale(42.3709 44.3899)" gradientUnits="userSpaceOnUse"><stop offset=".411" stop-color="#42AB44"/><stop offset="1" stop-color="#D6F3A4"/></radialGradient><radialGradient id="E" cx="0" cy="0" r="1" gradientTransform="matrix(7.1128 36.53231 -176.52136 34.36855 96.706 39.149)" gradientUnits="userSpaceOnUse"><stop stop-color="#6A99DD" stop-opacity="0"/><stop offset="1" stop-color="#A0C0EF"/></radialGradient><radialGradient id="N" cx="0" cy="0" r="1" gradientTransform="rotate(90 18.21 129.977) scale(16.8575 10.6666)" gradientUnits="userSpaceOnUse"><stop stop-color="#6A99DD"/><stop offset="1" stop-color="#A0C0EF"/></radialGradient><clipPath id="a"><path fill="#fff" d="M0 0h180v160H0z"/></clipPath></defs></svg>
