<svg title="Кино" width="180" height="160" viewBox="0 0 180 160" fill="none" xmlns="http://www.w3.org/2000/svg">
<g clip-path="url(#clip0_10079_21660961)">
<rect width="180" height="160" fill="white"/>
<g filter="url(#filter0_f_10079_21660961)">
<path d="M99.1639 149.759C143.808 149.759 180 147.96 180 145.739C180 143.519 143.808 141.719 99.1639 141.719C54.5195 141.719 18.3281 143.519 18.3281 145.739C18.3281 147.96 54.5195 149.759 99.1639 149.759Z" fill="url(#paint0_radial_10079_21660961)"/>
</g>
<mask id="mask0_10079_21660961" style="mask-type:alpha" maskUnits="userSpaceOnUse" x="49" y="64" width="107" height="10">
<path d="M153.263 73.6239H51.7107C50.2865 73.6239 49.1719 72.5093 49.1719 71.0851V67.3078C49.1719 65.8836 50.2865 64.769 51.7107 64.769H153.325C154.749 64.769 155.863 65.8836 155.863 67.3078V71.0851C155.863 72.4474 154.687 73.6239 153.263 73.6239Z" fill="#D3EEFF"/>
<path d="M153.263 73.6239H51.7107C50.2865 73.6239 49.1719 72.5093 49.1719 71.0851V67.3078C49.1719 65.8836 50.2865 64.769 51.7107 64.769H153.325C154.749 64.769 155.863 65.8836 155.863 67.3078V71.0851C155.863 72.4474 154.687 73.6239 153.263 73.6239Z" fill="url(#paint1_linear_10079_21660961)"/>
</mask>
<g mask="url(#mask0_10079_21660961)">
<path d="M153.263 73.6239H51.7107C50.2865 73.6239 49.1719 72.5093 49.1719 71.0851V67.3078C49.1719 65.8836 50.2865 64.769 51.7107 64.769H153.325C154.749 64.769 155.863 65.8836 155.863 67.3078V71.0851C155.863 72.4474 154.687 73.6239 153.263 73.6239Z" fill="#D3EEFF"/>
<path d="M153.263 73.6239H51.7107C50.2865 73.6239 49.1719 72.5093 49.1719 71.0851V67.3078C49.1719 65.8836 50.2865 64.769 51.7107 64.769H153.325C154.749 64.769 155.863 65.8836 155.863 67.3078V71.0851C155.863 72.4474 154.687 73.6239 153.263 73.6239Z" fill="url(#paint2_linear_10079_21660961)"/>
<path d="M153.263 73.6239H51.7107C50.2865 73.6239 49.1719 72.5093 49.1719 71.0851V67.3078C49.1719 65.8836 50.2865 64.769 51.7107 64.769H153.325C154.749 64.769 155.863 65.8836 155.863 67.3078V71.0851C155.863 72.4474 154.687 73.6239 153.263 73.6239Z" fill="#D3EEFF"/>
<path d="M153.263 73.6239H51.7107C50.2865 73.6239 49.1719 72.5093 49.1719 71.0851V67.3078C49.1719 65.8836 50.2865 64.769 51.7107 64.769H153.325C154.749 64.769 155.863 65.8836 155.863 67.3078V71.0851C155.863 72.4474 154.687 73.6239 153.263 73.6239Z" fill="url(#paint3_linear_10079_21660961)"/>
<g filter="url(#filter1_f_10079_21660961)">
<path d="M149.056 59.8699C145.13 57.7671 140.186 59.7084 140.186 59.7084C140.186 59.7084 143.603 53.4814 134.835 51.093C126.065 48.7666 130.986 47.32 125.61 39.2614C120.233 31.2027 113.016 38.1221 110.022 35.1944C106.964 32.2638 114.473 24.552 103.575 24.0489C92.6762 23.5458 102.373 37.6308 97.2104 37.3925C92.6853 37.1836 88.5587 43.5638 87.5893 45.1927C88.9087 42.8981 94.88 31.1481 78.0781 35.3935C59.466 40.1132 71.1249 55.9624 71.1249 55.9624C71.1249 55.9624 61.8992 44.1308 53.9294 52.1312C48.9039 57.2302 49.9501 62.2375 51.4092 65.2183L50.8908 65.3803C51.198 65.6425 51.5081 65.8427 51.8182 66.043C56.6752 68.7468 64.9121 66.0276 64.9121 66.0276C64.9121 66.0276 65.1708 67.3413 66.0725 68.5607C67.0294 69.9686 68.6902 71.347 71.5288 70.7342C73.4636 70.3276 74.9637 69.653 76.0786 69.0226C77.984 67.8708 78.7421 66.666 78.7421 66.666C78.7421 66.666 80.148 68.0327 83.3442 69.358C86.7895 70.8188 92.4047 72.3178 100.591 72.0758C106.666 71.9223 109.887 71.3272 111.578 70.6614C114.312 69.5478 113.094 68.2519 113.094 68.2519C113.094 68.2519 115.572 69.9159 118.525 70.9821C120.849 71.8332 123.508 72.3279 125.535 71.3057C130.111 69.0374 134.19 69.2257 134.19 69.2257C134.19 69.2257 136.169 70.6188 138.792 71.9177C142.414 73.6966 147.262 75.2221 150.009 72.4355C150.009 72.4355 151.648 71.5193 151.717 70.0348C151.801 66.8153 151.734 61.3573 149.056 59.8699Z" fill="url(#paint4_radial_10079_21660961)"/>
</g>
</g>
<path d="M75.6059 73.748H52.6328L64.398 143.968H81.4884L75.6059 73.748Z" fill="#D3EEFF"/>
<path d="M75.6059 73.748H52.6328L64.398 143.968H81.4884L75.6059 73.748Z" fill="url(#paint5_linear_10079_21660961)"/>
<path d="M98.5824 73.748H75.6094L81.492 143.968H98.5824V73.748Z" fill="url(#paint6_linear_10079_21660961)"/>
<path d="M121.613 73.748H98.5781V143.968H115.669L121.613 73.748Z" fill="#D3EEFF"/>
<path d="M121.613 73.748H98.5781V143.968H115.669L121.613 73.748Z" fill="url(#paint7_linear_10079_21660961)"/>
<path d="M144.589 73.748H121.616L115.672 143.968H132.824L144.589 73.748Z" fill="url(#paint8_linear_10079_21660961)"/>
<mask id="mask1_10079_21660961" style="mask-type:alpha" maskUnits="userSpaceOnUse" x="52" y="73" width="93" height="71">
<path fill-rule="evenodd" clip-rule="evenodd" d="M52.6406 73.748H75.6094H75.6137H98.5824V143.968H81.4963H81.492H64.4058L52.6406 73.748ZM121.616 73.748H98.5859V143.968H115.672H115.676H132.824L144.589 73.748H121.621H121.616Z" fill="url(#paint9_linear_10079_21660961)"/>
</mask>
<g mask="url(#mask1_10079_21660961)">
<g filter="url(#filter2_f_10079_21660961)">
<path d="M54.0625 73.624L134.71 82.7885L129.385 143.967L140.691 144.091L150.785 73.624H54.0625Z" fill="url(#paint10_linear_10079_21660961)"/>
</g>
<path d="M83.6746 136.604C93.4271 131.587 95.4339 116.053 88.157 101.909C80.88 87.7654 67.075 80.367 57.3225 85.3846C47.57 90.4022 45.5632 105.936 52.8401 120.08C60.1171 134.223 73.9221 141.622 83.6746 136.604Z" fill="url(#paint11_linear_10079_21660961)"/>
</g>
<path d="M50.6406 73.748L54.1702 73.9957L67.0499 142.234L83.4593 143.968H64.0158L50.6406 73.748Z" fill="white"/>
<path d="M25.5156 86.4414L52.6374 105.018L25.5156 123.595L48.5506 104.77L25.5156 86.4414Z" fill="white"/>
<path d="M146.635 54.6758C142.734 52.7562 138.028 54.9235 138.028 54.9235C138.028 54.9235 141.062 48.5455 132.455 46.564C123.848 44.6444 128.554 42.9725 122.981 35.1704C117.408 27.3682 110.72 34.6131 107.686 31.8266C104.59 29.0401 111.525 20.9902 100.936 20.9902C90.3478 20.9902 100.379 34.6131 95.3634 34.6131C90.967 34.6131 87.2517 41.1768 86.3847 42.8487C87.5613 40.4957 92.8246 28.4828 76.7249 33.4985C58.8914 39.0714 70.9043 54.3662 70.9043 54.3662C70.9043 54.3662 61.4302 42.9725 54.0615 51.332C49.4173 56.6573 50.6558 61.611 52.2038 64.5214L51.7084 64.7071C52.0181 64.9548 52.3277 65.1406 52.6373 65.3264C57.4672 67.8032 65.3313 64.7071 65.3313 64.7071C65.3313 64.7071 65.6409 66.0075 66.5697 67.184C67.5605 68.5463 69.2324 69.8467 71.9569 69.1036C73.8146 68.6082 75.2388 67.8652 76.2915 67.184C78.0872 65.9456 78.7683 64.7071 78.7683 64.7071C78.7683 64.7071 80.1926 66.0075 83.3506 67.184C86.7563 68.4844 92.2673 69.7228 100.193 69.1036C106.076 68.6701 109.172 67.9271 110.782 67.184C113.383 65.9456 112.144 64.7071 112.144 64.7071C112.144 64.7071 114.621 66.2552 117.531 67.184C119.823 67.9271 122.423 68.2986 124.343 67.184C128.677 64.7071 132.64 64.7071 132.64 64.7071C132.64 64.7071 134.622 66.0075 137.223 67.184C140.814 68.794 145.582 70.0943 148.121 67.184C148.121 67.184 149.669 66.1933 149.669 64.7071C149.607 61.4872 149.297 56.0381 146.635 54.6758Z" fill="url(#paint12_linear_10079_21660961)"/>
<g style="mix-blend-mode:multiply">
<path d="M146.637 54.6758C142.736 52.7562 138.03 54.9235 138.03 54.9235C138.03 54.9235 141.064 48.5455 132.457 46.564C123.85 44.6444 128.556 42.9725 122.983 35.1704C121.311 32.8173 119.515 31.8266 117.781 31.517C117.905 31.8885 117.905 32.26 117.843 32.6316C118.277 33.0031 118.772 33.3127 119.206 33.7462C120.754 35.2942 121.001 37.2757 120.011 39.2572C119.391 40.4337 117.72 40.8053 116.605 40.1241C115.552 39.5049 115.181 38.2665 115.552 37.1519C115.119 36.7803 114.623 36.4088 114.252 36.0373C113.013 34.8608 112.58 33.3746 112.952 31.8885C110.784 32.3839 108.927 32.9412 107.688 31.7647C104.592 29.0401 111.527 20.9902 100.939 20.9902C100.567 20.9902 100.258 20.9902 99.9479 21.0522C100.196 21.4856 100.258 21.981 100.258 22.5383C100.381 22.6002 100.567 22.6621 100.691 22.786C101.248 23.1575 101.682 23.6529 101.929 24.2721C103.106 24.8913 103.725 26.3774 102.982 27.6778C102.301 28.8543 101.186 29.6593 99.886 29.907C99.2668 30.0308 98.6476 30.0928 98.0903 30.0928C97.8426 30.0928 97.5949 30.0928 97.2853 30.0928C97.2234 30.0928 96.4803 30.1547 96.9757 30.0928C96.8518 30.0928 96.728 30.0928 96.6042 30.1547C97.0995 32.6316 97.4091 34.675 95.4896 34.675C95.118 34.675 94.8084 34.7369 94.4369 34.7988C94.8084 35.1084 95.0561 35.48 95.118 35.9134C95.3038 37.028 95.7992 38.0807 95.7992 39.2572C95.7992 41.6722 93.5081 43.0964 91.2789 42.2914C90.1024 41.8579 89.0497 40.5576 89.5451 39.2572C89.6689 38.9476 89.6689 38.638 89.7927 38.3284C89.9166 37.9569 90.1024 37.6472 90.35 37.3996C88.4305 39.3811 87.0063 41.9199 86.449 42.9106C87.6255 40.5576 92.8888 28.5447 76.7891 33.5604C76.4795 33.6842 76.1699 33.7462 75.8603 33.87C78.0276 33.6842 80.3187 34.1796 81.9906 35.6657C83.1052 36.6565 82.9194 38.8857 81.4952 39.5668C81.3714 39.6287 81.1856 39.6907 81.0617 39.7526C81.2475 42.4152 78.7087 45.759 76.7272 47.1832C75.0553 48.3597 73.0119 49.1028 71.0304 48.4217C68.3058 47.4309 67.6866 44.3967 67.6247 41.8579C67.6247 41.4864 67.6866 41.1768 67.8104 40.8672C67.7485 40.8053 67.7485 40.7433 67.6866 40.6814C65.2097 47.0594 71.0304 54.49 71.0304 54.49C71.0304 54.49 64.219 46.2544 57.6552 48.917C58.4602 49.3505 59.1414 50.0316 59.5748 50.8366C60.8752 51.2082 62.0517 51.8893 62.7328 53.0658C63.7236 54.7996 63.2901 57.0907 61.804 58.453C60.6275 59.5676 58.7698 59.8153 57.1599 59.4438C56.8503 59.7534 56.4787 60.0011 55.9214 60.1249C54.8688 60.4964 53.4446 60.2488 52.4538 59.7534C52.0203 59.5057 51.6488 59.1961 51.2773 58.8865C51.2154 58.8246 51.0296 58.6388 50.9058 58.453C50.72 60.9299 51.4011 63.0972 52.268 64.6452L51.7727 64.831C52.0823 65.0787 52.3919 65.2644 52.7015 65.4502C57.5314 67.9271 65.3955 64.831 65.3955 64.831C65.3955 64.831 65.7051 66.1313 66.6339 67.3079C67.6247 68.6702 69.2966 69.9705 72.0211 69.2274C73.8788 68.7321 75.303 67.989 76.3557 67.3079C78.1514 66.0694 78.8326 64.831 78.8326 64.831C78.8326 64.831 80.2568 66.1313 83.4148 67.3079C86.8205 68.6082 92.3315 69.8467 100.258 69.2274C106.14 68.794 109.236 68.0509 110.846 67.3079C113.447 66.0694 112.208 64.831 112.208 64.831C112.208 64.831 114.685 66.379 117.596 67.3079C119.887 68.0509 122.488 68.4225 124.407 67.3079C128.742 64.831 132.705 64.831 132.705 64.831C132.705 64.831 134.686 66.1313 137.287 67.3079C140.878 68.9178 145.646 70.2182 148.185 67.3079C148.185 67.3079 149.733 66.3171 149.733 64.831C149.609 61.4872 149.3 56.0381 146.637 54.6758ZM75.303 59.8772C75.1792 61.673 74.3742 63.5306 73.1977 64.8929C72.6404 65.5741 71.6496 65.7598 70.7827 65.5121C70.4731 65.636 70.1635 65.6979 69.8539 65.7598C66.4482 66.1933 64.2809 62.1683 66.6339 59.5676C67.2531 58.8865 67.9962 58.5769 68.8631 58.453C69.3585 57.648 69.9777 57.0288 70.8446 56.6573C73.1977 55.6046 75.4888 57.3384 75.303 59.8772ZM97.5949 63.5925C95.118 65.5121 90.35 64.9548 87.7493 63.3449C86.7586 62.7256 86.449 61.7349 86.6347 60.8061C85.7059 58.8246 85.7059 57.0288 87.1301 55.3569C86.2632 52.7562 87.192 49.722 90.5977 49.7839C91.7742 49.7839 92.7031 50.5889 92.9508 51.6416C93.0127 51.6416 93.0127 51.7035 93.0746 51.7035C93.4461 51.8274 93.7557 52.0751 94.0034 52.3227C94.6846 52.8181 95.18 53.4993 95.5515 54.2423C95.923 54.9854 95.9849 55.7285 95.923 56.4096C96.8518 56.6573 97.7188 57.1527 98.3999 58.0196C99.8241 59.8153 99.3287 62.2922 97.5949 63.5925ZM103.106 49.0409C102.487 48.2359 102.301 47.4309 102.549 46.6879C102.487 46.4402 102.425 46.1925 102.425 46.0686C102.425 46.1306 102.487 46.1306 102.487 46.1925C102.363 45.8829 102.239 45.5733 102.301 45.2636C102.301 45.016 102.363 44.7063 102.425 44.4587C102.611 43.9014 102.92 43.2821 103.23 42.7248C102.611 42.1675 102.301 41.3626 102.549 40.3099C103.292 36.7803 106.883 36.8423 109.732 36.9042C111.465 36.9042 112.208 38.3903 112.085 39.6907C113.757 40.6814 114.004 43.6537 111.589 44.149C111.218 44.211 110.599 44.4587 110.227 44.3967C110.165 44.3967 110.165 44.3967 110.103 44.4587C110.041 44.6444 110.041 44.8302 110.041 44.8302C109.794 45.759 109.608 46.7498 109.236 47.6167C108.122 50.2174 105.087 51.6416 103.106 49.0409ZM116.11 61.1776C114.809 63.5306 111.28 64.3975 109.422 62.1683C109.05 61.7349 108.865 61.2395 108.741 60.7441C108.307 60.9918 107.874 61.1776 107.379 61.1776C105.954 61.1776 105.026 60.063 104.902 58.7007C104.84 57.7719 105.087 56.8431 105.583 56.1619C105.645 55.3569 106.078 54.49 106.821 54.1804C108.617 53.3754 110.289 51.9512 112.332 52.0131C114.871 52.0751 115.924 54.49 116.233 56.6573C116.357 58.1434 116.853 59.7534 116.11 61.1776ZM131.342 53.0658C130.847 54.6758 129.299 55.0473 128.122 54.6139C127.813 55.4808 127.07 56.1619 125.893 56.2238C123.169 56.2858 120.444 56.2858 118.896 53.5612C117.658 51.2701 118.215 48.174 120.258 46.564C122.178 44.954 125.15 45.0779 127.008 46.7498C127.503 47.1832 127.813 47.6786 128.061 48.174C128.618 48.174 129.113 48.2359 129.67 48.2978C130.475 48.4217 131.219 49.2886 131.404 50.0316C131.59 51.0224 131.652 52.0131 131.342 53.0658ZM144.594 61.7968C144.408 63.4687 144.346 64.9548 143.046 66.2552C141.993 67.2459 139.888 67.2459 139.145 65.7598C139.083 65.6979 139.083 65.636 139.083 65.636C139.021 65.5741 138.959 65.5741 138.897 65.5121C139.33 65.7598 138.773 65.4502 138.649 65.4502C138.463 65.3883 138.278 65.3264 138.092 65.2644C137.163 64.9548 136.296 64.6452 135.429 64.2118C133.695 63.2829 132.457 61.3014 133.881 59.5057C134.872 58.2673 136.544 58.0815 138.03 57.8957C139.145 57.7719 140.197 57.7719 141.312 57.7719C142.55 57.7719 143.665 58.7626 143.789 60.0011C144.284 60.3726 144.656 61.0537 144.594 61.7968Z" fill="url(#paint13_linear_10079_21660961)"/>
</g>
<g filter="url(#filter3_f_10079_21660961)">
<path d="M42.4739 135.451C60.2966 135.451 74.7447 122.015 74.7447 105.44C74.7447 88.866 60.2966 75.4297 42.4739 75.4297C24.6513 75.4297 10.2031 88.866 10.2031 105.44C10.2031 122.015 24.6513 135.451 42.4739 135.451Z" fill="url(#paint14_linear_10079_21660961)"/>
</g>
<path d="M44.2784 134.243C60.1895 134.243 73.0881 121.349 73.0881 105.443C73.0881 89.5365 60.1895 76.6421 44.2784 76.6421C28.3673 76.6421 15.4688 89.5365 15.4688 105.443C15.4688 121.349 28.3673 134.243 44.2784 134.243Z" fill="url(#paint15_linear_10079_21660961)"/>
<path d="M44.2784 134.243C60.1895 134.243 73.0881 121.349 73.0881 105.443C73.0881 89.5365 60.1895 76.6421 44.2784 76.6421C28.3673 76.6421 15.4688 89.5365 15.4688 105.443C15.4688 121.349 28.3673 134.243 44.2784 134.243Z" fill="url(#paint16_linear_10079_21660961)"/>
<path d="M40.6769 134.243C56.588 134.243 69.4865 121.349 69.4865 105.443C69.4865 89.5365 56.588 76.6421 40.6769 76.6421C24.7657 76.6421 11.8672 89.5365 11.8672 105.443C11.8672 121.349 24.7657 134.243 40.6769 134.243Z" fill="url(#paint17_radial_10079_21660961)"/>
<mask id="mask2_10079_21660961" style="mask-type:alpha" maskUnits="userSpaceOnUse" x="11" y="76" width="59" height="59">
<path d="M40.6769 134.243C56.588 134.243 69.4865 121.349 69.4865 105.443C69.4865 89.5365 56.588 76.6421 40.6769 76.6421C24.7657 76.6421 11.8672 89.5365 11.8672 105.443C11.8672 121.349 24.7657 134.243 40.6769 134.243Z" fill="url(#paint18_radial_10079_21660961)"/>
</mask>
<g mask="url(#mask2_10079_21660961)">
<path d="M81.375 105.083L86.4167 76.6421L2.14844 138.563H57.4353L81.375 105.083Z" fill="url(#paint19_linear_10079_21660961)"/>
</g>
<path d="M64.5501 90.4309C72.4728 104.153 67.731 121.861 54.013 129.781C47.1539 133.741 39.6096 134.354 32.5922 133C39.9698 134.978 48.0059 134.497 55.1767 130.357C68.8948 122.437 73.6365 104.729 65.7138 91.0065C61.5724 83.8334 55.1653 79.216 47.476 77.4179C54.1816 78.9522 60.5888 83.5697 64.5501 90.4309Z" fill="#FEFFCF"/>
<path d="M64.5501 90.4309C72.4728 104.153 67.731 121.861 54.013 129.781C47.1539 133.741 39.6096 134.354 32.5922 133C39.9698 134.978 48.0059 134.497 55.1767 130.357C68.8948 122.437 73.6365 104.729 65.7138 91.0065C61.5724 83.8334 55.1653 79.216 47.476 77.4179C54.1816 78.9522 60.5888 83.5697 64.5501 90.4309Z" fill="url(#paint20_linear_10079_21660961)"/>
<path fill-rule="evenodd" clip-rule="evenodd" d="M36.989 89.5688H32.7344V121.1H36.989V89.5688ZM36.9922 89.635L60.0708 105.442L36.9922 121.25V89.635Z" fill="url(#paint21_linear_10079_21660961)"/>
<path d="M55.813 105.443L32.7344 89.6353V121.25L55.813 105.443Z" fill="white"/>
<path d="M146.637 54.6758C142.736 52.7562 138.03 54.9235 138.03 54.9235C138.03 54.9235 141.064 48.5455 132.457 46.564C123.85 44.6444 128.556 42.9725 122.983 35.1704C121.311 32.8173 119.515 31.8266 117.781 31.517C117.905 31.8885 117.905 32.26 117.843 32.6316C118.277 33.0031 118.772 33.3127 119.206 33.7462C120.754 35.2942 121.001 37.2757 120.011 39.2572C119.391 40.4337 117.72 40.8053 116.605 40.1241C115.552 39.5049 115.181 38.2665 115.552 37.1519C115.119 36.7803 114.623 36.4088 114.252 36.0373C113.013 34.8608 112.58 33.3746 112.952 31.8885C110.784 32.3839 108.927 32.9412 107.688 31.7647C104.592 29.0401 111.527 20.9902 100.939 20.9902C100.567 20.9902 100.258 20.9902 99.9479 21.0522C100.196 21.4856 100.258 21.981 100.258 22.5383C100.381 22.6002 100.567 22.6621 100.691 22.786C101.248 23.1575 101.682 23.6529 101.929 24.2721C103.106 24.8913 103.725 26.3774 102.982 27.6778C102.301 28.8543 101.186 29.6593 99.886 29.907C99.2668 30.0308 98.6476 30.0928 98.0903 30.0928C97.8426 30.0928 97.5949 30.0928 97.2853 30.0928C97.2234 30.0928 96.4803 30.1547 96.9757 30.0928C96.8518 30.0928 96.728 30.0928 96.6042 30.1547C97.0995 32.6316 97.4091 34.675 95.4896 34.675C95.118 34.675 94.8084 34.7369 94.4369 34.7988C94.8084 35.1084 95.0561 35.48 95.118 35.9134C95.3038 37.028 95.7992 38.0807 95.7992 39.2572C95.7992 41.6722 93.5081 43.0964 91.2789 42.2914C90.1024 41.8579 89.0497 40.5576 89.5451 39.2572C89.6689 38.9476 89.6689 38.638 89.7927 38.3284C89.9166 37.9569 90.1024 37.6472 90.35 37.3996C88.4305 39.3811 87.0063 41.9199 86.449 42.9106C87.6255 40.5576 92.8888 28.5447 76.7891 33.5604C76.4795 33.6842 76.1699 33.7462 75.8603 33.87C78.0276 33.6842 80.3187 34.1796 81.9906 35.6657C83.1052 36.6565 82.9194 38.8857 81.4952 39.5668C81.3714 39.6287 81.1856 39.6907 81.0617 39.7526C81.2475 42.4152 78.7087 45.759 76.7272 47.1832C75.0553 48.3597 73.0119 49.1028 71.0304 48.4217C68.3058 47.4309 67.6866 44.3967 67.6247 41.8579C67.6247 41.4864 67.6866 41.1768 67.8104 40.8672C67.7485 40.8053 67.7485 40.7433 67.6866 40.6814C65.2097 47.0594 71.0304 54.49 71.0304 54.49C71.0304 54.49 64.219 46.2544 57.6552 48.917C58.4602 49.3505 59.1414 50.0316 59.5748 50.8366C60.8752 51.2082 62.0517 51.8893 62.7328 53.0658C63.7236 54.7996 63.2901 57.0907 61.804 58.453C60.6275 59.5676 58.7698 59.8153 57.1599 59.4438C56.8503 59.7534 56.4787 60.0011 55.9214 60.1249C54.8688 60.4964 53.4446 60.2488 52.4538 59.7534C52.0203 59.5057 51.6488 59.1961 51.2773 58.8865C51.2154 58.8246 51.0296 58.6388 50.9058 58.453C50.72 60.9299 51.4011 63.0972 52.268 64.6452L51.7727 64.831C52.0823 65.0787 52.3919 65.2644 52.7015 65.4502C57.5314 67.9271 65.3955 64.831 65.3955 64.831C65.3955 64.831 65.7051 66.1313 66.6339 67.3079C67.6247 68.6702 69.2966 69.9705 72.0211 69.2274C73.8788 68.7321 75.303 67.989 76.3557 67.3079C78.1514 66.0694 78.8326 64.831 78.8326 64.831C78.8326 64.831 80.2568 66.1313 83.4148 67.3079C86.8205 68.6082 92.3315 69.8467 100.258 69.2274C106.14 68.794 109.236 68.0509 110.846 67.3079C113.447 66.0694 112.208 64.831 112.208 64.831C112.208 64.831 114.685 66.379 117.596 67.3079C119.887 68.0509 122.488 68.4225 124.407 67.3079C128.742 64.831 132.705 64.831 132.705 64.831C132.705 64.831 134.686 66.1313 137.287 67.3079C140.878 68.9178 145.646 70.2182 148.185 67.3079C148.185 67.3079 149.733 66.3171 149.733 64.831C149.609 61.4872 149.3 56.0381 146.637 54.6758ZM75.303 59.8772C75.1792 61.673 74.3742 63.5306 73.1977 64.8929C72.6404 65.5741 71.6496 65.7598 70.7827 65.5121C70.4731 65.636 70.1635 65.6979 69.8539 65.7598C66.4482 66.1933 64.2809 62.1683 66.6339 59.5676C67.2531 58.8865 67.9962 58.5769 68.8631 58.453C69.3585 57.648 69.9777 57.0288 70.8446 56.6573C73.1977 55.6046 75.4888 57.3384 75.303 59.8772ZM97.5949 63.5925C95.118 65.5121 90.35 64.9548 87.7493 63.3449C86.7586 62.7256 86.449 61.7349 86.6347 60.8061C85.7059 58.8246 85.7059 57.0288 87.1301 55.3569C86.2632 52.7562 87.192 49.722 90.5977 49.7839C91.7742 49.7839 92.7031 50.5889 92.9508 51.6416C93.0127 51.6416 93.0127 51.7035 93.0746 51.7035C93.4461 51.8274 93.7557 52.0751 94.0034 52.3227C94.6846 52.8181 95.18 53.4993 95.5515 54.2423C95.923 54.9854 95.9849 55.7285 95.923 56.4096C96.8518 56.6573 97.7188 57.1527 98.3999 58.0196C99.8241 59.8153 99.3287 62.2922 97.5949 63.5925ZM103.106 49.0409C102.487 48.2359 102.301 47.4309 102.549 46.6879C102.487 46.4402 102.425 46.1925 102.425 46.0686C102.425 46.1306 102.487 46.1306 102.487 46.1925C102.363 45.8829 102.239 45.5733 102.301 45.2636C102.301 45.016 102.363 44.7063 102.425 44.4587C102.611 43.9014 102.92 43.2821 103.23 42.7248C102.611 42.1675 102.301 41.3626 102.549 40.3099C103.292 36.7803 106.883 36.8423 109.732 36.9042C111.465 36.9042 112.208 38.3903 112.085 39.6907C113.757 40.6814 114.004 43.6537 111.589 44.149C111.218 44.211 110.599 44.4587 110.227 44.3967C110.165 44.3967 110.165 44.3967 110.103 44.4587C110.041 44.6444 110.041 44.8302 110.041 44.8302C109.794 45.759 109.608 46.7498 109.236 47.6167C108.122 50.2174 105.087 51.6416 103.106 49.0409ZM116.11 61.1776C114.809 63.5306 111.28 64.3975 109.422 62.1683C109.05 61.7349 108.865 61.2395 108.741 60.7441C108.307 60.9918 107.874 61.1776 107.379 61.1776C105.954 61.1776 105.026 60.063 104.902 58.7007C104.84 57.7719 105.087 56.8431 105.583 56.1619C105.645 55.3569 106.078 54.49 106.821 54.1804C108.617 53.3754 110.289 51.9512 112.332 52.0131C114.871 52.0751 115.924 54.49 116.233 56.6573C116.357 58.1434 116.853 59.7534 116.11 61.1776ZM131.342 53.0658C130.847 54.6758 129.299 55.0473 128.122 54.6139C127.813 55.4808 127.07 56.1619 125.893 56.2238C123.169 56.2858 120.444 56.2858 118.896 53.5612C117.658 51.2701 118.215 48.174 120.258 46.564C122.178 44.954 125.15 45.0779 127.008 46.7498C127.503 47.1832 127.813 47.6786 128.061 48.174C128.618 48.174 129.113 48.2359 129.67 48.2978C130.475 48.4217 131.219 49.2886 131.404 50.0316C131.59 51.0224 131.652 52.0131 131.342 53.0658ZM144.594 61.7968C144.408 63.4687 144.346 64.9548 143.046 66.2552C141.993 67.2459 139.888 67.2459 139.145 65.7598C139.083 65.6979 139.083 65.636 139.083 65.636C139.021 65.5741 138.959 65.5741 138.897 65.5121C139.33 65.7598 138.773 65.4502 138.649 65.4502C138.463 65.3883 138.278 65.3264 138.092 65.2644C137.163 64.9548 136.296 64.6452 135.429 64.2118C133.695 63.2829 132.457 61.3014 133.881 59.5057C134.872 58.2673 136.544 58.0815 138.03 57.8957C139.145 57.7719 140.197 57.7719 141.312 57.7719C142.55 57.7719 143.665 58.7626 143.789 60.0011C144.284 60.3726 144.656 61.0537 144.594 61.7968Z" fill="url(#paint22_radial_10079_21660961)"/>
<path d="M161.289 52.9423L162.094 55.2334L161.227 55.3572L173.302 53.4377L172.683 49.165L163.147 50.6512V52.6946L162.094 50.8369L158.441 51.3942L158.255 52.9423L157.45 51.5181L155.221 51.8896L154.602 52.9423L156.026 53.995L154.044 53.8711L152.372 56.5957V56.5338L153.859 57.5864L151.939 57.2149L144.57 69.2278L148.286 71.5189L156.521 58.0199L155.407 56.7814L157.079 57.2149L156.769 57.7103L157.884 55.8526L157.45 53.6853L158.812 55.7288L157.884 55.8526L161.103 55.3572L161.289 52.9423Z" fill="url(#paint23_linear_10079_21660961)"/>
<g style="mix-blend-mode:multiply">
<path d="M162.086 55.2335L161.219 55.3574L173.294 53.4378L172.984 51.2705L161.343 53.1282L162.086 55.2335Z" fill="#CAA37D"/>
<path d="M156.578 53.8714L146.484 70.4046L148.28 71.5192L156.516 58.0202L155.401 56.7817L157.073 57.2152L156.763 57.7106L157.878 55.8529L157.445 53.7476L156.578 53.8714Z" fill="#CAA37D"/>
<path d="M161.223 53.1279L157.445 53.7471L158.808 55.7287L157.879 55.8525L161.099 55.3571L161.223 53.1279Z" fill="#CAA37D"/>
</g>
<path d="M168.596 78.2686H127.852L134.044 143.72H162.404L168.596 78.2686Z" fill="#D3EEFF"/>
<path d="M168.596 78.2686H127.852L134.044 143.72H162.404L168.596 78.2686Z" fill="url(#paint24_linear_10079_21660961)"/>
<mask id="mask3_10079_21660961" style="mask-type:alpha" maskUnits="userSpaceOnUse" x="123" y="73" width="50" height="8">
<path d="M171.999 80.0026H124.381C123.824 80.0026 123.391 79.5691 123.391 79.0118V74.6773C123.391 74.12 123.824 73.6865 124.381 73.6865H171.999C172.557 73.6865 172.99 74.12 172.99 74.6773V79.0118C172.99 79.5691 172.557 80.0026 171.999 80.0026Z" fill="url(#paint25_linear_10079_21660961)"/>
</mask>
<g mask="url(#mask3_10079_21660961)">
<path d="M171.999 80.0026H124.381C123.824 80.0026 123.391 79.5691 123.391 79.0118V74.6773C123.391 74.12 123.824 73.6865 124.381 73.6865H171.999C172.557 73.6865 172.99 74.12 172.99 74.6773V79.0118C172.99 79.5691 172.557 80.0026 171.999 80.0026Z" fill="url(#paint26_linear_10079_21660961)"/>
<g style="mix-blend-mode:multiply">
<path d="M171.999 80.0026H124.381C123.824 80.0026 123.391 79.5691 123.391 79.0118V74.6773C123.391 74.12 123.824 73.6865 124.381 73.6865H171.999C172.557 73.6865 172.99 74.12 172.99 74.6773V79.0118C172.99 79.5691 172.557 80.0026 171.999 80.0026Z" fill="#1C1C1C"/>
<path d="M171.999 80.0026H124.381C123.824 80.0026 123.391 79.5691 123.391 79.0118V74.6773C123.391 74.12 123.824 73.6865 124.381 73.6865H171.999C172.557 73.6865 172.99 74.12 172.99 74.6773V79.0118C172.99 79.5691 172.557 80.0026 171.999 80.0026Z" fill="url(#paint27_linear_10079_21660961)"/>
</g>
<path d="M168.999 78.0026H121.381C120.824 78.0026 120.391 77.5691 120.391 77.0118V72.6773C120.391 72.12 120.824 71.6865 121.381 71.6865H168.999C169.557 71.6865 169.99 72.12 169.99 72.6773V77.0118C169.99 77.5691 169.557 78.0026 168.999 78.0026Z" fill="url(#paint28_linear_10079_21660961)"/>
</g>
<path d="M167.417 67.0605H128.902C127.23 67.0605 125.93 68.4228 125.93 70.0328V73.7481H170.39V70.0328C170.452 68.3609 169.089 67.0605 167.417 67.0605Z" fill="#D3EEFF"/>
<path d="M167.417 67.0605H128.902C127.23 67.0605 125.93 68.4228 125.93 70.0328V73.7481H170.39V70.0328C170.452 68.3609 169.089 67.0605 167.417 67.0605Z" fill="url(#paint29_linear_10079_21660961)"/>
<path d="M126.301 70.6519C126.301 68.98 127.664 67.6797 129.273 67.6797H167.789C168.78 67.6797 169.647 68.1751 170.204 68.9181C169.77 67.8035 168.718 66.9985 167.417 66.9985H128.902C127.23 66.9985 125.93 68.3608 125.93 69.9708V73.6861H126.301V70.6519Z" fill="white"/>
<path d="M127.969 79.8164L163.512 83.346L158.558 143.72H162.397L168.404 79.8164H127.969Z" fill="url(#paint30_radial_10079_21660961)"/>
<g filter="url(#filter4_f_10079_21660961)">
<path d="M158.87 70.1568L130.386 71.9525C130.138 71.9525 129.891 71.7667 129.891 71.4571V69.6614C129.891 69.4137 130.076 69.166 130.386 69.166H158.87C159.118 69.166 159.365 69.3518 159.365 69.6614C159.365 69.9091 159.18 70.0948 158.87 70.1568Z" fill="white"/>
</g>
<g filter="url(#filter5_f_10079_21660961)">
<path d="M134.042 86.3802L138.315 138.147C138.377 139.2 139.244 139.943 140.296 139.943C141.411 139.943 142.278 139.076 142.278 137.961V86.1944C142.278 85.0798 141.411 84.2129 140.296 84.2129H136.024C134.847 84.2129 133.98 85.2036 134.042 86.3802Z" fill="white"/>
</g>
<mask id="mask4_10079_21660961" style="mask-type:alpha" maskUnits="userSpaceOnUse" x="125" y="96" width="46" height="35">
<path d="M167.232 130.035L170.452 96.4736H125.992L129.15 130.035H167.232Z" fill="url(#paint31_linear_10079_21660961)"/>
</mask>
<g mask="url(#mask4_10079_21660961)">
<path d="M167.232 130.035L170.452 96.4736H125.992L129.15 130.035H167.232Z" fill="url(#paint32_linear_10079_21660961)"/>
<g filter="url(#filter6_f_10079_21660961)">
<path d="M121.156 97.085L161.139 100.169L157.988 133.424H165.809L169.296 97.085H121.156Z" fill="#1C1C1C"/>
<path d="M121.156 97.085L161.139 100.169L157.988 133.424H165.809L169.296 97.085H121.156Z" fill="url(#paint33_linear_10079_21660961)"/>
</g>
</g>
</g>
<defs>
<filter id="filter0_f_10079_21660961" x="14.3281" y="137.719" width="169.672" height="16.04" filterUnits="userSpaceOnUse" color-interpolation-filters="sRGB">
<feFlood flood-opacity="0" result="BackgroundImageFix"/>
<feBlend mode="normal" in="SourceGraphic" in2="BackgroundImageFix" result="shape"/>
<feGaussianBlur stdDeviation="2" result="effect1_foregroundBlur_10079_21660961"/>
</filter>
<filter id="filter1_f_10079_21660961" x="49.2031" y="23.0356" width="103.531" height="51.9336" filterUnits="userSpaceOnUse" color-interpolation-filters="sRGB">
<feFlood flood-opacity="0" result="BackgroundImageFix"/>
<feBlend mode="normal" in="SourceGraphic" in2="BackgroundImageFix" result="shape"/>
<feGaussianBlur stdDeviation="0.5" result="effect1_foregroundBlur_10079_21660961"/>
</filter>
<filter id="filter2_f_10079_21660961" x="44.0625" y="63.624" width="116.719" height="90.4673" filterUnits="userSpaceOnUse" color-interpolation-filters="sRGB">
<feFlood flood-opacity="0" result="BackgroundImageFix"/>
<feBlend mode="normal" in="SourceGraphic" in2="BackgroundImageFix" result="shape"/>
<feGaussianBlur stdDeviation="5" result="effect1_foregroundBlur_10079_21660961"/>
</filter>
<filter id="filter3_f_10079_21660961" x="5.20312" y="70.4297" width="74.5391" height="70.0215" filterUnits="userSpaceOnUse" color-interpolation-filters="sRGB">
<feFlood flood-opacity="0" result="BackgroundImageFix"/>
<feBlend mode="normal" in="SourceGraphic" in2="BackgroundImageFix" result="shape"/>
<feGaussianBlur stdDeviation="2.5" result="effect1_foregroundBlur_10079_21660961"/>
</filter>
<filter id="filter4_f_10079_21660961" x="128.891" y="68.166" width="31.4766" height="4.78662" filterUnits="userSpaceOnUse" color-interpolation-filters="sRGB">
<feFlood flood-opacity="0" result="BackgroundImageFix"/>
<feBlend mode="normal" in="SourceGraphic" in2="BackgroundImageFix" result="shape"/>
<feGaussianBlur stdDeviation="0.5" result="effect1_foregroundBlur_10079_21660961"/>
</filter>
<filter id="filter5_f_10079_21660961" x="132.039" y="82.2129" width="12.2422" height="59.73" filterUnits="userSpaceOnUse" color-interpolation-filters="sRGB">
<feFlood flood-opacity="0" result="BackgroundImageFix"/>
<feBlend mode="normal" in="SourceGraphic" in2="BackgroundImageFix" result="shape"/>
<feGaussianBlur stdDeviation="1" result="effect1_foregroundBlur_10079_21660961"/>
</filter>
<filter id="filter6_f_10079_21660961" x="119.156" y="95.085" width="52.1406" height="40.3394" filterUnits="userSpaceOnUse" color-interpolation-filters="sRGB">
<feFlood flood-opacity="0" result="BackgroundImageFix"/>
<feBlend mode="normal" in="SourceGraphic" in2="BackgroundImageFix" result="shape"/>
<feGaussianBlur stdDeviation="1" result="effect1_foregroundBlur_10079_21660961"/>
</filter>
<radialGradient id="paint0_radial_10079_21660961" cx="0" cy="0" r="1" gradientUnits="userSpaceOnUse" gradientTransform="translate(99.1639 145.739) rotate(90.007) scale(2.12098 42.6483)">
<stop stop-color="#6A99DD"/>
<stop offset="1" stop-color="#A0C0EF"/>
</radialGradient>
<linearGradient id="paint1_linear_10079_21660961" x1="63.0642" y1="65.9583" x2="63.3667" y2="75.5317" gradientUnits="userSpaceOnUse">
<stop stop-color="#F4FAFF"/>
<stop offset="1" stop-color="#F4FAFF" stop-opacity="0"/>
</linearGradient>
<linearGradient id="paint2_linear_10079_21660961" x1="63.0642" y1="65.9583" x2="63.3667" y2="75.5317" gradientUnits="userSpaceOnUse">
<stop stop-color="#F4FAFF"/>
<stop offset="1" stop-color="#F4FAFF" stop-opacity="0"/>
</linearGradient>
<linearGradient id="paint3_linear_10079_21660961" x1="63.0642" y1="65.9583" x2="63.3667" y2="75.5317" gradientUnits="userSpaceOnUse">
<stop stop-color="#F4FAFF"/>
<stop offset="1" stop-color="#F4FAFF" stop-opacity="0"/>
</linearGradient>
<radialGradient id="paint4_radial_10079_21660961" cx="0" cy="0" r="1" gradientUnits="userSpaceOnUse" gradientTransform="translate(101.74 48.1549) rotate(92.6438) scale(12.7492 26.8714)">
<stop stop-color="#6A99DD"/>
<stop offset="1" stop-color="#A0C0EF"/>
</radialGradient>
<linearGradient id="paint5_linear_10079_21660961" x1="56.3901" y1="83.1792" x2="94.2761" y2="124.072" gradientUnits="userSpaceOnUse">
<stop stop-color="#F4FAFF"/>
<stop offset="1" stop-color="#F4FAFF" stop-opacity="0"/>
</linearGradient>
<linearGradient id="paint6_linear_10079_21660961" x1="87.0959" y1="73.748" x2="87.0959" y2="143.968" gradientUnits="userSpaceOnUse">
<stop stop-color="#E7473D"/>
<stop offset="1" stop-color="#FF8532"/>
</linearGradient>
<linearGradient id="paint7_linear_10079_21660961" x1="101.578" y1="83.1792" x2="139.156" y2="115.558" gradientUnits="userSpaceOnUse">
<stop stop-color="#F4FAFF"/>
<stop offset="1" stop-color="#F4FAFF" stop-opacity="0"/>
</linearGradient>
<linearGradient id="paint8_linear_10079_21660961" x1="130.131" y1="73.748" x2="130.131" y2="143.968" gradientUnits="userSpaceOnUse">
<stop stop-color="#E7473D"/>
<stop offset="1" stop-color="#FF8532"/>
</linearGradient>
<linearGradient id="paint9_linear_10079_21660961" x1="98.615" y1="73.748" x2="98.615" y2="143.968" gradientUnits="userSpaceOnUse">
<stop stop-color="#E7473D"/>
<stop offset="1" stop-color="#FF8532"/>
</linearGradient>
<linearGradient id="paint10_linear_10079_21660961" x1="102.426" y1="114.179" x2="102.424" y2="144.091" gradientUnits="userSpaceOnUse">
<stop/>
<stop offset="1" stop-color="#0357CA"/>
</linearGradient>
<linearGradient id="paint11_linear_10079_21660961" x1="72.4893" y1="114.862" x2="83.6738" y2="136.605" gradientUnits="userSpaceOnUse">
<stop/>
<stop offset="1" stop-color="#0357CA"/>
</linearGradient>
<linearGradient id="paint12_linear_10079_21660961" x1="100.237" y1="20.9902" x2="100.237" y2="69.3201" gradientUnits="userSpaceOnUse">
<stop stop-color="#FFF48F"/>
<stop offset="1" stop-color="#FFA24D"/>
</linearGradient>
<linearGradient id="paint13_linear_10079_21660961" x1="100.304" y1="20.9902" x2="100.304" y2="69.4439" gradientUnits="userSpaceOnUse">
<stop stop-color="#FFF48F"/>
<stop offset="1" stop-color="#FFA24D"/>
</linearGradient>
<linearGradient id="paint14_linear_10079_21660961" x1="15.2777" y1="82.9822" x2="63.9484" y2="149.204" gradientUnits="userSpaceOnUse">
<stop stop-color="#C9E59A"/>
<stop offset="1" stop-color="#42AB44"/>
</linearGradient>
<linearGradient id="paint15_linear_10079_21660961" x1="63.0918" y1="76.6421" x2="41.1993" y2="79.4324" gradientUnits="userSpaceOnUse">
<stop/>
<stop offset="1" stop-opacity="0"/>
</linearGradient>
<linearGradient id="paint16_linear_10079_21660961" x1="33.5933" y1="76.6421" x2="68.1941" y2="106.846" gradientUnits="userSpaceOnUse">
<stop stop-color="#42AB44"/>
<stop offset="1" stop-color="#42AB44" stop-opacity="0"/>
</linearGradient>
<radialGradient id="paint17_radial_10079_21660961" cx="0" cy="0" r="1" gradientUnits="userSpaceOnUse" gradientTransform="translate(31.2543 97.9122) rotate(45.3821) scale(42.3709 44.3899)">
<stop offset="0.411458" stop-color="#42AB44"/>
<stop offset="1" stop-color="#D6F3A4"/>
</radialGradient>
<radialGradient id="paint18_radial_10079_21660961" cx="0" cy="0" r="1" gradientUnits="userSpaceOnUse" gradientTransform="translate(31.2543 97.9122) rotate(45.3821) scale(42.3709 44.3899)">
<stop offset="0.411458" stop-color="#42AB44"/>
<stop offset="1" stop-color="#D6F3A4"/>
</radialGradient>
<linearGradient id="paint19_linear_10079_21660961" x1="44.2825" y1="93.6512" x2="68.1694" y2="113.022" gradientUnits="userSpaceOnUse">
<stop stop-color="#2A842B"/>
<stop offset="1" stop-color="#42AB44" stop-opacity="0"/>
</linearGradient>
<linearGradient id="paint20_linear_10079_21660961" x1="55.1258" y1="74.809" x2="49.2756" y2="139.212" gradientUnits="userSpaceOnUse">
<stop stop-color="#CBE482"/>
<stop offset="1" stop-color="#CBE482" stop-opacity="0"/>
</linearGradient>
<linearGradient id="paint21_linear_10079_21660961" x1="46.4031" y1="107.802" x2="46.4024" y2="121.25" gradientUnits="userSpaceOnUse">
<stop/>
<stop offset="1" stop-color="#0357CA"/>
</linearGradient>
<radialGradient id="paint22_radial_10079_21660961" cx="0" cy="0" r="1" gradientUnits="userSpaceOnUse" gradientTransform="translate(96.7062 39.1487) rotate(78.9824) scale(37.2183 179.836)">
<stop stop-color="#6A99DD" stop-opacity="0"/>
<stop offset="1" stop-color="#A0C0EF"/>
</radialGradient>
<linearGradient id="paint23_linear_10079_21660961" x1="158.936" y1="49.165" x2="158.936" y2="71.5189" gradientUnits="userSpaceOnUse">
<stop stop-color="#FFF48F"/>
<stop offset="1" stop-color="#FFA24D"/>
</linearGradient>
<linearGradient id="paint24_linear_10079_21660961" x1="133.157" y1="87.0593" x2="164.685" y2="138.61" gradientUnits="userSpaceOnUse">
<stop stop-color="#F4FAFF"/>
<stop offset="1" stop-color="#F4FAFF" stop-opacity="0"/>
</linearGradient>
<linearGradient id="paint25_linear_10079_21660961" x1="136.102" y1="66.2821" x2="162.483" y2="85.7041" gradientUnits="userSpaceOnUse">
<stop stop-color="#80F982"/>
<stop offset="1" stop-color="#42AB44"/>
</linearGradient>
<linearGradient id="paint26_linear_10079_21660961" x1="148.19" y1="73.6865" x2="148.19" y2="80.0026" gradientUnits="userSpaceOnUse">
<stop stop-color="#80F982"/>
<stop offset="1" stop-color="#42AB44"/>
</linearGradient>
<linearGradient id="paint27_linear_10079_21660961" x1="179.255" y1="77.4763" x2="178.196" y2="68.1723" gradientUnits="userSpaceOnUse">
<stop stop-color="#3BAB43"/>
<stop offset="1" stop-color="#294ECE" stop-opacity="0"/>
</linearGradient>
<linearGradient id="paint28_linear_10079_21660961" x1="133.102" y1="64.2821" x2="159.483" y2="83.7041" gradientUnits="userSpaceOnUse">
<stop stop-color="#80F982"/>
<stop offset="1" stop-color="#42AB44"/>
</linearGradient>
<linearGradient id="paint29_linear_10079_21660961" x1="131.719" y1="67.9588" x2="132.132" y2="75.1725" gradientUnits="userSpaceOnUse">
<stop stop-color="#F4FAFF"/>
<stop offset="1" stop-color="#F4FAFF" stop-opacity="0"/>
</linearGradient>
<radialGradient id="paint30_radial_10079_21660961" cx="0" cy="0" r="1" gradientUnits="userSpaceOnUse" gradientTransform="translate(148.186 111.768) rotate(90.0002) scale(16.8575 10.6666)">
<stop stop-color="#6A99DD"/>
<stop offset="1" stop-color="#A0C0EF"/>
</radialGradient>
<linearGradient id="paint31_linear_10079_21660961" x1="148.222" y1="96.4736" x2="148.222" y2="130.035" gradientUnits="userSpaceOnUse">
<stop stop-color="#80F982"/>
<stop offset="1" stop-color="#42AB44"/>
</linearGradient>
<linearGradient id="paint32_linear_10079_21660961" x1="148.222" y1="96.4736" x2="148.222" y2="130.035" gradientUnits="userSpaceOnUse">
<stop stop-color="#80F982"/>
<stop offset="1" stop-color="#42AB44"/>
</linearGradient>
<linearGradient id="paint33_linear_10079_21660961" x1="175.376" y1="118.889" x2="150.234" y2="81.6304" gradientUnits="userSpaceOnUse">
<stop stop-color="#3BAB43"/>
<stop offset="1" stop-color="#294ECE" stop-opacity="0"/>
</linearGradient>
<clipPath id="clip0_10079_21660961">
<rect width="180" height="160" fill="white"/>
</clipPath>
</defs>
</svg>
