<svg id="icon" width="24" height="24" viewBox="0 0 24 24" fill="none" xmlns="http://www.w3.org/2000/svg">
<path d="M3.70304 5.11173C3.31449 4.72318 3.31449 4.09322 3.70304 3.70468C4.09159 3.31613 4.72155 3.31613 5.1101 3.70467L11.3313 9.92584C11.7198 10.3144 11.7198 10.9444 11.3313 11.3329C10.9427 11.7214 10.3128 11.7214 9.92421 11.3329L3.70304 5.11173Z" fill="#1C1C1C"/>
<path d="M12.6679 14.0766C12.2793 13.688 12.2793 13.0581 12.6679 12.6695C13.0564 12.281 13.6864 12.281 14.0749 12.6695L20.2961 18.8907C20.6847 19.2792 20.6847 19.9092 20.2961 20.2977C19.9076 20.6863 19.2776 20.6863 18.8891 20.2977L12.6679 14.0766Z" fill="#1C1C1C"/>
<path d="M14.0746 11.3316C13.6861 11.7202 13.0561 11.7202 12.6676 11.3316C12.279 10.9431 12.279 10.3131 12.6676 9.92457L18.8887 3.70341C19.2773 3.31486 19.9072 3.31486 20.2958 3.70341C20.6843 4.09195 20.6843 4.72191 20.2958 5.11046L14.0746 11.3316Z" fill="#1C1C1C"/>
<path d="M5.11027 20.2262C4.72172 20.6147 4.09176 20.6147 3.70321 20.2262C3.31466 19.8376 3.31466 19.2077 3.70321 18.8191L9.92438 12.5979C10.3129 12.2094 10.9429 12.2094 11.3314 12.5979C11.72 12.9865 11.72 13.6164 11.3314 14.005L5.11027 20.2262Z" fill="#1C1C1C"/>
</svg>
