<svg title="Документы" viewBox="0 0 180 160" xmlns="http://www.w3.org/2000/svg" fill="none"><g filter="url(#a)"><path fill="url(#b)" d="M85.382 152.6c32.9 0 59.57-1.943 59.57-4.34 0-2.396-26.67-4.339-59.57-4.339s-59.57 1.943-59.57 4.339c0 2.397 26.67 4.34 59.57 4.34Z"/></g><path fill="url(#c)" d="M122.757 34.818H54.086v101.458h68.671V34.818Z"/><path fill="url(#d)" d="M122.757 34.818H54.086v101.458h68.671V34.818Z"/><path fill="url(#e)" d="M121.929 34.818H54.086v101.458h67.843V34.818Z"/><path fill="url(#f)" d="M121.929 34.818H54.086v101.458h67.843V34.818Z"/><path fill="url(#g)" d="M139.69 27.379H70.813v101.457h68.877V27.379Z"/><path fill="url(#h)" d="M139.69 27.379H70.813v101.457h68.877V27.379Z"/><path fill="url(#i)" d="M138.656 27.379H70.812v101.457h67.844V27.379Z"/><path fill="url(#j)" d="M138.656 27.379H70.812v101.457h67.844V27.379Z"/><path fill="url(#k)" d="M165.284 20.354H96.406V121.81h68.878V20.353Z"/><path fill="url(#l)" d="M122.289 34.921H54.445V136.38h67.844V34.921Z"/><path fill="url(#m)" d="M122.289 34.921H54.445V136.38h67.844V34.921Z"/><path fill="#CBD7FF" d="M122.289 34.921H54.445v9.299h67.844V34.92Z"/><path fill="url(#n)" d="M122.289 34.921H54.445v9.299h67.844V34.92Z"/><path fill="#fff" d="M94.362 49.386H67.266v1.86h27.096v-1.86ZM94.362 53.519H67.266v1.86h27.096v-1.86ZM94.362 57.651H67.266v1.86h27.096v-1.86ZM94.362 61.99H67.266v1.86h27.096v-1.86ZM94.362 66.123H67.266v1.86h27.096v-1.86ZM94.362 70.256H67.266v1.86h27.096v-1.86ZM116.696 40.707h-2.068c-.621 0-1.034-.413-1.034-1.033 0-.827.62-1.24 1.241-1.24h2.068c.621 0 1.034.413 1.034 1.033 0 .62-.62 1.24-1.241 1.24ZM109.673 40.707h-2.068c-.621 0-1.035-.413-1.035-1.033 0-.827.621-1.24 1.241-1.24h2.069c.62 0 1.034.413 1.034 1.033 0 .62-.621 1.24-1.241 1.24ZM102.634 40.707h-2.069c-.62 0-1.034-.413-1.034-1.033 0-.62.414-1.033 1.034-1.033h2.069c.62 0 1.034.413 1.034 1.033.207.413-.414 1.033-1.034 1.033ZM114.425 100.218h-47.16v1.859h47.16v-1.859ZM114.425 104.351h-47.16v1.859h47.16v-1.859ZM114.425 108.483h-47.16v1.86h47.16v-1.86ZM114.425 112.616h-47.16v1.86h47.16v-1.86ZM114.425 116.749h-47.16v1.86h47.16v-1.86ZM102.015 120.882h-34.75v1.86h34.75v-1.86Z"/><path stroke="#000" stroke-miterlimit="10" stroke-width=".5" d="M113.596 67.983h-13.237c-.414 0-.828-.413-.828-.827V50.212c0-.413.414-.826.828-.826h13.237c.414 0 .828.413.828.826v16.944c0 .62-.414.827-.828.827ZM113.399 95.052H68.308c-.62 0-1.035-.414-1.035-1.034v-12.19c0-.62.414-1.034 1.035-1.034h44.884c.62 0 1.034.413 1.034 1.033V94.02c.207.62-.207 1.033-.827 1.033Z"/><path fill="url(#o)" d="M122.289 56.618 54.445 122.12v14.257h3.93l63.914-61.576V56.618Z"/><path fill="url(#p)" d="m122.289 52.898-67.844 65.503v1.653l67.844-65.502v-1.654Z"/><path fill="url(#q)" d="M138.648 27.697H70.805v101.458h67.843V27.697Z"/><path fill="url(#r)" d="M138.648 27.697H70.805v101.458h67.843V27.697Z"/><path fill="#CBD7FF" d="M138.648 27.697H70.805v9.299h67.843v-9.299Z"/><path fill="url(#s)" d="M138.648 27.697H70.805v9.299h67.843v-9.299Z"/><path fill="#fff" d="M110.721 42.162H83.625v1.86h27.096v-1.86ZM110.721 46.295H83.625v1.86h27.096v-1.86ZM110.721 50.428H83.625v1.86h27.096v-1.86ZM110.721 54.767H83.625v1.86h27.096v-1.86ZM110.721 58.9H83.625v1.86h27.096V58.9ZM110.721 63.032H83.625v1.86h27.096v-1.86ZM133.056 33.483h-2.069c-.62 0-1.034-.413-1.034-1.033 0-.827.621-1.24 1.241-1.24h2.069c.62 0 1.034.413 1.034 1.033 0 .62-.621 1.24-1.241 1.24ZM126.032 33.483h-2.068c-.621 0-1.034-.413-1.034-1.033 0-.827.62-1.24 1.241-1.24h2.068c.621 0 1.034.413 1.034 1.033 0 .62-.62 1.24-1.241 1.24ZM118.993 33.483h-2.068c-.621 0-1.034-.413-1.034-1.033 0-.62.413-1.033 1.034-1.033h2.068c.621 0 1.034.413 1.034 1.033.207.413-.413 1.033-1.034 1.033ZM130.785 92.994h-47.16v1.86h47.16v-1.86ZM130.785 97.126h-47.16v1.86h47.16v-1.86ZM130.785 101.259h-47.16v1.86h47.16v-1.86ZM130.785 105.392h-47.16v1.859h47.16v-1.859ZM130.785 109.524h-47.16v1.86h47.16v-1.86ZM118.374 113.657H83.625v1.86h34.749v-1.86Z"/><path stroke="#000" stroke-miterlimit="10" stroke-width=".5" d="M129.956 60.759h-13.238c-.414 0-.827-.414-.827-.827V42.988c0-.413.413-.826.827-.826h13.238c.413 0 .827.413.827.826v16.944c0 .62-.414.827-.827.827ZM129.758 87.828H84.667c-.62 0-1.034-.413-1.034-1.033V74.603c0-.62.413-1.033 1.034-1.033h44.884c.621 0 1.034.414 1.034 1.034v12.19c.207.62-.206 1.034-.827 1.034Z"/><path fill="url(#t)" d="m138.648 49.394-67.843 65.503v14.258h3.93l63.913-61.577V49.394Z"/><path fill="url(#u)" d="m138.648 45.675-67.843 65.503v1.653l67.843-65.503v-1.653Z"/><path fill="url(#v)" d="M164.25 20.354H96.406V121.81h67.844V20.353Z"/><path fill="url(#w)" d="M164.25 20.354H96.406V121.81h67.844V20.353Z"/><path fill="#CBD7FF" d="M164.25 20.354H96.406v9.298h67.844v-9.299Z"/><path fill="url(#x)" d="M164.25 20.354H96.406v9.298h67.844v-9.299Z"/><path fill="#fff" d="M136.323 34.818h-27.096v1.86h27.096v-1.86ZM136.323 38.95h-27.096v1.86h27.096v-1.86ZM136.323 43.084h-27.096v1.86h27.096v-1.86ZM136.323 47.422h-27.096v1.86h27.096v-1.86ZM136.323 51.555h-27.096v1.86h27.096v-1.86ZM136.323 55.688h-27.096v1.86h27.096v-1.86ZM158.665 26.14h-2.068c-.621 0-1.035-.414-1.035-1.034 0-.827.621-1.24 1.242-1.24h2.068c.62 0 1.034.413 1.034 1.033 0 .62-.62 1.24-1.241 1.24ZM151.642 26.14h-2.069c-.62 0-1.034-.414-1.034-1.034 0-.827.621-1.24 1.241-1.24h2.068c.621 0 1.035.413 1.035 1.033 0 .62-.621 1.24-1.241 1.24ZM144.603 26.14h-2.069c-.62 0-1.034-.414-1.034-1.034 0-.62.414-1.033 1.034-1.033h2.069c.62 0 1.034.413 1.034 1.033.207.414-.414 1.034-1.034 1.034ZM156.386 85.65h-47.159v1.86h47.159v-1.86ZM156.386 89.783h-47.159v1.86h47.159v-1.86ZM156.386 93.915h-47.159v1.86h47.159v-1.86ZM156.386 98.048h-47.159v1.86h47.159v-1.86ZM156.386 102.181h-47.159v1.859h47.159v-1.859ZM143.976 106.313h-34.749v1.86h34.749v-1.86Z"/><path fill="#42AB44" d="M155.565 53.415h-13.238c-.413 0-.827-.413-.827-.827V35.644c0-.413.414-.826.827-.826h13.238c.414 0 .827.413.827.826v16.944c0 .62-.413.827-.827.827Z"/><path stroke="#42AB44" stroke-miterlimit="10" stroke-width=".5" d="M155.36 80.484h-45.091c-.621 0-1.035-.413-1.035-1.033V67.26c0-.62.414-1.033 1.035-1.033h44.884c.62 0 1.034.413 1.034 1.033V79.45c.207.62-.207 1.033-.827 1.033Z"/><path fill="url(#y)" d="m164.258 42.05-67.844 65.503v14.258h3.93l63.914-61.577V42.05Z"/><path fill="url(#z)" d="m164.258 38.33-67.844 65.504v1.653l67.844-65.503V38.33Z"/><path fill="url(#A)" fill-rule="evenodd" d="M108.433 71.186H86.922v8.06h-16.11v40.706h20.972v-8.059h16.649V71.186ZM54.086 86.064H70.81v40.707H54.086V86.064Z" clip-rule="evenodd"/><path fill="url(#B)" d="M103.672 61.481H31.484v40.707h72.188V61.481Z"/><path fill="url(#C)" d="M103.672 61.481H31.484v40.707h72.188V61.481Z"/><path fill="url(#D)" d="M103.672 61.481H31.484v40.707h72.188V61.481Z"/><path fill="url(#E)" d="M102.635 61.481h-73.22v40.707h73.22V61.481Z"/><path fill="url(#F)" d="M102.635 61.481h-73.22v40.707h73.22V61.481Z"/><path fill="url(#G)" d="M102.639 74.293V61.48h-4.55l-43.644 40.707h18.41l29.784-27.895Z"/><path fill="url(#H)" d="M49.273 102.188h2.69l43.436-40.707h-2.69l-43.436 40.707Z"/><path fill="#fff" d="M95.188 68.3H36.86v1.86h58.33V68.3ZM95.188 72.434H36.86v1.86h58.33v-1.86ZM95.188 76.566H36.86v1.86h58.33v-1.86Z"/><path fill="#42AB44" d="M50.304 87.93H38.928c-1.241 0-2.069 1.034-2.069 2.067 0 1.24 1.035 2.066 2.069 2.066h11.376c1.241 0 2.068-1.033 2.068-2.066.207-1.24-.827-2.066-2.068-2.066Z"/><rect width="9.198" height="5.584" x="20.438" y="81.339" fill="#fff" rx="2.792"/><rect width="9.198" height="5.584" x="40.836" y="81.339" fill="#fff" rx="2.792"/><rect width="9.198" height="5.584" x="61.234" y="81.339" fill="#fff" rx="2.792"/><defs><linearGradient id="c" x1="74.656" x2="112.611" y1="75.536" y2="103.843" gradientUnits="userSpaceOnUse"><stop/><stop offset="1" stop-color="#C17845"/></linearGradient><linearGradient id="d" x1="115.722" x2="115.722" y1="136.167" y2="120.992" gradientUnits="userSpaceOnUse"><stop stop-color="#0057D6"/><stop offset="1" stop-color="#0057D6" stop-opacity="0"/></linearGradient><linearGradient id="e" x1="88.008" x2="88.008" y1="34.818" y2="136.276" gradientUnits="userSpaceOnUse"><stop stop-color="#F6F6F6"/><stop offset="1" stop-color="#ACCEFF"/></linearGradient><linearGradient id="f" x1="100.667" x2="66.216" y1="143.551" y2="102.488" gradientUnits="userSpaceOnUse"><stop stop-color="#42AB44"/><stop offset="1" stop-color="#42AB44" stop-opacity="0"/></linearGradient><linearGradient id="g" x1="91.445" x2="129.431" y1="68.096" y2="96.513" gradientUnits="userSpaceOnUse"><stop/><stop offset="1" stop-color="#C17845"/></linearGradient><linearGradient id="h" x1="132.634" x2="132.634" y1="128.728" y2="113.553" gradientUnits="userSpaceOnUse"><stop stop-color="#0057D6"/><stop offset="1" stop-color="#0057D6" stop-opacity="0"/></linearGradient><linearGradient id="i" x1="104.734" x2="104.734" y1="27.379" y2="128.836" gradientUnits="userSpaceOnUse"><stop stop-color="#F6F6F6"/><stop offset="1" stop-color="#ACCEFF"/></linearGradient><linearGradient id="j" x1="138.656" x2="76.887" y1="167.255" y2="118.828" gradientUnits="userSpaceOnUse"><stop offset=".3" stop-color="#51A553"/><stop offset="1" stop-color="#42AB44" stop-opacity="0"/></linearGradient><linearGradient id="k" x1="130.846" x2="130.843" y1="78.744" y2="121.811" gradientUnits="userSpaceOnUse"><stop/><stop offset="1" stop-color="#0357CA"/></linearGradient><linearGradient id="l" x1="88.367" x2="88.367" y1="34.921" y2="136.379" gradientUnits="userSpaceOnUse"><stop stop-color="#F6F6F6"/><stop offset="1" stop-color="#ACCEFF"/></linearGradient><linearGradient id="m" x1="122.289" x2="74.645" y1="174.797" y2="134.659" gradientUnits="userSpaceOnUse"><stop stop-color="#42AB44"/><stop offset="1" stop-color="#42AB44" stop-opacity="0"/></linearGradient><linearGradient id="n" x1="120.152" x2="116.217" y1="44.02" y2="23.782" gradientUnits="userSpaceOnUse"><stop stop-color="#8DBEFF"/><stop offset="1" stop-color="#E7ECF2" stop-opacity="0"/></linearGradient><linearGradient id="o" x1="88.367" x2="88.367" y1="56.618" y2="136.378" gradientUnits="userSpaceOnUse"><stop stop-color="#fff"/><stop offset="1" stop-color="#fff" stop-opacity="0"/></linearGradient><linearGradient id="p" x1="88.367" x2="88.367" y1="52.898" y2="120.054" gradientUnits="userSpaceOnUse"><stop stop-color="#fff"/><stop offset="1" stop-color="#fff" stop-opacity="0"/></linearGradient><linearGradient id="q" x1="104.726" x2="104.726" y1="27.697" y2="129.155" gradientUnits="userSpaceOnUse"><stop stop-color="#F6F6F6"/><stop offset="1" stop-color="#ACCEFF"/></linearGradient><linearGradient id="r" x1="138.648" x2="91.004" y1="167.573" y2="127.435" gradientUnits="userSpaceOnUse"><stop stop-color="#42AB44"/><stop offset="1" stop-color="#42AB44" stop-opacity="0"/></linearGradient><linearGradient id="s" x1="136.511" x2="132.576" y1="36.795" y2="16.558" gradientUnits="userSpaceOnUse"><stop stop-color="#8DBEFF"/><stop offset="1" stop-color="#E7ECF2" stop-opacity="0"/></linearGradient><linearGradient id="t" x1="104.726" x2="104.726" y1="49.394" y2="129.155" gradientUnits="userSpaceOnUse"><stop stop-color="#fff"/><stop offset="1" stop-color="#fff" stop-opacity="0"/></linearGradient><linearGradient id="u" x1="104.726" x2="104.726" y1="45.675" y2="112.831" gradientUnits="userSpaceOnUse"><stop stop-color="#fff"/><stop offset="1" stop-color="#fff" stop-opacity="0"/></linearGradient><linearGradient id="v" x1="130.328" x2="130.328" y1="20.354" y2="121.811" gradientUnits="userSpaceOnUse"><stop stop-color="#F6F6F6"/><stop offset="1" stop-color="#ACCEFF"/></linearGradient><linearGradient id="w" x1="164.25" x2="116.606" y1="160.23" y2="120.092" gradientUnits="userSpaceOnUse"><stop stop-color="#42AB44"/><stop offset="1" stop-color="#42AB44" stop-opacity="0"/></linearGradient><linearGradient id="x" x1="162.113" x2="158.178" y1="29.452" y2="9.214" gradientUnits="userSpaceOnUse"><stop stop-color="#8DBEFF"/><stop offset="1" stop-color="#E7ECF2" stop-opacity="0"/></linearGradient><linearGradient id="y" x1="130.336" x2="130.336" y1="42.05" y2="121.811" gradientUnits="userSpaceOnUse"><stop stop-color="#fff"/><stop offset="1" stop-color="#fff" stop-opacity="0"/></linearGradient><linearGradient id="z" x1="130.336" x2="130.336" y1="38.331" y2="105.487" gradientUnits="userSpaceOnUse"><stop stop-color="#fff"/><stop offset="1" stop-color="#fff" stop-opacity="0"/></linearGradient><linearGradient id="A" x1="54.086" x2="91.429" y1="98.979" y2="123.769" gradientUnits="userSpaceOnUse"><stop stop-color="#0153CC"/><stop offset="1" stop-color="#032C69"/></linearGradient><linearGradient id="B" x1="103.672" x2="86.359" y1="99.339" y2="66.423" gradientUnits="userSpaceOnUse"><stop stop-color="#362A57"/><stop offset="1" stop-color="#3F82C8"/></linearGradient><linearGradient id="C" x1="105.841" x2="93.336" y1="90.729" y2="90.729" gradientUnits="userSpaceOnUse"><stop stop-color="#5F1A58"/><stop offset="1" stop-color="#5F1A58" stop-opacity="0"/></linearGradient><linearGradient id="D" x1="96.276" x2="96.276" y1="102.145" y2="96.056" gradientUnits="userSpaceOnUse"><stop stop-color="#42AB44"/><stop offset="1" stop-color="#0057D6" stop-opacity="0"/></linearGradient><linearGradient id="E" x1="66.025" x2="66.025" y1="61.481" y2="102.188" gradientUnits="userSpaceOnUse"><stop stop-color="#F6F6F6"/><stop offset="1" stop-color="#ACCEFF"/></linearGradient><linearGradient id="F" x1="102.635" x2="88.307" y1="117.603" y2="85.131" gradientUnits="userSpaceOnUse"><stop stop-color="#42AB44"/><stop offset="1" stop-color="#42AB44" stop-opacity="0"/></linearGradient><linearGradient id="G" x1="78.542" x2="78.542" y1="61.481" y2="102.188" gradientUnits="userSpaceOnUse"><stop stop-color="#fff"/><stop offset="1" stop-color="#fff" stop-opacity="0"/></linearGradient><linearGradient id="H" x1="72.336" x2="72.336" y1="61.481" y2="102.188" gradientUnits="userSpaceOnUse"><stop stop-color="#fff"/><stop offset="1" stop-color="#fff" stop-opacity="0"/></linearGradient><radialGradient id="b" cx="0" cy="0" r="1" gradientTransform="rotate(90.005 -31.433 116.818) scale(2.28938 31.4286)" gradientUnits="userSpaceOnUse"><stop stop-color="#6A99DD"/><stop offset="1" stop-color="#A0C0EF"/></radialGradient><filter id="a" width="127.141" height="16.679" x="21.813" y="139.921" color-interpolation-filters="sRGB" filterUnits="userSpaceOnUse"><feFlood flood-opacity="0" result="BackgroundImageFix"/><feBlend in="SourceGraphic" in2="BackgroundImageFix" result="shape"/><feGaussianBlur result="effect1_foregroundBlur_10079_21693278" stdDeviation="2"/></filter></defs></svg>
