<svg title="Документы" width="180" height="160" viewBox="0 0 180 160" fill="none" xmlns="http://www.w3.org/2000/svg">
<rect width="180" height="160" fill="white"/>
<g filter="url(#filter0_f_10079_21693278)">
<path d="M85.3824 152.6C118.282 152.6 144.952 150.657 144.952 148.26C144.952 145.864 118.282 143.921 85.3824 143.921C52.4829 143.921 25.8125 145.864 25.8125 148.26C25.8125 150.657 52.4829 152.6 85.3824 152.6Z" fill="url(#paint0_radial_10079_21693278)"/>
</g>
<path d="M122.757 34.8184H54.0859V136.276H122.757V34.8184Z" fill="url(#paint1_linear_10079_21693278)"/>
<path d="M122.757 34.8184H54.0859V136.276H122.757V34.8184Z" fill="url(#paint2_linear_10079_21693278)"/>
<path d="M121.929 34.8184H54.0859V136.276H121.929V34.8184Z" fill="url(#paint3_linear_10079_21693278)"/>
<path d="M121.929 34.8184H54.0859V136.276H121.929V34.8184Z" fill="url(#paint4_linear_10079_21693278)"/>
<path d="M139.69 27.3789H70.8125V128.836H139.69V27.3789Z" fill="url(#paint5_linear_10079_21693278)"/>
<path d="M139.69 27.3789H70.8125V128.836H139.69V27.3789Z" fill="url(#paint6_linear_10079_21693278)"/>
<path d="M138.656 27.3789H70.8125V128.836H138.656V27.3789Z" fill="url(#paint7_linear_10079_21693278)"/>
<path d="M138.656 27.3789H70.8125V128.836H138.656V27.3789Z" fill="url(#paint8_linear_10079_21693278)"/>
<path d="M165.284 20.3535H96.4062V121.811H165.284V20.3535Z" fill="url(#paint9_linear_10079_21693278)"/>
<path d="M122.289 34.9214H54.4453V136.379H122.289V34.9214Z" fill="url(#paint10_linear_10079_21693278)"/>
<path d="M122.289 34.9214H54.4453V136.379H122.289V34.9214Z" fill="url(#paint11_linear_10079_21693278)"/>
<path d="M122.289 34.9214H54.4453V44.2199H122.289V34.9214Z" fill="#CBD7FF"/>
<path d="M122.289 34.9214H54.4453V44.2199H122.289V34.9214Z" fill="url(#paint12_linear_10079_21693278)"/>
<path d="M94.3617 49.3857H67.2656V51.2454H94.3617V49.3857Z" fill="white"/>
<path d="M94.3617 53.5186H67.2656V55.3783H94.3617V53.5186Z" fill="white"/>
<path d="M94.3617 57.6514H67.2656V59.5111H94.3617V57.6514Z" fill="white"/>
<path d="M94.3617 61.9902H67.2656V63.8499H94.3617V61.9902Z" fill="white"/>
<path d="M94.3617 66.123H67.2656V67.9828H94.3617V66.123Z" fill="white"/>
<path d="M94.3617 70.2559H67.2656V72.1156H94.3617V70.2559Z" fill="white"/>
<path d="M116.696 40.7071H114.628C114.007 40.7071 113.594 40.2938 113.594 39.6739C113.594 38.8473 114.214 38.4341 114.835 38.4341H116.903C117.524 38.4341 117.937 38.8473 117.937 39.4673C117.937 40.0872 117.317 40.7071 116.696 40.7071Z" fill="white"/>
<path d="M109.673 40.7071H107.605C106.984 40.7071 106.57 40.2938 106.57 39.6739C106.57 38.8473 107.191 38.4341 107.811 38.4341H109.88C110.5 38.4341 110.914 38.8473 110.914 39.4673C110.914 40.0872 110.293 40.7071 109.673 40.7071Z" fill="white"/>
<path d="M102.634 40.707H100.565C99.9449 40.707 99.5312 40.2937 99.5312 39.6738C99.5312 39.0539 99.9449 38.6406 100.565 38.6406H102.634C103.254 38.6406 103.668 39.0539 103.668 39.6738C103.875 40.0871 103.254 40.707 102.634 40.707Z" fill="white"/>
<path d="M114.425 100.218H67.2656V102.077H114.425V100.218Z" fill="white"/>
<path d="M114.425 104.351H67.2656V106.21H114.425V104.351Z" fill="white"/>
<path d="M114.425 108.483H67.2656V110.343H114.425V108.483Z" fill="white"/>
<path d="M114.425 112.616H67.2656V114.476H114.425V112.616Z" fill="white"/>
<path d="M114.425 116.749H67.2656V118.609H114.425V116.749Z" fill="white"/>
<path d="M102.015 120.882H67.2656V122.742H102.015V120.882Z" fill="white"/>
<path d="M113.596 67.9828H100.359C99.9449 67.9828 99.5312 67.5695 99.5312 67.1563V50.2123C99.5312 49.799 99.9449 49.3857 100.359 49.3857H113.596C114.01 49.3857 114.424 49.799 114.424 50.2123V67.1563C114.424 67.7762 114.01 67.9828 113.596 67.9828Z" stroke="black" stroke-width="0.5" stroke-miterlimit="10"/>
<path d="M113.399 95.0517H68.3076C67.6871 95.0517 67.2734 94.6384 67.2734 94.0185V81.8271C67.2734 81.2072 67.6871 80.7939 68.3076 80.7939H113.192C113.812 80.7939 114.226 81.2072 114.226 81.8271V94.0185C114.433 94.6384 114.019 95.0517 113.399 95.0517Z" stroke="black" stroke-width="0.5" stroke-miterlimit="10"/>
<path d="M122.289 56.6177L54.4453 122.121V136.378H58.3753L122.289 74.8015V56.6177Z" fill="url(#paint13_linear_10079_21693278)"/>
<path d="M122.289 52.8984L54.4453 118.401V120.054L122.289 54.5515V52.8984Z" fill="url(#paint14_linear_10079_21693278)"/>
<path d="M138.648 27.6973H70.8047V129.155H138.648V27.6973Z" fill="url(#paint15_linear_10079_21693278)"/>
<path d="M138.648 27.6973H70.8047V129.155H138.648V27.6973Z" fill="url(#paint16_linear_10079_21693278)"/>
<path d="M138.648 27.6973H70.8047V36.9958H138.648V27.6973Z" fill="#CBD7FF"/>
<path d="M138.648 27.6973H70.8047V36.9958H138.648V27.6973Z" fill="url(#paint17_linear_10079_21693278)"/>
<path d="M110.721 42.1621H83.625V44.0218H110.721V42.1621Z" fill="white"/>
<path d="M110.721 46.2949H83.625V48.1546H110.721V46.2949Z" fill="white"/>
<path d="M110.721 50.4277H83.625V52.2874H110.721V50.4277Z" fill="white"/>
<path d="M110.721 54.7666H83.625V56.6263H110.721V54.7666Z" fill="white"/>
<path d="M110.721 58.8994H83.625V60.7591H110.721V58.8994Z" fill="white"/>
<path d="M110.721 63.0322H83.625V64.8919H110.721V63.0322Z" fill="white"/>
<path d="M133.056 33.4829H130.987C130.367 33.4829 129.953 33.0697 129.953 32.4498C129.953 31.6232 130.574 31.21 131.194 31.21H133.263C133.883 31.21 134.297 31.6232 134.297 32.2431C134.297 32.863 133.676 33.4829 133.056 33.4829Z" fill="white"/>
<path d="M126.032 33.4829H123.964C123.343 33.4829 122.93 33.0697 122.93 32.4498C122.93 31.6232 123.55 31.21 124.171 31.21H126.239C126.86 31.21 127.273 31.6232 127.273 32.2431C127.273 32.863 126.653 33.4829 126.032 33.4829Z" fill="white"/>
<path d="M118.993 33.4833H116.925C116.304 33.4833 115.891 33.0701 115.891 32.4502C115.891 31.8303 116.304 31.417 116.925 31.417H118.993C119.614 31.417 120.027 31.8303 120.027 32.4502C120.234 32.8634 119.614 33.4833 118.993 33.4833Z" fill="white"/>
<path d="M130.785 92.9937H83.625V94.8534H130.785V92.9937Z" fill="white"/>
<path d="M130.785 97.1265H83.625V98.9862H130.785V97.1265Z" fill="white"/>
<path d="M130.785 101.259H83.625V103.119H130.785V101.259Z" fill="white"/>
<path d="M130.785 105.392H83.625V107.251H130.785V105.392Z" fill="white"/>
<path d="M130.785 109.524H83.625V111.384H130.785V109.524Z" fill="white"/>
<path d="M118.374 113.657H83.625V115.517H118.374V113.657Z" fill="white"/>
<path d="M129.956 60.7587H116.718C116.304 60.7587 115.891 60.3454 115.891 59.9321V42.9882C115.891 42.5749 116.304 42.1616 116.718 42.1616H129.956C130.369 42.1616 130.783 42.5749 130.783 42.9882V59.9321C130.783 60.552 130.369 60.7587 129.956 60.7587Z" stroke="black" stroke-width="0.5" stroke-miterlimit="10"/>
<path d="M129.758 87.8281H84.667C84.0465 87.8281 83.6328 87.4148 83.6328 86.7949V74.6035C83.6328 73.9836 84.0465 73.5703 84.667 73.5703H129.551C130.172 73.5703 130.585 73.9836 130.585 74.6035V86.7949C130.792 87.4148 130.379 87.8281 129.758 87.8281Z" stroke="black" stroke-width="0.5" stroke-miterlimit="10"/>
<path d="M138.648 49.394L70.8047 114.897V129.155H74.7347L138.648 67.5778V49.394Z" fill="url(#paint18_linear_10079_21693278)"/>
<path d="M138.648 45.6748L70.8047 111.178V112.831L138.648 47.3279V45.6748Z" fill="url(#paint19_linear_10079_21693278)"/>
<path d="M164.25 20.3535H96.4062V121.811H164.25V20.3535Z" fill="url(#paint20_linear_10079_21693278)"/>
<path d="M164.25 20.3535H96.4062V121.811H164.25V20.3535Z" fill="url(#paint21_linear_10079_21693278)"/>
<path d="M164.25 20.3535H96.4062V29.652H164.25V20.3535Z" fill="#CBD7FF"/>
<path d="M164.25 20.3535H96.4062V29.652H164.25V20.3535Z" fill="url(#paint22_linear_10079_21693278)"/>
<path d="M136.323 34.8179H109.227V36.6776H136.323V34.8179Z" fill="white"/>
<path d="M136.323 38.9507H109.227V40.8104H136.323V38.9507Z" fill="white"/>
<path d="M136.323 43.0835H109.227V44.9432H136.323V43.0835Z" fill="white"/>
<path d="M136.323 47.4224H109.227V49.2821H136.323V47.4224Z" fill="white"/>
<path d="M136.323 51.5552H109.227V53.4149H136.323V51.5552Z" fill="white"/>
<path d="M136.323 55.688H109.227V57.5477H136.323V55.688Z" fill="white"/>
<path d="M158.665 26.1392H156.597C155.976 26.1392 155.562 25.7259 155.562 25.106C155.562 24.2795 156.183 23.8662 156.804 23.8662H158.872C159.492 23.8662 159.906 24.2795 159.906 24.8994C159.906 25.5193 159.286 26.1392 158.665 26.1392Z" fill="white"/>
<path d="M151.642 26.1392H149.573C148.953 26.1392 148.539 25.7259 148.539 25.106C148.539 24.2795 149.16 23.8662 149.78 23.8662H151.848C152.469 23.8662 152.883 24.2795 152.883 24.8994C152.883 25.5193 152.262 26.1392 151.642 26.1392Z" fill="white"/>
<path d="M144.603 26.1396H142.534C141.914 26.1396 141.5 25.7263 141.5 25.1064C141.5 24.4865 141.914 24.0732 142.534 24.0732H144.603C145.223 24.0732 145.637 24.4865 145.637 25.1064C145.844 25.5197 145.223 26.1396 144.603 26.1396Z" fill="white"/>
<path d="M156.386 85.6499H109.227V87.5096H156.386V85.6499Z" fill="white"/>
<path d="M156.386 89.7827H109.227V91.6424H156.386V89.7827Z" fill="white"/>
<path d="M156.386 93.9155H109.227V95.7752H156.386V93.9155Z" fill="white"/>
<path d="M156.386 98.0479H109.227V99.9076H156.386V98.0479Z" fill="white"/>
<path d="M156.386 102.181H109.227V104.04H156.386V102.181Z" fill="white"/>
<path d="M143.976 106.313H109.227V108.173H143.976V106.313Z" fill="white"/>
<path d="M155.565 53.4149H142.327C141.914 53.4149 141.5 53.0017 141.5 52.5884V35.6444C141.5 35.2311 141.914 34.8179 142.327 34.8179H155.565C155.979 34.8179 156.392 35.2311 156.392 35.6444V52.5884C156.392 53.2083 155.979 53.4149 155.565 53.4149Z" fill="#42AB44"/>
<path d="M155.36 80.4843H110.269C109.648 80.4843 109.234 80.071 109.234 79.4511V67.2597C109.234 66.6398 109.648 66.2266 110.269 66.2266H155.153C155.773 66.2266 156.187 66.6398 156.187 67.2597V79.4511C156.394 80.071 155.98 80.4843 155.36 80.4843Z" stroke="#42AB44" stroke-width="0.5" stroke-miterlimit="10"/>
<path d="M164.258 42.0498L96.4141 107.553V121.811H100.344L164.258 60.2336V42.0498Z" fill="url(#paint23_linear_10079_21693278)"/>
<path d="M164.258 38.3306L96.4141 103.834V105.487L164.258 39.9836V38.3306Z" fill="url(#paint24_linear_10079_21693278)"/>
<path fill-rule="evenodd" clip-rule="evenodd" d="M108.433 71.1865H86.9219V79.2451H70.8125V119.952H91.7837V111.893H108.433V71.1865ZM54.0859 86.0641H70.8113V126.771H54.0859V86.0641Z" fill="url(#paint25_linear_10079_21693278)"/>
<path d="M103.672 61.4814H31.4844V102.188H103.672V61.4814Z" fill="url(#paint26_linear_10079_21693278)"/>
<path d="M103.672 61.4814H31.4844V102.188H103.672V61.4814Z" fill="url(#paint27_linear_10079_21693278)"/>
<path d="M103.672 61.4814H31.4844V102.188H103.672V61.4814Z" fill="url(#paint28_linear_10079_21693278)"/>
<path d="M102.635 61.4814H29.4141V102.188H102.635V61.4814Z" fill="url(#paint29_linear_10079_21693278)"/>
<path d="M102.635 61.4814H29.4141V102.188H102.635V61.4814Z" fill="url(#paint30_linear_10079_21693278)"/>
<path d="M102.639 74.2928V61.4814H98.0886L54.4453 102.188H72.8541L102.639 74.2928Z" fill="url(#paint31_linear_10079_21693278)"/>
<path d="M49.2734 102.188H51.9624L95.3988 61.4814H92.7098L49.2734 102.188Z" fill="url(#paint32_linear_10079_21693278)"/>
<path d="M95.1883 68.3008H36.8594V70.1605H95.1883V68.3008Z" fill="white"/>
<path d="M95.1883 72.4336H36.8594V74.2933H95.1883V72.4336Z" fill="white"/>
<path d="M95.1883 76.5664H36.8594V78.4261H95.1883V76.5664Z" fill="white"/>
<path d="M50.304 87.9307H38.9278C37.6867 87.9307 36.8594 88.9638 36.8594 89.997C36.8594 91.2368 37.8936 92.0633 38.9278 92.0633H50.304C51.545 92.0633 52.3724 91.0302 52.3724 89.997C52.5792 88.7572 51.545 87.9307 50.304 87.9307Z" fill="#42AB44"/>
<rect x="20.4375" y="81.3394" width="9.19751" height="5.58398" rx="2.79199" fill="white"/>
<rect x="40.8359" y="81.3394" width="9.19751" height="5.58398" rx="2.79199" fill="white"/>
<rect x="61.2344" y="81.3394" width="9.19751" height="5.58398" rx="2.79199" fill="white"/>
<defs>
<filter id="filter0_f_10079_21693278" x="21.8125" y="139.921" width="127.141" height="16.6787" filterUnits="userSpaceOnUse" color-interpolation-filters="sRGB">
<feFlood flood-opacity="0" result="BackgroundImageFix"/>
<feBlend mode="normal" in="SourceGraphic" in2="BackgroundImageFix" result="shape"/>
<feGaussianBlur stdDeviation="2" result="effect1_foregroundBlur_10079_21693278"/>
</filter>
<radialGradient id="paint0_radial_10079_21693278" cx="0" cy="0" r="1" gradientUnits="userSpaceOnUse" gradientTransform="translate(85.3824 148.26) rotate(90.0048) scale(2.28938 31.4286)">
<stop stop-color="#6A99DD"/>
<stop offset="1" stop-color="#A0C0EF"/>
</radialGradient>
<linearGradient id="paint1_linear_10079_21693278" x1="74.6564" y1="75.5358" x2="112.611" y2="103.843" gradientUnits="userSpaceOnUse">
<stop/>
<stop offset="1" stop-color="#C17845"/>
</linearGradient>
<linearGradient id="paint2_linear_10079_21693278" x1="115.722" y1="136.167" x2="115.722" y2="120.992" gradientUnits="userSpaceOnUse">
<stop stop-color="#0057D6"/>
<stop offset="1" stop-color="#0057D6" stop-opacity="0"/>
</linearGradient>
<linearGradient id="paint3_linear_10079_21693278" x1="88.0077" y1="34.8184" x2="88.0077" y2="136.276" gradientUnits="userSpaceOnUse">
<stop stop-color="#F6F6F6"/>
<stop offset="1" stop-color="#ACCEFF"/>
</linearGradient>
<linearGradient id="paint4_linear_10079_21693278" x1="100.667" y1="143.551" x2="66.2159" y2="102.488" gradientUnits="userSpaceOnUse">
<stop stop-color="#42AB44"/>
<stop offset="1" stop-color="#42AB44" stop-opacity="0"/>
</linearGradient>
<linearGradient id="paint5_linear_10079_21693278" x1="91.4449" y1="68.0963" x2="129.431" y2="96.5129" gradientUnits="userSpaceOnUse">
<stop/>
<stop offset="1" stop-color="#C17845"/>
</linearGradient>
<linearGradient id="paint6_linear_10079_21693278" x1="132.634" y1="128.728" x2="132.634" y2="113.553" gradientUnits="userSpaceOnUse">
<stop stop-color="#0057D6"/>
<stop offset="1" stop-color="#0057D6" stop-opacity="0"/>
</linearGradient>
<linearGradient id="paint7_linear_10079_21693278" x1="104.734" y1="27.3789" x2="104.734" y2="128.836" gradientUnits="userSpaceOnUse">
<stop stop-color="#F6F6F6"/>
<stop offset="1" stop-color="#ACCEFF"/>
</linearGradient>
<linearGradient id="paint8_linear_10079_21693278" x1="138.656" y1="167.255" x2="76.887" y2="118.828" gradientUnits="userSpaceOnUse">
<stop offset="0.300399" stop-color="#51A553"/>
<stop offset="1" stop-color="#42AB44" stop-opacity="0"/>
</linearGradient>
<linearGradient id="paint9_linear_10079_21693278" x1="130.846" y1="78.7441" x2="130.843" y2="121.811" gradientUnits="userSpaceOnUse">
<stop/>
<stop offset="1" stop-color="#0357CA"/>
</linearGradient>
<linearGradient id="paint10_linear_10079_21693278" x1="88.3671" y1="34.9214" x2="88.3671" y2="136.379" gradientUnits="userSpaceOnUse">
<stop stop-color="#F6F6F6"/>
<stop offset="1" stop-color="#ACCEFF"/>
</linearGradient>
<linearGradient id="paint11_linear_10079_21693278" x1="122.289" y1="174.797" x2="74.6451" y2="134.659" gradientUnits="userSpaceOnUse">
<stop stop-color="#42AB44"/>
<stop offset="1" stop-color="#42AB44" stop-opacity="0"/>
</linearGradient>
<linearGradient id="paint12_linear_10079_21693278" x1="120.152" y1="44.0195" x2="116.217" y2="23.7822" gradientUnits="userSpaceOnUse">
<stop stop-color="#8DBEFF"/>
<stop offset="1" stop-color="#E7ECF2" stop-opacity="0"/>
</linearGradient>
<linearGradient id="paint13_linear_10079_21693278" x1="88.3671" y1="56.6177" x2="88.3671" y2="136.378" gradientUnits="userSpaceOnUse">
<stop stop-color="white"/>
<stop offset="1" stop-color="white" stop-opacity="0"/>
</linearGradient>
<linearGradient id="paint14_linear_10079_21693278" x1="88.3671" y1="52.8984" x2="88.3671" y2="120.054" gradientUnits="userSpaceOnUse">
<stop stop-color="white"/>
<stop offset="1" stop-color="white" stop-opacity="0"/>
</linearGradient>
<linearGradient id="paint15_linear_10079_21693278" x1="104.726" y1="27.6973" x2="104.726" y2="129.155" gradientUnits="userSpaceOnUse">
<stop stop-color="#F6F6F6"/>
<stop offset="1" stop-color="#ACCEFF"/>
</linearGradient>
<linearGradient id="paint16_linear_10079_21693278" x1="138.648" y1="167.573" x2="91.0045" y2="127.435" gradientUnits="userSpaceOnUse">
<stop stop-color="#42AB44"/>
<stop offset="1" stop-color="#42AB44" stop-opacity="0"/>
</linearGradient>
<linearGradient id="paint17_linear_10079_21693278" x1="136.511" y1="36.7954" x2="132.576" y2="16.5581" gradientUnits="userSpaceOnUse">
<stop stop-color="#8DBEFF"/>
<stop offset="1" stop-color="#E7ECF2" stop-opacity="0"/>
</linearGradient>
<linearGradient id="paint18_linear_10079_21693278" x1="104.726" y1="49.394" x2="104.726" y2="129.155" gradientUnits="userSpaceOnUse">
<stop stop-color="white"/>
<stop offset="1" stop-color="white" stop-opacity="0"/>
</linearGradient>
<linearGradient id="paint19_linear_10079_21693278" x1="104.726" y1="45.6748" x2="104.726" y2="112.831" gradientUnits="userSpaceOnUse">
<stop stop-color="white"/>
<stop offset="1" stop-color="white" stop-opacity="0"/>
</linearGradient>
<linearGradient id="paint20_linear_10079_21693278" x1="130.328" y1="20.3535" x2="130.328" y2="121.811" gradientUnits="userSpaceOnUse">
<stop stop-color="#F6F6F6"/>
<stop offset="1" stop-color="#ACCEFF"/>
</linearGradient>
<linearGradient id="paint21_linear_10079_21693278" x1="164.25" y1="160.23" x2="116.606" y2="120.092" gradientUnits="userSpaceOnUse">
<stop stop-color="#42AB44"/>
<stop offset="1" stop-color="#42AB44" stop-opacity="0"/>
</linearGradient>
<linearGradient id="paint22_linear_10079_21693278" x1="162.113" y1="29.4516" x2="158.178" y2="9.21431" gradientUnits="userSpaceOnUse">
<stop stop-color="#8DBEFF"/>
<stop offset="1" stop-color="#E7ECF2" stop-opacity="0"/>
</linearGradient>
<linearGradient id="paint23_linear_10079_21693278" x1="130.336" y1="42.0498" x2="130.336" y2="121.811" gradientUnits="userSpaceOnUse">
<stop stop-color="white"/>
<stop offset="1" stop-color="white" stop-opacity="0"/>
</linearGradient>
<linearGradient id="paint24_linear_10079_21693278" x1="130.336" y1="38.3306" x2="130.336" y2="105.487" gradientUnits="userSpaceOnUse">
<stop stop-color="white"/>
<stop offset="1" stop-color="white" stop-opacity="0"/>
</linearGradient>
<linearGradient id="paint25_linear_10079_21693278" x1="54.0859" y1="98.9787" x2="91.4288" y2="123.769" gradientUnits="userSpaceOnUse">
<stop stop-color="#0153CC"/>
<stop offset="1" stop-color="#032C69"/>
</linearGradient>
<linearGradient id="paint26_linear_10079_21693278" x1="103.672" y1="99.3392" x2="86.3595" y2="66.4233" gradientUnits="userSpaceOnUse">
<stop stop-color="#362A57"/>
<stop offset="1" stop-color="#3F82C8"/>
</linearGradient>
<linearGradient id="paint27_linear_10079_21693278" x1="105.841" y1="90.7287" x2="93.3359" y2="90.7287" gradientUnits="userSpaceOnUse">
<stop stop-color="#5F1A58"/>
<stop offset="1" stop-color="#5F1A58" stop-opacity="0"/>
</linearGradient>
<linearGradient id="paint28_linear_10079_21693278" x1="96.2764" y1="102.145" x2="96.2764" y2="96.0562" gradientUnits="userSpaceOnUse">
<stop stop-color="#42AB44"/>
<stop offset="1" stop-color="#0057D6" stop-opacity="0"/>
</linearGradient>
<linearGradient id="paint29_linear_10079_21693278" x1="66.0247" y1="61.4814" x2="66.0247" y2="102.188" gradientUnits="userSpaceOnUse">
<stop stop-color="#F6F6F6"/>
<stop offset="1" stop-color="#ACCEFF"/>
</linearGradient>
<linearGradient id="paint30_linear_10079_21693278" x1="102.635" y1="117.603" x2="88.3066" y2="85.1311" gradientUnits="userSpaceOnUse">
<stop stop-color="#42AB44"/>
<stop offset="1" stop-color="#42AB44" stop-opacity="0"/>
</linearGradient>
<linearGradient id="paint31_linear_10079_21693278" x1="78.5422" y1="61.4814" x2="78.5422" y2="102.188" gradientUnits="userSpaceOnUse">
<stop stop-color="white"/>
<stop offset="1" stop-color="white" stop-opacity="0"/>
</linearGradient>
<linearGradient id="paint32_linear_10079_21693278" x1="72.3361" y1="61.4814" x2="72.3361" y2="102.188" gradientUnits="userSpaceOnUse">
<stop stop-color="white"/>
<stop offset="1" stop-color="white" stop-opacity="0"/>
</linearGradient>
</defs>
</svg>
