<svg title="Лого «Huawei»" fill="none" xmlns="http://www.w3.org/2000/svg" viewBox="0 0 28 28"><path fill-rule="evenodd" clip-rule="evenodd" d="M8.471 1.4c-5.177 0-7.07 1.894-7.07 7.07V19.53c0 5.176 1.893 7.07 7.07 7.07h11.055c5.177 0 7.074-1.894 7.074-7.07V8.47c0-5.176-1.893-7.07-7.07-7.07H8.47z" fill="#83B83E"/><path fill-rule="evenodd" clip-rule="evenodd" d="M12.393 16.015h1.012l-.508-1.18-.504 1.18zm-.249.595-.3.687h-.683L12.614 14h.59l1.448 3.297h-.702l-.296-.687h-1.51zm10.997.685h.66V14h-.66v3.295zm-2.63-1.416h1.218v-.6h-1.217v-.676h1.767v-.6h-2.427v3.294h2.49v-.601h-1.83v-.817zm-2.623.39L17.138 14h-.546l-.748 2.269-.73-2.267h-.712l1.15 3.297h.554l.75-2.166.75 2.166h.56l1.146-3.297h-.694l-.73 2.267zm-7.736-.38c0 .536-.266.822-.75.822-.486 0-.754-.294-.754-.845v-1.864H7.98v1.886c0 .928.516 1.46 1.414 1.46.908 0 1.428-.542 1.428-1.487V14h-.669v1.888zM6.382 14h.669v3.3h-.67v-1.34h-1.51v1.34H4.2V14h.67v1.33h1.51V14zM14 9.8a4.205 4.205 0 0 1-4.2-4.2h.594a3.61 3.61 0 0 0 3.607 3.607 3.61 3.61 0 0 0 3.607-3.606h.593c0 2.316-1.884 4.2-4.2 4.2z" fill="#fff"/></svg>
