<svg title="Маркер карты РСХБ" width="88" height="94" fill="none" xmlns="http://www.w3.org/2000/svg"><g opacity=".1" filter="url(#a)"><ellipse cx="44.5" cy="65.5" rx="11.5" ry="1.5" fill="#1C1C1C"/></g><g filter="url(#b)"><path fill-rule="evenodd" clip-rule="evenodd" d="M44 62.36c-1.506 2.197-1.507 2.196-1.507 2.196l-.006-.004-.014-.009-.045-.03-.156-.104a34.7 34.7 0 0 1-.561-.386 57.212 57.212 0 0 1-7.824-6.667C29.707 53.066 25 46.701 25 39.48c0-4.901 2.002-9.602 5.565-13.067C34.128 22.947 38.961 21 44 21c5.04 0 9.872 1.947 13.435 5.413C60.998 29.878 63 34.579 63 39.48c0 7.221-4.707 13.585-8.887 17.876a57.212 57.212 0 0 1-7.824 6.667 34.7 34.7 0 0 1-.717.49l-.045.03-.014.009-.004.003s-.003.002-1.509-2.195Zm0 0 1.506 2.197a2.78 2.78 0 0 1-3.013 0L44 62.36Z" fill="#42AB44"/></g><path fill-rule="evenodd" clip-rule="evenodd" d="M31 40c0-7.18 5.82-13 13-13s13 5.82 13 13-5.82 13-13 13-13-5.82-13-13Z" fill="#fff"/><path fill-rule="evenodd" clip-rule="evenodd" d="m41 40 2-2.382V36l-2 2.37V40ZM41 34l2-1.83V31l-2 1.818V34ZM41 36l2-1.828V33l-2 1.82V36ZM39.7 31.098l-.27-.311V27h-.3v3.426l-.26-.317V27h-.305v2.754l-.265-.317V27H38v3.612L40 33v-6h-.3v4.098Z" fill="#42AB44"/><path fill-rule="evenodd" clip-rule="evenodd" d="m41 38 2-1.828V35l-2 1.82V38ZM38 37.618 40 40v-1.63L38 36v1.618ZM42.699 29.437l-.265.317V27h-.301v3.115l-.266.311V27h-.3v3.781l-.266.317V27H41v6l2-2.388V27h-.301v2.437ZM38 32.17 40 34v-1.182L38 31v1.17ZM38 34.172 40 36v-1.18L38 33v1.172Z" fill="#42AB44"/><path fill-rule="evenodd" clip-rule="evenodd" d="M38 36.172 40 38v-1.18L38 35v1.172ZM51.715 37.07h-5.519c.117-.21.184-.454.184-.715 0-.75-.535-1.355-1.193-1.355-.657 0-1.187.61-1.187 1.355 0 .296.081.564.224.785a.45.45 0 0 0-.173.36.45.45 0 0 0 .173.36c-.137.221-.224.495-.224.785 0 .75.53 1.355 1.187 1.355.658 0 1.193-.605 1.193-1.355 0-.261-.067-.511-.184-.715h4.107v.285h-.407v.401h.407v.413h-.407v.762h.407v-.343h.602v.343h.402v-.762h-.403v-.413h.403v-.4h-.403v-.286h.81c.159 0 .286-.15.286-.331v-.204c0-.174-.133-.325-.285-.325Zm-5.911 1.581c0 .384-.275.698-.617.698-.336 0-.611-.314-.611-.698 0-.14.035-.273.102-.384l.168-.331a.609.609 0 0 1-.173-.436c0-.174.066-.331.173-.436l-.168-.331a.732.732 0 0 1-.102-.384c0-.384.275-.698.611-.698.337 0 .617.314.617.698 0 .285-.286.965-.286.965v.366c-.005.006.286.686.286.971ZM36 36v1.543c0 1.474.582 2.422.918 2.788l2.217 2.402c.62.668.726.89.865 1.267v-1.707c0-1.522-.697-2.11-1.058-2.497-.836-.901-1.399-1.495-1.85-1.993C36.23 36.853 36 36 36 36ZM38.941 43.637c-.838-.92-1.4-1.517-1.853-2.023C36.226 40.651 36 40 36 40v1.35c0 1.496.606 2.448.915 2.841l2.219 2.426c.62.678.726 1.001.866 1.383v-1.83c0-1.543-.703-2.14-1.059-2.533Z" fill="#42AB44"/><path fill-rule="evenodd" clip-rule="evenodd" d="M44.002 30c-.16 0-.32.005-.48.01v.68c.155-.01.316-.015.48-.015 5.147 0 9.318 4.172 9.318 9.325 0 5.148-4.171 9.32-9.318 9.32-5.146 0-9.322-4.172-9.322-9.32a9.3 9.3 0 0 1 3.311-7.123v-.871A9.983 9.983 0 0 0 34 40c0 5.523 4.476 10 10.002 10C49.524 50 54 45.523 54 40s-4.476-10-9.998-10Z" fill="#42AB44"/><path fill-rule="evenodd" clip-rule="evenodd" d="M51 45c.352-.21.682-.431 1-.657V43h-1v2ZM52.766 43c.082-.333.165-.667.234-1h-2v.607h.303c.531-.017 1.132-.026 1.463.393Z" fill="#42AB44"/><path d="M43 42h-1v4h1v-4Z" fill="#42AB44"/><path fill-rule="evenodd" clip-rule="evenodd" d="M41.404 41.403h1.33c.344 0 .584.07.722.203s.205.372.205.714v3.796c0 .341-.061.58-.205.713-.21.21-.598.21-.92.21-.072-.006-.144-.006-.206-.006v1.799c.134.025.267.05.405.071v-1.477c.614 0 1.013-.21 1.202-.627V49h.133c.087 0 .17 0 .256-.005v-6.609c0-.352.072-.596.205-.734.133-.142.373-.209.711-.209.343 0 .85-.05 1.11.21.134.137.195.386.195.733v1.947h-.91v-2.08h-.395v6.67a5.32 5.32 0 0 0 .394-.06v-4.138h.911v3.928c.19-.05.374-.112.558-.178v-3.597c0-.408.097-.714.517-.856l-.46-2.502h.92l.154 2.731h.112l.154-2.731h.972l-.522 2.502c.435.153.522.418.522.856V47.2c.271-.204.527-.418.773-.652v-5.05h2.702c.02-.122.036-.24.051-.367h-6.325l.087.454c-.2-.367-.578-.55-1.136-.55h-.394c-.67 0-1.08.265-1.233.795-.144-.556-.568-.831-1.27-.831H41v7.455c.133.046.266.092.4.132v-7.184h.004Zm8.387 2.868-.434-.412.434-2.242v2.654Z" fill="#42AB44"/><defs><filter id="a" x="27" y="58" width="35" height="15" filterUnits="userSpaceOnUse" color-interpolation-filters="sRGB"><feFlood flood-opacity="0" result="BackgroundImageFix"/><feBlend in="SourceGraphic" in2="BackgroundImageFix" result="shape"/><feGaussianBlur stdDeviation="3" result="effect1_foregroundBlur_9189_125230"/></filter><filter id="b" x="0" y="0" width="88" height="94" filterUnits="userSpaceOnUse" color-interpolation-filters="sRGB"><feFlood flood-opacity="0" result="BackgroundImageFix"/><feColorMatrix in="SourceAlpha" values="0 0 0 0 0 0 0 0 0 0 0 0 0 0 0 0 0 0 127 0" result="hardAlpha"/><feOffset dy="4"/><feGaussianBlur stdDeviation="12.5"/><feColorMatrix values="0 0 0 0 0 0 0 0 0 0 0 0 0 0 0 0 0 0 0.07 0"/><feBlend in2="BackgroundImageFix" result="effect1_dropShadow_9189_125230"/><feBlend in="SourceGraphic" in2="effect1_dropShadow_9189_125230" result="shape"/></filter></defs></svg>
