<svg xmlns="http://www.w3.org/2000/svg" title="Маркер карты" width="88" height="94" fill="none"><g opacity=".1" filter="url(#a)"><ellipse cx="44.5" cy="65.5" rx="11.5" ry="1.5" fill="#1C1C1C"/></g><g filter="url(#b)"><path fill-rule="evenodd" clip-rule="evenodd" d="M44 62.36c-1.506 2.197-1.507 2.196-1.507 2.196l-.006-.004-.014-.009-.045-.03-.156-.104a34.7 34.7 0 0 1-.561-.386 57.212 57.212 0 0 1-7.824-6.667C29.707 53.066 25 46.701 25 39.48c0-4.901 2.002-9.602 5.565-13.067C34.128 22.947 38.961 21 44 21c5.04 0 9.872 1.947 13.435 5.413C60.998 29.878 63 34.579 63 39.48c0 7.221-4.707 13.585-8.887 17.876a57.212 57.212 0 0 1-7.824 6.667 34.7 34.7 0 0 1-.717.49l-.045.03-.014.009-.004.003s-.003.002-1.509-2.195Zm0 0 1.506 2.197a2.78 2.78 0 0 1-3.013 0L44 62.36Z" fill="#42AB44"/></g><path fill-rule="evenodd" clip-rule="evenodd" d="M31 40c0-7.18 5.82-13 13-13s13 5.82 13 13-5.82 13-13 13-13-5.82-13-13Z" fill="#fff"/><defs><filter id="a" x="27" y="58" width="35" height="15" filterUnits="userSpaceOnUse" color-interpolation-filters="sRGB"><feFlood flood-opacity="0" result="BackgroundImageFix"/><feBlend in="SourceGraphic" in2="BackgroundImageFix" result="shape"/><feGaussianBlur stdDeviation="3" result="effect1_foregroundBlur_9189_125614"/></filter><filter id="b" x="0" y="0" width="88" height="94" filterUnits="userSpaceOnUse" color-interpolation-filters="sRGB"><feFlood flood-opacity="0" result="BackgroundImageFix"/><feColorMatrix in="SourceAlpha" values="0 0 0 0 0 0 0 0 0 0 0 0 0 0 0 0 0 0 127 0" result="hardAlpha"/><feOffset dy="4"/><feGaussianBlur stdDeviation="12.5"/><feColorMatrix values="0 0 0 0 0 0 0 0 0 0 0 0 0 0 0 0 0 0 0.07 0"/><feBlend in2="BackgroundImageFix" result="effect1_dropShadow_9189_125614"/><feBlend in="SourceGraphic" in2="effect1_dropShadow_9189_125614" result="shape"/></filter></defs></svg>
