<svg title="Купюры" isInverse="true" viewBox="0 0 26 26" fill="none" xmlns="http://www.w3.org/2000/svg">
  <path d="M2.26953 8.75126C2.26953 5.54293 4.10286 4.16797 6.85286 4.16797H16.0091C18.3425 4.16797 20.0195 5.15755 20.4675 7.41796C20.5508 7.82421 20.5924 8.26168 20.5924 8.75126V14.1159C20.5924 17.3242 18.7591 18.6992 16.0091 18.6992H6.85286C6.38411 18.6992 5.93619 18.6576 5.51953 18.5638C5.25911 18.5221 5.00909 18.4492 4.77992 18.3659C3.21742 17.7826 2.26953 16.4284 2.26953 14.1159V13.0013" stroke="#000000" stroke-width="2" stroke-miterlimit="10" stroke-linecap="round" stroke-linejoin="round"/>
  <path d="M23.7292 16.1367V17.2409C23.7292 20.4492 21.8958 21.8242 19.1458 21.8242H9.98958C9.21875 21.8242 8.52084 21.7201 7.91668 21.4909C6.67709 21.0326 5.83333 20.0846 5.53125 18.5638C5.94792 18.6576 6.39583 18.6992 6.86458 18.6992H16.0208C18.7708 18.6992 20.6042 17.3242 20.6042 14.1159V8.75127C20.6042 8.26169 20.5625 7.82422 20.4792 7.41797C22.4688 7.82422 23.7292 9.22002 23.7292 11.8763" stroke="#000000" stroke-width="2" stroke-miterlimit="10" stroke-linecap="round" stroke-linejoin="round"/>
  <path d="M14.1875 11.4375C14.1875 9.91668 12.9583 8.6875 11.4375 8.6875C9.91668 8.6875 8.6875 9.91668 8.6875 11.4375C8.6875 12.9583 9.91668 14.1875 11.4375 14.1875" stroke="currentColor" stroke-width="2" stroke-miterlimit="10" stroke-linecap="round" stroke-linejoin="round"/>
  <path d="M5.47656 9.14844V13.7318" stroke="currentColor" stroke-width="2" stroke-miterlimit="10" stroke-linecap="round" stroke-linejoin="round"/>
  <path d="M17.3945 9.14844V13.7318" stroke="currentColor" stroke-width="2" stroke-miterlimit="10" stroke-linecap="round" stroke-linejoin="round"/>
</svg>
