<svg width="293" height="246" viewBox="0 0 293 246" fill="none" xmlns="http://www.w3.org/2000/svg">
<path opacity="0.5" d="M37.3672 84.2039V194.953L177.062 115.581V4.84375L37.3672 84.2039Z" fill="#E0F6E0"/>
<path opacity="0.5" d="M261.941 165.029V54.8144L177.062 4.84375V116.806L261.941 165.029Z" fill="#C2E8D6"/>
<path d="M63.7812 161.607L128.285 198.687L237.037 136.469L172.512 99.3867L63.7812 161.607Z" fill="white"/>
<path d="M63.3555 161.637V171.952L127.861 209.034L127.859 198.719L63.3555 161.637V161.637Z" fill="#D9F0E4"/>
<path d="M127.74 199.133L237.179 136.172V146.077L127.74 209.036V199.133ZM137.006 138.889L125.68 142.157L122.055 140.092L158.34 129.805L162.561 132.225L144.724 153.107L140.986 150.958L146.615 144.392L137.007 138.889H137.006ZM148.618 142.41L153.764 136.413C154.929 135.054 156.137 133.896 157.302 132.762L157.217 132.72C155.214 133.413 153.124 134.107 150.95 134.756L140.461 137.728L148.618 142.41ZM158.397 160.974L165.505 156.885L153.366 149.911L155.696 148.566L184.023 145.679L187.846 147.872L171.615 157.21L175.268 159.319L172.497 160.918L168.844 158.809L161.737 162.898L158.397 160.974V160.974ZM168.276 155.288L177.003 150.278C178.366 149.486 179.774 148.736 181.224 147.987L181.094 147.916C178.764 148.326 177.003 148.608 175.07 148.891L159.804 150.321L159.719 150.363L168.276 155.286V155.288Z" fill="#D9F0E4"/>
<path opacity="0.5" d="M120.477 241.599L119.593 131.582L37.3672 84.0547V193.192L120.477 241.599Z" fill="#C2E8D6"/>
<path opacity="0.5" d="M120.473 124.402V241.603L261.936 165.031V55L120.473 135.832V124.402Z" fill="#E5F8E8"/>
<path d="M116.498 138.57L121.163 122.785L125.815 138.57L121.163 136.536L116.498 138.57ZM45.6269 204.071L34.5273 191.82L50.5481 196.254L46.3448 199.082L45.6269 204.071V204.071ZM247.796 167.644L263.962 163.743L252.455 175.618L251.911 170.619L247.796 167.644Z" fill="#1C1C1C"/>
<path d="M40.0156 194.949L121.357 241.976M120.473 240.716V128.059V240.716ZM120.473 241.976L254.863 169.425L120.473 241.976Z" stroke="#1C1C1C"/>
<path d="M129.323 107.217C129.323 108.78 128.752 109.906 127.635 110.673C126.506 111.44 124.634 111.867 121.926 111.867C121.588 111.867 121.217 111.859 120.808 111.843C120.417 111.826 120.019 111.803 119.616 111.77C119.226 111.737 118.836 111.698 118.448 111.649C118.217 111.621 118 111.587 117.797 111.547V95.789C118 95.7495 118.217 95.7154 118.448 95.6867C118.836 95.6384 119.226 95.5986 119.616 95.5656C120.021 95.5327 120.419 95.5085 120.807 95.493L120.81 95.4929C121.198 95.4757 121.562 95.4688 121.902 95.4688C122.867 95.4688 123.763 95.5409 124.589 95.6833L124.591 95.6836C125.42 95.8237 126.113 96.0623 126.677 96.3877L126.684 96.3915L126.691 96.3952C127.264 96.7027 127.701 97.1046 128.014 97.601C128.316 98.0805 128.482 98.689 128.482 99.4539C128.482 100.308 128.28 100.968 127.912 101.472C127.526 101.984 127.009 102.373 126.346 102.637L124.999 103.173L126.39 103.581C127.329 103.856 128.044 104.283 128.566 104.846C129.049 105.367 129.323 106.133 129.323 107.217ZM119.673 103.759H119.173V104.259V110.273V110.727L119.625 110.77C119.814 110.789 120.033 110.805 120.281 110.821C120.5 110.839 120.751 110.855 121.032 110.87L121.046 110.871H121.06H122.075C122.803 110.871 123.495 110.83 124.146 110.744L124.146 110.744L124.156 110.742C124.839 110.638 125.448 110.46 125.979 110.206L125.98 110.206C126.53 109.942 126.978 109.566 127.311 109.082C127.68 108.569 127.848 107.944 127.848 107.241C127.848 106.624 127.731 106.066 127.463 105.594C127.201 105.114 126.818 104.738 126.332 104.466C125.876 104.203 125.34 104.021 124.736 103.915C124.141 103.81 123.484 103.759 122.768 103.759H119.673ZM123.959 102.708C124.531 102.619 125.042 102.458 125.485 102.208C125.945 101.96 126.316 101.625 126.58 101.203C126.874 100.759 127.006 100.224 127.006 99.6264C127.006 99.0569 126.873 98.5419 126.572 98.1119C126.289 97.689 125.897 97.3652 125.421 97.1351C124.972 96.8954 124.453 96.7259 123.872 96.6208C123.295 96.5163 122.687 96.4649 122.05 96.4649C121.436 96.4649 120.949 96.4737 120.591 96.4901L120.591 96.4901L120.589 96.4902C120.237 96.5081 119.911 96.5317 119.614 96.567L119.173 96.6194V97.0635V102.337H119.673V102.837H122.199C122.815 102.837 123.402 102.795 123.959 102.708Z" fill="white" stroke="white"/>
<path d="M4.35938 197.001V179.676H6.78438V194.926H13.2844V179.676H15.7094V194.926H22.2094V179.676H24.6344V197.001H4.35938Z" fill="white"/>
<path d="M275.167 162.001V166.626H272.867V159.926H274.692C275.542 158.959 276.192 157.892 276.642 156.726C277.109 155.542 277.442 154.301 277.642 153.001C277.859 151.684 277.984 150.326 278.017 148.926C278.067 147.526 278.101 146.109 278.117 144.676H287.917V159.926H290.092V166.626H287.792V162.001H275.167ZM280.492 146.751C280.442 147.851 280.384 148.976 280.317 150.126C280.267 151.259 280.142 152.392 279.942 153.526C279.759 154.642 279.484 155.742 279.117 156.826C278.751 157.909 278.234 158.942 277.567 159.926H285.492V146.751H280.492Z" fill="white"/>
</svg>
