<svg title="Щит" viewBox="0 0 180 160" xmlns="http://www.w3.org/2000/svg" fill="none"><g clip-path="url(#a)"><g filter="url(#b)"><path fill="url(#c)" d="M86.387 152.83c24.712 0 44.746-1.289 44.746-2.879 0-1.591-20.034-2.88-44.746-2.88-24.713 0-44.746 1.289-44.746 2.88 0 1.59 20.033 2.879 44.746 2.879Z"/></g><path fill="url(#d)" d="M91.57 13.17H79.958v3.89L39.25 30.765l1.51 28.976a94.446 94.446 0 0 0 39.197 71.832v7.143H91.57c29.789-15.447 49.127-45.469 50.811-78.975l1.509-28.976-52.32-17.596Z"/><path fill="#0062EA" d="M71.07 20.08h41.056l-5.575-1.858H76.587L71.07 20.08ZM68.227 121.585a96.763 96.763 0 0 0 7.2 6.504h32.345c2.497-2.032 4.878-4.239 7.201-6.504H68.227ZM71.773 30.939v6.504h71.775l.348-6.504H71.773Z"/><path fill="#42AB44" d="M99.987 133.78c.929-.581 1.8-1.219 2.729-1.858H79.953v1.858h20.034ZM81.234 40.694v1.859h62.077l.058-1.859H81.234Z"/><mask id="e" width="106" height="126" x="27" y="13" maskUnits="userSpaceOnUse" style="mask-type:alpha"><path fill="#42AB44" d="M79.954 138.716c29.789-15.447 49.126-45.469 50.81-78.975l1.51-28.976-52.32-17.596-52.321 17.596 1.51 28.976c1.684 33.507 21.079 63.528 50.81 78.975Z"/></mask><g mask="url(#e)"><path fill="url(#f)" d="M79.954 138.716c29.789-15.447 49.126-45.469 50.81-78.975l1.51-28.976-52.32-17.596-52.321 17.596 1.51 28.976c1.684 33.507 21.079 63.528 50.81 78.975Z"/><path fill="url(#g)" d="m128.208 79.078 5.925-33.423-99.031 72.77 52.658 30.377 40.448-69.724Z"/></g><g filter="url(#h)"><path fill="#BEE6FF" d="m79.954 22.983 42.681 14.343-1.104 21.95c-.754 14.809-5.4 29.21-13.414 41.695a85.344 85.344 0 0 1-28.105 27.118 85.351 85.351 0 0 1-28.106-27.118c-8.014-12.485-12.66-26.886-13.414-41.694l-1.103-21.95 42.565-14.344Zm0-9.814L27.633 30.765l1.51 28.976c1.742 33.448 21.079 63.528 50.81 78.975 29.79-15.447 49.127-45.469 50.811-78.975l1.51-28.976-52.32-17.596Z"/></g><g filter="url(#i)"><path fill="#64E466" d="M46 43.316v15.909l30.507-27.14L46 43.316Z"/></g><g filter="url(#j)"><path fill="#F2F9BD" d="M80.61 114.601v8.236l30.507-27.139-23.308 8.58a11 11 0 0 0-7.2 10.323Z"/></g><mask id="k" width="106" height="126" x="27" y="13" maskUnits="userSpaceOnUse" style="mask-type:alpha"><path fill="#BEE6FF" d="m79.954 22.983 42.681 14.343-1.104 21.95c-.754 14.809-5.4 29.21-13.414 41.695a85.344 85.344 0 0 1-28.105 27.118 85.351 85.351 0 0 1-28.106-27.118c-8.014-12.485-12.66-26.886-13.414-41.694l-1.103-21.95 42.565-14.344Zm0-9.814L27.633 30.765l1.51 28.976c1.742 33.448 21.079 63.528 50.81 78.975 29.79-15.447 49.127-45.469 50.811-78.975l1.51-28.976-52.32-17.596Z"/></mask><g fill="#fff" mask="url(#k)"><path d="M107.344 6.755 111 10.607 26.138 91.133l-3.655-3.851zM118.242 10.218l20.136 21.22L39.3 125.454l-20.136-21.22z"/></g><path fill="url(#l)" d="M86.442 41.624h-7.837v1.045C68.157 45.804 60.32 55.729 60.32 67.746c0 12.016 7.837 21.42 18.285 25.076v1.045h8.359c14.628 0 26.122-11.493 26.122-26.121 0-14.628-12.538-26.122-26.644-26.122Z"/><mask id="n" width="54" height="53" x="60" y="41" maskUnits="userSpaceOnUse" style="mask-type:alpha"><path fill="url(#m)" d="M86.45 41.624h-7.837v1.045c-10.448 3.135-18.285 13.06-18.285 25.077 0 12.016 7.837 21.42 18.285 25.076v1.045h8.359c14.628 0 26.122-11.493 26.122-26.121 0-14.628-12.539-26.122-26.644-26.122Z"/></mask><g mask="url(#n)"><path fill="#0062EA" d="M74.219 82.272h37.938v1.441H74.219zM74.219 46.273h37.938v1.441H74.219z"/><path fill="#42AB44" d="M77.219 50.273h37.938v3.943H77.219zM72.094 86.272h37.938v3.943H72.094z"/></g><path fill="#F6F6F6" d="M81.223 93.867c14.427 0 26.122-11.695 26.122-26.121 0-14.427-11.695-26.122-26.122-26.122-14.426 0-26.121 11.695-26.121 26.122 0 14.426 11.695 26.121 26.121 26.121Z"/><path fill="#DADADA" d="M78.614 93.867c14.426 0 26.121-11.695 26.121-26.121 0-14.427-11.695-26.122-26.121-26.122-14.427 0-26.122 11.695-26.122 26.122 0 14.426 11.695 26.121 26.122 26.121Z"/><path fill="#BEE6FF" d="M78.614 93.867c14.426 0 26.121-11.695 26.121-26.121 0-14.427-11.695-26.122-26.121-26.122-14.427 0-26.122 11.695-26.122 26.122 0 14.426 11.695 26.121 26.122 26.121Z"/><path fill="url(#o)" d="M78.614 93.867c14.426 0 26.121-11.695 26.121-26.121 0-14.427-11.695-26.122-26.121-26.122-14.427 0-26.122 11.695-26.122 26.122 0 14.426 11.695 26.121 26.122 26.121Z"/><path fill="#fff" d="M53.603 72.723c0-16.43 12.91-29.339 29.34-29.339 2.933 0 5.867.587 8.8 1.174-3.52-1.76-7.627-2.934-12.321-2.934-14.67 0-26.992 12.322-26.992 26.992 0 4.107 1.173 8.215 2.347 11.149-.587-2.347-1.174-4.695-1.174-7.042Z"/><path fill="url(#p)" d="M76.515 83.417 63.977 70.88l5.746-5.747 6.792 6.792 17.24-17.24 5.747 5.746-22.987 22.987Z"/><path fill="url(#q)" d="M76.515 83.417 63.977 70.88l5.746-5.747 6.792 6.792 17.24-17.24 5.747 5.746-22.987 22.987Z"/><path fill="url(#r)" d="M73.382 83.417 60.844 70.88l5.747-5.747 6.791 6.792L90.1 54.684l5.747 5.746-22.465 22.987Z"/><path fill="#F6F6F6" d="m73.383 83.422 19.27-26.207 3.194 3.22-22.464 22.987Z"/><path fill="#B5E2FF" d="m36.86 102.239-12.758-1.708c-2.105-.263-3.683-1.97-4.078-3.942l-1.973-13.14-1.446 13.009a4.754 4.754 0 0 1-4.21 4.205l-13.153 1.576 13.022 1.577c2.368.263 4.078 2.234 4.209 4.468l1.71 30.089 2.104-30.221c.132-2.234 1.973-4.073 4.21-4.467l12.364-1.446Z"/><g filter="url(#s)"><path fill="#B5E2FF" d="m165.574 24.89-8.693-1.164c-1.433-.18-2.509-1.343-2.777-2.685l-1.345-8.952-.985 8.862a3.24 3.24 0 0 1-2.868 2.864l-8.961 1.075 8.872 1.074c1.613.179 2.778 1.522 2.867 3.043l1.165 20.5 1.434-20.59c.089-1.52 1.344-2.774 2.867-3.043l8.424-.984Z"/></g></g><defs><linearGradient id="d" x1="91.573" x2="91.57" y1="85.424" y2="138.716" gradientUnits="userSpaceOnUse"><stop/><stop offset="1" stop-color="#0357CA"/></linearGradient><linearGradient id="f" x1="55.66" x2="110.849" y1="67.708" y2="112.197" gradientUnits="userSpaceOnUse"><stop stop-color="#42AB44"/><stop offset="1" stop-color="#C1EA97"/></linearGradient><linearGradient id="g" x1="84.617" x2="112.689" y1="65.644" y2="88.409" gradientUnits="userSpaceOnUse"><stop stop-color="#2A842B"/><stop offset="1" stop-color="#42AB44" stop-opacity="0"/></linearGradient><linearGradient id="l" x1="86.704" x2="86.703" y1="71.691" y2="93.867" gradientUnits="userSpaceOnUse"><stop/><stop offset="1" stop-color="#0357CA"/></linearGradient><linearGradient id="m" x1="86.712" x2="86.711" y1="71.691" y2="93.867" gradientUnits="userSpaceOnUse"><stop/><stop offset="1" stop-color="#0357CA"/></linearGradient><linearGradient id="o" x1="100.654" x2="89.548" y1="74.282" y2="42.495" gradientUnits="userSpaceOnUse"><stop stop-color="#F4FAFF"/><stop offset="1" stop-color="#F4FAFF" stop-opacity="0"/></linearGradient><linearGradient id="p" x1="78.776" x2="67.535" y1="69.05" y2="61.382" gradientUnits="userSpaceOnUse"><stop/><stop offset="1" stop-color="#C17845"/></linearGradient><linearGradient id="q" x1="73.652" x2="84.321" y1="52.358" y2="61.733" gradientUnits="userSpaceOnUse"><stop stop-color="#42AB44"/><stop offset="1" stop-color="#42AB44" stop-opacity="0"/></linearGradient><linearGradient id="r" x1="73.576" x2="99.74" y1="63.904" y2="81.467" gradientUnits="userSpaceOnUse"><stop stop-color="#42AB44"/><stop offset="1" stop-color="#C8E99F"/></linearGradient><filter id="b" width="103.492" height="19.759" x="34.641" y="140.071" color-interpolation-filters="sRGB" filterUnits="userSpaceOnUse"><feFlood flood-opacity="0" result="BackgroundImageFix"/><feBlend in="SourceGraphic" in2="BackgroundImageFix" result="shape"/><feGaussianBlur result="effect1_foregroundBlur_10079_21731859" stdDeviation="3.5"/></filter><filter id="h" width="109.641" height="129.546" x="27.633" y="12.169" color-interpolation-filters="sRGB" filterUnits="userSpaceOnUse"><feFlood flood-opacity="0" result="BackgroundImageFix"/><feColorMatrix in="SourceAlpha" result="hardAlpha" values="0 0 0 0 0 0 0 0 0 0 0 0 0 0 0 0 0 0 127 0"/><feOffset dx="3" dy="1"/><feGaussianBlur stdDeviation="1"/><feComposite in2="hardAlpha" operator="out"/><feColorMatrix values="0 0 0 0 0.211765 0 0 0 0 0.352941 0 0 0 0 0.752941 0 0 0 1 0"/><feBlend in2="BackgroundImageFix" result="effect1_dropShadow_10079_21731859"/><feBlend in="SourceGraphic" in2="effect1_dropShadow_10079_21731859" result="shape"/></filter><filter id="i" width="38.508" height="35.139" x="42" y="28.086" color-interpolation-filters="sRGB" filterUnits="userSpaceOnUse"><feFlood flood-opacity="0" result="BackgroundImageFix"/><feBlend in="SourceGraphic" in2="BackgroundImageFix" result="shape"/><feGaussianBlur result="effect1_foregroundBlur_10079_21731859" stdDeviation="2"/></filter><filter id="j" width="56.508" height="53.139" x="67.609" y="82.698" color-interpolation-filters="sRGB" filterUnits="userSpaceOnUse"><feFlood flood-opacity="0" result="BackgroundImageFix"/><feBlend in="SourceGraphic" in2="BackgroundImageFix" result="shape"/><feGaussianBlur result="effect1_foregroundBlur_10079_21731859" stdDeviation="6.5"/></filter><filter id="s" width="33.625" height="45.417" x="135.945" y="8.089" color-interpolation-filters="sRGB" filterUnits="userSpaceOnUse"><feFlood flood-opacity="0" result="BackgroundImageFix"/><feBlend in="SourceGraphic" in2="BackgroundImageFix" result="shape"/><feGaussianBlur result="effect1_foregroundBlur_10079_21731859" stdDeviation="2"/></filter><radialGradient id="c" cx="0" cy="0" r="1" gradientTransform="rotate(90.005 -31.775 118.165) scale(1.51919 23.6076)" gradientUnits="userSpaceOnUse"><stop stop-color="#6A99DD"/><stop offset="1" stop-color="#A0C0EF"/></radialGradient><clipPath id="a"><path fill="#fff" d="M0 0h180v160H0z"/></clipPath></defs></svg>
