<svg title="Тыква" viewBox="0 0 180 160" xmlns="http://www.w3.org/2000/svg" fill="none"><g clip-path="url(#a)"><g filter="url(#b)"><path fill="url(#c)" d="M91.322 152.423c45.129 0 81.713-2.151 81.713-4.805 0-2.653-36.584-4.804-81.713-4.804-45.129 0-81.713 2.151-81.713 4.804 0 2.654 36.584 4.805 81.713 4.805Z"/></g><path fill="url(#d)" d="M133.786 121.103c21.676-21.597 25.401-52.9 8.321-69.917-17.08-17.017-48.497-13.306-70.173 8.29-21.675 21.597-25.4 52.9-8.32 69.917 17.08 17.018 48.497 13.306 70.172-8.29Z"/><path fill="url(#e)" d="M100.357 90.274c0-24.1-5.361-40.45-22.882-40.45-17.52 0-40.467 16.35-40.467 40.45S51.194 133.85 68.65 133.85c17.455 0 31.707-19.541 31.707-43.576Z"/><path fill="#EF7C13" d="M64.602 71.97c6.935-9.103 17.512-15.22 28.876-18.487 15.115-4.306 11.684-10.082-4.222-6.26-12.324 3.004-24.124 9.355-31.618 19.192-17.114 22.463-8.088 54.625 9.358 67.816.883.668 1.823 1.262 2.762 1.857-14.57-14.835-20.816-43.564-5.156-64.119Z"/><path fill="url(#f)" fill-rule="evenodd" d="M170.635 96.135c0 27.304-14.166 49.438-31.642 49.438-7.818 0-14.974-4.43-20.495-11.771-18.215 11.015-39.455 10.982-51.998-1.515-15.494-15.437-20.005-48.527-.065-68.459 14.798-14.792 40.542-18.104 59.195-12.518 4.06-2.96 8.588-4.613 13.363-4.613 17.476 0 31.642 22.134 31.642 49.438Z" clip-rule="evenodd"/><mask id="h" width="118" height="100" x="53" y="46" maskUnits="userSpaceOnUse" style="mask-type:alpha"><path fill="url(#g)" fill-rule="evenodd" d="M170.635 96.135c0 27.304-14.166 49.438-31.642 49.438-7.818 0-14.974-4.43-20.495-11.771-18.215 11.015-39.455 10.982-51.998-1.515-15.494-15.437-20.005-48.527-.065-68.459 14.798-14.792 40.542-18.104 59.195-12.518 4.06-2.96 8.588-4.613 13.363-4.613 17.476 0 31.642 22.134 31.642 49.438Z" clip-rule="evenodd"/></mask><g mask="url(#h)"><path fill="url(#i)" fill-rule="evenodd" d="M155.286 86.168c1.046-4.95 1.307-10.096.98-15.307-.392-5.146-1.373-10.422-3.53-15.438-2.027-5.015-5.23-9.835-9.349-13.744-4.118-3.973-9.152-7.034-14.382-9.184l-3.727 11.79c4.315.847 8.499 2.345 12.225 4.69a31.556 31.556 0 0 1 9.611 9.445c2.615 3.843 4.576 8.337 5.883 13.027 1.308 4.755 2.027 9.705 2.027 14.721h.262Zm-79.759 17.589c-1.046-4.95-1.308-10.096-.98-15.307.392-5.146 1.372-10.422 3.53-15.437 2.026-5.016 5.23-9.836 9.348-13.744 4.119-3.974 9.153-7.035 14.383-9.185l1.855 5.868 3.771-5.022c.222.177.353.324.476.46.059.066.115.129.178.191.196.196.392.391.523.587l.981 1.172c.436.521.813 1.042 1.191 1.563.189.261.378.522.574.782a77.602 77.602 0 0 1 1.569 2.41c.174.322.357.635.539.945.297.506.591 1.005.834 1.53a43.9 43.9 0 0 1 3.922 10.292c.85 3.517 1.373 7.1 1.242 10.552.047 1.246-.071 2.46-.19 3.687a66.97 66.97 0 0 0-.136 1.524c-.044.565-.146 1.13-.247 1.694-.051.282-.102.564-.146.847l-.457 2.475-.327-2.54a16.331 16.331 0 0 1-.1-.815c-.059-.55-.117-1.091-.292-1.66a62.79 62.79 0 0 1-.34-1.516c-.241-1.114-.477-2.208-.837-3.24-.915-3.126-2.354-6.058-3.923-8.728-1.634-2.67-3.595-5.08-5.753-7.23-.261-.26-.539-.521-.817-.782a36.26 36.26 0 0 1-.817-.782 33.938 33.938 0 0 1-1.525-1.28l-.175-.153a18.336 18.336 0 0 0-.559-.416c-3.349.892-6.573 2.215-9.513 4.065a31.556 31.556 0 0 0-9.61 9.445c-2.615 3.843-4.576 8.337-5.884 13.027-1.307 4.755-2.026 9.706-2.026 14.721h-.262Z" clip-rule="evenodd" style="mix-blend-mode:multiply"/><g filter="url(#j)"><path fill="url(#k)" fill-rule="evenodd" d="M138.792 46.697c-1.569 0-3.138.219-4.707.51.915-.072 29.354-2.04 29.615 43.16.071 10.667-1.65 17.963-4.199 23.083-.226-7.541-3.537-13.003-7.167-16.527a39.899 39.899 0 0 0 .332-14.726 38.885 38.885 0 0 0-6.015-15.242c1.177 5.21 1.896 10.422 1.7 15.502a46.307 46.307 0 0 1-1.602 10.497 15.725 15.725 0 0 0-.485-.221l-3.657 10.423c-1.272 2.34-2.731 4.603-4.324 6.789-1.504 2.019-3.073 3.974-4.772 5.797-.425.456-.867.912-1.308 1.368l-.001.001c-.441.456-.882.911-1.306 1.367-.85.847-1.765 1.629-2.681 2.41a44.695 44.695 0 0 1-6.014 4.169c-2.092 1.238-4.381 2.345-6.669 3.387-4.358 1.896-8.89 3.333-13.594 4.418.356-1.105.68-2.223.95-3.356 1.634-6.405-7.846-28.806-11.47-35.142a38.869 38.869 0 0 0-10.949-12.191c2.919 4.474 5.408 9.108 6.995 13.939 1.586 4.83 2.369 9.751 2.325 14.701-.004 4.866-.835 9.762-2.186 14.572-.705 2.417-1.495 4.795-2.453 7.097-.24.575-.494 1.156-.75 1.737l-.127.291c-4.635-.247-9.338-1.141-13.72-3.265 2.028 1.824 4.381 3.257 6.93 4.429 1.75.76 3.562 1.367 5.392 1.841-.29.548-.593 1.092-.896 1.635a44.622 44.622 0 0 1-4.185 6.003c-1.53 1.889-3.289 3.724-5.07 5.498-3.648 3.51-7.66 6.6-11.993 9.392-4.356 2.731-8.931 5.057-13.818 6.734-4.825 1.655-10.022 2.683-15.374 2.171 2.535 1.003 5.24 1.526 8.039 1.737 2.776.15 5.56-.051 8.254-.497 5.45-.914 10.765-2.75 15.731-5.152a70.21 70.21 0 0 0 13.965-9.152c1.793-1.539 4.876-2.802 8.079-4.114 4.447-1.822 9.123-3.738 10.891-6.617a33.217 33.217 0 0 0 2.066-3.825c.405-.81.785-1.61 1.135-2.417a69.088 69.088 0 0 0 2.235-.175 70.205 70.205 0 0 0 16.279-3.713c5.295-1.954 10.394-4.56 14.971-8.142a31.04 31.04 0 0 0 1.542-1.258l-2.208 6.294c-1.803 3.19-3.322 6.103-6.042 11.427 3.841 2.75 8.075 4.274 12.52 4.274 17.455 0 31.642-23.536 31.642-52.485.063-10.074-1.641-19.49-4.583-27.4a12.003 12.003 0 0 0-.321-.844c.109.28.216.56.321.843.596 1.742 1.2 4.468 1.643 7.821-4.896-17.02-15.996-28.856-28.906-28.856Z" clip-rule="evenodd"/></g></g><g filter="url(#l)"><path fill="#FFE8AC" fill-rule="evenodd" d="M103.694 55.882c-11.703 1.693-23.013 6.318-31.12 14.395-18.304 18.238-16.016 47.55-3.595 64.225-.85-.716-1.7-1.433-2.484-2.215-15.494-15.437-20.07-48.527-.065-68.459 2.775-2.765 5.931-5.125 9.35-7.1-.85.152-1.605.306-2.22.456a43.378 43.378 0 0 0-10.786 4.3c-3.465 1.954-6.734 4.298-9.676 7.165-1.504 1.433-2.877 2.93-4.25 4.494-1.307 1.628-2.614 3.257-3.66 5.08.588-2.019 1.438-3.973 2.353-5.927.915-1.954 1.961-3.778 3.138-5.602 2.354-3.647 5.165-7.034 8.368-10.16l.066-.066a24.795 24.795 0 0 1 12.029-6.188c8.258-1.701 13.043-.183 15.712 1.607 4.375-1.392 8.936-2.308 13.506-2.78 16.278-1.628 18.893 4.56 3.334 6.775Z" clip-rule="evenodd"/></g><path fill="#F07E13" d="M126.961 55.439c1.618-2.37-15.141-1.676-15.141-1.676s-.289.058-.867.231c-1.386-1.965-3.351-2.485-5.316-2.427l-.462-.636s-2.312 7.628-2.081 7.975c-2.023 2.08-11.269 4.045-18.781 5.837 6.587 3.005 21.844 3.467 26.698-1.85 13.35 1.734 23.174 1.272 27.855 9.19 1.156-9.536-4.854-14.968-11.905-16.644Z"/><path fill="url(#m)" fill-rule="evenodd" d="M109.069 46.484c3.754-2.516 10.883-6.29 20.651-7.017-3.346 2.694-4.919 5.828-6.339 8.66l-.068.134c8.172.847 15.756 5.927 15.952 16.74-5.434-6.714-13.895-6.452-25.344-6.097-2.325.072-4.773.148-7.344.17-4.576 6.709-21.77 8.598-29.615 6.253 8.106-3.192 12.094-6.384 13.99-9.054a15.32 15.32 0 0 0-1.046-.977c-9.339-8.911-26.072-5.99-26.179-6.506-.034-.167 1.667-.693 5.913-2.092 15.434-5.107 25.99-1.115 28.11-.183.048-.15.095-.305.142-.469.196-.847.392-1.694.588-2.605.262-1.76.392-3.583.262-5.472-.131-1.824-.393-3.713-.916-5.537-.147-.684-.404-1.367-.661-2.051-.086-.228-.172-.456-.254-.684-.105-.367-.295-.734-.468-1.067l-.12-.236-.589-1.303 4.838-3.387 1.112 1.368c.392.456.784.912 1.046 1.433.122.182.246.365.371.548.544.798 1.099 1.613 1.524 2.513 1.243 2.085 2.158 4.365 2.877 6.71.719 2.344 1.177 4.82 1.438 7.295.101.952.124 1.943.129 2.913Z" clip-rule="evenodd"/><mask id="p" width="77" height="28" x="63" y="39" maskUnits="userSpaceOnUse" style="mask-type:alpha"><path fill="#A4AEB7" d="M123.313 48.261c1.438-2.866 3.008-6.058 6.407-8.793-14.906 1.107-23.666 9.314-23.666 9.314s-.392.13-.915.391c-1.831-1.954-4.184-2.215-6.342-1.824l-.653-.651s-11.18-5.732-28.504 0c-17.39 5.732 7.91-3.192 20.266 8.598.392.326.72.651 1.046.977-1.896 2.67-5.884 5.862-13.99 9.054 7.845 2.345 25.039.456 29.615-6.253 15.233-.13 26.15-2.15 32.688 5.927-.196-10.812-7.78-15.893-15.952-16.74Z"/><path fill="url(#n)" d="M123.313 48.261c1.438-2.866 3.008-6.058 6.407-8.793-14.906 1.107-23.666 9.314-23.666 9.314s-.392.13-.915.391c-1.831-1.954-4.184-2.215-6.342-1.824l-.653-.651s-11.18-5.732-28.504 0c-17.39 5.732 7.91-3.192 20.266 8.598.392.326.72.651 1.046.977-1.896 2.67-5.884 5.862-13.99 9.054 7.845 2.345 25.039.456 29.615-6.253 15.233-.13 26.15-2.15 32.688 5.927-.196-10.812-7.78-15.893-15.952-16.74Z"/><path fill="url(#o)" d="M123.313 48.261c1.438-2.866 3.008-6.058 6.407-8.793-14.906 1.107-23.666 9.314-23.666 9.314s-.392.13-.915.391c-1.831-1.954-4.184-2.215-6.342-1.824l-.653-.651s-11.18-5.732-28.504 0c-17.39 5.732 7.91-3.192 20.266 8.598.392.326.72.651 1.046.977-1.896 2.67-5.884 5.862-13.99 9.054 7.845 2.345 25.039.456 29.615-6.253 15.233-.13 26.15-2.15 32.688 5.927-.196-10.812-7.78-15.893-15.952-16.74Z"/></mask><g mask="url(#p)"><path fill="url(#q)" d="M118.602 45.437c1.439-2.866 3.008-6.058 6.407-8.793-14.906 1.107-23.666 9.314-23.666 9.314s-.392.13-.915.391c-1.83-1.954-4.184-2.215-6.342-1.824l-.653-.651s-11.18-5.732-28.504 0c-17.39 5.732 7.91-3.192 20.266 8.598.393.325.72.651 1.046.977-1.896 2.67-5.883 5.862-13.99 9.054 7.845 2.345 25.039.456 29.615-6.253 15.233-.13 26.15-2.15 32.688 5.927-.196-10.813-7.78-15.893-15.952-16.74Z"/></g><path fill="url(#r)" d="M97.876 45.981c-.13.326-.196.716-.327 1.042 2.354.391 4.838-.065 6.146-4.56 1.242-4.103-.654-14.004-3.335-18.629l-4.641 3.192.588 1.303c.196.456.458.847.588 1.303.327.912.654 1.823.916 2.735.523 1.824.784 3.713.915 5.537.13 1.824 0 3.648-.261 5.472a82.47 82.47 0 0 1-.589 2.605Z"/><path fill="url(#s)" d="M103.068 90.09c-5.518 5.694-10.897 16.151-14.802 12.505-3.906-3.647-7.89-16.721.78-25.811 5.518-5.694 13.154-7.63 16.962-3.785 3.807 3.845 2.476 11.1-2.94 17.09Z"/><path fill="#004601" d="M77.33 78.8s13.013-23.643 16.996-22.817c4.022.826-11.87 15.381-12.028 29.346-.158 13.966-5.915 7.829-5.915 7.829l.946-14.359Z"/><path fill="#1C1C1C" d="M42.428 112.001c-3.194 8.418-3.115 26.121 16.68 31.707 19.758 5.625 29.971-9.009 32.18-18.961 3.036-13.533-4.614-26.003-6.034-38.473-1.143-9.992.789-14.516.789-14.516s-6.388 10.07-6.388 13.532c0 3.462-.237-8.89-.237-8.89C67.232 91.073 47.752 97.878 42.428 112Z"/><path fill="url(#t)" d="M42.428 112.001c-3.194 8.418-3.115 26.121 16.68 31.707 19.758 5.625 29.971-9.009 32.18-18.961 3.036-13.533-4.614-26.003-6.034-38.473-1.143-9.992.789-14.516.789-14.516s-6.388 10.07-6.388 13.532c0 3.462-.237-8.89-.237-8.89C67.232 91.073 47.752 97.878 42.428 112Z"/><path fill="url(#u)" d="M79.426 76.4C67.24 91.073 47.76 97.84 42.396 111.962c-2.445 6.451-2.957 18.41 5.876 26.12 5.166 1.22 13.763 1.692 13.763 1.692s11.279-.747 17.273-17.191c5.994-16.443 1.104-35.208 1.104-35.208s-.158-1.22-.395-4.09c-.236.786-.394 1.455-.394 2.005 0 3.501-.197-8.89-.197-8.89Z"/><path fill="#DDC672" d="M80.447 87.415c.907 2.4 1.459 4.917 1.971 7.434a63.76 63.76 0 0 1 .592 3.816c.079.63.118 1.298.197 1.928.079.629.119 1.298.158 1.927.197 2.597.118 5.193-.04 7.789-.236 2.597-.591 5.193-1.222 7.75l-.473 1.888-.631 1.889c-.395 1.258-.947 2.439-1.46 3.658-1.143 2.36-2.405 4.721-4.14 6.727-.197.236-.394.511-.631.747l-.67.708-.67.708c-.237.237-.513.433-.75.669l-.75.669c-.236.197-.551.393-.788.59l-.789.59c-.276.197-.552.354-.828.512a21.154 21.154 0 0 1-3.588 1.652c-1.223.393-2.524.669-3.826.669.631-.119 1.223-.355 1.814-.591l.868-.354.828-.432c1.104-.59 2.169-1.259 3.115-2.046l.71-.59.67-.629c.237-.197.474-.394.671-.63l.631-.669.631-.668.591-.708.592-.709c.197-.236.355-.511.513-.747 2.8-4.052 4.535-8.772 5.718-13.532.63-2.4.986-4.878 1.301-7.357.237-2.478.434-4.996.473-7.513.04-2.518.04-5.035-.118-7.553s-.355-5.075-.67-7.592Z"/><path fill="#37974B" d="M74.69 85.487c-3.746 3.54-7.492 7.003-11.08 10.622-3.55 3.619-7.02 7.317-9.899 11.368-.71 1.023-1.38 2.046-1.971 3.108a22.04 22.04 0 0 0-1.499 3.265 13.554 13.554 0 0 0-.473 1.692c-.04.157-.08.275-.08.433l-.078.472-.118.944a39.827 39.827 0 0 0-.316 3.737c-.118 2.478.04 4.996.592 7.435.276 1.219.67 2.399 1.183 3.58.513 1.14 1.143 2.242 2.05 3.186-.552-.354-.985-.826-1.42-1.298-.433-.472-.827-1.023-1.182-1.574a14.69 14.69 0 0 1-.947-1.731c-.276-.59-.512-1.219-.749-1.809a25.839 25.839 0 0 1-1.38-7.75 43.6 43.6 0 0 1 .04-3.934c0-.314.039-.668.078-.983.04-.315.04-.669.079-1.023a11.8 11.8 0 0 1 .434-2.046c.749-2.675 2.05-5.035 3.549-7.238 1.498-2.203 3.155-4.209 4.93-6.097a72.91 72.91 0 0 1 5.639-5.39c.985-.826 1.971-1.652 2.997-2.478 1.025-.787 2.05-1.573 3.115-2.32 2.13-1.496 4.259-2.912 6.507-4.17Z"/><path fill="url(#v)" d="M74.69 85.487c-3.746 3.54-7.492 7.003-11.08 10.622-3.55 3.619-7.02 7.317-9.899 11.368-.71 1.023-1.38 2.046-1.971 3.108a22.04 22.04 0 0 0-1.499 3.265 13.554 13.554 0 0 0-.473 1.692c-.04.157-.08.275-.08.433l-.078.472-.118.944a39.827 39.827 0 0 0-.316 3.737c-.118 2.478.04 4.996.592 7.435.276 1.219.67 2.399 1.183 3.58.513 1.14 1.143 2.242 2.05 3.186-.552-.354-.985-.826-1.42-1.298-.433-.472-.827-1.023-1.182-1.574a14.69 14.69 0 0 1-.947-1.731c-.276-.59-.512-1.219-.749-1.809a25.839 25.839 0 0 1-1.38-7.75 43.6 43.6 0 0 1 .04-3.934c0-.314.039-.668.078-.983.04-.315.04-.669.079-1.023a11.8 11.8 0 0 1 .434-2.046c.749-2.675 2.05-5.035 3.549-7.238 1.498-2.203 3.155-4.209 4.93-6.097a72.91 72.91 0 0 1 5.639-5.39c.985-.826 1.971-1.652 2.997-2.478 1.025-.787 2.05-1.573 3.115-2.32 2.13-1.496 4.259-2.912 6.507-4.17Z"/><path fill="url(#w)" d="M74.69 85.487c-3.746 3.54-7.492 7.003-11.08 10.622-3.55 3.619-7.02 7.317-9.899 11.368-.71 1.023-1.38 2.046-1.971 3.108a22.04 22.04 0 0 0-1.499 3.265 13.554 13.554 0 0 0-.473 1.692c-.04.157-.08.275-.08.433l-.078.472-.118.944a39.827 39.827 0 0 0-.316 3.737c-.118 2.478.04 4.996.592 7.435.276 1.219.67 2.399 1.183 3.58.513 1.14 1.143 2.242 2.05 3.186-.552-.354-.985-.826-1.42-1.298-.433-.472-.827-1.023-1.182-1.574a14.69 14.69 0 0 1-.947-1.731c-.276-.59-.512-1.219-.749-1.809a25.839 25.839 0 0 1-1.38-7.75 43.6 43.6 0 0 1 .04-3.934c0-.314.039-.668.078-.983.04-.315.04-.669.079-1.023a11.8 11.8 0 0 1 .434-2.046c.749-2.675 2.05-5.035 3.549-7.238 1.498-2.203 3.155-4.209 4.93-6.097a72.91 72.91 0 0 1 5.639-5.39c.985-.826 1.971-1.652 2.997-2.478 1.025-.787 2.05-1.573 3.115-2.32 2.13-1.496 4.259-2.912 6.507-4.17Z"/><path fill="#DDC672" d="M77.335 90.404c-.867 2.4-1.892 4.72-2.957 7.002s-2.13 4.564-3.273 6.806c-1.105 2.242-2.288 4.485-3.431 6.688l-3.51 6.687c.394-2.518 1.223-4.957 2.09-7.317a77.919 77.919 0 0 1 3.076-6.963 98.68 98.68 0 0 1 3.668-6.648c1.38-2.124 2.76-4.248 4.337-6.255Z"/><path fill="#37974B" d="M70.782 142.763c-31.036-3.816-20.546-41.659-20.546-41.659h-.04c-3.43 3.265-6.23 6.766-7.768 10.897-3.194 8.418-3.115 26.12 16.68 31.706 8.677 2.479 15.657 1.063 20.862-2.163-1.932-.59-1.696 2.163-9.188 1.219Z"/><path fill="#1C1C1C" fill-rule="evenodd" d="M40.859 105.116c2.648-5.879 5.27-9.407 7.025-8.93 3.037.827 2.366 13.297-1.498 27.891-3.865 14.595-9.465 25.767-12.54 24.941a.508.508 0 0 1-.038-.011l-.005.011s-3.786-.394-4.614-1.102c-.828-.708 2.682-2.517 2.682-2.517l.217.091c-.141-1.064-.196-2.341-.166-3.795l-1.313.124s-1.42-3.147-1.144-8.182c.224-4.055 3.67-12.929 5.76-18.316.486-1.251.898-2.314 1.18-3.084.898-2.41 2.923-5.208 4.454-7.121Zm-4.53 16.286c-2.642 9.953-3.312 18.371-1.537 18.843 1.814.473 5.402-7.159 8.044-17.112 2.643-9.952 3.313-18.371 1.538-18.843-1.814-.472-5.402 7.16-8.044 17.112Z" clip-rule="evenodd"/><path fill="url(#x)" fill-rule="evenodd" d="M40.859 105.116c2.648-5.879 5.27-9.407 7.025-8.93 3.037.827 2.366 13.297-1.498 27.891-3.865 14.595-9.465 25.767-12.54 24.941a.508.508 0 0 1-.038-.011l-.005.011s-3.786-.394-4.614-1.102c-.828-.708 2.682-2.517 2.682-2.517l.217.091c-.141-1.064-.196-2.341-.166-3.795l-1.313.124s-1.42-3.147-1.144-8.182c.224-4.055 3.67-12.929 5.76-18.316.486-1.251.898-2.314 1.18-3.084.898-2.41 2.923-5.208 4.454-7.121Zm-4.53 16.286c-2.642 9.953-3.312 18.371-1.537 18.843 1.814.473 5.402-7.159 8.044-17.112 2.643-9.952 3.313-18.371 1.538-18.843-1.814-.472-5.402 7.16-8.044 17.112Z" clip-rule="evenodd"/><path fill="url(#y)" d="M47.132 96.265c-2.997-1.023-9.425 9.717-14.355 23.957-4.969 14.28-6.546 26.672-3.549 27.694 2.997 1.023 9.425-9.716 14.355-23.957 4.929-14.279 6.546-26.671 3.549-27.694Zm-16.287 42.997c-1.735-.59-.434-8.969 2.918-18.686 3.352-9.716 7.532-17.073 9.267-16.483 1.736.591.434 8.97-2.918 18.686-3.352 9.717-7.532 17.073-9.267 16.483Z"/><path fill="#1C1C1C" fill-rule="evenodd" d="M31.724 110.853c3.393-4.692 6.34-7.331 7.802-6.602 2.524 1.259-.355 12.038-6.349 24.075-6.034 12.038-12.974 20.81-15.498 19.551l-.002-.001-.001.001s-3.234-1.023-3.825-1.809c-.592-.787 2.8-1.731 2.8-1.731l.143.098c.073-.942.255-2.045.537-3.283l-1.151-.119s-.67-3.03.473-7.357c.92-3.485 5.525-10.567 8.354-14.919a167.217 167.217 0 0 0 1.662-2.586c1.174-1.892 3.382-3.925 5.055-5.318Zm-6.828 13.382c-4.141 8.182-6.27 15.421-4.772 16.168 1.499.708 5.955-5.311 10.095-13.493 4.141-8.182 6.27-15.421 4.772-16.168-1.459-.748-5.955 5.311-10.095 13.493Z" clip-rule="evenodd"/><path fill="url(#z)" fill-rule="evenodd" d="M31.724 110.853c3.393-4.692 6.34-7.331 7.802-6.602 2.524 1.259-.355 12.038-6.349 24.075-6.034 12.038-12.974 20.81-15.498 19.551l-.002-.001-.001.001s-3.234-1.023-3.825-1.809c-.592-.787 2.8-1.731 2.8-1.731l.143.098c.073-.942.255-2.045.537-3.283l-1.151-.119s-.67-3.03.473-7.357c.92-3.485 5.525-10.567 8.354-14.919a167.217 167.217 0 0 0 1.662-2.586c1.174-1.892 3.382-3.925 5.055-5.318Zm-6.828 13.382c-4.141 8.182-6.27 15.421-4.772 16.168 1.499.708 5.955-5.311 10.095-13.493 4.141-8.182 6.27-15.421 4.772-16.168-1.459-.748-5.955 5.311-10.095 13.493Z" clip-rule="evenodd"/><path fill="url(#A)" d="M38.846 104.172c-2.405-1.455-9.977 6.767-16.878 18.332-6.901 11.605-10.53 22.147-8.124 23.603 2.406 1.456 9.978-6.766 16.879-18.332 6.9-11.604 10.529-22.147 8.123-23.603ZM16.841 138.79c-1.42-.826 1.223-7.907 5.916-15.775 4.692-7.867 9.661-13.571 11.081-12.745 1.42.826-1.223 7.907-5.915 15.774-4.693 7.868-9.662 13.612-11.082 12.746Z"/><path fill="#DDC672" d="M85.227 97.721c1.104 2.99 1.814 6.098 2.326 9.205.513 3.147.75 6.334.67 9.52a49.16 49.16 0 0 1-.354 4.8c-.237 1.573-.552 3.186-1.026 4.72-.433 1.534-1.104 3.068-1.892 4.445-.829 1.377-1.814 2.675-3.037 3.698a18.806 18.806 0 0 0 2.169-4.13c.158-.354.276-.708.394-1.063.119-.354.237-.708.355-1.101.08-.354.197-.747.316-1.101l.236-1.141c.276-1.495.513-3.029.67-4.564.159-1.534.237-3.068.277-4.602.079-3.108-.04-6.216-.237-9.323-.276-3.108-.552-6.216-.867-9.363Z"/><path fill="#fff" d="M90.586 58.5s1.933-1.809 2.603-1.14c.67.669-15.853 21.44-15.853 21.44l13.25-20.3Z"/><path fill="url(#B)" d="M68.577 144.026c-15.246-5.304-7.542-15.155 1.14-15.588 8.68-.433 22.354-.758 26.098 7.848 2.984 6.874-4.938 15.48-27.238 7.74Z"/><path fill="#5AA667" d="M71.946 142.132c-1.519-.433-3.038-.974-4.503-1.732-.705-.379-1.41-.866-2.008-1.516-.325-.324-.542-.703-.705-1.136a3.056 3.056 0 0 1-.163-1.407c.109-.488.272-.866.489-1.245.27-.325.542-.704.868-.92.65-.542 1.356-.921 2.116-1.245 1.465-.65 3.038-.975 4.612-1.083 3.093-.162 6.24-.325 9.332-.379 3.147-.054 6.294 0 9.441.596 1.574.324 3.147.757 4.612 1.623.706.433 1.41.975 2.008 1.732.542.704.976 1.732.922 2.761-.108 1.082-.705 1.948-1.302 2.598-.651.649-1.41 1.136-2.116 1.515-1.52.758-3.093 1.191-4.72 1.516-3.202.595-6.403.541-9.55.216-3.201-.378-6.294-1.082-9.333-1.894Zm.38-1.461c1.52.324 2.984.649 4.504.866 1.519.216 3.038.378 4.557.487 3.039.162 6.077.108 9.007-.379 1.465-.271 2.876-.65 4.178-1.245.651-.325 1.194-.65 1.682-1.083.434-.433.76-.92.814-1.407.054-.487-.108-1.028-.434-1.569-.38-.542-.868-.975-1.465-1.354-1.194-.757-2.604-1.299-4.07-1.623-2.93-.704-6.022-.92-9.115-1.029-3.093-.054-6.185.054-9.278.163-1.52.108-3.038.433-4.395 1.082-.651.325-1.302.704-1.845 1.191-.271.216-.488.541-.65.812-.164.27-.272.595-.326.866 0 .325.054.595.162.866.163.27.326.541.597.758.489.487 1.14.866 1.79 1.19 1.357.65 2.822 1.083 4.287 1.408Z"/><path fill="#5AA667" d="M74.658 140.074c-1.085-.27-2.17-.595-3.201-1.082-.543-.271-1.031-.541-1.52-.974a2.71 2.71 0 0 1-.596-.866c-.163-.325-.163-.812-.054-1.137.27-.704.813-1.082 1.302-1.407.488-.325 1.03-.541 1.573-.704 1.085-.325 2.17-.487 3.31-.541 2.17-.108 4.34-.217 6.511-.271 2.17-.054 4.395-.054 6.62.271 1.139.162 2.224.433 3.364.92.542.271 1.085.595 1.573 1.137.217.27.488.541.597.974.109.162.109.433.163.649 0 .217 0 .488-.054.704a2.906 2.906 0 0 1-.543 1.083c-.217.27-.488.541-.76.703a7.894 7.894 0 0 1-1.627.866c-1.14.433-2.28.704-3.365.866-4.611.65-9.06-.162-13.293-1.191Zm.271-1.461c2.117.379 4.233.595 6.349.704 2.116.108 4.232.054 6.294-.217a12.85 12.85 0 0 0 2.93-.649c.434-.163.868-.325 1.248-.596.325-.216.596-.487.65-.649.055-.108.055-.163 0-.271 0-.108-.108-.27-.216-.433-.217-.325-.597-.595-1.031-.812-.814-.487-1.845-.757-2.876-1.028-2.062-.433-4.232-.65-6.348-.704-2.17-.054-4.34 0-6.511.054-1.031.055-2.116.217-3.093.542a5.36 5.36 0 0 0-1.356.703c-.38.271-.76.65-.814.975-.109.324.108.595.434.866.325.27.814.487 1.248.649a13.22 13.22 0 0 0 3.092.866Z"/><path fill="#1C1C1C" d="M103.189 135.312c-4.015-8.01-17.145-7.577-26.206-7.036 7.65.162 16.06 1.624 18.827 8.01 2.984 6.82-4.883 15.372-26.966 7.794 1.03.596 2.17 1.137 3.527 1.678 22.3 8.606 35.376-1.353 30.818-10.446Z"/><path fill="url(#C)" d="M103.189 135.312c-4.015-8.01-17.145-7.577-26.206-7.036 7.65.162 16.06 1.624 18.827 8.01 2.984 6.82-4.883 15.372-26.966 7.794 1.03.596 2.17 1.137 3.527 1.678 22.3 8.606 35.376-1.353 30.818-10.446Z"/><path fill="url(#D)" d="M87.525 114.985c2.3-.127 4.773.529 6.856 1.411 2.196.938 3.946 2.215 5.583 3.437 3.219 2.556 5.821 5.229 8.192 6.95 1.129.833 4.095 2.624 4.881 2.73.393.054.561-.003.559-.284.055-.112-.06-.447-.398-.613-.17-.223-2.403-1.514-2.46-1.682-.113-.055-.058-.168-.002-.28l.501-.452a6.363 6.363 0 0 0 1.554-2.027c.83-1.407 1.154-2.922 1.308-4.66.154-1.738 1.038-8.027 1.826-12.29 1.042-11.22 4.654-18.293 15.088-18.474 10.489-.294 19.253 8.053 19.451 18.474l.003.28.057.168-.053.392-.108.505-.216 1.011c-.163.617-.213 1.29-.377 1.907-.326 1.235-.597 2.358-.869 3.48-.71 2.302-1.42 4.605-2.356 6.796-1.871 4.384-4.359 8.883-7.635 12.995-3.276 4.113-7.679 7.672-12.597 10.003-2.403 1.192-5.033 1.995-7.497 2.459l-1.849.349a12.49 12.49 0 0 1-2.522.297c-1.738.123-3.814.081-5.67-.411-1.911-.379-3.768-1.151-5.29-2.038a16.874 16.874 0 0 1-3.728-2.945c-1.924-2.06-3.23-3.957-4.198-5.688-1.936-3.461-3.083-6.535-4.507-9.047-1.423-2.512-2.616-4.354-4.812-5.292-2.14-1.05-5.336-.805-8.47.169-.504.171 2.177-8.14 9.755-7.63Z"/><path fill="url(#E)" fill-rule="evenodd" d="M146.55 69.103c2.532-.288 5.738.737 8.151 2.33l1.825-2.198c-1.421-1.272-2.825-2.245-4.511-2.902-1.694-.808-3.53-1.457-5.56-1.572-1.959-.193-4.105.298-6.006 1.151-1.9.853-3.547 2.216-4.817 3.634-.713.638-1.269 1.418-1.824 2.198h-.001l-.245.352c-.437.625-.932 1.332-1.272 1.978-.485.701-.962 1.552-1.289 2.394-.407.771-.734 1.613-1.061 2.455-.84 1.997-1.513 4.039-2.105 6.082a6.904 6.904 0 0 0-1.001.02c-6.95.774-14.315 5.81-12.928 10.676.075-.11.161-.248.261-.41.569-.918 1.599-2.583 3.687-3.93.223-.17 1.843-.91 5.883-.88 2.888-.02 1.834.916.303 2.275-.848.752-1.843 1.635-2.395 2.558-1.605 2.7 4.417-1.879 4.417-1.879l1.335-1.298c.283.279.734.5 1.352.664 1.495.585 2.553-.028 3.494-.574.832-.482 1.573-.912 2.445-.419l.113.056.112.055c4.114 2.158 7.565 5.665 8.443 10.142 1.889-4.192-1.977-9.744-6.859-13.36.214-2.485.544-4.958 1.075-7.345.081-.57.247-1.145.404-1.687.051-.176.101-.348.146-.516.068-.476.226-.928.381-1.368.091-.258.18-.512.249-.764.149-.55.396-1.106.624-1.622l.163-.37c.172-.271.342-.58.512-.89.17-.308.34-.617.512-.889 1.517-2.33 3.455-3.86 5.987-4.147Z" clip-rule="evenodd"/><path fill="#fff" d="M132.511 75.589c.328-.842.804-1.693 1.281-2.543.485-.7.891-1.472 1.526-2.181.564-.63 1.199-1.34 1.842-1.899 1.356-1.198 2.95-2.184 4.718-2.73 1.768-.545 3.632-.721 5.371-.441 1.74.28 3.505 1.008 4.979 1.903-1.607-.587-3.355-1.017-5.086-1.148-1.731-.13-3.367.108-4.985.646a12.64 12.64 0 0 0-4.357 2.485c-.643.56-1.286 1.119-1.851 1.749l-1.762 1.97c-.564.63-1.12 1.41-1.676 2.189Z"/><path fill="#004601" d="M154.438 71.897c-1.237-.682-2.466-1.215-3.758-1.52-1.291-.304-2.565-.31-3.674-.024-2.286.648-3.9 2.61-4.969 4.916-1.069 2.306-1.673 4.887-2.049 7.53a34.835 34.835 0 0 0-.231 7.882l-6.522-.02c.202-3.084.859-6.042 1.745-8.938.887-2.896 2.08-5.659 3.88-8.305.9-1.323 1.957-2.504 3.252-3.474 1.294-.97 2.904-1.657 4.619-1.825 1.477-.38 3.076.058 4.454.583 1.458.595 2.704 1.426 3.801 2.266l-.548.93Z"/><g filter="url(#F)" style="mix-blend-mode:multiply"><path fill="#F87336" d="M146.4 122.347c.975-2.272 1.838-4.6 2.475-7.038.29-1.161.637-2.438.927-3.599.174-.639.348-1.278.409-1.972l.232-1.044.117-.522.059-.405-.056-.172.002-.289c.008-1.154-.319-3.052-.759-5.005-.496-1.837-1.22-3.495-2.171-4.975l-7.436-3.649c.168.227.336.454.391.626-3.04-1.78-6.253-2.924-8.628-2.641-6.673.78-13.373 5.6-11.651 10.354.628-.995 1.95-4.545 7.044-5.81 4.691-.159 4.283 1.813 7.159 2.79 2.875.976 3.629-1.984 5.714-1.106 2.085.879 2.516 4.275 2.098 7.69-.593 4.342-2.372 8.537-3.519 11.159-2.294 5.245-5.604 10.281-9.586 14.408-3.982 4.127-8.807 7.406-13.901 8.671-2.547.632-5.203.632-7.855.054-2.652-.577-5.131-1.794-7.437-3.36-1.687-1.407-5.44-6.578-8.12-11.369-5.2-8.777-10.3-6.646-13.481-3.864-1.142 1.756-1.434 3.206-.981 3.138 3.17-1.05 6.507-1.295 8.534-.3 2.028.995 3.373 2.813 4.769 5.38.168.228.166.516.334.744a308.908 308.908 0 0 1 1.895 4.115c.279.571.5 1.259.892 1.885l.055.172c.335.743.669 1.487 1.116 2.285.391.626.953 1.192 1.457 1.873l.225.111c2.529 2.254 5.454 4.269 8.893 5.522 3.326 1.198 7.109 1.751 10.784 1.383 3.676-.368 7.187-1.541 10.417-2.996 3.288-1.572 6.352-3.544 9.023-5.853.397-.239.739-.651 1.023-.945.569-.59 1.195-1.296 1.651-1.941 3.362-4.287 5.878-8.844 7.886-13.505Z"/><path fill="url(#G)" d="M146.4 122.347c.975-2.272 1.838-4.6 2.475-7.038.29-1.161.637-2.438.927-3.599.174-.639.348-1.278.409-1.972l.232-1.044.117-.522.059-.405-.056-.172.002-.289c.008-1.154-.319-3.052-.759-5.005-.496-1.837-1.22-3.495-2.171-4.975l-7.436-3.649c.168.227.336.454.391.626-3.04-1.78-6.253-2.924-8.628-2.641-6.673.78-13.373 5.6-11.651 10.354.628-.995 1.95-4.545 7.044-5.81 4.691-.159 4.283 1.813 7.159 2.79 2.875.976 3.629-1.984 5.714-1.106 2.085.879 2.516 4.275 2.098 7.69-.593 4.342-2.372 8.537-3.519 11.159-2.294 5.245-5.604 10.281-9.586 14.408-3.982 4.127-8.807 7.406-13.901 8.671-2.547.632-5.203.632-7.855.054-2.652-.577-5.131-1.794-7.437-3.36-1.687-1.407-5.44-6.578-8.12-11.369-5.2-8.777-10.3-6.646-13.481-3.864-1.142 1.756-1.434 3.206-.981 3.138 3.17-1.05 6.507-1.295 8.534-.3 2.028.995 3.373 2.813 4.769 5.38.168.228.166.516.334.744a308.908 308.908 0 0 1 1.895 4.115c.279.571.5 1.259.892 1.885l.055.172c.335.743.669 1.487 1.116 2.285.391.626.953 1.192 1.457 1.873l.225.111c2.529 2.254 5.454 4.269 8.893 5.522 3.326 1.198 7.109 1.751 10.784 1.383 3.676-.368 7.187-1.541 10.417-2.996 3.288-1.572 6.352-3.544 9.023-5.853.397-.239.739-.651 1.023-.945.569-.59 1.195-1.296 1.651-1.941 3.362-4.287 5.878-8.844 7.886-13.505Z"/></g><path fill="#55C257" d="M140.264 94.965c4.445 1.483 9.678 3.354 11.115 7.547 2.184-7.3-13.251-14.874-19.969-13.148-6.718 1.726-13.344 7.822-11.286 12.459.552-1.124 1.809-5.11 6.787-6.993 4.706-.76 4.387 1.315 7.421 1.968 3.035.652 3.681-2.659 5.82-1.888l.112.055Z"/><path fill="url(#H)" d="M130.234 109.433c-3.116 3.215-6.153 9.119-8.358 7.06-2.205-2.058-4.453-9.44.441-14.572 3.116-3.215 7.426-4.308 9.576-2.137 2.15 2.171 1.398 6.267-1.659 9.649Z"/><path fill="#004601" d="M147.724 94.579c1.853.212 2.747-.187.372-2.468-5.09-5.01-13.908-6.128-13.908-6.128l-.034 2.634s.225.11.621.444c-.168.058-.336.115-.449.06.455.781 1.987 2.788 7.896 4.99 5.345 1.926 7.612 4.712 8.415 6.78.34.446.625 1.005.743 1.621.818-2.808-.888-5.598-3.656-7.933Z"/><g filter="url(#I)"><path fill="url(#J)" d="M146.082 95.517c1.298 1.62 2.189 3.461 2.904 5.356l.807 2.924c.075.458.214 1.088.112 1.6a5.93 5.93 0 0 1-.128 1.481c-.406 3.873-1.284 7.795-2.523 11.539-2.479 7.489-6.636 14.436-12.739 19.865-3.056 2.572-6.659 4.736-10.578 6.323-1.991.708-4.048 1.243-6.049 1.665-1.001.211-2.066.25-3.067.461-1.065.039-2.186.191-3.252.229-2.131.078-4.336-.302-6.431-.909-1.918-.66-3.846-1.606-5.663-2.779-3.578-2.458-6.063-5.924-7.724-9.547 2.42 3.294 5.184 6.194 8.678 7.909 3.438 1.828 7.256 2.578 11.036 2.186.945-.097 1.891-.195 2.771-.465 1-.212 1.945-.309 2.825-.58 1.881-.481 3.641-1.021 5.336-1.734 3.391-1.425 6.586-3.367 9.291-5.831 2.824-2.405 5.222-5.16 7.315-8.205a51.23 51.23 0 0 0 5.248-9.781c1.425-3.513 2.674-6.972 3.441-10.667.101-.512.147-.911.249-1.422.046-.399.092-.798.073-1.368.028-.97-.121-1.885-.27-2.801-.177-1.772-.771-3.608-1.662-5.449Z"/></g><mask id="K" width="74" height="60" x="77" y="88" maskUnits="userSpaceOnUse" style="mask-type:alpha"><path fill="#FA552D" d="M87.525 114.985c2.3-.127 4.773.529 6.856 1.411 2.196.938 3.946 2.215 5.583 3.437 3.219 2.556 5.821 5.229 8.192 6.95 1.129.833 4.095 2.624 4.881 2.73.393.054.561-.003.559-.284.055-.112-.06-.447-.398-.613-.17-.223-2.403-1.514-2.46-1.682-.113-.055-.058-.168-.002-.28l.501-.452a6.363 6.363 0 0 0 1.554-2.027c.83-1.407 1.154-2.922 1.308-4.66.154-1.738 1.038-8.027 1.826-12.29 1.042-11.22 4.654-18.293 15.088-18.474 10.489-.294 19.253 8.053 19.451 18.474l.003.28.057.168-.053.392-.108.505-.216 1.011c-.163.617-.213 1.29-.377 1.907-.326 1.235-.597 2.358-.869 3.48-.71 2.302-1.42 4.605-2.356 6.796-1.871 4.384-4.359 8.883-7.635 12.995-3.276 4.113-7.679 7.672-12.597 10.003-2.403 1.192-5.033 1.995-7.497 2.459l-1.849.349a12.49 12.49 0 0 1-2.522.297c-1.738.123-3.814.081-5.67-.411-1.911-.379-3.768-1.151-5.29-2.038a16.874 16.874 0 0 1-3.728-2.945c-1.924-2.06-3.23-3.957-4.198-5.688-1.936-3.461-3.083-6.535-4.507-9.047-1.423-2.512-2.616-4.354-4.812-5.292-2.14-1.05-5.336-.805-8.47.169-.504.171 2.177-8.14 9.755-7.63Z"/></mask><g filter="url(#L)" mask="url(#K)"><path fill="#B9FF24" d="M50.86 154.039c-1.046-1.748-1.676-3.609-2.131-5.481l-.42-2.825c-.017-.431-.074-1.033.085-1.475a4.95 4.95 0 0 1 .301-1.315c.854-3.424 2.166-6.791 3.802-9.92 3.272-6.256 8.082-11.66 14.571-15.269 3.232-1.674 6.938-2.86 10.876-3.455 1.99-.213 4.02-.255 5.984-.207.983.024 2.006.219 2.988.243 1.024.194 2.114.298 3.138.492 2.046.389 4.11 1.208 6.04 2.209a29.52 29.52 0 0 1 5.08 3.74c3.125 2.999 5.084 6.677 6.236 10.319-1.918-3.507-4.211-6.732-7.345-9.039-3.068-2.398-6.629-3.901-10.29-4.36-.916-.114-1.831-.229-2.705-.174-.982-.024-1.898-.139-2.772-.083-1.856.031-3.604.142-5.31.423-3.414.562-6.704 1.635-9.586 3.287-2.99 1.572-5.615 3.554-7.982 5.864a40.898 40.898 0 0 0-6.196 7.738c-1.785 2.879-3.395 5.746-4.574 8.932-.158.442-.25.794-.41 1.236a7.072 7.072 0 0 0-.234 1.224c-.143.874-.11 1.736-.079 2.598-.044 1.645.303 3.437.933 5.298Z"/></g><path fill="url(#M)" d="M126.426 114.519c-.666 1.458-1.081 3.253-2.201 2.742-1.119-.511-2.518-3.134-1.852-4.593.665-1.458 2.112-2.226 3.232-1.716 1.119.511 1.487 2.108.821 3.567Z"/></g><defs><linearGradient id="d" x1="145.117" x2="50.188" y1="69.377" y2="94.441" gradientUnits="userSpaceOnUse"><stop stop-color="#EE9848"/><stop offset="1" stop-color="#FFCA42"/></linearGradient><linearGradient id="e" x1="94.204" x2="36.278" y1="106.283" y2="86.205" gradientUnits="userSpaceOnUse"><stop stop-color="#EE9848"/><stop offset="1" stop-color="#FFCA42"/></linearGradient><linearGradient id="f" x1="159.222" x2="66.534" y1="113.134" y2="62.489" gradientUnits="userSpaceOnUse"><stop stop-color="#EE9848"/><stop offset="1" stop-color="#FFCA42"/></linearGradient><linearGradient id="g" x1="159.222" x2="68.194" y1="110.647" y2="58.974" gradientUnits="userSpaceOnUse"><stop stop-color="#EE9848"/><stop offset="1" stop-color="#FFCA42"/></linearGradient><linearGradient id="i" x1="148.436" x2="82.82" y1="80.378" y2="45.672" gradientUnits="userSpaceOnUse"><stop stop-color="#EE9848"/><stop offset="1" stop-color="#FFCA42"/></linearGradient><linearGradient id="k" x1="187.479" x2="123.352" y1="80.44" y2="138.177" gradientUnits="userSpaceOnUse"><stop/><stop offset="1" stop-color="#A4290C"/></linearGradient><linearGradient id="m" x1="103.219" x2="108.373" y1="31.3" y2="80.271" gradientUnits="userSpaceOnUse"><stop stop-color="#075EBD"/><stop offset="1" stop-color="#165616"/></linearGradient><linearGradient id="n" x1="129.3" x2="127.114" y1="41.343" y2="55.81" gradientUnits="userSpaceOnUse"><stop stop-color="#C9D3DC"/><stop offset="1" stop-color="#C9D3DC" stop-opacity="0"/></linearGradient><linearGradient id="o" x1="89.196" x2="112.658" y1="64.924" y2="44.031" gradientUnits="userSpaceOnUse"><stop stop-color="#C2E0FC"/><stop offset="1" stop-color="#C2E0FC" stop-opacity="0"/></linearGradient><linearGradient id="q" x1="96.785" x2="96.785" y1="36.644" y2="63.465" gradientUnits="userSpaceOnUse"><stop stop-color="#80F982"/><stop offset="1" stop-color="#42AB44"/></linearGradient><linearGradient id="r" x1="99.901" x2="99.901" y1="23.834" y2="47.133" gradientUnits="userSpaceOnUse"><stop stop-color="#80F982"/><stop offset="1" stop-color="#42AB44"/></linearGradient><linearGradient id="s" x1="89.904" x2="98.725" y1="80.698" y2="92.768" gradientUnits="userSpaceOnUse"><stop stop-color="#FFE8AC"/><stop offset="1" stop-color="#fff" stop-opacity="0"/></linearGradient><linearGradient id="t" x1="98.451" x2="45.462" y1="115.679" y2="74.281" gradientUnits="userSpaceOnUse"><stop stop-color="#3BAB43"/><stop offset="1" stop-color="#294ECE" stop-opacity="0"/></linearGradient><linearGradient id="u" x1="53.029" x2="51.668" y1="93.499" y2="139.315" gradientUnits="userSpaceOnUse"><stop stop-color="#fff"/><stop offset=".38" stop-color="#FFF085"/><stop offset="1" stop-color="#73D910"/></linearGradient><linearGradient id="v" x1="63.964" x2="58.186" y1="96.799" y2="117.11" gradientUnits="userSpaceOnUse"><stop stop-color="#FFF185"/><stop offset="1" stop-color="#C9D3DC" stop-opacity="0"/></linearGradient><linearGradient id="w" x1="56.533" x2="59.192" y1="132.792" y2="129.955" gradientUnits="userSpaceOnUse"><stop stop-color="#C2E0FC"/><stop offset="1" stop-color="#C2E0FC" stop-opacity="0"/></linearGradient><linearGradient id="x" x1="52.404" x2="23.381" y1="127.895" y2="115.18" gradientUnits="userSpaceOnUse"><stop stop-color="#3BAB43"/><stop offset="1" stop-color="#294ECE" stop-opacity="0"/></linearGradient><linearGradient id="y" x1="39.694" x2="23.003" y1="92.084" y2="106.418" gradientUnits="userSpaceOnUse"><stop stop-color="#FFF4C8"/><stop offset="1" stop-color="#FFF085"/></linearGradient><linearGradient id="z" x1="43.809" x2="13.375" y1="130.452" y2="109.759" gradientUnits="userSpaceOnUse"><stop stop-color="#3BAB43"/><stop offset="1" stop-color="#294ECE" stop-opacity="0"/></linearGradient><linearGradient id="A" x1="28.267" x2="15.032" y1="100.648" y2="118.272" gradientUnits="userSpaceOnUse"><stop stop-color="#FFF4C8"/><stop offset="1" stop-color="#FFF085"/></linearGradient><linearGradient id="B" x1="80.802" x2="77.992" y1="126.766" y2="138.357" gradientUnits="userSpaceOnUse"><stop stop-color="#FFF4C8"/><stop offset="1" stop-color="#FFF085"/></linearGradient><linearGradient id="C" x1="108.544" x2="95.513" y1="140.639" y2="116.207" gradientUnits="userSpaceOnUse"><stop stop-color="#3BAB43"/><stop offset="1" stop-color="#294ECE" stop-opacity="0"/></linearGradient><linearGradient id="D" x1="129.891" x2="101.159" y1="85.778" y2="144.327" gradientUnits="userSpaceOnUse"><stop stop-color="#80F982"/><stop offset="1" stop-color="#42AB44"/></linearGradient><linearGradient id="E" x1="145.531" x2="126.501" y1="63.102" y2="101.882" gradientUnits="userSpaceOnUse"><stop stop-color="#80F982"/><stop offset="1" stop-color="#42AB44"/></linearGradient><linearGradient id="G" x1="115.166" x2="133.919" y1="116.214" y2="160.666" gradientUnits="userSpaceOnUse"><stop offset="0" stop-color="#05000F"/><stop offset="1" stop-color="#5831A0" stop-opacity="0"/></linearGradient><linearGradient id="H" x1="122.802" x2="127.781" y1="104.131" y2="110.946" gradientUnits="userSpaceOnUse"><stop stop-color="#fff"/><stop offset="1" stop-color="#fff" stop-opacity="0"/></linearGradient><linearGradient id="J" x1="136.959" x2="108.944" y1="91.04" y2="148.129" gradientUnits="userSpaceOnUse"><stop stop-color="#F09C48"/><stop offset="1" stop-color="#F09C48" stop-opacity="0"/></linearGradient><linearGradient id="M" x1="125.628" x2="123.007" y1="110.963" y2="116.705" gradientUnits="userSpaceOnUse"><stop stop-color="#fff"/><stop offset="1" stop-color="#fff" stop-opacity="0"/></linearGradient><filter id="b" width="171.422" height="17.609" x="5.609" y="138.814" color-interpolation-filters="sRGB" filterUnits="userSpaceOnUse"><feFlood flood-opacity="0" result="BackgroundImageFix"/><feBlend in="SourceGraphic" in2="BackgroundImageFix" result="shape"/><feGaussianBlur result="effect1_foregroundBlur_10079_21713040" stdDeviation="2"/></filter><filter id="j" width="147.102" height="132.037" x="27.539" y="42.697" color-interpolation-filters="sRGB" filterUnits="userSpaceOnUse"><feFlood flood-opacity="0" result="BackgroundImageFix"/><feBlend in="SourceGraphic" in2="BackgroundImageFix" result="shape"/><feGaussianBlur result="effect1_foregroundBlur_10079_21713040" stdDeviation="2"/></filter><filter id="l" width="76.883" height="93.664" x="41.188" y="44.838" color-interpolation-filters="sRGB" filterUnits="userSpaceOnUse"><feFlood flood-opacity="0" result="BackgroundImageFix"/><feBlend in="SourceGraphic" in2="BackgroundImageFix" result="shape"/><feGaussianBlur result="effect1_foregroundBlur_10079_21713040" stdDeviation="2"/></filter><filter id="F" width="89.375" height="72.081" x="69.242" y="83.619" color-interpolation-filters="sRGB" filterUnits="userSpaceOnUse"><feFlood flood-opacity="0" result="BackgroundImageFix"/><feBlend in="SourceGraphic" in2="BackgroundImageFix" result="shape"/><feGaussianBlur result="effect1_foregroundBlur_10079_21713040" stdDeviation="4"/></filter><filter id="I" width="62.188" height="55.453" x="89.75" y="93.517" color-interpolation-filters="sRGB" filterUnits="userSpaceOnUse"><feFlood flood-opacity="0" result="BackgroundImageFix"/><feBlend in="SourceGraphic" in2="BackgroundImageFix" result="shape"/><feGaussianBlur result="effect1_foregroundBlur_10079_21713040" stdDeviation="1"/></filter><filter id="L" width="63.117" height="43.965" x="46.289" y="112.074" color-interpolation-filters="sRGB" filterUnits="userSpaceOnUse"><feFlood flood-opacity="0" result="BackgroundImageFix"/><feBlend in="SourceGraphic" in2="BackgroundImageFix" result="shape"/><feGaussianBlur result="effect1_foregroundBlur_10079_21713040" stdDeviation="1"/></filter><radialGradient id="c" cx="0" cy="0" r="1" gradientTransform="matrix(-.00026 2.53478 -43.111 -.00444 91.322 147.618)" gradientUnits="userSpaceOnUse"><stop stop-color="#6A99DD"/><stop offset="1" stop-color="#A0C0EF"/></radialGradient><clipPath id="a"><path fill="#fff" d="M0 0h180v160H0z"/></clipPath></defs></svg>
