<svg title="Звук" viewBox="0 0 180 160" xmlns="http://www.w3.org/2000/svg" fill="none"><path fill="#6CC6FF" d="M168.514 90.731c0-13.662-6.838-25.685-17.505-32.79h-1.641v1.64l-2.462 2.46c9.573 6.01 15.864 16.667 15.864 28.963s-6.564 22.953-16.137 28.964l2.461 2.459v1.64h1.642c10.667-7.378 17.778-19.4 17.778-33.336Z"/><path fill="#6CC6FF" d="M154.841 90.731c0-9.837-5.47-18.58-13.676-22.952h-1.641v1.64l-2.461 2.459c7.385 3.278 12.308 10.383 12.308 18.853 0 8.47-5.197 15.848-12.582 19.127l2.462 2.46v1.639h1.641c8.205-4.645 13.949-13.116 13.949-23.226Z"/><path fill="#B5E2FF" d="M159.411 90.731c0 12.296-6.564 22.953-16.138 28.964l4.103 4.099c10.667-7.105 17.505-19.401 17.505-33.063 0-13.662-6.838-25.685-17.505-32.79l-3.829 3.826c9.573 6.285 15.864 16.941 15.864 28.964Z"/><path fill="#B5E2FF" d="M145.738 90.731c0 8.47-5.197 15.848-12.582 19.127l4.103 4.099c8.205-4.372 13.949-13.116 13.949-22.953s-5.47-18.58-13.675-22.952l-4.103 4.098c7.111 3.006 12.308 10.384 12.308 18.581Z"/><path fill="#fff" d="M100.116 124.067c-4.569 0-9.36-.947-14.18-2.841-10.14-4.012-19.418-11.896-26.076-22.232-6.659-10.336-10.03-22.037-9.472-32.93.585-11.867 5.655-21.451 14.291-26.995 8.609-5.544 19.446-6.213 30.478-1.839 10.141 4.012 19.418 11.896 26.076 22.232 6.659 10.336 10.03 22.037 9.472 32.93-.585 11.867-5.655 21.451-14.291 26.995-4.848 3.092-10.42 4.68-16.298 4.68ZM81.005 49.99c-2.897 0-5.6.696-7.912 2.2-4.263 2.759-6.798 7.968-7.16 14.655-.39 7.66 2.117 16.074 7.02 23.68 4.904 7.605 11.534 13.372 18.666 16.186 6.24 2.452 12.035 2.312 16.298-.446 9.528-6.129 9.583-23.708.139-38.362-7.104-11.088-18.025-17.913-27.051-17.913Z"/><mask id="a" width="81" height="91" x="50" y="34" maskUnits="userSpaceOnUse" style="mask-type:alpha"><path fill="#D3DBF7" d="M100.116 124.067c-4.569 0-9.36-.947-14.18-2.841-10.14-4.012-19.418-11.896-26.076-22.232-6.659-10.336-10.03-22.037-9.472-32.93.585-11.867 5.655-21.451 14.291-26.995 8.609-5.544 19.446-6.213 30.478-1.839 10.141 4.012 19.418 11.896 26.076 22.232 6.659 10.336 10.03 22.037 9.472 32.93-.585 11.867-5.655 21.451-14.291 26.995-4.848 3.092-10.42 4.68-16.298 4.68ZM81.005 49.99c-2.897 0-5.6.696-7.912 2.2-4.263 2.759-6.798 7.968-7.16 14.655-.39 7.66 2.117 16.074 7.02 23.68 4.904 7.605 11.534 13.372 18.666 16.186 6.24 2.452 12.035 2.312 16.298-.446 9.528-6.129 9.583-23.708.139-38.362-7.104-11.088-18.025-17.913-27.051-17.913Z"/></mask><g mask="url(#a)"><path fill="#D3DBF7" d="M100.116 124.067c-4.569 0-9.36-.947-14.18-2.841-10.14-4.012-19.418-11.896-26.076-22.232-6.659-10.336-10.03-22.037-9.472-32.93.585-11.867 5.655-21.451 14.291-26.995 8.609-5.544 19.446-6.213 30.478-1.839 10.141 4.012 19.418 11.896 26.076 22.232 6.659 10.336 10.03 22.037 9.472 32.93-.585 11.867-5.655 21.451-14.291 26.995-4.848 3.092-10.42 4.68-16.298 4.68ZM81.005 49.99c-2.897 0-5.6.696-7.912 2.2-4.263 2.759-6.798 7.968-7.16 14.655-.39 7.66 2.117 16.074 7.02 23.68 4.904 7.605 11.534 13.372 18.666 16.186 6.24 2.452 12.035 2.312 16.298-.446 9.528-6.129 9.583-23.708.139-38.362-7.104-11.088-18.025-17.913-27.051-17.913Z"/><path fill="url(#b)" d="M100.116 124.067c-4.569 0-9.36-.947-14.18-2.841-10.14-4.012-19.418-11.896-26.076-22.232-6.659-10.336-10.03-22.037-9.472-32.93.585-11.867 5.655-21.451 14.291-26.995 8.609-5.544 19.446-6.213 30.478-1.839 10.141 4.012 19.418 11.896 26.076 22.232 6.659 10.336 10.03 22.037 9.472 32.93-.585 11.867-5.655 21.451-14.291 26.995-4.848 3.092-10.42 4.68-16.298 4.68ZM81.005 49.99c-2.897 0-5.6.696-7.912 2.2-4.263 2.759-6.798 7.968-7.16 14.655-.39 7.66 2.117 16.074 7.02 23.68 4.904 7.605 11.534 13.372 18.666 16.186 6.24 2.452 12.035 2.312 16.298-.446 9.528-6.129 9.583-23.708.139-38.362-7.104-11.088-18.025-17.913-27.051-17.913Z"/><g filter="url(#c)"><path fill="url(#d)" d="M87.965 35.085c-8.497-1.7-16.576-.362-23.318 3.984-7.577 4.875-12.425 12.926-13.874 22.9h1.421s6.24-21.925 35.771-26.884Z"/></g><g filter="url(#e)"><path fill="url(#f)" d="M123.768 91.444c-6.463 8.246-19.529 24.07-26.55 32.484.976.083 1.923.139 2.87.139 5.906 0 11.45-1.56 16.298-4.708 8.608-5.544 13.679-15.128 14.292-26.996.557-10.837-2.786-22.426-9.333-32.706 3.844 9.444 8.33 24.265 2.423 31.787Z"/></g></g><path fill="#2F3C6B" d="M97.077 125.767c-4.374 0-8.97-.975-13.651-2.953-9.472-3.984-18.192-11.618-24.572-21.536-6.407-9.89-9.75-21.005-9.444-31.258.306-11.06 4.764-19.863 12.509-24.878 7.745-4.986 17.635-5.377 27.803-1.114 9.472 3.984 18.192 11.617 24.572 21.535 6.38 9.918 9.751 21.034 9.444 31.286-.306 11.032-4.764 19.863-12.509 24.85-4.179 2.73-8.998 4.068-14.152 4.068Zm-20.978-73.52c-3.037 0-5.823.78-8.163 2.284-4.569 2.925-7.187 8.553-7.41 15.796-.223 8.023 2.48 16.883 7.661 24.934 5.182 8.051 12.119 14.18 19.53 17.3 6.686 2.814 12.898 2.731 17.467-.195 4.569-2.953 7.188-8.552 7.41-15.824.223-8.023-2.479-16.882-7.661-24.933-5.182-8.052-12.119-14.18-19.529-17.301-3.26-1.365-6.408-2.062-9.305-2.062Z"/><g filter="url(#g)"><path fill="#E6EBFF" d="M60.525 70.327c.223-7.271 2.842-12.87 7.41-15.824 2.34-1.477 5.126-2.257 8.163-2.257 2.898 0 6.046.697 9.305 2.062 6.213 2.619 12.09 7.355 16.883 13.54.863-1.226 1.337-2.452 1.309-3.567-.139-6.296-3.176-12.035-5.878-15.907-2.591-1.727-5.266-3.204-8.024-4.346-10.196-4.262-20.058-3.872-27.803 1.114a24.795 24.795 0 0 0-5.321 4.597c-1.003 4.708-1.783 10.364-2.117 17.106-.363 7.382 2.618 11.617 7.215 13.623-.836-3.427-1.226-6.854-1.142-10.141Z"/></g><g filter="url(#h)"><path fill="url(#i)" d="M76.1 52.246c2.898 0 6.046.697 9.306 2.062 7.41 3.12 14.347 9.25 19.529 17.3 5.182 8.052 7.912 16.883 7.661 24.934-.223 7.272-2.841 12.871-7.41 15.824-2.34 1.505-5.099 2.257-8.135 2.257-2.898 0-6.046-.697-9.305-2.062-7.41-3.12-14.348-9.249-19.53-17.3-5.181-8.024-7.911-16.883-7.688-24.934.222-7.271 2.841-12.871 7.41-15.824 2.34-1.477 5.126-2.257 8.163-2.257Zm0-4.736c-4.011 0-7.605 1.003-10.725 3.009-5.906 3.845-9.305 10.81-9.556 19.669-.25 8.97 2.73 18.805 8.414 27.636 5.683 8.831 13.4 15.601 21.674 19.083 3.845 1.616 7.578 2.424 11.144 2.424 4.012 0 7.605-1.003 10.726-3.009 5.906-3.816 9.305-10.809 9.583-19.668.251-8.97-2.73-18.805-8.413-27.636-5.684-8.832-13.4-15.602-21.675-19.084-3.872-1.588-7.605-2.424-11.171-2.424Z"/></g><path fill="#42AB44" fill-rule="evenodd" d="M51.307 59.046c.342-1.543.77-3.034 1.282-4.466.324-.908.682-1.792 1.073-2.65 2.438-5.36 6.158-9.755 10.985-12.861 4.858-3.132 10.41-4.701 16.314-4.698 4.581-.003 9.37.946 14.196 2.86 10.141 4.011 19.418 11.895 26.076 22.23 6.659 10.337 10.03 22.038 9.472 32.93-.585 11.868-5.655 21.452-14.291 26.996a29.575 29.575 0 0 1-6.472 3.098c-3.87 2.201-8.232 3.282-12.865 3.282-4.374 0-8.97-.975-13.651-2.953-9.472-3.984-18.192-11.618-24.572-21.536-6.407-9.89-9.75-21.005-9.444-31.258.11-3.972.756-7.654 1.897-10.974Zm61.282 35.46c.02.683.02 1.363-.001 2.036-.065 2.124-.334 4.105-.797 5.919-1.044 1.526-2.336 2.815-3.874 3.804-4.263 2.758-10.057 2.898-16.298.446-7.132-2.814-13.762-8.58-18.665-16.186-4.904-7.606-7.411-16.02-7.021-23.68.343-6.329 2.632-11.335 6.49-14.19a16.314 16.314 0 0 1 4.029-.405c2.798.055 5.82.749 8.946 2.058 7.41 3.12 14.347 9.25 19.529 17.3a53.225 53.225 0 0 1 3.505 6.346c2.554 5.507 3.982 11.18 4.157 16.552Z" clip-rule="evenodd" style="mix-blend-mode:color"/><g filter="url(#j)"><path fill="#050304" d="M76.093 52.246c2.897 0 6.045.696 9.305 2.061 7.41 3.12 14.347 9.25 19.529 17.3 5.182 8.052 7.912 16.883 7.661 24.935-.222 7.271-2.841 12.871-7.41 15.824-2.34 1.504-5.098 2.256-8.135 2.256-2.897 0-6.045-.696-9.305-2.061-7.41-3.12-14.347-9.249-19.53-17.3-5.181-8.024-7.911-16.883-7.688-24.935.223-7.27 2.841-12.87 7.41-15.824 2.34-1.476 5.126-2.256 8.163-2.256Zm0-4.736c-4.012 0-7.606 1.003-10.726 3.009-5.906 3.844-9.305 10.809-9.556 19.668-.25 8.97 2.73 18.805 8.414 27.636 5.683 8.832 13.4 15.601 21.674 19.084 3.845 1.616 7.578 2.424 11.144 2.424 4.012 0 7.606-1.003 10.726-3.009 5.906-3.817 9.305-10.81 9.583-19.669.251-8.97-2.73-18.805-8.413-27.636s-13.4-15.601-21.675-19.083c-3.872-1.588-7.605-2.424-11.171-2.424Z"/><path fill="url(#k)" d="M76.093 52.246c2.897 0 6.045.696 9.305 2.061 7.41 3.12 14.347 9.25 19.529 17.3 5.182 8.052 7.912 16.883 7.661 24.935-.222 7.271-2.841 12.871-7.41 15.824-2.34 1.504-5.098 2.256-8.135 2.256-2.897 0-6.045-.696-9.305-2.061-7.41-3.12-14.347-9.249-19.53-17.3-5.181-8.024-7.911-16.883-7.688-24.935.223-7.27 2.841-12.87 7.41-15.824 2.34-1.476 5.126-2.256 8.163-2.256Zm0-4.736c-4.012 0-7.606 1.003-10.726 3.009-5.906 3.844-9.305 10.809-9.556 19.668-.25 8.97 2.73 18.805 8.414 27.636 5.683 8.832 13.4 15.601 21.674 19.084 3.845 1.616 7.578 2.424 11.144 2.424 4.012 0 7.606-1.003 10.726-3.009 5.906-3.817 9.305-10.81 9.583-19.669.251-8.97-2.73-18.805-8.413-27.636s-13.4-15.601-21.675-19.083c-3.872-1.588-7.605-2.424-11.171-2.424Z"/></g><path fill="#fff" fill-rule="evenodd" d="m102.594 76.455-1-21.46 1-13.902 1 15.512-1 19.85ZM61.73 127.518l-1.714-36.794 1.714-23.833 1.715 26.594-1.715 34.033Z" clip-rule="evenodd"/><g filter="url(#l)"><path stroke="url(#m)" stroke-width="2" d="M150.196 143.469c-.728.211-1.748.426-3.055.637-3.046.491-7.484.938-13.003 1.315-11.027.753-26.278 1.22-43.134 1.22-16.857 0-32.107-.467-43.135-1.22-5.518-.377-9.956-.824-13.002-1.315-1.307-.211-2.327-.426-3.055-.637.728-.211 1.748-.426 3.055-.637 3.046-.492 7.484-.939 13.003-1.315 11.027-.753 26.277-1.22 43.134-1.22 16.856 0 32.107.467 43.134 1.22 5.519.376 9.957.823 13.003 1.315 1.307.211 2.327.426 3.055.637Zm-119.459-.436.017.014a.072.072 0 0 1-.017-.014Zm0 .872c0-.001.004-.005.017-.014a.114.114 0 0 1-.017.014Zm120.517-.014c.013.009.017.013.017.014a.108.108 0 0 1-.017-.014Zm0-.844a.108.108 0 0 1 .017-.014s-.004.005-.017.014Z"/></g><path fill="#B5E2FF" d="M19.022 73.41h-8.44V53.798H4.335v-4.075h6.245V22.808H27.5c3.496 0 6.504.648 9.032 1.945 2.527 1.297 4.471 3.118 5.839 5.469 1.36 2.35 2.047 5.1 2.047 8.269 0 3.213-.71 5.97-2.136 8.27-1.427 2.298-3.452 4.045-6.075 5.246-2.624 1.202-5.699 1.799-9.217 1.799h-7.953V73.41h-.014Zm11.411-12.676v4.075H4.336v-4.075h26.097Zm-5.979-13.569c2.106 0 4.013-.235 5.728-.707 1.707-.472 3.075-1.327 4.087-2.58 1.013-1.245 1.523-3.043 1.523-5.394 0-2.005-.414-3.649-1.242-4.93-.828-1.283-2.01-2.241-3.533-2.875-1.522-.634-3.355-.944-5.484-.944h-6.54v17.423h5.461v.007Z"/><g filter="url(#n)"><path fill="#B5E2FF" d="M127.256 42.712h-3.595v-8.355H121v-1.736h2.661V21.154h7.207c1.489 0 2.771.277 3.848.83 1.077.552 1.905 1.327 2.487 2.329.58 1.002.872 2.173.872 3.523 0 1.369-.302 2.543-.91 3.523-.607.98-1.47 1.723-2.588 2.235-1.118.512-2.427.766-3.926.766h-3.388v8.352h-.007Zm4.862-5.4v1.736H121v-1.736h11.118Zm-2.547-5.78c.897 0 1.71-.101 2.44-.302.727-.201 1.31-.565 1.741-1.099.432-.53.649-1.297.649-2.298 0-.854-.176-1.555-.529-2.1-.353-.547-.857-.955-1.505-1.225-.649-.27-1.43-.402-2.337-.402h-2.786v7.422h2.327v.003Z"/></g><g filter="url(#o)"><path fill="#B5E2FF" d="M38.569 123.794h-3.596v-8.355h-2.66v-1.737h2.66v-11.466h7.208c1.489 0 2.77.276 3.847.829 1.077.552 1.905 1.328 2.488 2.329.58 1.002.872 2.173.872 3.523 0 1.369-.302 2.544-.91 3.523-.608.98-1.47 1.724-2.588 2.236-1.118.511-2.428.766-3.927.766h-3.388v8.352h-.006Zm4.862-5.401v1.736H32.313v-1.736H43.43Zm-2.548-5.78c.898 0 1.71-.101 2.44-.302.728-.201 1.31-.565 1.742-1.099.431-.53.648-1.296.648-2.298 0-.854-.176-1.554-.529-2.1-.352-.547-.856-.955-1.505-1.225-.648-.27-1.43-.402-2.336-.402h-2.787v7.423h2.327v.003Z"/></g><defs><filter id="c" width="41.195" height="31.598" x="48.773" y="32.371" color-interpolation-filters="sRGB" filterUnits="userSpaceOnUse"><feFlood flood-opacity="0" result="BackgroundImageFix"/><feBlend in="SourceGraphic" in2="BackgroundImageFix" result="shape"/><feGaussianBlur result="effect1_foregroundBlur_10079_21677098" stdDeviation="1"/></filter><filter id="e" width="37.516" height="68.41" x="95.219" y="57.657" color-interpolation-filters="sRGB" filterUnits="userSpaceOnUse"><feFlood flood-opacity="0" result="BackgroundImageFix"/><feBlend in="SourceGraphic" in2="BackgroundImageFix" result="shape"/><feGaussianBlur result="effect1_foregroundBlur_10079_21677098" stdDeviation="1"/></filter><filter id="g" width="57.172" height="47.374" x="50.422" y="37.094" color-interpolation-filters="sRGB" filterUnits="userSpaceOnUse"><feFlood flood-opacity="0" result="BackgroundImageFix"/><feBlend in="SourceGraphic" in2="BackgroundImageFix" result="shape"/><feGaussianBlur result="effect1_foregroundBlur_10079_21677098" stdDeviation="2"/></filter><filter id="h" width="69.57" height="79.821" x="51.805" y="43.51" color-interpolation-filters="sRGB" filterUnits="userSpaceOnUse"><feFlood flood-opacity="0" result="BackgroundImageFix"/><feBlend in="SourceGraphic" in2="BackgroundImageFix" result="shape"/><feGaussianBlur result="effect1_foregroundBlur_10079_21677098" stdDeviation="2"/></filter><filter id="j" width="69.57" height="79.821" x="51.797" y="43.51" color-interpolation-filters="sRGB" filterUnits="userSpaceOnUse"><feFlood flood-opacity="0" result="BackgroundImageFix"/><feBlend in="SourceGraphic" in2="BackgroundImageFix" result="shape"/><feGaussianBlur result="effect1_foregroundBlur_10079_21677098" stdDeviation="2"/></filter><filter id="l" width="130.195" height="16.344" x="25.906" y="135.297" color-interpolation-filters="sRGB" filterUnits="userSpaceOnUse"><feFlood flood-opacity="0" result="BackgroundImageFix"/><feBlend in="SourceGraphic" in2="BackgroundImageFix" result="shape"/><feGaussianBlur result="effect1_foregroundBlur_10079_21677098" stdDeviation="2"/></filter><filter id="n" width="25.078" height="29.558" x="117" y="17.154" color-interpolation-filters="sRGB" filterUnits="userSpaceOnUse"><feFlood flood-opacity="0" result="BackgroundImageFix"/><feBlend in="SourceGraphic" in2="BackgroundImageFix" result="shape"/><feGaussianBlur result="effect1_foregroundBlur_10079_21677098" stdDeviation="2"/></filter><filter id="o" width="35.078" height="39.558" x="23.313" y="93.236" color-interpolation-filters="sRGB" filterUnits="userSpaceOnUse"><feFlood flood-opacity="0" result="BackgroundImageFix"/><feBlend in="SourceGraphic" in2="BackgroundImageFix" result="shape"/><feGaussianBlur result="effect1_foregroundBlur_10079_21677098" stdDeviation="4.5"/></filter><linearGradient id="b" x1="69.803" x2="95.257" y1="76.487" y2="71.284" gradientUnits="userSpaceOnUse"><stop stop-color="#2E3C6A"/><stop offset="1" stop-color="#2E3C6A" stop-opacity="0"/></linearGradient><linearGradient id="d" x1="50.773" x2="84.921" y1="42.91" y2="37.797" gradientUnits="userSpaceOnUse"><stop offset=".594" stop-color="#4B598A"/><stop offset="1" stop-color="#A7B4E1"/></linearGradient><linearGradient id="f" x1="97.219" x2="128.579" y1="79.586" y2="77.773" gradientUnits="userSpaceOnUse"><stop offset=".594" stop-color="#4B598A"/><stop offset="1" stop-color="#A7B4E1"/></linearGradient><linearGradient id="i" x1="86.59" x2="86.59" y1="47.51" y2="119.331" gradientUnits="userSpaceOnUse"><stop stop-color="#747474"/><stop offset="1" stop-color="#fff"/></linearGradient><linearGradient id="k" x1="117.367" x2="86.582" y1="119.331" y2="119.331" gradientUnits="userSpaceOnUse"><stop stop-color="#0057D6"/><stop offset="1" stop-color="#0057D6" stop-opacity="0"/></linearGradient><radialGradient id="m" cx="0" cy="0" r="1" gradientTransform="rotate(90.005 -26.226 117.232) scale(2.2011 32.2346)" gradientUnits="userSpaceOnUse"><stop stop-color="#6A99DD"/><stop offset="1" stop-color="#A0C0EF"/></radialGradient></defs></svg>
