<svg title="Звук" width="180" height="160" viewBox="0 0 180 160" fill="none" xmlns="http://www.w3.org/2000/svg">
<rect width="180" height="160" fill="white"/>
<path d="M168.514 90.7312C168.514 77.069 161.676 65.0462 151.009 57.9419H149.368V59.5814L146.906 62.0406C156.479 68.0519 162.77 78.7084 162.77 91.0044C162.77 103.3 156.206 113.957 146.633 119.968L149.094 122.427V124.067H150.736C161.403 116.689 168.514 104.667 168.514 90.7312Z" fill="#6CC6FF"/>
<path d="M154.841 90.7313C154.841 80.8945 149.371 72.1507 141.165 67.7788H139.524V69.4183L137.063 71.8775C144.448 75.1564 149.371 82.2607 149.371 90.7313C149.371 99.2019 144.174 106.579 136.789 109.858L139.251 112.318V113.957H140.892C149.097 109.312 154.841 100.841 154.841 90.7313Z" fill="#6CC6FF"/>
<path d="M159.411 90.7312C159.411 103.027 152.847 113.684 143.273 119.695L147.376 123.794C158.043 116.689 164.881 104.393 164.881 90.7312C164.881 77.069 158.043 65.0462 147.376 57.9419L143.547 61.7673C153.12 68.0519 159.411 78.7084 159.411 90.7312Z" fill="#B5E2FF"/>
<path d="M145.738 90.731C145.738 99.2016 140.541 106.579 133.156 109.858L137.259 113.957C145.464 109.585 151.208 100.841 151.208 91.0043C151.208 81.1675 145.738 72.4237 137.533 68.0518L133.43 72.1504C140.541 75.1561 145.738 82.5337 145.738 90.731Z" fill="#B5E2FF"/>
<path d="M100.116 124.067C95.5473 124.067 90.7555 123.12 85.9359 121.226C75.7952 117.214 66.5181 109.33 59.8597 98.994C53.2014 88.6583 49.8304 76.9574 50.3876 66.0645C50.9727 54.1965 56.043 44.613 64.6794 39.069C73.2878 33.5251 84.125 32.8564 95.1572 37.2303C105.298 41.242 114.575 49.1262 121.233 59.4619C127.892 69.7976 131.263 81.4985 130.705 92.3914C130.12 104.259 125.05 113.843 116.414 119.387C111.566 122.479 105.994 124.067 100.116 124.067ZM81.0048 49.9898C78.1075 49.9898 75.4051 50.6863 73.0928 52.1907C68.8304 54.9487 66.2952 60.1584 65.933 66.8446C65.543 74.5058 68.0503 82.9193 72.9535 90.5248C77.8567 98.1304 84.4872 103.897 91.6191 106.711C97.8596 109.163 103.654 109.023 107.917 106.265C117.445 100.136 117.5 82.5571 108.056 67.9032C100.952 56.8153 90.0312 49.9898 81.0048 49.9898Z" fill="white"/>
<mask id="mask0_10079_21677098" style="mask-type:alpha" maskUnits="userSpaceOnUse" x="50" y="34" width="81" height="91">
<path d="M100.116 124.067C95.5473 124.067 90.7555 123.12 85.9359 121.226C75.7952 117.214 66.5181 109.33 59.8597 98.994C53.2014 88.6583 49.8304 76.9574 50.3876 66.0645C50.9727 54.1965 56.043 44.613 64.6794 39.069C73.2878 33.5251 84.125 32.8564 95.1572 37.2303C105.298 41.242 114.575 49.1262 121.233 59.4619C127.892 69.7976 131.263 81.4985 130.705 92.3914C130.12 104.259 125.05 113.843 116.414 119.387C111.566 122.479 105.994 124.067 100.116 124.067ZM81.0048 49.9898C78.1075 49.9898 75.4051 50.6863 73.0928 52.1907C68.8304 54.9487 66.2952 60.1584 65.933 66.8446C65.543 74.5058 68.0503 82.9193 72.9535 90.5248C77.8567 98.1304 84.4872 103.897 91.6191 106.711C97.8596 109.163 103.654 109.023 107.917 106.265C117.445 100.136 117.5 82.5571 108.056 67.9032C100.952 56.8153 90.0312 49.9898 81.0048 49.9898Z" fill="#D3DBF7"/>
</mask>
<g mask="url(#mask0_10079_21677098)">
<path d="M100.116 124.067C95.5473 124.067 90.7555 123.12 85.9359 121.226C75.7952 117.214 66.5181 109.33 59.8597 98.994C53.2014 88.6583 49.8304 76.9574 50.3876 66.0645C50.9727 54.1965 56.043 44.613 64.6794 39.069C73.2878 33.5251 84.125 32.8564 95.1572 37.2303C105.298 41.242 114.575 49.1262 121.233 59.4619C127.892 69.7976 131.263 81.4985 130.705 92.3914C130.12 104.259 125.05 113.843 116.414 119.387C111.566 122.479 105.994 124.067 100.116 124.067ZM81.0048 49.9898C78.1075 49.9898 75.4051 50.6863 73.0928 52.1907C68.8304 54.9487 66.2952 60.1584 65.933 66.8446C65.543 74.5058 68.0503 82.9193 72.9535 90.5248C77.8567 98.1304 84.4872 103.897 91.6191 106.711C97.8596 109.163 103.654 109.023 107.917 106.265C117.445 100.136 117.5 82.5571 108.056 67.9032C100.952 56.8153 90.0312 49.9898 81.0048 49.9898Z" fill="#D3DBF7"/>
<path d="M100.116 124.067C95.5473 124.067 90.7555 123.12 85.9359 121.226C75.7952 117.214 66.5181 109.33 59.8597 98.994C53.2014 88.6583 49.8304 76.9574 50.3876 66.0645C50.9727 54.1965 56.043 44.613 64.6794 39.069C73.2878 33.5251 84.125 32.8564 95.1572 37.2303C105.298 41.242 114.575 49.1262 121.233 59.4619C127.892 69.7976 131.263 81.4985 130.705 92.3914C130.12 104.259 125.05 113.843 116.414 119.387C111.566 122.479 105.994 124.067 100.116 124.067ZM81.0048 49.9898C78.1075 49.9898 75.4051 50.6863 73.0928 52.1907C68.8304 54.9487 66.2952 60.1584 65.933 66.8446C65.543 74.5058 68.0503 82.9193 72.9535 90.5248C77.8567 98.1304 84.4872 103.897 91.6191 106.711C97.8596 109.163 103.654 109.023 107.917 106.265C117.445 100.136 117.5 82.5571 108.056 67.9032C100.952 56.8153 90.0312 49.9898 81.0048 49.9898Z" fill="url(#paint0_linear_10079_21677098)"/>
<g filter="url(#filter0_f_10079_21677098)">
<path d="M87.9654 35.085C79.4683 33.3856 71.3892 34.7228 64.6473 39.0688C57.0696 43.9442 52.2221 51.9955 50.7734 61.969H52.1943C52.1943 61.969 58.4347 40.0439 87.9654 35.085Z" fill="url(#paint1_linear_10079_21677098)"/>
</g>
<g filter="url(#filter1_f_10079_21677098)">
<path d="M123.768 91.444C117.305 99.6903 104.239 115.514 97.2188 123.928C98.1938 124.011 99.141 124.067 100.088 124.067C105.994 124.067 111.538 122.507 116.386 119.359C124.994 113.815 130.065 104.231 130.678 92.3633C131.235 81.5261 127.892 69.9368 121.345 59.6567C125.189 69.101 129.675 83.922 123.768 91.444Z" fill="url(#paint2_linear_10079_21677098)"/>
</g>
</g>
<path d="M97.0769 125.767C92.703 125.767 88.1063 124.792 83.426 122.814C73.9539 118.83 65.2339 111.196 58.8542 101.278C52.4466 91.3885 49.1035 80.2727 49.41 70.0205C49.7164 58.9605 54.1739 50.157 61.9187 45.1423C69.6635 40.1555 79.5535 39.7655 89.7221 44.028C99.1942 48.0118 107.914 55.6452 114.294 65.5631C120.674 75.4809 124.045 86.5967 123.738 96.8489C123.432 107.881 118.974 116.712 111.229 121.699C107.05 124.429 102.231 125.767 97.0769 125.767ZM76.099 52.2464C73.0624 52.2464 70.2764 53.0265 67.9363 54.5309C63.3674 57.4561 60.7486 63.0836 60.5258 70.327C60.3029 78.3504 63.0052 87.2096 68.187 95.2609C73.3688 103.312 80.3057 109.441 87.7163 112.561C94.4025 115.375 100.615 115.292 105.184 112.366C109.753 109.413 112.372 103.814 112.594 96.5424C112.817 88.519 110.115 79.6598 104.933 71.6085C99.7514 63.5572 92.8145 57.4282 85.404 54.308C82.1444 52.9429 78.9964 52.2464 76.099 52.2464Z" fill="#2F3C6B"/>
<g filter="url(#filter2_f_10079_21677098)">
<path d="M60.5249 70.327C60.7477 63.0557 63.3665 57.4561 67.9354 54.503C70.2756 53.0265 73.0615 52.2464 76.0981 52.2464C78.9955 52.2464 82.1435 52.9429 85.4031 54.308C91.6157 56.9267 97.4939 61.6628 102.286 67.8475C103.149 66.6217 103.623 65.3959 103.595 64.2815C103.456 57.9854 100.419 52.2464 97.7168 48.374C95.1259 46.6467 92.4514 45.1702 89.6934 44.028C79.4969 39.7655 69.6348 40.1555 61.89 45.1423C59.8841 46.4238 58.1011 47.984 56.5689 49.7391C55.5659 54.4473 54.7859 60.1027 54.4516 66.8446C54.0894 74.2273 57.0703 78.4618 61.6671 80.4677C60.8313 77.041 60.4413 73.6144 60.5249 70.327Z" fill="#E6EBFF"/>
</g>
<g filter="url(#filter3_f_10079_21677098)">
<path d="M76.1008 52.2463C78.9981 52.2463 82.1462 52.9428 85.4057 54.3079C92.8162 57.4281 99.7531 63.5571 104.935 71.6084C110.117 79.6597 112.847 88.491 112.596 96.5423C112.373 103.814 109.755 109.413 105.186 112.366C102.846 113.871 100.087 114.623 97.0508 114.623C94.1535 114.623 91.0054 113.926 87.7459 112.561C80.3353 109.441 73.3984 103.312 68.2166 95.2608C63.0348 87.2374 60.3046 78.3782 60.5275 70.3269C60.7504 63.0556 63.3691 57.456 67.938 54.5029C70.2782 53.0264 73.0641 52.2463 76.1008 52.2463ZM76.1008 47.5103C72.089 47.5103 68.4952 48.5132 65.375 50.519C59.4689 54.3636 56.07 61.3284 55.8193 70.1876C55.5686 79.1582 58.5495 88.9925 64.2328 97.8238C69.916 106.655 77.633 113.425 85.9072 116.907C89.7517 118.523 93.4848 119.331 97.0508 119.331C101.063 119.331 104.656 118.328 107.777 116.322C113.683 112.506 117.082 105.513 117.36 96.6538C117.611 87.6831 114.63 77.8488 108.947 69.0175C103.263 60.1862 95.5464 53.4164 87.2723 49.934C83.3998 48.346 79.6667 47.5103 76.1008 47.5103Z" fill="url(#paint3_linear_10079_21677098)"/>
</g>
<g style="mix-blend-mode:color">
<path fill-rule="evenodd" clip-rule="evenodd" d="M51.307 59.0464C51.6486 57.5025 52.0768 56.0118 52.5888 54.5795C52.9129 53.6721 53.2708 52.7883 53.6619 51.9293C56.1004 46.5696 59.8198 42.1748 64.6473 39.0688C69.5054 35.9372 75.0579 34.3678 80.9607 34.3711C85.5421 34.3685 90.331 35.3169 95.1572 37.2303C105.298 41.242 114.575 49.1262 121.233 59.4619C127.892 69.7976 131.263 81.4985 130.705 92.3914C130.12 104.259 125.05 113.843 116.414 119.387C114.374 120.688 112.207 121.722 109.942 122.485C106.072 124.686 101.71 125.767 97.0769 125.767C92.703 125.767 88.1063 124.792 83.426 122.814C73.9539 118.83 65.2339 111.196 58.8542 101.278C52.4466 91.3885 49.1035 80.2727 49.41 70.0205C49.52 66.0477 50.1657 62.366 51.307 59.0464ZM112.589 94.5058C112.609 95.1895 112.609 95.8686 112.588 96.5423C112.523 98.6659 112.254 100.647 111.791 102.461C110.747 103.987 109.455 105.276 107.917 106.265C103.654 109.023 97.8596 109.163 91.6191 106.711C84.4872 103.897 77.8567 98.1304 72.9535 90.5248C68.0503 82.9193 65.543 74.5058 65.933 66.8446C66.2758 60.5161 68.5653 55.5104 72.4236 52.6543C73.5948 52.3838 74.8246 52.2464 76.0986 52.2464C76.2193 52.2464 76.3405 52.2476 76.4621 52.25C79.2569 52.3064 82.2763 53.0005 85.3979 54.3079C92.8084 57.4281 99.7453 63.5571 104.927 71.6084C106.261 73.6809 107.432 75.8051 108.432 77.9544C110.986 83.4611 112.414 89.1349 112.589 94.5058Z" fill="#42AB44"/>
</g>
<g filter="url(#filter4_f_10079_21677098)">
<path d="M76.0929 52.2458C78.9903 52.2458 82.1384 52.9423 85.3979 54.3074C92.8084 57.4276 99.7453 63.5566 104.927 71.6079C110.109 79.6592 112.839 88.4905 112.588 96.5418C112.366 103.813 109.747 109.413 105.178 112.366C102.838 113.87 100.08 114.622 97.043 114.622C94.1457 114.622 90.9976 113.926 87.7381 112.561C80.3275 109.441 73.3906 103.312 68.2088 95.2603C63.027 87.2369 60.2968 78.3777 60.5197 70.3264C60.7426 63.0552 63.3613 57.4555 67.9302 54.5024C70.2704 53.0259 73.0563 52.2458 76.0929 52.2458ZM76.0929 47.5098C72.0812 47.5098 68.4874 48.5127 65.3672 50.5186C59.461 54.3631 56.0622 61.3279 55.8115 70.1871C55.5608 79.1577 58.5417 88.992 64.225 97.8233C69.9082 106.655 77.6252 113.424 85.8994 116.907C89.7439 118.523 93.477 119.331 97.043 119.331C101.055 119.331 104.649 118.328 107.769 116.322C113.675 112.505 117.074 105.512 117.352 96.6533C117.603 87.6826 114.622 77.8484 108.939 69.017C103.256 60.1857 95.5386 53.4159 87.2644 49.9335C83.392 48.3455 79.6589 47.5098 76.0929 47.5098Z" fill="#050304"/>
<path d="M76.0929 52.2458C78.9903 52.2458 82.1384 52.9423 85.3979 54.3074C92.8084 57.4276 99.7453 63.5566 104.927 71.6079C110.109 79.6592 112.839 88.4905 112.588 96.5418C112.366 103.813 109.747 109.413 105.178 112.366C102.838 113.87 100.08 114.622 97.043 114.622C94.1457 114.622 90.9976 113.926 87.7381 112.561C80.3275 109.441 73.3906 103.312 68.2088 95.2603C63.027 87.2369 60.2968 78.3777 60.5197 70.3264C60.7426 63.0552 63.3613 57.4555 67.9302 54.5024C70.2704 53.0259 73.0563 52.2458 76.0929 52.2458ZM76.0929 47.5098C72.0812 47.5098 68.4874 48.5127 65.3672 50.5186C59.461 54.3631 56.0622 61.3279 55.8115 70.1871C55.5608 79.1577 58.5417 88.992 64.225 97.8233C69.9082 106.655 77.6252 113.424 85.8994 116.907C89.7439 118.523 93.477 119.331 97.043 119.331C101.055 119.331 104.649 118.328 107.769 116.322C113.675 112.505 117.074 105.512 117.352 96.6533C117.603 87.6826 114.622 77.8484 108.939 69.017C103.256 60.1857 95.5386 53.4159 87.2644 49.9335C83.392 48.3455 79.6589 47.5098 76.0929 47.5098Z" fill="url(#paint4_linear_10079_21677098)"/>
</g>
<path fill-rule="evenodd" clip-rule="evenodd" d="M102.594 76.4551L101.594 54.9946L102.594 41.0933L103.594 56.6049L102.594 76.4551Z" fill="white"/>
<path fill-rule="evenodd" clip-rule="evenodd" d="M61.7301 127.518L60.0156 90.7244L61.7301 66.8906L63.4446 93.4851L61.7301 127.518Z" fill="white"/>
<g filter="url(#filter5_f_10079_21677098)">
<path d="M150.196 143.469C149.468 143.68 148.448 143.895 147.141 144.106C144.095 144.597 139.657 145.044 134.138 145.421C123.111 146.174 107.86 146.641 91.004 146.641C74.1475 146.641 58.8969 146.174 47.8695 145.421C42.3514 145.044 37.9134 144.597 34.867 144.106C33.5596 143.895 32.5397 143.68 31.8115 143.469C32.5397 143.258 33.5596 143.043 34.867 142.832C37.9134 142.34 42.3514 141.893 47.8695 141.517C58.8969 140.764 74.1475 140.297 91.004 140.297C107.86 140.297 123.111 140.764 134.138 141.517C139.657 141.893 144.095 142.34 147.141 142.832C148.448 143.043 149.468 143.258 150.196 143.469ZM30.7372 143.033C30.7379 143.033 30.744 143.038 30.7535 143.047C30.7413 143.038 30.7366 143.033 30.7372 143.033ZM30.7372 143.905C30.7366 143.904 30.7413 143.9 30.7535 143.891C30.744 143.9 30.7379 143.905 30.7372 143.905ZM151.254 143.891C151.267 143.9 151.271 143.904 151.271 143.905C151.27 143.905 151.264 143.9 151.254 143.891ZM151.254 143.047C151.264 143.038 151.27 143.033 151.271 143.033C151.271 143.033 151.267 143.038 151.254 143.047Z" stroke="url(#paint5_radial_10079_21677098)" stroke-width="2"/>
</g>
<path d="M19.0217 73.4099H10.5813V53.7984H4.33594V49.7228H10.5813V22.8076H27.499C30.9949 22.8076 34.003 23.4562 36.5307 24.7533C39.0584 26.0504 41.0022 27.8708 42.3695 30.2218C43.7294 32.5728 44.4168 35.3218 44.4168 38.4909C44.4168 41.7042 43.7073 44.4606 42.2808 46.7601C40.8544 49.0595 38.8293 50.8062 36.2055 52.0075C33.5817 53.2088 30.5071 53.8058 26.989 53.8058H19.0364V73.4099H19.0217ZM30.4332 60.7335V64.8091H4.33594V60.7335H30.4332ZM24.454 47.1654C26.5604 47.1654 28.4672 46.9296 30.1819 46.4579C31.8892 45.9862 33.2565 45.1313 34.2691 43.8784C35.2816 42.6329 35.7916 40.8346 35.7916 38.4836C35.7916 36.4789 35.3777 34.8354 34.5499 33.5531C33.7221 32.2707 32.5396 31.3126 31.0171 30.6788C29.4946 30.0449 27.6616 29.7354 25.533 29.7354H18.9921V47.158H24.454V47.1654Z" fill="#B5E2FF"/>
<g filter="url(#filter6_f_10079_21677098)">
<path d="M127.256 42.7121H123.661V34.3571H121V32.6208H123.661V21.1543H130.868C132.357 21.1543 133.639 21.4306 134.716 21.9832C135.793 22.5358 136.621 23.3113 137.203 24.3129C137.783 25.3145 138.075 26.4857 138.075 27.8358C138.075 29.2047 137.773 30.379 137.165 31.3586C136.558 32.3382 135.695 33.0824 134.577 33.5941C133.459 34.1059 132.15 34.3603 130.651 34.3603H127.263V42.7121H127.256ZM132.118 37.3116V39.048H121V37.3116H132.118ZM129.571 31.5313C130.468 31.5313 131.281 31.4308 132.011 31.2299C132.738 31.0289 133.321 30.6647 133.752 30.131C134.184 29.6003 134.401 28.8342 134.401 27.8326C134.401 26.9786 134.225 26.2784 133.872 25.7321C133.519 25.1858 133.015 24.7776 132.367 24.5076C131.718 24.2376 130.937 24.1057 130.03 24.1057H127.244V31.5282H129.571V31.5313Z" fill="#B5E2FF"/>
</g>
<g filter="url(#filter7_f_10079_21677098)">
<path d="M38.569 123.794H34.9732V115.439H32.3125V113.702H34.9732V102.236H42.1805C43.6699 102.236 44.9514 102.512 46.0282 103.065C47.1051 103.617 47.9332 104.393 48.5157 105.394C49.0951 106.396 49.3879 107.567 49.3879 108.917C49.3879 110.286 49.0856 111.461 48.4779 112.44C47.8702 113.42 47.0075 114.164 45.8897 114.676C44.7719 115.187 43.4621 115.442 41.9633 115.442H38.5753V123.794H38.569ZM43.4306 118.393V120.129H32.3125V118.393H43.4306ZM40.8833 112.613C41.7806 112.613 42.593 112.512 43.3235 112.311C44.0509 112.11 44.6334 111.746 45.0647 111.212C45.4961 110.682 45.7134 109.916 45.7134 108.914C45.7134 108.06 45.537 107.36 45.1844 106.814C44.8317 106.267 44.3279 105.859 43.6793 105.589C43.0307 105.319 42.2498 105.187 41.343 105.187H38.5564V112.61H40.8833V112.613Z" fill="#B5E2FF"/>
</g>
<defs>
<filter id="filter0_f_10079_21677098" x="48.7734" y="32.3711" width="41.1953" height="31.5981" filterUnits="userSpaceOnUse" color-interpolation-filters="sRGB">
<feFlood flood-opacity="0" result="BackgroundImageFix"/>
<feBlend mode="normal" in="SourceGraphic" in2="BackgroundImageFix" result="shape"/>
<feGaussianBlur stdDeviation="1" result="effect1_foregroundBlur_10079_21677098"/>
</filter>
<filter id="filter1_f_10079_21677098" x="95.2188" y="57.6567" width="37.5156" height="68.4102" filterUnits="userSpaceOnUse" color-interpolation-filters="sRGB">
<feFlood flood-opacity="0" result="BackgroundImageFix"/>
<feBlend mode="normal" in="SourceGraphic" in2="BackgroundImageFix" result="shape"/>
<feGaussianBlur stdDeviation="1" result="effect1_foregroundBlur_10079_21677098"/>
</filter>
<filter id="filter2_f_10079_21677098" x="50.4219" y="37.0938" width="57.1719" height="47.374" filterUnits="userSpaceOnUse" color-interpolation-filters="sRGB">
<feFlood flood-opacity="0" result="BackgroundImageFix"/>
<feBlend mode="normal" in="SourceGraphic" in2="BackgroundImageFix" result="shape"/>
<feGaussianBlur stdDeviation="2" result="effect1_foregroundBlur_10079_21677098"/>
</filter>
<filter id="filter3_f_10079_21677098" x="51.8047" y="43.5103" width="69.5703" height="79.8208" filterUnits="userSpaceOnUse" color-interpolation-filters="sRGB">
<feFlood flood-opacity="0" result="BackgroundImageFix"/>
<feBlend mode="normal" in="SourceGraphic" in2="BackgroundImageFix" result="shape"/>
<feGaussianBlur stdDeviation="2" result="effect1_foregroundBlur_10079_21677098"/>
</filter>
<filter id="filter4_f_10079_21677098" x="51.7969" y="43.5098" width="69.5703" height="79.8208" filterUnits="userSpaceOnUse" color-interpolation-filters="sRGB">
<feFlood flood-opacity="0" result="BackgroundImageFix"/>
<feBlend mode="normal" in="SourceGraphic" in2="BackgroundImageFix" result="shape"/>
<feGaussianBlur stdDeviation="2" result="effect1_foregroundBlur_10079_21677098"/>
</filter>
<filter id="filter5_f_10079_21677098" x="25.9062" y="135.297" width="130.195" height="16.3438" filterUnits="userSpaceOnUse" color-interpolation-filters="sRGB">
<feFlood flood-opacity="0" result="BackgroundImageFix"/>
<feBlend mode="normal" in="SourceGraphic" in2="BackgroundImageFix" result="shape"/>
<feGaussianBlur stdDeviation="2" result="effect1_foregroundBlur_10079_21677098"/>
</filter>
<filter id="filter6_f_10079_21677098" x="117" y="17.1543" width="25.0781" height="29.5576" filterUnits="userSpaceOnUse" color-interpolation-filters="sRGB">
<feFlood flood-opacity="0" result="BackgroundImageFix"/>
<feBlend mode="normal" in="SourceGraphic" in2="BackgroundImageFix" result="shape"/>
<feGaussianBlur stdDeviation="2" result="effect1_foregroundBlur_10079_21677098"/>
</filter>
<filter id="filter7_f_10079_21677098" x="23.3125" y="93.2358" width="35.0781" height="39.5576" filterUnits="userSpaceOnUse" color-interpolation-filters="sRGB">
<feFlood flood-opacity="0" result="BackgroundImageFix"/>
<feBlend mode="normal" in="SourceGraphic" in2="BackgroundImageFix" result="shape"/>
<feGaussianBlur stdDeviation="4.5" result="effect1_foregroundBlur_10079_21677098"/>
</filter>
<linearGradient id="paint0_linear_10079_21677098" x1="69.8035" y1="76.4868" x2="95.2573" y2="71.2845" gradientUnits="userSpaceOnUse">
<stop stop-color="#2E3C6A"/>
<stop offset="1" stop-color="#2E3C6A" stop-opacity="0"/>
</linearGradient>
<linearGradient id="paint1_linear_10079_21677098" x1="50.7734" y1="42.9102" x2="84.9209" y2="37.7971" gradientUnits="userSpaceOnUse">
<stop offset="0.59375" stop-color="#4B598A"/>
<stop offset="1" stop-color="#A7B4E1"/>
</linearGradient>
<linearGradient id="paint2_linear_10079_21677098" x1="97.2188" y1="79.586" x2="128.579" y2="77.7728" gradientUnits="userSpaceOnUse">
<stop offset="0.59375" stop-color="#4B598A"/>
<stop offset="1" stop-color="#A7B4E1"/>
</linearGradient>
<linearGradient id="paint3_linear_10079_21677098" x1="86.5897" y1="47.5103" x2="86.5897" y2="119.331" gradientUnits="userSpaceOnUse">
<stop stop-color="#747474"/>
<stop offset="1" stop-color="white"/>
</linearGradient>
<linearGradient id="paint4_linear_10079_21677098" x1="117.367" y1="119.331" x2="86.5819" y2="119.331" gradientUnits="userSpaceOnUse">
<stop stop-color="#0057D6"/>
<stop offset="1" stop-color="#0057D6" stop-opacity="0"/>
</linearGradient>
<radialGradient id="paint5_radial_10079_21677098" cx="0" cy="0" r="1" gradientUnits="userSpaceOnUse" gradientTransform="translate(91.004 143.469) rotate(90.0051) scale(2.2011 32.2346)">
<stop stop-color="#6A99DD"/>
<stop offset="1" stop-color="#A0C0EF"/>
</radialGradient>
</defs>
</svg>
