<svg width="24" height="24" fill="none" xmlns="http://www.w3.org/2000/svg"><path d="M1 22h22M19.781 22.01v-4.46" stroke="#000000" stroke-width="2" stroke-miterlimit="10" stroke-linecap="round" stroke-linejoin="round"/><path d="M19.802 10.89c-1.22 0-2.2.98-2.2 2.2v2.27c0 1.22.98 2.2 2.2 2.2 1.22 0 2.2-.98 2.2-2.2v-2.27c0-1.22-.98-2.2-2.2-2.2Z" stroke="currentColor" stroke-width="2" stroke-miterlimit="10" stroke-linecap="round" stroke-linejoin="round"/><path d="M2.102 6.02c0-2.01 1-3.02 2.99-3.02h6.23c1.99 0 2.98 1.01 2.98 3.02V22M2.102 22V10.01" stroke="#000000" stroke-width="2" stroke-miterlimit="10" stroke-linecap="round" stroke-linejoin="round"/><path d="M5.8 8.25h4.95M5.8 12h4.95" stroke="currentColor" stroke-width="2" stroke-miterlimit="10" stroke-linecap="round" stroke-linejoin="round"/><path d="M8.25 22v-3.75" stroke="#000000" stroke-width="2" stroke-miterlimit="10" stroke-linecap="round" stroke-linejoin="round"/></svg>
