<svg width="21" height="16" viewBox="0 0 21 16" fill="none" xmlns="http://www.w3.org/2000/svg">
<path fill-rule="evenodd" clip-rule="evenodd" d="M10.8314 14.9996H10.5631C9.83003 14.9139 9.24781 14.4212 9.12944 13.7863L8.45478 9.69953C8.39086 9.30917 8.522 8.91367 8.81511 8.61284L10.9081 6.46613C11.1812 6.18446 11.6652 6.14864 11.9891 6.38613C12.313 6.62362 12.3542 7.04448 12.0811 7.32615L9.9881 9.47286L10.6474 13.5729C10.6615 13.6299 10.7184 13.6712 10.7854 13.6729C10.8794 13.6883 10.9726 13.6436 11.0077 13.5663L17.3327 2.55938C17.367 2.50242 17.3568 2.43287 17.3071 2.38521C17.2575 2.33755 17.1789 2.32191 17.1103 2.34605L3.77052 6.73947C3.68052 6.76366 3.62065 6.83764 3.62485 6.91947C3.62336 6.98384 3.67498 7.03995 3.74752 7.05281L6.53815 7.61282C6.8052 7.66641 7.01909 7.83982 7.09924 8.06773C7.1794 8.29564 7.11364 8.54343 6.92674 8.71775C6.73985 8.89207 6.4602 8.96644 6.19315 8.91285L3.35653 8.3395C2.63532 8.17249 2.12473 7.61477 2.09921 6.96614C2.0674 6.31238 2.52658 5.71612 3.23386 5.49278L16.5737 1.09935C17.234 0.878256 17.9827 1.03374 18.4569 1.49044C18.9311 1.94713 19.0328 2.61066 18.7126 3.1594L12.4107 14.173C12.1119 14.6905 11.4972 15.0123 10.8314 14.9996Z" fill="#1C1C1C" stroke="#1C1C1C" stroke-width="0.3"/>
</svg>
