<svg title="Добавить продукт" width="180" height="160" viewBox="0 0 180 160" fill="none" xmlns="http://www.w3.org/2000/svg">
<rect width="180" height="160" fill="white"/>
<g filter="url(#filter0_f_10079_21473034)">
<path d="M108.382 152.6C141.282 152.6 167.952 150.657 167.952 148.26C167.952 145.864 141.282 143.921 108.382 143.921C75.4829 143.921 48.8125 145.864 48.8125 148.26C48.8125 150.657 75.4829 152.6 108.382 152.6Z" fill="url(#paint0_radial_10079_21473034)"/>
</g>
<path d="M76.4348 96.7108L23.5742 50.4922L20.2969 53.1363L76.2234 113.316L76.3291 113.421L76.4348 113.527C76.9634 113.527 77.492 110.672 77.492 107.181C77.3863 103.585 76.9634 96.7108 76.4348 96.7108Z" fill="#1F247A"/>
<path fill-rule="evenodd" clip-rule="evenodd" d="M75.9062 63.6064H142.933V128.757H142.929C142.932 128.792 142.933 128.827 142.933 128.863C142.933 132.367 127.929 135.208 109.42 135.208C90.9108 135.208 75.9062 132.367 75.9062 128.863C75.9062 128.827 75.9078 128.792 75.9108 128.757H75.9062V63.6064Z" fill="#B5E2FF"/>
<path fill-rule="evenodd" clip-rule="evenodd" d="M75.9062 63.6064H142.933V128.757H142.929C142.932 128.792 142.933 128.827 142.933 128.863C142.933 132.367 127.929 135.208 109.42 135.208C90.9108 135.208 75.9062 132.367 75.9062 128.863C75.9062 128.827 75.9078 128.792 75.9108 128.757H75.9062V63.6064Z" fill="url(#paint1_linear_10079_21473034)"/>
<path fill-rule="evenodd" clip-rule="evenodd" d="M75.9062 63.6064H142.933V128.757H142.929C142.932 128.792 142.933 128.827 142.933 128.863C142.933 132.367 127.929 135.208 109.42 135.208C90.9108 135.208 75.9062 132.367 75.9062 128.863C75.9062 128.827 75.9078 128.792 75.9108 128.757H75.9062V63.6064Z" fill="url(#paint2_linear_10079_21473034)"/>
<path fill-rule="evenodd" clip-rule="evenodd" d="M75.9062 63.6064H142.933V128.757H142.929C142.932 128.792 142.933 128.827 142.933 128.863C142.933 132.367 127.929 135.208 109.42 135.208C90.9108 135.208 75.9062 132.367 75.9062 128.863C75.9062 128.827 75.9078 128.792 75.9108 128.757H75.9062V63.6064Z" fill="url(#paint3_linear_10079_21473034)"/>
<path fill-rule="evenodd" clip-rule="evenodd" d="M109.42 58.1064C127.921 58.1064 142.933 60.9621 142.933 64.4523C142.933 64.558 142.933 64.6638 143.039 64.558C143.145 64.7695 143.145 64.8753 143.145 64.9811C143.145 65.9329 141.982 66.7791 139.973 67.6252C138.387 68.2597 137.33 69.8462 137.33 71.5384V71.6442C137.33 72.7018 138.282 73.4422 139.233 73.1249C139.656 73.0191 139.868 72.9133 139.868 72.9133C140 72.8755 140.136 72.8376 140.274 72.7992C140.907 72.6227 141.586 72.4335 142.193 72.173C141.665 72.9133 140.925 73.3364 140.185 73.7595C139.445 74.1825 138.705 74.4998 137.859 74.7113C137.753 74.7113 137.674 74.7378 137.595 74.7642C137.515 74.7906 137.436 74.8171 137.33 74.8171C137.33 75.6632 138.176 76.2978 139.022 76.0862C139.55 75.9805 139.868 75.8747 139.868 75.8747C140 75.8369 140.136 75.799 140.274 75.7606C140.907 75.5841 141.586 75.3949 142.193 75.1344C141.665 75.8747 140.925 76.2978 140.185 76.7208C139.445 77.1439 138.705 77.4612 137.859 77.6727C137.753 77.6727 137.674 77.6991 137.595 77.7256C137.515 77.752 137.436 77.7785 137.33 77.7785C137.33 78.6246 138.176 79.2592 139.022 79.0476C139.55 78.9419 139.868 78.8361 139.868 78.8361C140 78.7983 140.136 78.7604 140.274 78.722C140.907 78.5455 141.586 78.3563 142.193 78.0958C141.665 78.8361 140.925 79.2592 140.185 79.6822C139.445 80.1053 138.705 80.4226 137.859 80.6341C137.753 80.6341 137.674 80.6605 137.595 80.687C137.515 80.7134 137.436 80.7398 137.33 80.7398V129.708C136.696 129.92 136.167 130.026 135.639 130.131L135.639 130.131C134.793 130.343 133.947 130.554 133.101 130.66L132.361 130.766C132.097 130.819 131.859 130.845 131.621 130.872C131.383 130.898 131.146 130.925 130.881 130.978L128.027 131.506C127.815 131.506 127.63 131.533 127.445 131.559C127.26 131.586 127.075 131.612 126.864 131.612C121.049 132.247 115.235 132.458 109.42 132.458C108.521 132.458 107.649 132.432 106.777 132.405C105.905 132.379 105.032 132.352 104.134 132.352C101.279 132.247 99.0592 129.92 99.0592 127.064V85.2128C98.962 85.1088 98.8901 84.9869 98.8495 84.8649L98.7437 84.4418C98.638 84.1245 98.3209 83.8072 97.898 83.8072C94.6206 83.4899 88.9117 82.8554 85 81.0574C85 81.0574 89.9689 82.0092 93.352 82.5381C95.6208 82.9636 97.8421 82.9611 99.0592 82.9133V82.7076L98.6339 82.6437C98.3167 82.6437 97.9995 82.3265 97.8938 82.0092L97.7881 81.5861C97.5767 81.2688 97.3652 80.9515 96.9423 80.9515C93.9821 80.6342 88.2732 79.6824 85.1016 78.2017C85.1016 78.2017 89.6476 79.1535 92.7135 79.6824C95.7794 80.2112 99.0567 80.1054 99.0567 80.1054V80.74L99.0592 80.7401V79.7297L98.7432 79.6823C98.4261 79.6823 98.1089 79.365 98.0032 79.0477L97.8975 78.6247C97.686 78.3074 97.4746 77.9901 97.0517 77.9901C94.0915 77.6728 88.6997 76.8267 85.2109 75.2402C85.2109 75.2402 89.7569 76.1921 92.8229 76.7209C95.5628 77.288 98.4716 77.2639 99.0592 77.2523V74.9228C99.0592 72.9133 97.4734 71.2211 95.4647 71.0096C83.9411 70.0577 75.9062 67.8367 75.9062 65.2984C75.9062 65.1745 75.9425 65.0868 75.9726 65.0143C75.9938 64.9629 76.012 64.9191 76.012 64.8753C75.9062 64.6638 75.9062 64.558 75.9062 64.4523C75.9062 60.9621 90.9186 58.1064 109.42 58.1064Z" fill="url(#paint4_linear_10079_21473034)"/>
<path d="M76.435 96.7109L21.2486 48.3769C21.2486 48.3769 13.3195 44.1464 19.4514 50.7037C38.164 70.7988 76.1179 111.518 76.435 111.518C76.9636 111.518 77.3865 109.508 77.4923 106.335C77.3865 102.739 76.9636 96.7109 76.435 96.7109Z" fill="url(#paint5_linear_10079_21473034)"/>
<path d="M75.9062 127.276C75.9062 128.017 76.5406 128.546 77.1749 128.969C77.8092 129.392 78.4436 129.709 79.1836 129.92C80.558 130.449 81.9324 130.767 83.4124 131.084C86.2669 131.718 89.1214 132.141 92.0816 132.459C97.8962 133.093 103.711 133.305 109.526 133.305C115.34 133.305 121.155 133.093 126.97 132.459C129.824 132.141 132.784 131.718 135.639 131.084C137.013 130.767 138.493 130.449 139.868 129.92C140.502 129.709 141.242 129.392 141.876 128.969C142.511 128.546 143.039 128.017 143.145 127.276C143.145 128.017 142.511 128.651 141.982 129.074C141.348 129.497 140.713 129.815 140.079 130.132C138.705 130.661 137.33 131.084 135.85 131.507C132.996 132.247 130.141 132.67 127.181 133.093C121.366 133.834 115.552 134.045 109.631 134.151C103.817 134.151 97.8962 133.834 92.0816 133.093C89.2271 132.67 86.2669 132.247 83.4124 131.507C82.0381 131.084 80.558 130.767 79.1836 130.132C78.5493 129.815 77.8092 129.497 77.2806 129.074C76.5406 128.651 75.9062 128.017 75.9062 127.276Z" fill="#2C2B2A"/>
<path d="M109.417 135.103C92.9247 135.103 75.375 132.67 75.375 128.228C75.375 127.911 75.5864 127.699 75.9036 127.699C76.2208 127.699 76.4322 127.911 76.4322 128.228C76.4322 130.978 89.9645 134.045 109.417 134.045C128.87 134.045 142.402 130.978 142.402 128.228C142.402 127.911 142.614 127.699 142.931 127.699C143.248 127.699 143.459 127.911 143.459 128.228C143.459 132.776 125.91 135.103 109.417 135.103Z" fill="white"/>
<path d="M109.417 135.103C92.9247 135.103 75.375 132.671 75.375 128.229C75.375 127.911 75.5864 127.7 75.9036 127.7C76.2208 127.7 76.4322 127.911 76.4322 128.229C76.4322 130.978 89.9645 134.046 109.417 134.046C128.87 134.046 142.402 130.978 142.402 128.229C142.402 127.911 142.614 127.7 142.931 127.7C143.248 127.7 143.459 127.911 143.459 128.229C143.459 132.776 125.91 135.103 109.417 135.103Z" fill="white"/>
<path d="M69.6719 104.643C69.6719 104.643 74.7465 109.931 75.8037 107.604C76.8609 105.277 77.1781 102.21 77.1781 102.21C77.1781 102.21 78.2353 109.085 76.9666 111.623C75.698 114.161 76.0151 113.315 76.0151 113.315L69.6719 104.643Z" fill="#1F247A"/>
<path d="M83.3047 62.549C83.3047 62.549 84.1505 63.9239 85.5248 62.549C87.0049 61.174 86.582 63.6066 86.582 63.6066C86.582 63.6066 84.6791 63.8181 84.0447 63.6066C83.5161 63.3951 83.3047 62.549 83.3047 62.549Z" fill="#2C2B2A"/>
<path d="M85 75.2402L96.1007 76.1921C99.801 76.5094 103.501 76.7209 107.201 77.2497C103.501 77.567 99.6952 77.567 95.995 77.2497C92.2948 76.9324 88.5945 76.4036 85 75.2402Z" fill="#B5E2FF"/>
<path d="M85 78.0962C88.2774 78.3077 91.449 78.625 94.6206 78.9423C97.7923 79.2596 101.07 79.5769 104.241 79.9999C100.964 80.3172 97.7923 80.2115 94.5149 79.9999C91.3433 79.6826 88.0659 79.1538 85 78.0962Z" fill="#B5E2FF"/>
<path d="M85 80.9517C87.8545 81.0574 90.7089 81.3747 93.4577 81.692C96.3122 82.0093 99.0609 82.3266 101.915 82.8554C99.0609 83.1727 96.2064 83.0669 93.352 82.7496C90.4975 82.4323 87.7488 81.9035 85 80.9517Z" fill="#B5E2FF"/>
<path d="M109.417 70.4807C92.9247 70.4807 75.375 68.0481 75.375 63.6061C75.375 59.164 92.9247 56.7314 109.417 56.7314C125.91 56.7314 143.459 59.164 143.459 63.6061C143.459 68.0481 125.91 70.4807 109.417 70.4807ZM109.417 57.7891C89.9645 57.7891 76.4322 60.8562 76.4322 63.6061C76.4322 66.3559 89.9645 69.4231 109.417 69.4231C128.87 69.4231 142.402 66.3559 142.402 63.6061C142.402 60.8562 128.87 57.7891 109.417 57.7891Z" fill="white"/>
<path d="M109.42 69.635C127.929 69.635 142.933 66.7939 142.933 63.2892C142.933 59.7845 127.929 56.9434 109.42 56.9434C90.9108 56.9434 75.9062 59.7845 75.9062 63.2892C75.9062 66.7939 90.9108 69.635 109.42 69.635Z" fill="url(#paint6_linear_10079_21473034)"/>
<g opacity="0.5">
<path d="M86.5858 62.6548H84.5771C83.837 62.6548 83.2027 63.2894 83.3084 64.1355C83.5199 65.4046 83.7313 66.568 84.0485 67.8372C85.2114 68.0487 86.4801 68.366 87.7487 68.5775C87.2201 66.568 86.903 64.6643 86.5858 62.6548Z" fill="white"/>
<path d="M88.4878 62.6548H85.4219C85.739 64.5585 86.1619 66.4623 86.7962 68.366C87.7477 68.5775 88.6992 68.6833 89.7564 68.7891C89.2278 67.0969 88.6992 64.1355 88.4878 62.6548Z" fill="url(#paint7_linear_10079_21473034)"/>
</g>
<path d="M111.532 65.5102C111.532 65.5102 87.745 64.4526 85.5248 64.4526C83.3047 64.4526 83.3047 62.5488 83.3047 62.5488L111.532 62.7604V65.5102Z" fill="#42AB44"/>
<path d="M104.451 60.539L114.177 69.2116C114.494 69.5289 115.023 69.6347 115.446 69.6347C125.595 68.4713 142.933 68.2597 142.933 63.6062C142.933 58.6353 121.049 57.6834 105.614 57.5776C104.134 57.5776 103.288 59.4814 104.451 60.539Z" fill="url(#paint8_linear_10079_21473034)"/>
<path d="M104.451 60.539L114.177 69.2116C114.494 69.5289 115.023 69.6347 115.446 69.6347C125.595 68.4713 142.933 68.2597 142.933 63.6062C142.933 58.6353 121.049 57.6834 105.614 57.5776C104.134 57.5776 103.288 59.4814 104.451 60.539Z" fill="url(#paint9_linear_10079_21473034)"/>
<path d="M130.566 23.7332C106.778 22.2526 86.6915 39.2805 83.3084 61.9139C83.2027 62.76 83.837 63.5003 84.6828 63.5003H88.383C91.026 43.1937 108.999 27.6465 130.249 29.0214C149.49 30.2906 165.242 45.6263 167.04 64.7695C168.731 82.7493 158.159 98.6138 142.829 105.065V110.777C160.908 104.219 173.594 86.451 172.431 65.8271C171.268 43.4052 153.084 25.1082 130.566 23.7332Z" fill="#B5E2FF"/>
<path d="M130.566 23.7332C106.778 22.2526 86.6915 39.2805 83.3084 61.9139C83.2027 62.76 83.837 63.5003 84.6828 63.5003H88.383C91.026 43.1937 108.999 27.6465 130.249 29.0214C149.49 30.2906 165.242 45.6263 167.04 64.7695C168.731 82.7493 158.159 98.6138 142.829 105.065V110.777C160.908 104.219 173.594 86.451 172.431 65.8271C171.268 43.4052 153.084 25.1082 130.566 23.7332Z" fill="url(#paint10_linear_10079_21473034)"/>
<path d="M142.938 110.354V110.777C146.743 109.402 150.338 107.498 153.615 105.171C150.338 107.392 146.743 109.085 142.938 110.354Z" fill="#E8E8E8"/>
<path d="M127.711 23.6279C105.087 23.6279 86.4801 40.3386 83.3084 62.0201C83.2027 62.7604 83.837 63.5008 84.5771 63.5008H86.5858C89.2288 42.0308 107.624 25.4259 129.72 25.4259C143.887 25.4259 156.573 32.3005 164.502 42.7711C156.362 31.2429 142.935 23.6279 127.711 23.6279Z" fill="url(#paint11_linear_10079_21473034)"/>
<path d="M127.711 23.6279C105.087 23.6279 86.4801 40.3386 83.3084 62.0201C83.2027 62.7604 83.837 63.5008 84.5771 63.5008H86.5858C89.2288 42.0308 107.624 25.4259 129.72 25.4259C143.887 25.4259 156.573 32.3005 164.502 42.7711C156.362 31.2429 142.935 23.6279 127.711 23.6279Z" fill="url(#paint12_linear_10079_21473034)" fill-opacity="0.5"/>
<path d="M127.71 28.916C136.379 28.916 144.414 31.6659 150.863 36.4252C143.991 31.0313 135.322 27.8584 125.807 27.8584C105.615 27.8584 88.5935 44.146 85.4219 63.5007H88.4878C88.8049 61.8085 89.3336 58.5298 89.8622 56.9434C94.8311 40.7615 109.949 28.916 127.71 28.916Z" fill="#42AB44"/>
<path d="M156.568 95.6523C152.762 99.6714 148.11 102.95 142.93 105.065V105.806C148.216 103.373 152.762 99.8829 156.568 95.6523Z" fill="#42AB44"/>
<path d="M171.165 64.9814C171.059 68.1544 170.531 71.2215 169.791 74.1829C167.571 87.086 159.747 98.1912 148.858 104.643C146.955 105.806 145.052 106.97 142.938 107.816V110.777C156.576 105.806 167.148 94.4895 170.954 80.4229C171.482 77.7788 171.694 75.029 171.694 72.2791C171.799 69.7408 171.588 67.3082 171.165 64.9814Z" fill="#42AB44"/>
<path d="M164.399 86.8745C160.593 93.0088 155.307 98.1912 149.069 101.787C147.166 103.056 145.052 104.114 142.938 105.066V106.652C144.735 105.912 146.532 104.854 148.329 103.691C155.307 99.6719 160.699 93.7491 164.399 86.8745Z" fill="url(#paint13_linear_10079_21473034)"/>
<path d="M142.938 110.777V107.816C145.052 106.97 146.955 105.912 148.858 104.643C159.747 98.1914 167.571 87.192 169.791 74.1831C168.628 78.7309 166.725 82.9615 164.293 86.8747C160.699 93.7494 155.201 99.6721 148.329 103.691C146.532 104.855 144.735 105.806 142.938 106.653V110.777Z" fill="white"/>
<path d="M113.328 29.0221C119.883 26.1665 127.389 25.2147 134.578 26.1665C138.173 26.6953 141.767 27.753 145.15 29.1279C148.533 30.6086 151.705 32.5123 154.559 34.8391C155.299 35.3679 155.934 36.0025 156.674 36.6371L157.731 37.589C158.048 37.9063 158.365 38.2236 158.682 38.5409C159.317 39.1754 159.951 39.9158 160.585 40.5504L162.277 42.6656C162.911 43.406 163.334 44.1463 163.863 44.9924C164.391 45.7328 164.92 46.4731 165.237 47.3192L166.506 49.7518L167.563 52.2901C168.832 55.6745 169.783 59.2705 170.1 62.8665C170.312 64.6644 170.312 66.4624 170.312 68.2604C170.206 70.0584 170.1 71.8564 169.677 73.6543C169.889 70.0584 169.783 66.4624 169.043 62.9722C168.515 59.482 167.457 56.0976 166.083 52.8189C163.229 46.3674 158.894 40.6561 153.396 36.3198C150.648 34.0988 147.687 32.3008 144.516 30.8201C141.344 29.3394 137.961 28.3876 134.472 27.6472C127.389 26.5896 120.2 27.0126 113.328 29.0221Z" fill="#42AB44"/>
<path d="M20.4028 51.8671L76.7521 108.451L77.2808 106.018C77.2808 104.22 77.175 101.893 76.9636 100.095L23.363 50.7037C23.363 50.7037 17.2312 48.4827 20.4028 51.8671Z" fill="#42AB44"/>
<path d="M22.4141 56.52L27.0658 51.4434L32.0347 55.7797C32.0347 58.1065 29.7088 60.6448 26.6429 60.8563L22.4141 56.52Z" fill="#BFE7FF"/>
<path d="M27.1719 52.501L31.5064 56.2027C31.5064 56.2027 31.1893 57.3661 30.8721 57.6834C30.5549 58.0007 27.1719 52.501 27.1719 52.501Z" fill="white"/>
<path d="M27.5944 51.8664L27.0658 51.4434L22.4141 56.52L26.6429 60.8563C32.2087 60.3972 27.7001 53.2413 27.5944 51.8664Z" fill="#42AB44"/>
<path d="M30.8704 36.0021C29.1789 34.3099 22.0956 38.752 14.9066 45.9439C7.71752 53.1358 3.27724 60.222 4.96878 61.9142C6.66031 63.6064 17.2324 62.5488 24.3157 55.3568C31.3991 48.1649 32.562 37.5886 30.8704 36.0021Z" fill="#C9EBFE"/>
<path d="M26.1103 53.3471C32.8765 38.4344 30.022 35.7903 29.8106 35.6846L13.8467 48.0589L5.70614 57.6834C4.64893 59.6929 4.33176 61.2793 4.96609 61.9139C6.65763 63.6061 17.2297 62.5485 24.3131 55.3566C25.0531 54.722 25.5817 53.9817 26.1103 53.3471Z" fill="#42AB44"/>
<path d="M19.5338 50.5059C26.6688 43.3531 31.1155 36.2138 29.4658 34.56C27.8161 32.9061 20.6947 37.364 13.5597 44.5168C6.42468 51.6697 1.97798 58.809 3.62769 60.4628C5.27739 62.1167 12.3988 57.6588 19.5338 50.5059Z" fill="#333AB3"/>
<path d="M18.8932 49.8809C26.0281 42.7281 30.4748 35.5888 28.8251 33.935C27.1754 32.2811 20.054 36.739 12.919 43.8918C5.78405 51.0447 1.33735 58.184 2.98706 59.8378C4.63677 61.4917 11.7582 57.0338 18.8932 49.8809Z" fill="url(#paint14_linear_10079_21473034)"/>
<path d="M18.8932 49.8809C26.0281 42.7281 30.4748 35.5888 28.8251 33.935C27.1754 32.2811 20.054 36.739 12.919 43.8918C5.78405 51.0447 1.33735 58.184 2.98706 59.8378C4.63677 61.4917 11.7582 57.0338 18.8932 49.8809Z" fill="url(#paint15_linear_10079_21473034)" fill-opacity="0.5"/>
<path d="M18.302 49.2836C24.5709 42.999 28.583 36.8317 27.2632 35.5086C25.9434 34.1856 19.7916 38.2077 13.5227 44.4923C7.25382 50.7769 3.24176 56.9441 4.56152 58.2672C5.88129 59.5903 12.0331 55.5682 18.302 49.2836Z" fill="url(#paint16_linear_10079_21473034)"/>
<path d="M18.302 49.2836C24.5709 42.999 28.583 36.8317 27.2632 35.5086C25.9434 34.1856 19.7916 38.2077 13.5227 44.4923C7.25382 50.7769 3.24176 56.9441 4.56152 58.2672C5.88129 59.5903 12.0331 55.5682 18.302 49.2836Z" fill="url(#paint17_linear_10079_21473034)" fill-opacity="0.5"/>
<path d="M16.9439 48.0115C22.1817 42.7605 25.8929 37.9675 25.233 37.306C24.5731 36.6444 19.7921 40.3649 14.5542 45.6158C9.31641 50.8668 5.60525 55.6598 6.26514 56.3214C6.92502 56.9829 11.7061 53.2624 16.9439 48.0115Z" fill="url(#paint18_linear_10079_21473034)"/>
<path d="M16.9439 48.0115C22.1817 42.7605 25.8929 37.9675 25.233 37.306C24.5731 36.6444 19.7921 40.3649 14.5542 45.6158C9.31641 50.8668 5.60525 55.6598 6.26514 56.3214C6.92502 56.9829 11.7061 53.2624 16.9439 48.0115Z" fill="url(#paint19_linear_10079_21473034)" fill-opacity="0.5"/>
<path d="M16.1214 47.193C18.5548 44.7536 20.3602 42.6085 20.154 42.4017C19.9477 42.195 17.808 44.005 15.3747 46.4444C12.9413 48.8838 11.1359 51.0289 11.3421 51.2356C11.5483 51.4424 13.6881 49.6324 16.1214 47.193Z" fill="url(#paint20_linear_10079_21473034)"/>
<path d="M16.1214 47.193C18.5548 44.7536 20.3602 42.6085 20.154 42.4017C19.9477 42.195 17.808 44.005 15.3747 46.4444C12.9413 48.8838 11.1359 51.0289 11.3421 51.2356C11.5483 51.4424 13.6881 49.6324 16.1214 47.193Z" fill="url(#paint21_linear_10079_21473034)" fill-opacity="0.5"/>
<path d="M6.02433 58.7413C5.91861 58.7413 5.81288 58.6355 5.70716 58.5298C5.70716 58.424 5.81288 58.2125 5.91861 58.2125C6.13005 58.2125 6.23577 58.1067 6.44721 58.001C6.55293 58.001 6.76437 58.001 6.8701 58.2125C6.8701 58.3182 6.76437 58.5298 6.65865 58.5298C6.44721 58.6355 6.23577 58.7413 6.02433 58.7413ZM4.33279 57.7894C4.12135 57.7894 4.01562 57.6837 4.01562 57.4721C4.01562 57.2606 4.01563 57.0491 4.12135 56.8376C4.12135 56.7318 4.33279 56.626 4.43851 56.626C4.54423 56.626 4.64995 56.8376 4.64995 56.9433C4.64995 57.1548 4.54423 57.2606 4.54423 57.4721C4.64995 57.6837 4.54423 57.7894 4.33279 57.7894ZM8.66735 57.5779C8.56163 57.5779 8.45591 57.5779 8.45591 57.4721C8.35019 57.3664 8.45591 57.1548 8.56163 57.0491C8.77308 56.9433 8.8788 56.8376 9.09024 56.7318C9.19596 56.626 9.4074 56.7318 9.51312 56.8376C9.61884 56.9433 9.51312 57.1548 9.4074 57.2606C9.09024 57.2606 8.98452 57.3664 8.77308 57.4721C8.77308 57.5779 8.66735 57.5779 8.66735 57.5779ZM11.0989 55.8857C10.9932 55.8857 10.8875 55.8857 10.8875 55.7799C10.7818 55.6742 10.7818 55.4626 10.9932 55.3569C11.0989 55.2511 11.3104 55.1453 11.4161 55.0396C11.5218 54.9338 11.7333 54.9338 11.839 55.1453C11.9447 55.2511 11.9447 55.4626 11.7333 55.5684C11.5218 55.6742 11.4161 55.7799 11.2047 55.8857C11.2047 55.8857 11.2047 55.8857 11.0989 55.8857ZM5.39 55.0396H5.28428C5.17856 54.9338 5.07284 54.828 5.17856 54.6165C5.28428 54.405 5.39 54.2992 5.49572 54.0877C5.60144 53.9819 5.70716 53.8762 5.91861 53.9819C6.02433 54.0877 6.13005 54.1935 6.02433 54.405C5.91861 54.6165 5.81288 54.7223 5.70716 54.9338C5.60144 54.9338 5.49572 55.0396 5.39 55.0396ZM13.4248 54.0877C13.3191 54.0877 13.2134 54.0877 13.2134 53.9819C13.1076 53.8762 13.1076 53.6647 13.2134 53.5589L13.6362 53.1358C13.742 53.0301 13.9534 53.0301 14.0591 53.1358C14.1649 53.2416 14.1649 53.4531 14.0591 53.5589L13.6362 53.9819C13.5305 54.0877 13.5305 54.0877 13.4248 54.0877ZM6.97582 52.5013C6.8701 52.5013 6.8701 52.5013 6.76437 52.3955C6.65865 52.2897 6.55293 52.0782 6.65865 51.9724C6.76437 51.8667 6.8701 51.6551 6.97582 51.4436C7.08154 51.3379 7.29298 51.3379 7.3987 51.3379C7.50442 51.4436 7.61014 51.6551 7.50442 51.7609C7.3987 51.9724 7.29298 52.0782 7.18726 52.184C7.08154 52.5013 6.97582 52.5013 6.97582 52.5013ZM15.6449 52.184C15.5392 52.184 15.4335 52.184 15.4335 52.0782C15.3278 51.9724 15.3278 51.7609 15.4335 51.6551L15.8564 51.2321C15.9621 51.1263 16.1736 51.1263 16.2793 51.2321C16.385 51.3379 16.385 51.5494 16.2793 51.6551L15.8564 52.0782C15.7507 52.184 15.7507 52.184 15.6449 52.184ZM8.66735 50.1745C8.56163 50.1745 8.56163 50.1745 8.45591 50.0687C8.35019 49.9629 8.35019 49.7514 8.45591 49.6456C8.56163 49.5399 8.66736 49.3284 8.8788 49.2226C8.98452 49.1168 9.19596 49.1168 9.30168 49.2226C9.4074 49.3284 9.4074 49.5399 9.30168 49.6456C9.19596 49.7514 9.09024 49.9629 8.98452 50.0687C8.8788 50.1745 8.77308 50.1745 8.66735 50.1745ZM17.7594 50.1745C17.6537 50.1745 17.6537 50.1745 17.5479 50.0687C17.4422 49.9629 17.4422 49.7514 17.5479 49.6456L17.9708 49.2226C18.0765 49.1168 18.288 49.1168 18.3937 49.2226C18.4994 49.3284 18.4994 49.5399 18.3937 49.6456L17.9708 50.0687C17.9708 50.1745 17.8651 50.1745 17.7594 50.1745ZM19.8738 48.0592C19.7681 48.0592 19.7681 48.0592 19.6624 47.9534C19.5566 47.8477 19.5566 47.6361 19.6624 47.5304L20.0852 47.1073C20.191 47.0016 20.4024 47.0016 20.5081 47.1073C20.6138 47.2131 20.6138 47.4246 20.5081 47.5304L20.0852 47.9534C19.9795 48.0592 19.9795 48.0592 19.8738 48.0592ZM10.6761 47.9534C10.5703 47.9534 10.5703 47.9534 10.4646 47.8477C10.3589 47.7419 10.3589 47.5304 10.4646 47.4246L10.8875 47.0016C10.8875 46.8958 11.0989 46.8958 11.2047 47.0016C11.3104 47.1073 11.3104 47.3188 11.2047 47.4246L10.7818 47.8477C10.7818 47.9534 10.6761 47.9534 10.6761 47.9534ZM21.8825 45.8382C21.7768 45.8382 21.6711 45.8382 21.6711 45.8382C21.5653 45.7324 21.5653 45.5209 21.6711 45.4151L22.0939 44.992C22.1997 44.8863 22.4111 44.8863 22.5168 44.992C22.6225 45.0978 22.6225 45.3093 22.5168 45.4151L22.0939 45.8382C21.9882 45.8382 21.8825 45.8382 21.8825 45.8382ZM12.579 45.8382C12.4733 45.8382 12.4733 45.8382 12.3676 45.7324C12.2619 45.6266 12.2619 45.4151 12.3676 45.3093L12.7905 44.8863C12.8962 44.7805 13.1076 44.7805 13.2134 44.8863C13.3191 44.992 13.3191 45.2036 13.2134 45.3093L12.7905 45.7324C12.7905 45.7324 12.6848 45.8382 12.579 45.8382ZM14.6935 43.7229C14.5877 43.7229 14.5877 43.7229 14.482 43.6171C14.3763 43.5114 14.3763 43.2998 14.482 43.1941L14.9049 42.771C15.0106 42.6653 15.2221 42.6653 15.3278 42.771C15.4335 42.8768 15.4335 43.0883 15.3278 43.1941L14.9049 43.6171C14.9049 43.7229 14.7992 43.7229 14.6935 43.7229ZM23.6798 43.6171C23.574 43.6171 23.574 43.6171 23.4683 43.5114C23.3626 43.4056 23.3626 43.1941 23.4683 43.0883C23.574 42.9825 23.6798 42.771 23.7855 42.6653C23.8912 42.5595 24.1026 42.5595 24.2084 42.5595C24.3141 42.6652 24.3141 42.8768 24.3141 42.9825C24.2084 43.0883 24.1026 43.2998 23.9969 43.4056C23.8912 43.5114 23.7855 43.6171 23.6798 43.6171ZM16.9136 41.7134C16.8079 41.7134 16.7022 41.7134 16.7022 41.6076C16.5964 41.5019 16.5964 41.2903 16.7022 41.1846L17.125 40.7615C17.2308 40.6557 17.4422 40.6557 17.5479 40.7615C17.6537 40.8673 17.6537 41.0788 17.5479 41.1846L17.125 41.6076C17.0193 41.7134 16.9136 41.7134 16.9136 41.7134ZM25.477 41.1846C25.3713 41.1846 25.3713 41.1846 25.2656 41.1846C25.1599 41.0788 25.0541 40.8673 25.1599 40.7615C25.2656 40.55 25.3713 40.4442 25.477 40.2327C25.5827 40.1269 25.7942 40.0212 25.8999 40.1269C26.0056 40.2327 26.1113 40.4442 26.0056 40.55C25.8999 40.7615 25.7942 40.8673 25.6885 41.0788C25.6885 41.1846 25.5827 41.1846 25.477 41.1846ZM19.1337 39.8096C19.028 39.8096 18.9223 39.8096 18.9223 39.7039C18.8166 39.5981 18.8166 39.3866 18.9223 39.2808L19.3452 38.9635C19.4509 38.8578 19.6624 38.8578 19.7681 38.9635C19.8738 39.0693 19.8738 39.2808 19.7681 39.3866L19.3452 39.7039C19.2395 39.8096 19.2395 39.8096 19.1337 39.8096ZM26.9571 38.6462H26.8514C26.7457 38.5405 26.6399 38.4347 26.7457 38.2232C26.8514 38.0117 26.9571 37.9059 26.9571 37.6944C27.0628 37.5886 27.1686 37.4828 27.38 37.4828C27.4857 37.5886 27.5914 37.6944 27.5914 37.9059C27.4857 38.1174 27.4857 38.2232 27.38 38.4347C27.1686 38.6462 27.0628 38.6462 26.9571 38.6462ZM21.4596 38.0117C21.3539 38.0117 21.2482 38.0117 21.2482 37.9059C21.1424 37.8001 21.1424 37.5886 21.3539 37.4828C21.5653 37.3771 21.6711 37.2713 21.8825 37.1656C21.9882 37.0598 22.1997 37.0598 22.3054 37.2713C22.4111 37.3771 22.4111 37.5886 22.1997 37.6944C22.0939 37.8001 21.8825 37.9059 21.6711 38.0117C21.5653 38.0117 21.5653 38.0117 21.4596 38.0117ZM23.9969 36.531C23.8912 36.531 23.7855 36.4252 23.7855 36.4252C23.6798 36.3194 23.7855 36.1079 23.8912 36.0022C24.1026 35.8964 24.2084 35.7906 24.4198 35.6849C24.5255 35.5791 24.737 35.6849 24.8427 35.7906C24.9484 35.8964 24.8427 36.1079 24.737 36.2137C24.5255 36.3194 24.4198 36.4252 24.2084 36.4252C24.1026 36.531 23.9969 36.531 23.9969 36.531ZM27.0628 35.7906L27.2743 35.5791L27.0628 35.7906C26.9571 35.6849 26.8514 35.6849 26.6399 35.5791C26.4285 35.5791 26.3228 35.3676 26.4285 35.2618C26.4285 35.0503 26.6399 34.9445 26.7457 35.0503C27.0628 35.0503 27.2743 35.156 27.4857 35.3676L27.0628 35.7906Z" fill="url(#paint22_linear_10079_21473034)"/>
<path d="M7.61348 56.2029C7.50776 56.2029 7.40204 56.2029 7.40204 56.0972C7.29631 55.9914 7.40204 55.7799 7.50776 55.6741C7.61348 55.5683 7.82492 55.4626 8.03636 55.3568C8.14208 55.2511 8.35353 55.3568 8.45925 55.4626C8.56497 55.5683 8.45925 55.7799 8.35353 55.8856C8.14208 55.9914 8.03636 56.0972 7.82492 56.2029C7.7192 56.2029 7.7192 56.2029 7.61348 56.2029ZM6.45055 55.7799H6.34482C6.2391 55.6741 6.13338 55.5683 6.2391 55.3568C6.34482 55.1453 6.45055 55.0395 6.55627 54.828C6.66199 54.7222 6.76771 54.6165 6.97915 54.7222C7.08487 54.828 7.19059 54.9338 7.08487 55.1453C6.97915 55.3568 6.87343 55.4626 6.87343 55.6741C6.66199 55.6741 6.55627 55.7799 6.45055 55.7799ZM10.0451 54.6165C9.93934 54.6165 9.83362 54.6165 9.83362 54.5107C9.7279 54.4049 9.7279 54.1934 9.83362 54.0877L10.2565 53.7704C10.3622 53.6646 10.5737 53.6646 10.6794 53.7704C10.7851 53.8761 10.7851 54.0877 10.6794 54.1934L10.2565 54.5107C10.1508 54.5107 10.0451 54.6165 10.0451 54.6165ZM7.93064 53.3473C7.82492 53.3473 7.82492 53.3473 7.7192 53.2415C7.61348 53.1358 7.61348 52.9243 7.61348 52.8185C7.7192 52.7127 7.82492 52.5012 7.93064 52.3954C8.03636 52.2897 8.24781 52.2897 8.35353 52.3954C8.45925 52.5012 8.45925 52.7127 8.35353 52.8185C8.24781 52.9243 8.14208 53.1358 8.03636 53.2415C8.14208 53.2415 8.03636 53.3473 7.93064 53.3473ZM12.2652 52.7127C12.1595 52.7127 12.0538 52.7127 12.0538 52.607C11.948 52.5012 11.948 52.2897 12.0538 52.1839L12.4767 51.7609C12.5824 51.6551 12.7938 51.6551 12.8995 51.7609C13.0053 51.8666 13.0053 52.0781 12.8995 52.1839L12.4767 52.607C12.3709 52.7127 12.2652 52.7127 12.2652 52.7127ZM9.83362 51.1263C9.7279 51.1263 9.7279 51.1263 9.62218 51.0205C9.51646 50.9147 9.51646 50.7032 9.62218 50.5975L10.0451 50.1744C10.0451 50.0686 10.2565 50.0686 10.3622 50.1744C10.4679 50.2802 10.4679 50.4917 10.3622 50.5975L10.0451 51.0205C9.93934 51.0205 9.83362 51.1263 9.83362 51.1263ZM14.3796 50.809C14.2739 50.809 14.2739 50.809 14.1682 50.7032C14.0625 50.5975 14.0625 50.3859 14.1682 50.2802L14.5911 49.8571C14.6968 49.7513 14.9082 49.7513 15.014 49.8571C15.1197 49.9629 15.1197 50.1744 15.014 50.2802L14.5911 50.7032C14.4854 50.809 14.4854 50.809 14.3796 50.809ZM11.7366 48.9052C11.6309 48.9052 11.6309 48.9052 11.5252 48.7995C11.4194 48.6937 11.4194 48.4822 11.5252 48.3764L11.948 47.9534C12.0538 47.8476 12.2652 47.8476 12.3709 47.9534C12.4766 48.0591 12.4766 48.2707 12.3709 48.3764L11.948 48.7995C11.8423 48.9052 11.8423 48.9052 11.7366 48.9052ZM16.4941 48.7995C16.3883 48.7995 16.3883 48.7995 16.2826 48.6937C16.1769 48.588 16.1769 48.3764 16.2826 48.2707L16.7055 47.8476C16.8112 47.7418 17.0227 47.7418 17.1284 47.8476C17.2341 47.9534 17.2341 48.1649 17.1284 48.2707L16.7055 48.6937C16.5998 48.7995 16.4941 48.7995 16.4941 48.7995ZM13.7453 46.79C13.6396 46.79 13.6396 46.79 13.5339 46.6842C13.4281 46.5784 13.4281 46.3669 13.5339 46.2612L13.9567 45.8381C14.0625 45.7323 14.2739 45.7323 14.3796 45.8381C14.4854 45.9439 14.4854 46.1554 14.3796 46.2612L13.9567 46.6842C13.851 46.79 13.7453 46.79 13.7453 46.79ZM18.5028 46.6842C18.397 46.6842 18.397 46.6842 18.2913 46.5784C18.1856 46.4727 18.1856 46.2612 18.2913 46.1554L18.7142 45.7323C18.8199 45.6266 19.0314 45.6266 19.1371 45.7323C19.2428 45.8381 19.2428 46.0496 19.1371 46.1554L18.7142 46.5784C18.6085 46.6842 18.6085 46.6842 18.5028 46.6842ZM15.754 44.7805C15.6483 44.7805 15.6483 44.7805 15.5426 44.6747C15.4368 44.5689 15.4368 44.3574 15.5426 44.2516L15.9654 43.8286C16.0712 43.7228 16.2826 43.7228 16.3883 43.8286C16.4941 43.9344 16.4941 44.1459 16.3883 44.2516L15.9654 44.6747C15.8597 44.7805 15.8597 44.7805 15.754 44.7805ZM20.5115 44.5689C20.4057 44.5689 20.4057 44.5689 20.3 44.4632C20.1943 44.3574 20.1943 44.1459 20.3 44.0401L20.6172 43.7228C20.7229 43.6171 20.9343 43.6171 21.0401 43.7228C21.1458 43.8286 21.1458 44.0401 21.0401 44.1459L20.6172 44.5689H20.5115ZM17.8684 42.771C17.7627 42.771 17.657 42.771 17.657 42.6652C17.5513 42.5594 17.5513 42.3479 17.657 42.2421L18.0799 41.8191C18.1856 41.7133 18.397 41.7133 18.5028 41.8191C18.6085 41.9248 18.6085 42.1364 18.5028 42.2421L18.0799 42.6652C17.9741 42.771 17.8684 42.771 17.8684 42.771ZM22.3087 42.4537C22.203 42.4537 22.203 42.4537 22.0973 42.3479C21.9916 42.2421 21.9916 42.0306 22.0973 41.9248C22.203 41.8191 22.3087 41.6076 22.4144 41.5018C22.5202 41.396 22.7316 41.396 22.8373 41.5018C22.943 41.6076 22.943 41.8191 22.8373 41.9248C22.7316 42.0306 22.6259 42.2421 22.5202 42.3479C22.5202 42.4537 22.4144 42.4537 22.3087 42.4537ZM19.9829 40.8672C19.8771 40.8672 19.7714 40.8672 19.7714 40.7615C19.6657 40.6557 19.6657 40.4442 19.7714 40.3384L20.1943 39.9153C20.3 39.8096 20.5115 39.8096 20.6172 39.9153C20.7229 40.0211 20.7229 40.2326 20.6172 40.3384L20.1943 40.6557C20.1943 40.8672 20.0886 40.8672 19.9829 40.8672ZM24.106 40.1269C24.0003 40.1269 24.0003 40.1269 23.8945 40.0211C23.7888 39.9153 23.6831 39.7038 23.7888 39.5981C23.8945 39.3865 24.0003 39.2808 24.106 39.175C24.2117 39.0692 24.4231 38.9635 24.5289 39.0692C24.6346 39.175 24.7403 39.3865 24.6346 39.4923C24.5289 39.5981 24.4231 39.8096 24.3174 40.0211C24.3174 40.1269 24.2117 40.1269 24.106 40.1269ZM22.3087 39.0692C22.203 39.0692 22.0973 39.0692 22.0973 38.9635C21.9916 38.8577 21.9916 38.6462 22.203 38.5404C22.4144 38.4347 22.5202 38.3289 22.6259 38.2231C22.7316 38.1174 22.943 38.1174 23.0488 38.3289C23.1545 38.4347 23.1545 38.6462 22.943 38.7519C22.8373 38.8577 22.6259 38.9635 22.5202 39.0692C22.4144 39.0692 22.3087 39.0692 22.3087 39.0692ZM25.2689 37.5885C25.1632 37.5885 25.1632 37.5885 25.0575 37.4828C24.9517 37.4828 24.9517 37.4828 24.7403 37.4828C24.6346 37.4828 24.4231 37.4828 24.4231 37.2713C24.4231 37.1655 24.4231 36.954 24.6346 36.954C25.0575 36.8482 25.3746 36.954 25.4803 37.0597C25.5861 37.1655 25.5861 37.377 25.4803 37.4828C25.4803 37.5885 25.3746 37.5885 25.2689 37.5885Z" fill="url(#paint23_linear_10079_21473034)"/>
<path d="M12.5817 50.8084C12.476 50.8084 12.3703 50.8084 12.3703 50.7026C12.2646 50.5968 12.2646 50.3853 12.3703 50.2795C12.476 50.1738 12.6874 50.068 12.7932 49.9622C12.8989 49.8565 13.1103 49.8565 13.2161 49.9622C13.3218 50.068 13.3218 50.2795 13.2161 50.3853C13.1103 50.4911 12.8989 50.5968 12.7932 50.7026C12.6874 50.8084 12.6874 50.8084 12.5817 50.8084ZM11.736 50.7026C11.6302 50.7026 11.6302 50.7026 11.5245 50.5968C11.4188 50.4911 11.3131 50.2795 11.4188 50.1738C11.5245 50.068 11.6302 49.8565 11.736 49.7507C11.8417 49.645 12.0531 49.645 12.1588 49.7507C12.2646 49.8565 12.2646 50.068 12.1588 50.1738C12.0531 50.2795 11.9474 50.4911 11.8417 50.5968C11.9474 50.7026 11.8417 50.7026 11.736 50.7026ZM14.6961 48.9046C14.5904 48.9046 14.5904 48.9046 14.4847 48.7988C14.379 48.6931 14.379 48.4816 14.4847 48.3758C14.5904 48.27 14.8019 48.1643 14.9076 47.9527C15.0133 47.847 15.2248 47.847 15.3305 47.9527C15.4362 48.0585 15.4362 48.27 15.3305 48.3758C15.2248 48.4816 15.0133 48.5873 14.9076 48.7988C14.8019 48.9046 14.8019 48.9046 14.6961 48.9046ZM13.5332 48.5873C13.4275 48.5873 13.4275 48.5873 13.3218 48.4816C13.2161 48.3758 13.2161 48.1643 13.3218 48.0585L13.7447 47.6354C13.8504 47.5297 14.0618 47.5297 14.1675 47.6354C14.2733 47.7412 14.2733 47.9527 14.1675 48.0585L13.7447 48.4816C13.7447 48.5873 13.6389 48.5873 13.5332 48.5873ZM16.7048 47.0009C16.5991 47.0009 16.5991 47.0009 16.4934 46.8951C16.3877 46.7893 16.3877 46.5778 16.4934 46.472L16.9163 46.049C17.022 45.9432 17.2335 45.9432 17.3392 46.049C17.4449 46.1548 17.4449 46.3663 17.3392 46.472L16.9163 46.8951C16.8106 47.0009 16.7048 47.0009 16.7048 47.0009ZM15.5419 46.5778C15.4362 46.5778 15.4362 46.5778 15.3305 46.472C15.2248 46.3663 15.2248 46.1548 15.3305 46.049L15.7534 45.6259C15.8591 45.5202 16.0705 45.5202 16.1762 45.6259C16.282 45.7317 16.282 45.9432 16.1762 46.049L15.7534 46.472C15.6476 46.5778 15.5419 46.5778 15.5419 46.5778ZM18.6078 44.9914C18.5021 44.9914 18.5021 44.9914 18.3964 44.8856C18.2907 44.7798 18.2907 44.5683 18.3964 44.4625C18.5021 44.3568 18.6078 44.1452 18.7135 44.0395C18.8193 43.9337 19.0307 43.9337 19.1364 44.0395C19.2422 44.1452 19.2422 44.3568 19.1364 44.4625C19.0307 44.5683 18.925 44.7798 18.8193 44.8856C18.7135 44.8856 18.6078 44.9914 18.6078 44.9914ZM17.5506 44.6741C17.4449 44.6741 17.3392 44.6741 17.3392 44.5683C17.2335 44.4625 17.2335 44.251 17.3392 44.1452C17.4449 44.0395 17.6563 43.9337 17.7621 43.7222C17.8678 43.6164 18.0792 43.6164 18.1849 43.7222C18.2907 43.828 18.2907 44.0395 18.1849 44.1452C18.0792 44.251 17.8678 44.3568 17.7621 44.4625C17.6563 44.6741 17.5506 44.6741 17.5506 44.6741ZM19.665 42.8761C19.5593 42.8761 19.4536 42.8761 19.4536 42.7703C19.3479 42.6646 19.4536 42.453 19.5593 42.3473C19.8765 42.1357 19.9822 42.1357 20.1936 42.1357H20.2994L20.4051 42.2415C20.5108 42.3473 20.5108 42.5588 20.2994 42.6646C20.1936 42.6646 20.1936 42.7703 20.0879 42.7703C20.0879 42.7703 19.9822 42.7703 19.7708 42.8761C19.7708 42.8761 19.7708 42.8761 19.665 42.8761Z" fill="url(#paint24_linear_10079_21473034)"/>
<path d="M3.59375 60.5392C4.22808 61.068 5.17957 60.7507 5.91961 60.5392C6.65966 60.2219 7.39971 59.9046 8.03404 59.4816C9.40841 58.6355 10.6771 57.6836 11.9457 56.7317C14.483 54.7222 16.8089 52.5012 19.1348 50.2801C21.4606 47.9534 23.575 45.6266 25.5837 43.0882C26.641 41.8191 27.4867 40.5499 28.3325 39.175C28.7554 38.5404 29.1783 37.8001 29.3897 37.0597C29.4954 36.6367 29.6012 36.3194 29.7069 35.8963C29.7069 35.4733 29.7069 35.0502 29.4954 34.7329C29.8126 35.0502 29.9183 35.4733 29.9183 35.8963C29.9183 36.3194 29.8126 36.7424 29.7069 37.1655C29.4954 38.0116 29.1783 38.7519 28.8611 39.4923C28.1211 40.973 27.2753 42.3479 26.3238 43.7228C24.4208 46.3669 22.3064 48.9052 19.9805 51.232C17.6547 53.5588 15.2231 55.6741 12.4743 57.5778C11.1 58.5297 9.72558 59.3758 8.24548 60.1162C7.50543 60.4334 6.76538 60.7507 5.91961 60.9623C5.49673 61.068 5.07385 61.1738 4.65096 61.1738C4.3338 60.9623 3.91091 60.8565 3.59375 60.5392Z" fill="white"/>
<path d="M76.4368 111.623C82.9916 110.989 82.5687 83.9132 82.5687 69.1063L80.2428 67.9429C80.2428 67.9429 79.8199 97.8739 77.0712 100.201C74.3224 102.528 75.9082 104.22 75.9082 104.22L76.4368 111.623Z" fill="#42AB44"/>
<path d="M141.665 128.969C141.031 129.392 140.397 129.709 139.657 129.92C138.282 130.449 136.908 130.767 135.428 131.084C132.573 131.718 129.719 132.141 126.759 132.459C120.944 133.093 115.129 133.305 109.315 133.305C103.5 133.305 97.6853 133.093 91.8706 132.459C89.0162 132.141 86.056 131.718 83.2015 131.084C81.8271 130.767 80.347 130.449 78.9727 129.92C78.3383 129.709 77.5983 129.392 76.964 128.969C76.3296 128.546 75.801 128.017 75.6953 127.276C75.6953 128.017 76.3296 128.651 76.8582 129.074C77.4926 129.497 78.1269 129.815 78.7612 130.132C80.1356 130.661 81.51 131.084 82.9901 131.507C85.8445 132.247 88.699 132.67 91.6592 133.093C93.0336 133.305 94.5137 133.411 95.888 133.516C96.5224 133.516 96.6281 133.939 96.6281 134.257C96.6281 134.574 96.7338 134.786 97.4739 134.891C101.28 135.209 105.192 135.314 109.103 135.314C120.733 135.314 132.89 134.151 139.022 131.824V130.449C139.128 130.344 139.339 130.344 139.445 130.238C140.502 129.815 141.137 129.497 141.665 128.969C142.3 128.651 142.934 128.017 142.934 127.276C142.934 128.017 142.3 128.546 141.665 128.969Z" fill="#42AB44"/>
<path d="M76.4348 96.7108L23.5742 50.4922L20.2969 53.1363L76.2234 113.316L76.3291 113.421L76.4348 113.527C76.9634 113.527 77.492 110.672 77.492 107.181C77.3863 103.585 76.9634 96.7108 76.4348 96.7108Z" fill="#1F247A"/>
<path fill-rule="evenodd" clip-rule="evenodd" d="M75.9062 63.6064H142.933V128.757H142.929C142.932 128.792 142.933 128.827 142.933 128.863C142.933 132.367 127.929 135.208 109.42 135.208C90.9108 135.208 75.9062 132.367 75.9062 128.863C75.9062 128.827 75.9078 128.792 75.9108 128.757H75.9062V63.6064Z" fill="#B5E2FF"/>
<path fill-rule="evenodd" clip-rule="evenodd" d="M75.9062 63.6064H142.933V128.757H142.929C142.932 128.792 142.933 128.827 142.933 128.863C142.933 132.367 127.929 135.208 109.42 135.208C90.9108 135.208 75.9062 132.367 75.9062 128.863C75.9062 128.827 75.9078 128.792 75.9108 128.757H75.9062V63.6064Z" fill="url(#paint25_linear_10079_21473034)"/>
<path fill-rule="evenodd" clip-rule="evenodd" d="M75.9062 63.6064H142.933V128.757H142.929C142.932 128.792 142.933 128.827 142.933 128.863C142.933 132.367 127.929 135.208 109.42 135.208C90.9108 135.208 75.9062 132.367 75.9062 128.863C75.9062 128.827 75.9078 128.792 75.9108 128.757H75.9062V63.6064Z" fill="url(#paint26_linear_10079_21473034)"/>
<path fill-rule="evenodd" clip-rule="evenodd" d="M75.9062 63.6064H142.933V128.757H142.929C142.932 128.792 142.933 128.827 142.933 128.863C142.933 132.367 127.929 135.208 109.42 135.208C90.9108 135.208 75.9062 132.367 75.9062 128.863C75.9062 128.827 75.9078 128.792 75.9108 128.757H75.9062V63.6064Z" fill="url(#paint27_linear_10079_21473034)"/>
<path fill-rule="evenodd" clip-rule="evenodd" d="M109.42 58.1064C127.921 58.1064 142.933 60.9621 142.933 64.4523C142.933 64.558 142.933 64.6638 143.039 64.558C143.145 64.7695 143.145 64.8753 143.145 64.9811C143.145 65.9329 141.982 66.7791 139.973 67.6252C138.387 68.2597 137.33 69.8462 137.33 71.5384V71.6442C137.33 72.7018 138.282 73.4422 139.233 73.1249C139.656 73.0191 139.868 72.9133 139.868 72.9133C140 72.8755 140.136 72.8376 140.274 72.7992C140.907 72.6227 141.586 72.4335 142.193 72.173C141.665 72.9133 140.925 73.3364 140.185 73.7595C139.445 74.1825 138.705 74.4998 137.859 74.7113C137.753 74.7113 137.674 74.7378 137.595 74.7642C137.515 74.7906 137.436 74.8171 137.33 74.8171C137.33 75.6632 138.176 76.2978 139.022 76.0862C139.55 75.9805 139.868 75.8747 139.868 75.8747C140 75.8369 140.136 75.799 140.274 75.7606C140.907 75.5841 141.586 75.3949 142.193 75.1344C141.665 75.8747 140.925 76.2978 140.185 76.7208C139.445 77.1439 138.705 77.4612 137.859 77.6727C137.753 77.6727 137.674 77.6991 137.595 77.7256C137.515 77.752 137.436 77.7785 137.33 77.7785C137.33 78.6246 138.176 79.2592 139.022 79.0476C139.55 78.9419 139.868 78.8361 139.868 78.8361C140 78.7983 140.136 78.7604 140.274 78.722C140.907 78.5455 141.586 78.3563 142.193 78.0958C141.665 78.8361 140.925 79.2592 140.185 79.6822C139.445 80.1053 138.705 80.4226 137.859 80.6341C137.753 80.6341 137.674 80.6605 137.595 80.687C137.515 80.7134 137.436 80.7398 137.33 80.7398V129.708C136.696 129.92 136.167 130.026 135.639 130.131L135.639 130.131C134.793 130.343 133.947 130.554 133.101 130.66L132.361 130.766C132.097 130.819 131.859 130.845 131.621 130.872C131.383 130.898 131.146 130.925 130.881 130.978L128.027 131.506C127.815 131.506 127.63 131.533 127.445 131.559C127.26 131.586 127.075 131.612 126.864 131.612C121.049 132.247 115.235 132.458 109.42 132.458C108.521 132.458 107.649 132.432 106.777 132.405C105.905 132.379 105.032 132.352 104.134 132.352C101.279 132.247 99.0592 129.92 99.0592 127.064V85.2128C98.962 85.1088 98.8901 84.9869 98.8495 84.8649L98.7437 84.4418C98.638 84.1245 98.3209 83.8072 97.898 83.8072C94.6206 83.4899 88.9117 82.8554 85 81.0574C85 81.0574 89.9689 82.0092 93.352 82.5381C95.6208 82.9636 97.8421 82.9611 99.0592 82.9133V82.7076L98.6339 82.6437C98.3167 82.6437 97.9995 82.3265 97.8938 82.0092L97.7881 81.5861C97.5767 81.2688 97.3652 80.9515 96.9423 80.9515C93.9821 80.6342 88.2732 79.6824 85.1016 78.2017C85.1016 78.2017 89.6476 79.1535 92.7135 79.6824C95.7794 80.2112 99.0567 80.1054 99.0567 80.1054V80.74L99.0592 80.7401V79.7297L98.7432 79.6823C98.4261 79.6823 98.1089 79.365 98.0032 79.0477L97.8975 78.6247C97.686 78.3074 97.4746 77.9901 97.0517 77.9901C94.0915 77.6728 88.6997 76.8267 85.2109 75.2402C85.2109 75.2402 89.7569 76.1921 92.8229 76.7209C95.5628 77.288 98.4716 77.2639 99.0592 77.2523V74.9228C99.0592 72.9133 97.4734 71.2211 95.4647 71.0096C83.9411 70.0577 75.9062 67.8367 75.9062 65.2984C75.9062 65.1745 75.9425 65.0868 75.9726 65.0143C75.9938 64.9629 76.012 64.9191 76.012 64.8753C75.9062 64.6638 75.9062 64.558 75.9062 64.4523C75.9062 60.9621 90.9186 58.1064 109.42 58.1064Z" fill="url(#paint28_linear_10079_21473034)"/>
<path d="M76.435 96.7109L21.2486 48.3769C21.2486 48.3769 13.3195 44.1464 19.4514 50.7037C38.164 70.7988 76.1179 111.518 76.435 111.518C76.9636 111.518 77.3865 109.508 77.4923 106.335C77.3865 102.739 76.9636 96.7109 76.435 96.7109Z" fill="url(#paint29_linear_10079_21473034)"/>
<path d="M75.9062 127.276C75.9062 128.017 76.5406 128.546 77.1749 128.969C77.8092 129.392 78.4436 129.709 79.1836 129.92C80.558 130.449 81.9324 130.767 83.4124 131.084C86.2669 131.718 89.1214 132.141 92.0816 132.459C97.8962 133.093 103.711 133.305 109.526 133.305C115.34 133.305 121.155 133.093 126.97 132.459C129.824 132.141 132.784 131.718 135.639 131.084C137.013 130.767 138.493 130.449 139.868 129.92C140.502 129.709 141.242 129.392 141.876 128.969C142.511 128.546 143.039 128.017 143.145 127.276C143.145 128.017 142.511 128.651 141.982 129.074C141.348 129.497 140.713 129.815 140.079 130.132C138.705 130.661 137.33 131.084 135.85 131.507C132.996 132.247 130.141 132.67 127.181 133.093C121.366 133.834 115.552 134.045 109.631 134.151C103.817 134.151 97.8962 133.834 92.0816 133.093C89.2271 132.67 86.2669 132.247 83.4124 131.507C82.0381 131.084 80.558 130.767 79.1836 130.132C78.5493 129.815 77.8092 129.497 77.2806 129.074C76.5406 128.651 75.9062 128.017 75.9062 127.276Z" fill="#2C2B2A"/>
<path d="M109.417 135.103C92.9247 135.103 75.375 132.67 75.375 128.228C75.375 127.911 75.5864 127.699 75.9036 127.699C76.2208 127.699 76.4322 127.911 76.4322 128.228C76.4322 130.978 89.9645 134.045 109.417 134.045C128.87 134.045 142.402 130.978 142.402 128.228C142.402 127.911 142.614 127.699 142.931 127.699C143.248 127.699 143.459 127.911 143.459 128.228C143.459 132.776 125.91 135.103 109.417 135.103Z" fill="white"/>
<path d="M109.417 135.103C92.9247 135.103 75.375 132.671 75.375 128.229C75.375 127.911 75.5864 127.7 75.9036 127.7C76.2208 127.7 76.4322 127.911 76.4322 128.229C76.4322 130.978 89.9645 134.046 109.417 134.046C128.87 134.046 142.402 130.978 142.402 128.229C142.402 127.911 142.614 127.7 142.931 127.7C143.248 127.7 143.459 127.911 143.459 128.229C143.459 132.776 125.91 135.103 109.417 135.103Z" fill="white"/>
<path d="M69.6719 104.643C69.6719 104.643 74.7465 109.931 75.8037 107.604C76.8609 105.277 77.1781 102.21 77.1781 102.21C77.1781 102.21 78.2353 109.085 76.9666 111.623C75.698 114.161 76.0151 113.315 76.0151 113.315L69.6719 104.643Z" fill="#1F247A"/>
<path d="M83.3047 62.549C83.3047 62.549 84.1505 63.9239 85.5248 62.549C87.0049 61.174 86.582 63.6066 86.582 63.6066C86.582 63.6066 84.6791 63.8181 84.0447 63.6066C83.5161 63.3951 83.3047 62.549 83.3047 62.549Z" fill="#2C2B2A"/>
<path d="M85 75.2402L96.1007 76.1921C99.801 76.5094 103.501 76.7209 107.201 77.2497C103.501 77.567 99.6952 77.567 95.995 77.2497C92.2948 76.9324 88.5945 76.4036 85 75.2402Z" fill="#B5E2FF"/>
<path d="M85 78.0962C88.2774 78.3077 91.449 78.625 94.6206 78.9423C97.7923 79.2596 101.07 79.5769 104.241 79.9999C100.964 80.3172 97.7923 80.2115 94.5149 79.9999C91.3433 79.6826 88.0659 79.1538 85 78.0962Z" fill="#B5E2FF"/>
<path d="M85 80.9517C87.8545 81.0574 90.7089 81.3747 93.4577 81.692C96.3122 82.0093 99.0609 82.3266 101.915 82.8554C99.0609 83.1727 96.2064 83.0669 93.352 82.7496C90.4975 82.4323 87.7488 81.9035 85 80.9517Z" fill="#B5E2FF"/>
<path d="M109.417 70.4807C92.9247 70.4807 75.375 68.0481 75.375 63.6061C75.375 59.164 92.9247 56.7314 109.417 56.7314C125.91 56.7314 143.459 59.164 143.459 63.6061C143.459 68.0481 125.91 70.4807 109.417 70.4807ZM109.417 57.7891C89.9645 57.7891 76.4322 60.8562 76.4322 63.6061C76.4322 66.3559 89.9645 69.4231 109.417 69.4231C128.87 69.4231 142.402 66.3559 142.402 63.6061C142.402 60.8562 128.87 57.7891 109.417 57.7891Z" fill="white"/>
<path d="M109.42 69.635C127.929 69.635 142.933 66.7939 142.933 63.2892C142.933 59.7845 127.929 56.9434 109.42 56.9434C90.9108 56.9434 75.9062 59.7845 75.9062 63.2892C75.9062 66.7939 90.9108 69.635 109.42 69.635Z" fill="url(#paint30_linear_10079_21473034)"/>
<g opacity="0.5">
<path d="M86.5858 62.6548H84.5771C83.837 62.6548 83.2027 63.2894 83.3084 64.1355C83.5199 65.4046 83.7313 66.568 84.0485 67.8372C85.2114 68.0487 86.4801 68.366 87.7487 68.5775C87.2201 66.568 86.903 64.6643 86.5858 62.6548Z" fill="white"/>
<path d="M88.4878 62.6548H85.4219C85.739 64.5585 86.1619 66.4623 86.7962 68.366C87.7477 68.5775 88.6992 68.6833 89.7564 68.7891C89.2278 67.0969 88.6992 64.1355 88.4878 62.6548Z" fill="url(#paint31_linear_10079_21473034)"/>
</g>
<path d="M111.532 65.5102C111.532 65.5102 87.745 64.4526 85.5248 64.4526C83.3047 64.4526 83.3047 62.5488 83.3047 62.5488L111.532 62.7604V65.5102Z" fill="url(#paint32_linear_10079_21473034)"/>
<path d="M111.532 65.5102C111.532 65.5102 87.745 64.4526 85.5248 64.4526C83.3047 64.4526 83.3047 62.5488 83.3047 62.5488L111.532 62.7604V65.5102Z" fill="url(#paint33_linear_10079_21473034)"/>
<path d="M104.451 60.539L114.177 69.2116C114.494 69.5289 115.023 69.6347 115.446 69.6347C125.595 68.4713 142.933 68.2597 142.933 63.6062C142.933 58.6353 121.049 57.6834 105.614 57.5776C104.134 57.5776 103.288 59.4814 104.451 60.539Z" fill="url(#paint34_linear_10079_21473034)"/>
<path d="M104.451 60.539L114.177 69.2116C114.494 69.5289 115.023 69.6347 115.446 69.6347C125.595 68.4713 142.933 68.2597 142.933 63.6062C142.933 58.6353 121.049 57.6834 105.614 57.5776C104.134 57.5776 103.288 59.4814 104.451 60.539Z" fill="url(#paint35_linear_10079_21473034)"/>
<path d="M130.566 23.7332C106.778 22.2526 86.6915 39.2805 83.3084 61.9139C83.2027 62.76 83.837 63.5003 84.6828 63.5003H88.383C91.026 43.1937 108.999 27.6465 130.249 29.0214C149.49 30.2906 165.242 45.6263 167.04 64.7695C168.731 82.7493 158.159 98.6138 142.829 105.065V110.777C160.908 104.219 173.594 86.451 172.431 65.8271C171.268 43.4052 153.084 25.1082 130.566 23.7332Z" fill="#B5E2FF"/>
<path d="M130.566 23.7332C106.778 22.2526 86.6915 39.2805 83.3084 61.9139C83.2027 62.76 83.837 63.5003 84.6828 63.5003H88.383C91.026 43.1937 108.999 27.6465 130.249 29.0214C149.49 30.2906 165.242 45.6263 167.04 64.7695C168.731 82.7493 158.159 98.6138 142.829 105.065V110.777C160.908 104.219 173.594 86.451 172.431 65.8271C171.268 43.4052 153.084 25.1082 130.566 23.7332Z" fill="url(#paint36_linear_10079_21473034)"/>
<path d="M142.938 110.354V110.777C146.743 109.402 150.338 107.498 153.615 105.171C150.338 107.392 146.743 109.085 142.938 110.354Z" fill="#E8E8E8"/>
<path d="M127.711 23.6279C105.087 23.6279 86.4801 40.3386 83.3084 62.0201C83.2027 62.7604 83.837 63.5008 84.5771 63.5008H86.5858C89.2288 42.0308 107.624 25.4259 129.72 25.4259C143.887 25.4259 156.573 32.3005 164.502 42.7711C156.362 31.2429 142.935 23.6279 127.711 23.6279Z" fill="url(#paint37_linear_10079_21473034)"/>
<path d="M127.711 23.6279C105.087 23.6279 86.4801 40.3386 83.3084 62.0201C83.2027 62.7604 83.837 63.5008 84.5771 63.5008H86.5858C89.2288 42.0308 107.624 25.4259 129.72 25.4259C143.887 25.4259 156.573 32.3005 164.502 42.7711C156.362 31.2429 142.935 23.6279 127.711 23.6279Z" fill="url(#paint38_linear_10079_21473034)" fill-opacity="0.5"/>
<path d="M127.71 28.916C136.379 28.916 144.414 31.6659 150.863 36.4252C143.991 31.0313 135.322 27.8584 125.807 27.8584C105.615 27.8584 88.5935 44.146 85.4219 63.5007H88.4878C88.8049 61.8085 89.3336 58.5298 89.8622 56.9434C94.8311 40.7615 109.949 28.916 127.71 28.916Z" fill="url(#paint39_linear_10079_21473034)"/>
<path d="M156.568 95.6523C152.762 99.6714 148.11 102.95 142.93 105.065V105.806C148.216 103.373 152.762 99.8829 156.568 95.6523Z" fill="#6A6A6A"/>
<path d="M171.165 64.9814C171.059 68.1544 170.531 71.2215 169.791 74.1829C167.571 87.086 159.747 98.1912 148.858 104.643C146.955 105.806 145.052 106.97 142.938 107.816V110.777C156.576 105.806 167.148 94.4895 170.954 80.4229C171.482 77.7788 171.694 75.029 171.694 72.2791C171.799 69.7408 171.588 67.3082 171.165 64.9814Z" fill="url(#paint40_linear_10079_21473034)"/>
<path d="M164.399 86.8745C160.593 93.0088 155.307 98.1912 149.069 101.787C147.166 103.056 145.052 104.114 142.938 105.066V106.652C144.735 105.912 146.532 104.854 148.329 103.691C155.307 99.6719 160.699 93.7491 164.399 86.8745Z" fill="url(#paint41_linear_10079_21473034)"/>
<path d="M142.938 110.777V107.816C145.052 106.97 146.955 105.912 148.858 104.643C159.747 98.1914 167.571 87.192 169.791 74.1831C168.628 78.7309 166.725 82.9615 164.293 86.8747C160.699 93.7494 155.201 99.6721 148.329 103.691C146.532 104.855 144.735 105.806 142.938 106.653V110.777Z" fill="white"/>
<path d="M113.328 29.0221C119.883 26.1665 127.389 25.2147 134.578 26.1665C138.173 26.6953 141.767 27.753 145.15 29.1279C148.533 30.6086 151.705 32.5123 154.559 34.8391C155.299 35.3679 155.934 36.0025 156.674 36.6371L157.731 37.589C158.048 37.9063 158.365 38.2236 158.682 38.5409C159.317 39.1754 159.951 39.9158 160.585 40.5504L162.277 42.6656C162.911 43.406 163.334 44.1463 163.863 44.9924C164.391 45.7328 164.92 46.4731 165.237 47.3192L166.506 49.7518L167.563 52.2901C168.832 55.6745 169.783 59.2705 170.1 62.8665C170.312 64.6644 170.312 66.4624 170.312 68.2604C170.206 70.0584 170.1 71.8564 169.677 73.6543C169.889 70.0584 169.783 66.4624 169.043 62.9722C168.515 59.482 167.457 56.0976 166.083 52.8189C163.229 46.3674 158.894 40.6561 153.396 36.3198C150.648 34.0988 147.687 32.3008 144.516 30.8201C141.344 29.3394 137.961 28.3876 134.472 27.6472C127.389 26.5896 120.2 27.0126 113.328 29.0221Z" fill="url(#paint42_linear_10079_21473034)"/>
<path d="M113.328 29.0221C119.883 26.1665 127.389 25.2147 134.578 26.1665C138.173 26.6953 141.767 27.753 145.15 29.1279C148.533 30.6086 151.705 32.5123 154.559 34.8391C155.299 35.3679 155.934 36.0025 156.674 36.6371L157.731 37.589C158.048 37.9063 158.365 38.2236 158.682 38.5409C159.317 39.1754 159.951 39.9158 160.585 40.5504L162.277 42.6656C162.911 43.406 163.334 44.1463 163.863 44.9924C164.391 45.7328 164.92 46.4731 165.237 47.3192L166.506 49.7518L167.563 52.2901C168.832 55.6745 169.783 59.2705 170.1 62.8665C170.312 64.6644 170.312 66.4624 170.312 68.2604C170.206 70.0584 170.1 71.8564 169.677 73.6543C169.889 70.0584 169.783 66.4624 169.043 62.9722C168.515 59.482 167.457 56.0976 166.083 52.8189C163.229 46.3674 158.894 40.6561 153.396 36.3198C150.648 34.0988 147.687 32.3008 144.516 30.8201C141.344 29.3394 137.961 28.3876 134.472 27.6472C127.389 26.5896 120.2 27.0126 113.328 29.0221Z" fill="url(#paint43_linear_10079_21473034)"/>
<path d="M20.4028 51.8671L76.7521 108.451L77.2808 106.018C77.2808 104.22 77.175 101.893 76.9636 100.095L23.363 50.7037C23.363 50.7037 17.2312 48.4827 20.4028 51.8671Z" fill="#1F247A"/>
<path d="M22.4141 56.52L27.0658 51.4434L32.0347 55.7797C32.0347 58.1065 29.7088 60.6448 26.6429 60.8563L22.4141 56.52Z" fill="#BFE7FF"/>
<path d="M27.1719 52.501L31.5064 56.2027C31.5064 56.2027 31.1893 57.3661 30.8721 57.6834C30.5549 58.0007 27.1719 52.501 27.1719 52.501Z" fill="white"/>
<path d="M27.5944 51.8664L27.0658 51.4434L22.4141 56.52L26.6429 60.8563C32.2087 60.3972 27.7001 53.2413 27.5944 51.8664Z" fill="url(#paint44_linear_10079_21473034)"/>
<path d="M27.5944 51.8664L27.0658 51.4434L22.4141 56.52L26.6429 60.8563C32.2087 60.3972 27.7001 53.2413 27.5944 51.8664Z" fill="url(#paint45_linear_10079_21473034)"/>
<path d="M30.8704 36.0021C29.1789 34.3099 22.0956 38.752 14.9066 45.9439C7.71752 53.1358 3.27724 60.222 4.96878 61.9142C6.66031 63.6064 17.2324 62.5488 24.3157 55.3568C31.3991 48.1649 32.562 37.5886 30.8704 36.0021Z" fill="#C9EBFE"/>
<path d="M26.1103 53.3471C32.8765 38.4344 30.022 35.7903 29.8106 35.6846L13.8467 48.0589L5.70614 57.6834C4.64893 59.6929 4.33176 61.2793 4.96609 61.9139C6.65763 63.6061 17.2297 62.5485 24.3131 55.3566C25.0531 54.722 25.5817 53.9817 26.1103 53.3471Z" fill="url(#paint46_linear_10079_21473034)"/>
<path d="M26.1103 53.3471C32.8765 38.4344 30.022 35.7903 29.8106 35.6846L13.8467 48.0589L5.70614 57.6834C4.64893 59.6929 4.33176 61.2793 4.96609 61.9139C6.65763 63.6061 17.2297 62.5485 24.3131 55.3566C25.0531 54.722 25.5817 53.9817 26.1103 53.3471Z" fill="url(#paint47_linear_10079_21473034)"/>
<path d="M19.5338 50.5059C26.6688 43.3531 31.1155 36.2138 29.4658 34.56C27.8161 32.9061 20.6947 37.364 13.5597 44.5168C6.42468 51.6697 1.97798 58.809 3.62769 60.4628C5.27739 62.1167 12.3988 57.6588 19.5338 50.5059Z" fill="#333AB3"/>
<path d="M18.8932 49.8809C26.0281 42.7281 30.4748 35.5888 28.8251 33.935C27.1754 32.2811 20.054 36.739 12.919 43.8918C5.78405 51.0447 1.33735 58.184 2.98706 59.8378C4.63677 61.4917 11.7582 57.0338 18.8932 49.8809Z" fill="url(#paint48_linear_10079_21473034)"/>
<path d="M18.8932 49.8809C26.0281 42.7281 30.4748 35.5888 28.8251 33.935C27.1754 32.2811 20.054 36.739 12.919 43.8918C5.78405 51.0447 1.33735 58.184 2.98706 59.8378C4.63677 61.4917 11.7582 57.0338 18.8932 49.8809Z" fill="url(#paint49_linear_10079_21473034)" fill-opacity="0.5"/>
<path d="M18.302 49.2836C24.5709 42.999 28.583 36.8317 27.2632 35.5086C25.9434 34.1856 19.7916 38.2077 13.5227 44.4923C7.25382 50.7769 3.24176 56.9441 4.56152 58.2672C5.88129 59.5903 12.0331 55.5682 18.302 49.2836Z" fill="url(#paint50_linear_10079_21473034)"/>
<path d="M18.302 49.2836C24.5709 42.999 28.583 36.8317 27.2632 35.5086C25.9434 34.1856 19.7916 38.2077 13.5227 44.4923C7.25382 50.7769 3.24176 56.9441 4.56152 58.2672C5.88129 59.5903 12.0331 55.5682 18.302 49.2836Z" fill="url(#paint51_linear_10079_21473034)" fill-opacity="0.5"/>
<path d="M16.9439 48.0115C22.1817 42.7605 25.8929 37.9675 25.233 37.306C24.5731 36.6444 19.7921 40.3649 14.5542 45.6158C9.31641 50.8668 5.60525 55.6598 6.26514 56.3214C6.92502 56.9829 11.7061 53.2624 16.9439 48.0115Z" fill="url(#paint52_linear_10079_21473034)"/>
<path d="M16.9439 48.0115C22.1817 42.7605 25.8929 37.9675 25.233 37.306C24.5731 36.6444 19.7921 40.3649 14.5542 45.6158C9.31641 50.8668 5.60525 55.6598 6.26514 56.3214C6.92502 56.9829 11.7061 53.2624 16.9439 48.0115Z" fill="url(#paint53_linear_10079_21473034)" fill-opacity="0.5"/>
<path d="M16.1214 47.193C18.5548 44.7536 20.3602 42.6085 20.154 42.4017C19.9477 42.195 17.808 44.005 15.3747 46.4444C12.9413 48.8838 11.1359 51.0289 11.3421 51.2356C11.5483 51.4424 13.6881 49.6324 16.1214 47.193Z" fill="url(#paint54_linear_10079_21473034)"/>
<path d="M16.1214 47.193C18.5548 44.7536 20.3602 42.6085 20.154 42.4017C19.9477 42.195 17.808 44.005 15.3747 46.4444C12.9413 48.8838 11.1359 51.0289 11.3421 51.2356C11.5483 51.4424 13.6881 49.6324 16.1214 47.193Z" fill="url(#paint55_linear_10079_21473034)" fill-opacity="0.5"/>
<path d="M6.02433 58.7413C5.91861 58.7413 5.81288 58.6355 5.70716 58.5298C5.70716 58.424 5.81288 58.2125 5.91861 58.2125C6.13005 58.2125 6.23577 58.1067 6.44721 58.001C6.55293 58.001 6.76437 58.001 6.8701 58.2125C6.8701 58.3182 6.76437 58.5298 6.65865 58.5298C6.44721 58.6355 6.23577 58.7413 6.02433 58.7413ZM4.33279 57.7894C4.12135 57.7894 4.01562 57.6837 4.01562 57.4721C4.01562 57.2606 4.01563 57.0491 4.12135 56.8376C4.12135 56.7318 4.33279 56.626 4.43851 56.626C4.54423 56.626 4.64995 56.8376 4.64995 56.9433C4.64995 57.1548 4.54423 57.2606 4.54423 57.4721C4.64995 57.6837 4.54423 57.7894 4.33279 57.7894ZM8.66735 57.5779C8.56163 57.5779 8.45591 57.5779 8.45591 57.4721C8.35019 57.3664 8.45591 57.1548 8.56163 57.0491C8.77308 56.9433 8.8788 56.8376 9.09024 56.7318C9.19596 56.626 9.4074 56.7318 9.51312 56.8376C9.61884 56.9433 9.51312 57.1548 9.4074 57.2606C9.09024 57.2606 8.98452 57.3664 8.77308 57.4721C8.77308 57.5779 8.66735 57.5779 8.66735 57.5779ZM11.0989 55.8857C10.9932 55.8857 10.8875 55.8857 10.8875 55.7799C10.7818 55.6742 10.7818 55.4626 10.9932 55.3569C11.0989 55.2511 11.3104 55.1453 11.4161 55.0396C11.5218 54.9338 11.7333 54.9338 11.839 55.1453C11.9447 55.2511 11.9447 55.4626 11.7333 55.5684C11.5218 55.6742 11.4161 55.7799 11.2047 55.8857C11.2047 55.8857 11.2047 55.8857 11.0989 55.8857ZM5.39 55.0396H5.28428C5.17856 54.9338 5.07284 54.828 5.17856 54.6165C5.28428 54.405 5.39 54.2992 5.49572 54.0877C5.60144 53.9819 5.70716 53.8762 5.91861 53.9819C6.02433 54.0877 6.13005 54.1935 6.02433 54.405C5.91861 54.6165 5.81288 54.7223 5.70716 54.9338C5.60144 54.9338 5.49572 55.0396 5.39 55.0396ZM13.4248 54.0877C13.3191 54.0877 13.2134 54.0877 13.2134 53.9819C13.1076 53.8762 13.1076 53.6647 13.2134 53.5589L13.6362 53.1358C13.742 53.0301 13.9534 53.0301 14.0591 53.1358C14.1649 53.2416 14.1649 53.4531 14.0591 53.5589L13.6362 53.9819C13.5305 54.0877 13.5305 54.0877 13.4248 54.0877ZM6.97582 52.5013C6.8701 52.5013 6.8701 52.5013 6.76437 52.3955C6.65865 52.2897 6.55293 52.0782 6.65865 51.9724C6.76437 51.8667 6.8701 51.6551 6.97582 51.4436C7.08154 51.3379 7.29298 51.3379 7.3987 51.3379C7.50442 51.4436 7.61014 51.6551 7.50442 51.7609C7.3987 51.9724 7.29298 52.0782 7.18726 52.184C7.08154 52.5013 6.97582 52.5013 6.97582 52.5013ZM15.6449 52.184C15.5392 52.184 15.4335 52.184 15.4335 52.0782C15.3278 51.9724 15.3278 51.7609 15.4335 51.6551L15.8564 51.2321C15.9621 51.1263 16.1736 51.1263 16.2793 51.2321C16.385 51.3379 16.385 51.5494 16.2793 51.6551L15.8564 52.0782C15.7507 52.184 15.7507 52.184 15.6449 52.184ZM8.66735 50.1745C8.56163 50.1745 8.56163 50.1745 8.45591 50.0687C8.35019 49.9629 8.35019 49.7514 8.45591 49.6456C8.56163 49.5399 8.66736 49.3284 8.8788 49.2226C8.98452 49.1168 9.19596 49.1168 9.30168 49.2226C9.4074 49.3284 9.4074 49.5399 9.30168 49.6456C9.19596 49.7514 9.09024 49.9629 8.98452 50.0687C8.8788 50.1745 8.77308 50.1745 8.66735 50.1745ZM17.7594 50.1745C17.6537 50.1745 17.6537 50.1745 17.5479 50.0687C17.4422 49.9629 17.4422 49.7514 17.5479 49.6456L17.9708 49.2226C18.0765 49.1168 18.288 49.1168 18.3937 49.2226C18.4994 49.3284 18.4994 49.5399 18.3937 49.6456L17.9708 50.0687C17.9708 50.1745 17.8651 50.1745 17.7594 50.1745ZM19.8738 48.0592C19.7681 48.0592 19.7681 48.0592 19.6624 47.9534C19.5566 47.8477 19.5566 47.6361 19.6624 47.5304L20.0852 47.1073C20.191 47.0016 20.4024 47.0016 20.5081 47.1073C20.6138 47.2131 20.6138 47.4246 20.5081 47.5304L20.0852 47.9534C19.9795 48.0592 19.9795 48.0592 19.8738 48.0592ZM10.6761 47.9534C10.5703 47.9534 10.5703 47.9534 10.4646 47.8477C10.3589 47.7419 10.3589 47.5304 10.4646 47.4246L10.8875 47.0016C10.8875 46.8958 11.0989 46.8958 11.2047 47.0016C11.3104 47.1073 11.3104 47.3188 11.2047 47.4246L10.7818 47.8477C10.7818 47.9534 10.6761 47.9534 10.6761 47.9534ZM21.8825 45.8382C21.7768 45.8382 21.6711 45.8382 21.6711 45.8382C21.5653 45.7324 21.5653 45.5209 21.6711 45.4151L22.0939 44.992C22.1997 44.8863 22.4111 44.8863 22.5168 44.992C22.6225 45.0978 22.6225 45.3093 22.5168 45.4151L22.0939 45.8382C21.9882 45.8382 21.8825 45.8382 21.8825 45.8382ZM12.579 45.8382C12.4733 45.8382 12.4733 45.8382 12.3676 45.7324C12.2619 45.6266 12.2619 45.4151 12.3676 45.3093L12.7905 44.8863C12.8962 44.7805 13.1076 44.7805 13.2134 44.8863C13.3191 44.992 13.3191 45.2036 13.2134 45.3093L12.7905 45.7324C12.7905 45.7324 12.6848 45.8382 12.579 45.8382ZM14.6935 43.7229C14.5877 43.7229 14.5877 43.7229 14.482 43.6171C14.3763 43.5114 14.3763 43.2998 14.482 43.1941L14.9049 42.771C15.0106 42.6653 15.2221 42.6653 15.3278 42.771C15.4335 42.8768 15.4335 43.0883 15.3278 43.1941L14.9049 43.6171C14.9049 43.7229 14.7992 43.7229 14.6935 43.7229ZM23.6798 43.6171C23.574 43.6171 23.574 43.6171 23.4683 43.5114C23.3626 43.4056 23.3626 43.1941 23.4683 43.0883C23.574 42.9825 23.6798 42.771 23.7855 42.6653C23.8912 42.5595 24.1026 42.5595 24.2084 42.5595C24.3141 42.6652 24.3141 42.8768 24.3141 42.9825C24.2084 43.0883 24.1026 43.2998 23.9969 43.4056C23.8912 43.5114 23.7855 43.6171 23.6798 43.6171ZM16.9136 41.7134C16.8079 41.7134 16.7022 41.7134 16.7022 41.6076C16.5964 41.5019 16.5964 41.2903 16.7022 41.1846L17.125 40.7615C17.2308 40.6557 17.4422 40.6557 17.5479 40.7615C17.6537 40.8673 17.6537 41.0788 17.5479 41.1846L17.125 41.6076C17.0193 41.7134 16.9136 41.7134 16.9136 41.7134ZM25.477 41.1846C25.3713 41.1846 25.3713 41.1846 25.2656 41.1846C25.1599 41.0788 25.0541 40.8673 25.1599 40.7615C25.2656 40.55 25.3713 40.4442 25.477 40.2327C25.5827 40.1269 25.7942 40.0212 25.8999 40.1269C26.0056 40.2327 26.1113 40.4442 26.0056 40.55C25.8999 40.7615 25.7942 40.8673 25.6885 41.0788C25.6885 41.1846 25.5827 41.1846 25.477 41.1846ZM19.1337 39.8096C19.028 39.8096 18.9223 39.8096 18.9223 39.7039C18.8166 39.5981 18.8166 39.3866 18.9223 39.2808L19.3452 38.9635C19.4509 38.8578 19.6624 38.8578 19.7681 38.9635C19.8738 39.0693 19.8738 39.2808 19.7681 39.3866L19.3452 39.7039C19.2395 39.8096 19.2395 39.8096 19.1337 39.8096ZM26.9571 38.6462H26.8514C26.7457 38.5405 26.6399 38.4347 26.7457 38.2232C26.8514 38.0117 26.9571 37.9059 26.9571 37.6944C27.0628 37.5886 27.1686 37.4828 27.38 37.4828C27.4857 37.5886 27.5914 37.6944 27.5914 37.9059C27.4857 38.1174 27.4857 38.2232 27.38 38.4347C27.1686 38.6462 27.0628 38.6462 26.9571 38.6462ZM21.4596 38.0117C21.3539 38.0117 21.2482 38.0117 21.2482 37.9059C21.1424 37.8001 21.1424 37.5886 21.3539 37.4828C21.5653 37.3771 21.6711 37.2713 21.8825 37.1656C21.9882 37.0598 22.1997 37.0598 22.3054 37.2713C22.4111 37.3771 22.4111 37.5886 22.1997 37.6944C22.0939 37.8001 21.8825 37.9059 21.6711 38.0117C21.5653 38.0117 21.5653 38.0117 21.4596 38.0117ZM23.9969 36.531C23.8912 36.531 23.7855 36.4252 23.7855 36.4252C23.6798 36.3194 23.7855 36.1079 23.8912 36.0022C24.1026 35.8964 24.2084 35.7906 24.4198 35.6849C24.5255 35.5791 24.737 35.6849 24.8427 35.7906C24.9484 35.8964 24.8427 36.1079 24.737 36.2137C24.5255 36.3194 24.4198 36.4252 24.2084 36.4252C24.1026 36.531 23.9969 36.531 23.9969 36.531ZM27.0628 35.7906L27.2743 35.5791L27.0628 35.7906C26.9571 35.6849 26.8514 35.6849 26.6399 35.5791C26.4285 35.5791 26.3228 35.3676 26.4285 35.2618C26.4285 35.0503 26.6399 34.9445 26.7457 35.0503C27.0628 35.0503 27.2743 35.156 27.4857 35.3676L27.0628 35.7906Z" fill="url(#paint56_linear_10079_21473034)"/>
<path d="M7.61348 56.2029C7.50776 56.2029 7.40204 56.2029 7.40204 56.0972C7.29631 55.9914 7.40204 55.7799 7.50776 55.6741C7.61348 55.5683 7.82492 55.4626 8.03636 55.3568C8.14208 55.2511 8.35353 55.3568 8.45925 55.4626C8.56497 55.5683 8.45925 55.7799 8.35353 55.8856C8.14208 55.9914 8.03636 56.0972 7.82492 56.2029C7.7192 56.2029 7.7192 56.2029 7.61348 56.2029ZM6.45055 55.7799H6.34482C6.2391 55.6741 6.13338 55.5683 6.2391 55.3568C6.34482 55.1453 6.45055 55.0395 6.55627 54.828C6.66199 54.7222 6.76771 54.6165 6.97915 54.7222C7.08487 54.828 7.19059 54.9338 7.08487 55.1453C6.97915 55.3568 6.87343 55.4626 6.87343 55.6741C6.66199 55.6741 6.55627 55.7799 6.45055 55.7799ZM10.0451 54.6165C9.93934 54.6165 9.83362 54.6165 9.83362 54.5107C9.7279 54.4049 9.7279 54.1934 9.83362 54.0877L10.2565 53.7704C10.3622 53.6646 10.5737 53.6646 10.6794 53.7704C10.7851 53.8761 10.7851 54.0877 10.6794 54.1934L10.2565 54.5107C10.1508 54.5107 10.0451 54.6165 10.0451 54.6165ZM7.93064 53.3473C7.82492 53.3473 7.82492 53.3473 7.7192 53.2415C7.61348 53.1358 7.61348 52.9243 7.61348 52.8185C7.7192 52.7127 7.82492 52.5012 7.93064 52.3954C8.03636 52.2897 8.24781 52.2897 8.35353 52.3954C8.45925 52.5012 8.45925 52.7127 8.35353 52.8185C8.24781 52.9243 8.14208 53.1358 8.03636 53.2415C8.14208 53.2415 8.03636 53.3473 7.93064 53.3473ZM12.2652 52.7127C12.1595 52.7127 12.0538 52.7127 12.0538 52.607C11.948 52.5012 11.948 52.2897 12.0538 52.1839L12.4767 51.7609C12.5824 51.6551 12.7938 51.6551 12.8995 51.7609C13.0053 51.8666 13.0053 52.0781 12.8995 52.1839L12.4767 52.607C12.3709 52.7127 12.2652 52.7127 12.2652 52.7127ZM9.83362 51.1263C9.7279 51.1263 9.7279 51.1263 9.62218 51.0205C9.51646 50.9147 9.51646 50.7032 9.62218 50.5975L10.0451 50.1744C10.0451 50.0686 10.2565 50.0686 10.3622 50.1744C10.4679 50.2802 10.4679 50.4917 10.3622 50.5975L10.0451 51.0205C9.93934 51.0205 9.83362 51.1263 9.83362 51.1263ZM14.3796 50.809C14.2739 50.809 14.2739 50.809 14.1682 50.7032C14.0625 50.5975 14.0625 50.3859 14.1682 50.2802L14.5911 49.8571C14.6968 49.7513 14.9082 49.7513 15.014 49.8571C15.1197 49.9629 15.1197 50.1744 15.014 50.2802L14.5911 50.7032C14.4854 50.809 14.4854 50.809 14.3796 50.809ZM11.7366 48.9052C11.6309 48.9052 11.6309 48.9052 11.5252 48.7995C11.4194 48.6937 11.4194 48.4822 11.5252 48.3764L11.948 47.9534C12.0538 47.8476 12.2652 47.8476 12.3709 47.9534C12.4766 48.0591 12.4766 48.2707 12.3709 48.3764L11.948 48.7995C11.8423 48.9052 11.8423 48.9052 11.7366 48.9052ZM16.4941 48.7995C16.3883 48.7995 16.3883 48.7995 16.2826 48.6937C16.1769 48.588 16.1769 48.3764 16.2826 48.2707L16.7055 47.8476C16.8112 47.7418 17.0227 47.7418 17.1284 47.8476C17.2341 47.9534 17.2341 48.1649 17.1284 48.2707L16.7055 48.6937C16.5998 48.7995 16.4941 48.7995 16.4941 48.7995ZM13.7453 46.79C13.6396 46.79 13.6396 46.79 13.5339 46.6842C13.4281 46.5784 13.4281 46.3669 13.5339 46.2612L13.9567 45.8381C14.0625 45.7323 14.2739 45.7323 14.3796 45.8381C14.4854 45.9439 14.4854 46.1554 14.3796 46.2612L13.9567 46.6842C13.851 46.79 13.7453 46.79 13.7453 46.79ZM18.5028 46.6842C18.397 46.6842 18.397 46.6842 18.2913 46.5784C18.1856 46.4727 18.1856 46.2612 18.2913 46.1554L18.7142 45.7323C18.8199 45.6266 19.0314 45.6266 19.1371 45.7323C19.2428 45.8381 19.2428 46.0496 19.1371 46.1554L18.7142 46.5784C18.6085 46.6842 18.6085 46.6842 18.5028 46.6842ZM15.754 44.7805C15.6483 44.7805 15.6483 44.7805 15.5426 44.6747C15.4368 44.5689 15.4368 44.3574 15.5426 44.2516L15.9654 43.8286C16.0712 43.7228 16.2826 43.7228 16.3883 43.8286C16.4941 43.9344 16.4941 44.1459 16.3883 44.2516L15.9654 44.6747C15.8597 44.7805 15.8597 44.7805 15.754 44.7805ZM20.5115 44.5689C20.4057 44.5689 20.4057 44.5689 20.3 44.4632C20.1943 44.3574 20.1943 44.1459 20.3 44.0401L20.6172 43.7228C20.7229 43.6171 20.9343 43.6171 21.0401 43.7228C21.1458 43.8286 21.1458 44.0401 21.0401 44.1459L20.6172 44.5689H20.5115ZM17.8684 42.771C17.7627 42.771 17.657 42.771 17.657 42.6652C17.5513 42.5594 17.5513 42.3479 17.657 42.2421L18.0799 41.8191C18.1856 41.7133 18.397 41.7133 18.5028 41.8191C18.6085 41.9248 18.6085 42.1364 18.5028 42.2421L18.0799 42.6652C17.9741 42.771 17.8684 42.771 17.8684 42.771ZM22.3087 42.4537C22.203 42.4537 22.203 42.4537 22.0973 42.3479C21.9916 42.2421 21.9916 42.0306 22.0973 41.9248C22.203 41.8191 22.3087 41.6076 22.4144 41.5018C22.5202 41.396 22.7316 41.396 22.8373 41.5018C22.943 41.6076 22.943 41.8191 22.8373 41.9248C22.7316 42.0306 22.6259 42.2421 22.5202 42.3479C22.5202 42.4537 22.4144 42.4537 22.3087 42.4537ZM19.9829 40.8672C19.8771 40.8672 19.7714 40.8672 19.7714 40.7615C19.6657 40.6557 19.6657 40.4442 19.7714 40.3384L20.1943 39.9153C20.3 39.8096 20.5115 39.8096 20.6172 39.9153C20.7229 40.0211 20.7229 40.2326 20.6172 40.3384L20.1943 40.6557C20.1943 40.8672 20.0886 40.8672 19.9829 40.8672ZM24.106 40.1269C24.0003 40.1269 24.0003 40.1269 23.8945 40.0211C23.7888 39.9153 23.6831 39.7038 23.7888 39.5981C23.8945 39.3865 24.0003 39.2808 24.106 39.175C24.2117 39.0692 24.4231 38.9635 24.5289 39.0692C24.6346 39.175 24.7403 39.3865 24.6346 39.4923C24.5289 39.5981 24.4231 39.8096 24.3174 40.0211C24.3174 40.1269 24.2117 40.1269 24.106 40.1269ZM22.3087 39.0692C22.203 39.0692 22.0973 39.0692 22.0973 38.9635C21.9916 38.8577 21.9916 38.6462 22.203 38.5404C22.4144 38.4347 22.5202 38.3289 22.6259 38.2231C22.7316 38.1174 22.943 38.1174 23.0488 38.3289C23.1545 38.4347 23.1545 38.6462 22.943 38.7519C22.8373 38.8577 22.6259 38.9635 22.5202 39.0692C22.4144 39.0692 22.3087 39.0692 22.3087 39.0692ZM25.2689 37.5885C25.1632 37.5885 25.1632 37.5885 25.0575 37.4828C24.9517 37.4828 24.9517 37.4828 24.7403 37.4828C24.6346 37.4828 24.4231 37.4828 24.4231 37.2713C24.4231 37.1655 24.4231 36.954 24.6346 36.954C25.0575 36.8482 25.3746 36.954 25.4803 37.0597C25.5861 37.1655 25.5861 37.377 25.4803 37.4828C25.4803 37.5885 25.3746 37.5885 25.2689 37.5885Z" fill="url(#paint57_linear_10079_21473034)"/>
<path d="M12.5817 50.8084C12.476 50.8084 12.3703 50.8084 12.3703 50.7026C12.2646 50.5968 12.2646 50.3853 12.3703 50.2795C12.476 50.1738 12.6874 50.068 12.7932 49.9622C12.8989 49.8565 13.1103 49.8565 13.2161 49.9622C13.3218 50.068 13.3218 50.2795 13.2161 50.3853C13.1103 50.4911 12.8989 50.5968 12.7932 50.7026C12.6874 50.8084 12.6874 50.8084 12.5817 50.8084ZM11.736 50.7026C11.6302 50.7026 11.6302 50.7026 11.5245 50.5968C11.4188 50.4911 11.3131 50.2795 11.4188 50.1738C11.5245 50.068 11.6302 49.8565 11.736 49.7507C11.8417 49.645 12.0531 49.645 12.1588 49.7507C12.2646 49.8565 12.2646 50.068 12.1588 50.1738C12.0531 50.2795 11.9474 50.4911 11.8417 50.5968C11.9474 50.7026 11.8417 50.7026 11.736 50.7026ZM14.6961 48.9046C14.5904 48.9046 14.5904 48.9046 14.4847 48.7988C14.379 48.6931 14.379 48.4816 14.4847 48.3758C14.5904 48.27 14.8019 48.1643 14.9076 47.9527C15.0133 47.847 15.2248 47.847 15.3305 47.9527C15.4362 48.0585 15.4362 48.27 15.3305 48.3758C15.2248 48.4816 15.0133 48.5873 14.9076 48.7988C14.8019 48.9046 14.8019 48.9046 14.6961 48.9046ZM13.5332 48.5873C13.4275 48.5873 13.4275 48.5873 13.3218 48.4816C13.2161 48.3758 13.2161 48.1643 13.3218 48.0585L13.7447 47.6354C13.8504 47.5297 14.0618 47.5297 14.1675 47.6354C14.2733 47.7412 14.2733 47.9527 14.1675 48.0585L13.7447 48.4816C13.7447 48.5873 13.6389 48.5873 13.5332 48.5873ZM16.7048 47.0009C16.5991 47.0009 16.5991 47.0009 16.4934 46.8951C16.3877 46.7893 16.3877 46.5778 16.4934 46.472L16.9163 46.049C17.022 45.9432 17.2335 45.9432 17.3392 46.049C17.4449 46.1548 17.4449 46.3663 17.3392 46.472L16.9163 46.8951C16.8106 47.0009 16.7048 47.0009 16.7048 47.0009ZM15.5419 46.5778C15.4362 46.5778 15.4362 46.5778 15.3305 46.472C15.2248 46.3663 15.2248 46.1548 15.3305 46.049L15.7534 45.6259C15.8591 45.5202 16.0705 45.5202 16.1762 45.6259C16.282 45.7317 16.282 45.9432 16.1762 46.049L15.7534 46.472C15.6476 46.5778 15.5419 46.5778 15.5419 46.5778ZM18.6078 44.9914C18.5021 44.9914 18.5021 44.9914 18.3964 44.8856C18.2907 44.7798 18.2907 44.5683 18.3964 44.4625C18.5021 44.3568 18.6078 44.1452 18.7135 44.0395C18.8193 43.9337 19.0307 43.9337 19.1364 44.0395C19.2422 44.1452 19.2422 44.3568 19.1364 44.4625C19.0307 44.5683 18.925 44.7798 18.8193 44.8856C18.7135 44.8856 18.6078 44.9914 18.6078 44.9914ZM17.5506 44.6741C17.4449 44.6741 17.3392 44.6741 17.3392 44.5683C17.2335 44.4625 17.2335 44.251 17.3392 44.1452C17.4449 44.0395 17.6563 43.9337 17.7621 43.7222C17.8678 43.6164 18.0792 43.6164 18.1849 43.7222C18.2907 43.828 18.2907 44.0395 18.1849 44.1452C18.0792 44.251 17.8678 44.3568 17.7621 44.4625C17.6563 44.6741 17.5506 44.6741 17.5506 44.6741ZM19.665 42.8761C19.5593 42.8761 19.4536 42.8761 19.4536 42.7703C19.3479 42.6646 19.4536 42.453 19.5593 42.3473C19.8765 42.1357 19.9822 42.1357 20.1936 42.1357H20.2994L20.4051 42.2415C20.5108 42.3473 20.5108 42.5588 20.2994 42.6646C20.1936 42.6646 20.1936 42.7703 20.0879 42.7703C20.0879 42.7703 19.9822 42.7703 19.7708 42.8761C19.7708 42.8761 19.7708 42.8761 19.665 42.8761Z" fill="url(#paint58_linear_10079_21473034)"/>
<path d="M3.59375 60.5392C4.22808 61.068 5.17957 60.7507 5.91961 60.5392C6.65966 60.2219 7.39971 59.9046 8.03404 59.4816C9.40841 58.6355 10.6771 57.6836 11.9457 56.7317C14.483 54.7222 16.8089 52.5012 19.1348 50.2801C21.4606 47.9534 23.575 45.6266 25.5837 43.0882C26.641 41.8191 27.4867 40.5499 28.3325 39.175C28.7554 38.5404 29.1783 37.8001 29.3897 37.0597C29.4954 36.6367 29.6012 36.3194 29.7069 35.8963C29.7069 35.4733 29.7069 35.0502 29.4954 34.7329C29.8126 35.0502 29.9183 35.4733 29.9183 35.8963C29.9183 36.3194 29.8126 36.7424 29.7069 37.1655C29.4954 38.0116 29.1783 38.7519 28.8611 39.4923C28.1211 40.973 27.2753 42.3479 26.3238 43.7228C24.4208 46.3669 22.3064 48.9052 19.9805 51.232C17.6547 53.5588 15.2231 55.6741 12.4743 57.5778C11.1 58.5297 9.72558 59.3758 8.24548 60.1162C7.50543 60.4334 6.76538 60.7507 5.91961 60.9623C5.49673 61.068 5.07385 61.1738 4.65096 61.1738C4.3338 60.9623 3.91091 60.8565 3.59375 60.5392Z" fill="white"/>
<path d="M76.4368 111.623C82.9916 110.989 82.5687 83.9132 82.5687 69.1063L80.2428 67.9429C80.2428 67.9429 79.8199 97.8739 77.0712 100.201C74.3224 102.528 75.9082 104.22 75.9082 104.22L76.4368 111.623Z" fill="url(#paint59_linear_10079_21473034)"/>
<path d="M76.4368 111.623C82.9916 110.989 82.5687 83.9132 82.5687 69.1063L80.2428 67.9429C80.2428 67.9429 79.8199 97.8739 77.0712 100.201C74.3224 102.528 75.9082 104.22 75.9082 104.22L76.4368 111.623Z" fill="url(#paint60_linear_10079_21473034)"/>
<path d="M141.665 128.969C141.031 129.392 140.397 129.709 139.657 129.92C138.282 130.449 136.908 130.767 135.428 131.084C132.573 131.718 129.719 132.141 126.759 132.459C120.944 133.093 115.129 133.305 109.315 133.305C103.5 133.305 97.6853 133.093 91.8706 132.459C89.0162 132.141 86.056 131.718 83.2015 131.084C81.8271 130.767 80.347 130.449 78.9727 129.92C78.3383 129.709 77.5983 129.392 76.964 128.969C76.3296 128.546 75.801 128.017 75.6953 127.276C75.6953 128.017 76.3296 128.651 76.8582 129.074C77.4926 129.497 78.1269 129.815 78.7612 130.132C80.1356 130.661 81.51 131.084 82.9901 131.507C85.8445 132.247 88.699 132.67 91.6592 133.093C93.0336 133.305 94.5137 133.411 95.888 133.516C96.5224 133.516 96.6281 133.939 96.6281 134.257C96.6281 134.574 96.7338 134.786 97.4739 134.891C101.28 135.209 105.192 135.314 109.103 135.314C120.733 135.314 132.89 134.151 139.022 131.824V130.449C139.128 130.344 139.339 130.344 139.445 130.238C140.502 129.815 141.137 129.497 141.665 128.969C142.3 128.651 142.934 128.017 142.934 127.276C142.934 128.017 142.3 128.546 141.665 128.969Z" fill="url(#paint61_linear_10079_21473034)"/>
<path d="M141.665 128.969C141.031 129.392 140.397 129.709 139.657 129.92C138.282 130.449 136.908 130.767 135.428 131.084C132.573 131.718 129.719 132.141 126.759 132.459C120.944 133.093 115.129 133.305 109.315 133.305C103.5 133.305 97.6853 133.093 91.8706 132.459C89.0162 132.141 86.056 131.718 83.2015 131.084C81.8271 130.767 80.347 130.449 78.9727 129.92C78.3383 129.709 77.5983 129.392 76.964 128.969C76.3296 128.546 75.801 128.017 75.6953 127.276C75.6953 128.017 76.3296 128.651 76.8582 129.074C77.4926 129.497 78.1269 129.815 78.7612 130.132C80.1356 130.661 81.51 131.084 82.9901 131.507C85.8445 132.247 88.699 132.67 91.6592 133.093C93.0336 133.305 94.5137 133.411 95.888 133.516C96.5224 133.516 96.6281 133.939 96.6281 134.257C96.6281 134.574 96.7338 134.786 97.4739 134.891C101.28 135.209 105.192 135.314 109.103 135.314C120.733 135.314 132.89 134.151 139.022 131.824V130.449C139.128 130.344 139.339 130.344 139.445 130.238C140.502 129.815 141.137 129.497 141.665 128.969C142.3 128.651 142.934 128.017 142.934 127.276C142.934 128.017 142.3 128.546 141.665 128.969Z" fill="url(#paint62_linear_10079_21473034)"/>
<rect x="104.688" y="72.9648" width="9.10223" height="33.4806" fill="url(#paint63_linear_10079_21473034)"/>
<rect x="113.781" y="72.9648" width="5.85414" height="33.4806" fill="url(#paint64_linear_10079_21473034)"/>
<path d="M114.219 71.5903H119.635V130.355H114.219V71.5903Z" fill="url(#paint65_linear_10079_21473034)"/>
<path d="M120.672 71.5903L130.111 70.8633V130.355H120.672V71.5903Z" fill="url(#paint66_linear_10079_21473034)"/>
<path d="M128.773 59.6675H142.024V108.891H128.773V59.6675Z" fill="url(#paint67_linear_10079_21473034)"/>
<rect width="2.76419" height="33.4806" transform="matrix(-1 0 0 1 104.688 72.9648)" fill="url(#paint68_linear_10079_21473034)"/>
<path d="M104.689 111.823C104.689 97.1843 116.818 85.0549 131.457 85.0549C134.385 85.0549 136.894 85.4731 139.822 86.3096C136.058 84.6366 131.875 83.3818 127.693 83.3818C113.89 83.3818 103.016 94.2565 103.016 108.059C103.016 111.823 103.852 115.169 105.525 118.515C105.107 116.424 104.689 114.333 104.689 111.823Z" fill="#F6F6F6"/>
<g filter="url(#filter1_f_10079_21473034)">
<path d="M132.824 137.927C149.062 137.927 162.226 125.685 162.226 110.584C162.226 95.483 149.062 83.2412 132.824 83.2412C116.586 83.2412 103.422 95.483 103.422 110.584C103.422 125.685 116.586 137.927 132.824 137.927Z" fill="url(#paint69_linear_10079_21473034)"/>
</g>
<path d="M134.467 136.826C148.964 136.826 160.716 125.077 160.716 110.585C160.716 96.0933 148.964 84.3452 134.467 84.3452C119.971 84.3452 108.219 96.0933 108.219 110.585C108.219 125.077 119.971 136.826 134.467 136.826Z" fill="url(#paint70_linear_10079_21473034)"/>
<path d="M134.467 136.826C148.964 136.826 160.716 125.077 160.716 110.585C160.716 96.0933 148.964 84.3452 134.467 84.3452C119.971 84.3452 108.219 96.0933 108.219 110.585C108.219 125.077 119.971 136.826 134.467 136.826Z" fill="url(#paint71_linear_10079_21473034)"/>
<path d="M131.186 136.826C145.683 136.826 157.434 125.077 157.434 110.585C157.434 96.0933 145.683 84.3452 131.186 84.3452C116.689 84.3452 104.938 96.0933 104.938 110.585C104.938 125.077 116.689 136.826 131.186 136.826Z" fill="url(#paint72_radial_10079_21473034)"/>
<mask id="mask0_10079_21473034" style="mask-type:alpha" maskUnits="userSpaceOnUse" x="104" y="84" width="54" height="53">
<path d="M131.186 136.826C145.683 136.826 157.434 125.077 157.434 110.585C157.434 96.0933 145.683 84.3452 131.186 84.3452C116.689 84.3452 104.938 96.0933 104.938 110.585C104.938 125.077 116.689 136.826 131.186 136.826Z" fill="url(#paint73_radial_10079_21473034)"/>
</mask>
<g mask="url(#mask0_10079_21473034)">
<path d="M168.261 110.257L172.855 84.3452L96.0781 140.762H146.45L168.261 110.257Z" fill="url(#paint74_linear_10079_21473034)"/>
</g>
<path d="M152.937 96.9084C160.156 109.411 155.836 125.544 143.337 132.76C137.088 136.368 130.214 136.927 123.821 135.693C130.542 137.495 137.864 137.057 144.397 133.285C156.896 126.069 161.216 109.935 153.998 97.4329C150.224 90.8975 144.387 86.6905 137.381 85.0523C143.491 86.4502 149.328 90.6572 152.937 96.9084Z" fill="#FEFFCF"/>
<path d="M152.937 96.9084C160.156 109.411 155.836 125.544 143.337 132.76C137.088 136.368 130.214 136.927 123.821 135.693C130.542 137.495 137.864 137.057 144.397 133.285C156.896 126.069 161.216 109.935 153.998 97.4329C150.224 90.8975 144.387 86.6905 137.381 85.0523C143.491 86.4502 149.328 90.6572 152.937 96.9084Z" fill="url(#paint75_linear_10079_21473034)"/>
<path d="M135.138 99.2562C135.138 96.4948 132.899 94.2563 130.138 94.2562L127.302 94.2562L127.302 106.569L115.269 106.289L115.269 114.125L127.302 114.405L127.582 126.438L130.3 126.438C133.107 126.438 135.364 124.128 135.299 121.321L135.138 114.405H143.533C145.697 114.405 147.451 112.651 147.451 110.487C147.451 108.323 145.697 106.569 143.533 106.569H135.138L135.138 99.2562Z" fill="url(#paint76_linear_10079_21473034)"/>
<path d="M130.797 97.9417C130.748 95.8147 129.009 94.1161 126.881 94.1161C124.683 94.1161 122.915 95.9257 122.966 98.1238L123.152 106.149H114.803C112.614 106.149 110.84 107.924 110.84 110.112C110.84 112.265 112.558 114.025 114.711 114.075L122.873 114.264L123.062 122.426C123.113 124.579 124.872 126.298 127.025 126.298C129.214 126.298 130.988 124.523 130.988 122.334L130.988 113.985L139.013 114.171C141.211 114.222 143.021 112.454 143.021 110.256C143.021 108.128 141.322 106.389 139.195 106.34L130.988 106.149L130.797 97.9417Z" fill="#BEE6FF"/>
<path d="M130.797 97.9417C130.748 95.8147 129.009 94.1161 126.881 94.1161C124.683 94.1161 122.915 95.9257 122.966 98.1238L123.152 106.149H114.803C112.614 106.149 110.84 107.924 110.84 110.112C110.84 112.265 112.558 114.025 114.711 114.075L122.873 114.264L123.062 122.426C123.113 124.579 124.872 126.298 127.025 126.298C129.214 126.298 130.988 124.523 130.988 122.334L130.988 113.985L139.013 114.171C141.211 114.222 143.021 112.454 143.021 110.256C143.021 108.128 141.322 106.389 139.195 106.34L130.988 106.149L130.797 97.9417Z" fill="url(#paint77_linear_10079_21473034)"/>
<path d="M130.988 126.297L130.741 97.9728C130.723 95.8445 128.979 94.1361 126.851 94.1616L130.988 126.297Z" fill="#F6F6F6"/>
<path d="M143.01 114.276L143.04 106.423L140.804 106.228L143.01 114.276Z" fill="#F6F6F6"/>
<defs>
<filter id="filter0_f_10079_21473034" x="44.8125" y="139.921" width="127.141" height="16.6787" filterUnits="userSpaceOnUse" color-interpolation-filters="sRGB">
<feFlood flood-opacity="0" result="BackgroundImageFix"/>
<feBlend mode="normal" in="SourceGraphic" in2="BackgroundImageFix" result="shape"/>
<feGaussianBlur stdDeviation="2" result="effect1_foregroundBlur_10079_21473034"/>
</filter>
<filter id="filter1_f_10079_21473034" x="98.4219" y="78.2412" width="68.8047" height="64.6855" filterUnits="userSpaceOnUse" color-interpolation-filters="sRGB">
<feFlood flood-opacity="0" result="BackgroundImageFix"/>
<feBlend mode="normal" in="SourceGraphic" in2="BackgroundImageFix" result="shape"/>
<feGaussianBlur stdDeviation="2.5" result="effect1_foregroundBlur_10079_21473034"/>
</filter>
<radialGradient id="paint0_radial_10079_21473034" cx="0" cy="0" r="1" gradientUnits="userSpaceOnUse" gradientTransform="translate(108.382 148.26) rotate(90.0048) scale(2.28938 31.4286)">
<stop stop-color="#6A99DD"/>
<stop offset="1" stop-color="#A0C0EF"/>
</radialGradient>
<linearGradient id="paint1_linear_10079_21473034" x1="75.9063" y1="68.6711" x2="146.864" y2="72.8533" gradientUnits="userSpaceOnUse">
<stop stop-color="#3239C5"/>
<stop offset="0.171875" stop-color="#1F247A" stop-opacity="0"/>
</linearGradient>
<linearGradient id="paint2_linear_10079_21473034" x1="141.78" y1="115.268" x2="120.031" y2="115.477" gradientUnits="userSpaceOnUse">
<stop offset="0.015625" stop-color="white" stop-opacity="0"/>
<stop offset="0.272727" stop-color="white"/>
<stop offset="0.625" stop-color="white"/>
<stop offset="1" stop-color="white" stop-opacity="0"/>
</linearGradient>
<linearGradient id="paint3_linear_10079_21473034" x1="87.3891" y1="99.4075" x2="113.731" y2="97.7683" gradientUnits="userSpaceOnUse">
<stop offset="0.0001" stop-color="white" stop-opacity="0"/>
<stop offset="0.416667" stop-color="white" stop-opacity="0.9375"/>
<stop offset="1" stop-color="white" stop-opacity="0"/>
</linearGradient>
<linearGradient id="paint4_linear_10079_21473034" x1="136.108" y1="101.995" x2="100.313" y2="101.995" gradientUnits="userSpaceOnUse">
<stop stop-color="#42AB44" stop-opacity="0"/>
<stop offset="0.401042" stop-color="#42AB44"/>
<stop offset="1" stop-color="#42AB44" stop-opacity="0"/>
</linearGradient>
<linearGradient id="paint5_linear_10079_21473034" x1="63.6493" y1="93.1296" x2="68.5557" y2="88.8923" gradientUnits="userSpaceOnUse">
<stop stop-color="white"/>
<stop offset="1" stop-color="#6DAEE3"/>
</linearGradient>
<linearGradient id="paint6_linear_10079_21473034" x1="109.42" y1="56.9434" x2="109.42" y2="69.635" gradientUnits="userSpaceOnUse">
<stop stop-color="#F6F6F6"/>
<stop offset="1" stop-color="#ACCEFF"/>
</linearGradient>
<linearGradient id="paint7_linear_10079_21473034" x1="87.8312" y1="64.5648" x2="90.2667" y2="66.5524" gradientUnits="userSpaceOnUse">
<stop/>
<stop offset="1" stop-color="#3137C5"/>
</linearGradient>
<linearGradient id="paint8_linear_10079_21473034" x1="103.906" y1="55.3289" x2="111.376" y2="74.3616" gradientUnits="userSpaceOnUse">
<stop/>
<stop offset="1" stop-color="#3137C5"/>
</linearGradient>
<linearGradient id="paint9_linear_10079_21473034" x1="146.517" y1="70.6151" x2="138.779" y2="72.0751" gradientUnits="userSpaceOnUse">
<stop stop-color="#157DFF"/>
<stop offset="1" stop-color="#0366DB" stop-opacity="0.0208333"/>
</linearGradient>
<linearGradient id="paint10_linear_10079_21473034" x1="83.2969" y1="23.6436" x2="135.692" y2="37.2849" gradientUnits="userSpaceOnUse">
<stop stop-color="#FFE7DA"/>
<stop offset="1" stop-color="#FFE7DA" stop-opacity="0"/>
</linearGradient>
<linearGradient id="paint11_linear_10079_21473034" x1="119.803" y1="23.0762" x2="116.138" y2="63.1659" gradientUnits="userSpaceOnUse">
<stop stop-color="#C2DBEC"/>
<stop offset="0.652809" stop-color="#F3FAFE"/>
<stop offset="1" stop-color="white"/>
</linearGradient>
<linearGradient id="paint12_linear_10079_21473034" x1="94.8845" y1="30.2489" x2="86.1666" y2="59.3744" gradientUnits="userSpaceOnUse">
<stop stop-color="white"/>
<stop offset="1" stop-color="white" stop-opacity="0"/>
</linearGradient>
<linearGradient id="paint13_linear_10079_21473034" x1="154.866" y1="93.0328" x2="162.682" y2="102.827" gradientUnits="userSpaceOnUse">
<stop/>
<stop offset="1" stop-color="#3137C5"/>
</linearGradient>
<linearGradient id="paint14_linear_10079_21473034" x1="11.5328" y1="45.1158" x2="17.3339" y2="51.4229" gradientUnits="userSpaceOnUse">
<stop stop-color="#C2DBEC"/>
<stop offset="0.652809" stop-color="#F3FAFE"/>
<stop offset="1" stop-color="white"/>
</linearGradient>
<linearGradient id="paint15_linear_10079_21473034" x1="4.679" y1="54.1415" x2="8.69688" y2="59.4645" gradientUnits="userSpaceOnUse">
<stop stop-color="white"/>
<stop offset="1" stop-color="white" stop-opacity="0"/>
</linearGradient>
<linearGradient id="paint16_linear_10079_21473034" x1="12.3112" y1="45.5742" x2="16.9722" y2="50.6028" gradientUnits="userSpaceOnUse">
<stop stop-color="#C2DBEC"/>
<stop offset="0.652809" stop-color="#F3FAFE"/>
<stop offset="1" stop-color="white"/>
</linearGradient>
<linearGradient id="paint17_linear_10079_21473034" x1="6.20492" y1="53.4196" x2="9.47711" y2="57.6448" gradientUnits="userSpaceOnUse">
<stop stop-color="white"/>
<stop offset="1" stop-color="white" stop-opacity="0"/>
</linearGradient>
<linearGradient id="paint18_linear_10079_21473034" x1="13.5642" y1="46.542" x2="15.935" y2="49.0205" gradientUnits="userSpaceOnUse">
<stop stop-color="#C2DBEC"/>
<stop offset="0.652809" stop-color="#F3FAFE"/>
<stop offset="1" stop-color="white"/>
</linearGradient>
<linearGradient id="paint19_linear_10079_21473034" x1="8.17375" y1="52.8079" x2="9.92436" y2="54.8447" gradientUnits="userSpaceOnUse">
<stop stop-color="white"/>
<stop offset="1" stop-color="white" stop-opacity="0"/>
</linearGradient>
<linearGradient id="paint20_linear_10079_21473034" x1="14.9198" y1="46.8797" x2="15.6667" y2="47.6486" gradientUnits="userSpaceOnUse">
<stop stop-color="#C2DBEC"/>
<stop offset="0.652809" stop-color="#F3FAFE"/>
<stop offset="1" stop-color="white"/>
</linearGradient>
<linearGradient id="paint21_linear_10079_21473034" x1="12.3502" y1="49.7251" x2="12.9139" y2="50.3486" gradientUnits="userSpaceOnUse">
<stop stop-color="white"/>
<stop offset="1" stop-color="white" stop-opacity="0"/>
</linearGradient>
<linearGradient id="paint22_linear_10079_21473034" x1="15.8035" y1="35.0088" x2="15.8035" y2="58.7413" gradientUnits="userSpaceOnUse">
<stop stop-color="#88BBFB"/>
<stop offset="1" stop-color="#0057D6"/>
</linearGradient>
<linearGradient id="paint23_linear_10079_21473034" x1="15.8775" y1="36.9102" x2="15.8775" y2="56.2029" gradientUnits="userSpaceOnUse">
<stop stop-color="#88BBFB"/>
<stop offset="1" stop-color="#0057D6"/>
</linearGradient>
<linearGradient id="paint24_linear_10079_21473034" x1="15.9248" y1="42.1357" x2="15.9248" y2="50.8084" gradientUnits="userSpaceOnUse">
<stop stop-color="#88BBFB"/>
<stop offset="1" stop-color="#0057D6"/>
</linearGradient>
<linearGradient id="paint25_linear_10079_21473034" x1="75.9063" y1="68.6711" x2="146.864" y2="72.8533" gradientUnits="userSpaceOnUse">
<stop stop-color="#3239C5"/>
<stop offset="0.171875" stop-color="#1F247A" stop-opacity="0"/>
</linearGradient>
<linearGradient id="paint26_linear_10079_21473034" x1="141.78" y1="115.268" x2="120.031" y2="115.477" gradientUnits="userSpaceOnUse">
<stop offset="0.015625" stop-color="white" stop-opacity="0"/>
<stop offset="0.272727" stop-color="white"/>
<stop offset="0.625" stop-color="white"/>
<stop offset="1" stop-color="white" stop-opacity="0"/>
</linearGradient>
<linearGradient id="paint27_linear_10079_21473034" x1="87.3891" y1="99.4075" x2="113.731" y2="97.7683" gradientUnits="userSpaceOnUse">
<stop offset="0.0001" stop-color="white" stop-opacity="0"/>
<stop offset="0.416667" stop-color="white" stop-opacity="0.9375"/>
<stop offset="1" stop-color="white" stop-opacity="0"/>
</linearGradient>
<linearGradient id="paint28_linear_10079_21473034" x1="95.5158" y1="118.785" x2="136.994" y2="119.577" gradientUnits="userSpaceOnUse">
<stop stop-color="#3665FF"/>
<stop offset="0.192708" stop-color="#0D1222"/>
<stop offset="0.515625" stop-color="#3137C5"/>
<stop offset="1" stop-color="#5F1A58"/>
</linearGradient>
<linearGradient id="paint29_linear_10079_21473034" x1="63.6493" y1="93.1296" x2="68.5557" y2="88.8923" gradientUnits="userSpaceOnUse">
<stop stop-color="white"/>
<stop offset="1" stop-color="#6DAEE3"/>
</linearGradient>
<linearGradient id="paint30_linear_10079_21473034" x1="109.42" y1="56.9434" x2="109.42" y2="69.635" gradientUnits="userSpaceOnUse">
<stop stop-color="#F6F6F6"/>
<stop offset="1" stop-color="#ACCEFF"/>
</linearGradient>
<linearGradient id="paint31_linear_10079_21473034" x1="87.8312" y1="64.5648" x2="90.2667" y2="66.5524" gradientUnits="userSpaceOnUse">
<stop/>
<stop offset="1" stop-color="#3137C5"/>
</linearGradient>
<linearGradient id="paint32_linear_10079_21473034" x1="83.3047" y1="61.9965" x2="84.0112" y2="67.2972" gradientUnits="userSpaceOnUse">
<stop/>
<stop offset="1" stop-color="#3137C5"/>
</linearGradient>
<linearGradient id="paint33_linear_10079_21473034" x1="112.381" y1="64.6765" x2="107.491" y2="64.6765" gradientUnits="userSpaceOnUse">
<stop stop-color="#157DFF"/>
<stop offset="1" stop-color="#0366DB" stop-opacity="0.0208333"/>
</linearGradient>
<linearGradient id="paint34_linear_10079_21473034" x1="103.906" y1="55.3289" x2="111.376" y2="74.3616" gradientUnits="userSpaceOnUse">
<stop/>
<stop offset="1" stop-color="#3137C5"/>
</linearGradient>
<linearGradient id="paint35_linear_10079_21473034" x1="146.517" y1="70.6151" x2="138.779" y2="72.0751" gradientUnits="userSpaceOnUse">
<stop stop-color="#157DFF"/>
<stop offset="1" stop-color="#0366DB" stop-opacity="0.0208333"/>
</linearGradient>
<linearGradient id="paint36_linear_10079_21473034" x1="83.2969" y1="23.6436" x2="135.692" y2="37.2849" gradientUnits="userSpaceOnUse">
<stop stop-color="#FFE7DA"/>
<stop offset="1" stop-color="#FFE7DA" stop-opacity="0"/>
</linearGradient>
<linearGradient id="paint37_linear_10079_21473034" x1="119.803" y1="23.0762" x2="116.138" y2="63.1659" gradientUnits="userSpaceOnUse">
<stop stop-color="#C2DBEC"/>
<stop offset="0.652809" stop-color="#F3FAFE"/>
<stop offset="1" stop-color="white"/>
</linearGradient>
<linearGradient id="paint38_linear_10079_21473034" x1="94.8845" y1="30.2489" x2="86.1666" y2="59.3744" gradientUnits="userSpaceOnUse">
<stop stop-color="white"/>
<stop offset="1" stop-color="white" stop-opacity="0"/>
</linearGradient>
<linearGradient id="paint39_linear_10079_21473034" x1="121.796" y1="38.9565" x2="132.942" y2="62.5892" gradientUnits="userSpaceOnUse">
<stop/>
<stop offset="1" stop-color="#3137C5"/>
</linearGradient>
<linearGradient id="paint40_linear_10079_21473034" x1="143.662" y1="65.6608" x2="168.403" y2="78.1726" gradientUnits="userSpaceOnUse">
<stop/>
<stop offset="1" stop-color="#662065"/>
</linearGradient>
<linearGradient id="paint41_linear_10079_21473034" x1="154.866" y1="93.0328" x2="162.682" y2="102.827" gradientUnits="userSpaceOnUse">
<stop/>
<stop offset="1" stop-color="#3137C5"/>
</linearGradient>
<linearGradient id="paint42_linear_10079_21473034" x1="113.328" y1="16.8863" x2="156.818" y2="57.6563" gradientUnits="userSpaceOnUse">
<stop/>
<stop offset="1" stop-color="#3137C5"/>
</linearGradient>
<linearGradient id="paint43_linear_10079_21473034" x1="172.025" y1="60.1852" x2="162.153" y2="60.1852" gradientUnits="userSpaceOnUse">
<stop stop-color="#157DFF"/>
<stop offset="1" stop-color="#0366DB" stop-opacity="0.0208333"/>
</linearGradient>
<linearGradient id="paint44_linear_10079_21473034" x1="22.4141" y1="49.6878" x2="29.8921" y2="54.0676" gradientUnits="userSpaceOnUse">
<stop/>
<stop offset="1" stop-color="#3137C5"/>
</linearGradient>
<linearGradient id="paint45_linear_10079_21473034" x1="29.6286" y1="58.2064" x2="28.4153" y2="58.2064" gradientUnits="userSpaceOnUse">
<stop stop-color="#157DFF"/>
<stop offset="1" stop-color="#0366DB" stop-opacity="0.0208333"/>
</linearGradient>
<linearGradient id="paint46_linear_10079_21473034" x1="4.64059" y1="30.6615" x2="28.2625" y2="48.5741" gradientUnits="userSpaceOnUse">
<stop/>
<stop offset="1" stop-color="#3137C5"/>
</linearGradient>
<linearGradient id="paint47_linear_10079_21473034" x1="31.3669" y1="55.035" x2="26.8721" y2="55.035" gradientUnits="userSpaceOnUse">
<stop stop-color="#157DFF"/>
<stop offset="1" stop-color="#0366DB" stop-opacity="0.0208333"/>
</linearGradient>
<linearGradient id="paint48_linear_10079_21473034" x1="11.5328" y1="45.1158" x2="17.3339" y2="51.4229" gradientUnits="userSpaceOnUse">
<stop stop-color="#C2DBEC"/>
<stop offset="0.652809" stop-color="#F3FAFE"/>
<stop offset="1" stop-color="white"/>
</linearGradient>
<linearGradient id="paint49_linear_10079_21473034" x1="4.679" y1="54.1415" x2="8.69688" y2="59.4645" gradientUnits="userSpaceOnUse">
<stop stop-color="white"/>
<stop offset="1" stop-color="white" stop-opacity="0"/>
</linearGradient>
<linearGradient id="paint50_linear_10079_21473034" x1="12.3112" y1="45.5742" x2="16.9722" y2="50.6028" gradientUnits="userSpaceOnUse">
<stop stop-color="#C2DBEC"/>
<stop offset="0.652809" stop-color="#F3FAFE"/>
<stop offset="1" stop-color="white"/>
</linearGradient>
<linearGradient id="paint51_linear_10079_21473034" x1="6.20492" y1="53.4196" x2="9.47711" y2="57.6448" gradientUnits="userSpaceOnUse">
<stop stop-color="white"/>
<stop offset="1" stop-color="white" stop-opacity="0"/>
</linearGradient>
<linearGradient id="paint52_linear_10079_21473034" x1="13.5642" y1="46.542" x2="15.935" y2="49.0205" gradientUnits="userSpaceOnUse">
<stop stop-color="#C2DBEC"/>
<stop offset="0.652809" stop-color="#F3FAFE"/>
<stop offset="1" stop-color="white"/>
</linearGradient>
<linearGradient id="paint53_linear_10079_21473034" x1="8.17375" y1="52.8079" x2="9.92436" y2="54.8447" gradientUnits="userSpaceOnUse">
<stop stop-color="white"/>
<stop offset="1" stop-color="white" stop-opacity="0"/>
</linearGradient>
<linearGradient id="paint54_linear_10079_21473034" x1="14.9198" y1="46.8797" x2="15.6667" y2="47.6486" gradientUnits="userSpaceOnUse">
<stop stop-color="#C2DBEC"/>
<stop offset="0.652809" stop-color="#F3FAFE"/>
<stop offset="1" stop-color="white"/>
</linearGradient>
<linearGradient id="paint55_linear_10079_21473034" x1="12.3502" y1="49.7251" x2="12.9139" y2="50.3486" gradientUnits="userSpaceOnUse">
<stop stop-color="white"/>
<stop offset="1" stop-color="white" stop-opacity="0"/>
</linearGradient>
<linearGradient id="paint56_linear_10079_21473034" x1="15.8035" y1="35.0088" x2="15.8035" y2="58.7413" gradientUnits="userSpaceOnUse">
<stop stop-color="#88BBFB"/>
<stop offset="1" stop-color="#0057D6"/>
</linearGradient>
<linearGradient id="paint57_linear_10079_21473034" x1="15.8775" y1="36.9102" x2="15.8775" y2="56.2029" gradientUnits="userSpaceOnUse">
<stop stop-color="#88BBFB"/>
<stop offset="1" stop-color="#0057D6"/>
</linearGradient>
<linearGradient id="paint58_linear_10079_21473034" x1="15.9248" y1="42.1357" x2="15.9248" y2="50.8084" gradientUnits="userSpaceOnUse">
<stop stop-color="#88BBFB"/>
<stop offset="1" stop-color="#0057D6"/>
</linearGradient>
<linearGradient id="paint59_linear_10079_21473034" x1="75.4531" y1="59.7963" x2="85.4987" y2="61.0853" gradientUnits="userSpaceOnUse">
<stop/>
<stop offset="1" stop-color="#3137C5"/>
</linearGradient>
<linearGradient id="paint60_linear_10079_21473034" x1="82.7882" y1="99.3264" x2="81.5546" y2="99.3264" gradientUnits="userSpaceOnUse">
<stop stop-color="#157DFF"/>
<stop offset="1" stop-color="#0366DB" stop-opacity="0.0208333"/>
</linearGradient>
<linearGradient id="paint61_linear_10079_21473034" x1="75.6952" y1="125.777" x2="77.869" y2="140.09" gradientUnits="userSpaceOnUse">
<stop/>
<stop offset="1" stop-color="#3137C5"/>
</linearGradient>
<linearGradient id="paint62_linear_10079_21473034" x1="144.955" y1="133.052" x2="133.307" y2="133.052" gradientUnits="userSpaceOnUse">
<stop stop-color="#157DFF"/>
<stop offset="1" stop-color="#0366DB" stop-opacity="0.0208333"/>
</linearGradient>
<linearGradient id="paint63_linear_10079_21473034" x1="113.79" y1="80.9333" x2="101.288" y2="86.0542" gradientUnits="userSpaceOnUse">
<stop stop-color="white" stop-opacity="0"/>
<stop offset="0.640625" stop-color="#93D67F"/>
<stop offset="1" stop-color="white"/>
</linearGradient>
<linearGradient id="paint64_linear_10079_21473034" x1="119.635" y1="80.9333" x2="115.139" y2="93.8811" gradientUnits="userSpaceOnUse">
<stop stop-color="white" stop-opacity="0"/>
<stop offset="0.640625" stop-color="#93D67F"/>
<stop offset="1" stop-color="white"/>
</linearGradient>
<linearGradient id="paint65_linear_10079_21473034" x1="116.927" y1="71.5903" x2="116.927" y2="131.895" gradientUnits="userSpaceOnUse">
<stop stop-color="white"/>
<stop offset="0.276042" stop-color="#44AE46"/>
<stop offset="1" stop-color="#FDFDDF"/>
</linearGradient>
<linearGradient id="paint66_linear_10079_21473034" x1="125.391" y1="71.5902" x2="125.391" y2="131.894" gradientUnits="userSpaceOnUse">
<stop stop-color="white"/>
<stop offset="0.234375" stop-color="#208440"/>
<stop offset="1" stop-color="#2F37AC"/>
</linearGradient>
<linearGradient id="paint67_linear_10079_21473034" x1="135.399" y1="59.6675" x2="135.399" y2="110.181" gradientUnits="userSpaceOnUse">
<stop stop-color="#1514BF" stop-opacity="0"/>
<stop offset="0.8125" stop-color="#44AE46"/>
</linearGradient>
<linearGradient id="paint68_linear_10079_21473034" x1="1.3821" y1="0" x2="1.3821" y2="33.4806" gradientUnits="userSpaceOnUse">
<stop stop-color="#46B048" stop-opacity="0"/>
<stop offset="0.567708" stop-color="#46B048"/>
</linearGradient>
<linearGradient id="paint69_linear_10079_21473034" x1="108.045" y1="90.1223" x2="152.389" y2="150.457" gradientUnits="userSpaceOnUse">
<stop stop-color="#C9E59A"/>
<stop offset="1" stop-color="#42AB44"/>
</linearGradient>
<linearGradient id="paint70_linear_10079_21473034" x1="151.608" y1="84.3452" x2="131.662" y2="86.8875" gradientUnits="userSpaceOnUse">
<stop/>
<stop offset="1" stop-opacity="0"/>
</linearGradient>
<linearGradient id="paint71_linear_10079_21473034" x1="124.732" y1="84.3452" x2="156.257" y2="111.864" gradientUnits="userSpaceOnUse">
<stop stop-color="#42AB44"/>
<stop offset="1" stop-color="#42AB44" stop-opacity="0"/>
</linearGradient>
<radialGradient id="paint72_radial_10079_21473034" cx="0" cy="0" r="1" gradientUnits="userSpaceOnUse" gradientTransform="translate(122.601 103.724) rotate(45.3821) scale(38.6041 40.4436)">
<stop offset="0.411458" stop-color="#42AB44"/>
<stop offset="1" stop-color="#D6F3A4"/>
</radialGradient>
<radialGradient id="paint73_radial_10079_21473034" cx="0" cy="0" r="1" gradientUnits="userSpaceOnUse" gradientTransform="translate(122.601 103.724) rotate(45.3821) scale(38.6041 40.4436)">
<stop offset="0.411458" stop-color="#42AB44"/>
<stop offset="1" stop-color="#D6F3A4"/>
</radialGradient>
<linearGradient id="paint74_linear_10079_21473034" x1="134.466" y1="99.8423" x2="156.23" y2="117.491" gradientUnits="userSpaceOnUse">
<stop stop-color="#2A842B"/>
<stop offset="1" stop-color="#42AB44" stop-opacity="0"/>
</linearGradient>
<linearGradient id="paint75_linear_10079_21473034" x1="144.351" y1="82.6753" x2="139.021" y2="141.353" gradientUnits="userSpaceOnUse">
<stop stop-color="#CBE482"/>
<stop offset="1" stop-color="#CBE482" stop-opacity="0"/>
</linearGradient>
<linearGradient id="paint76_linear_10079_21473034" x1="132.882" y1="111.868" x2="141.434" y2="120.421" gradientUnits="userSpaceOnUse">
<stop/>
<stop offset="1" stop-color="#0357CA"/>
</linearGradient>
<linearGradient id="paint77_linear_10079_21473034" x1="137.834" y1="104.345" x2="121.282" y2="96.4543" gradientUnits="userSpaceOnUse">
<stop stop-color="#F4FAFF"/>
<stop offset="1" stop-color="#F4FAFF" stop-opacity="0"/>
</linearGradient>
</defs>
</svg>
