<svg id="icon" viewBox="0 0 20 20" fill="none" xmlns="http://www.w3.org/2000/svg"><path d="M1.667 10.441v2.475c0 2.917 1.666 4.167 4.166 4.167h8.334c2.5 0 4.166-1.25 4.166-4.167V7.083c0-2.917-1.666-4.167-4.166-4.167H5.832c-2.5 0-4.167 1.25-4.167 4.167v.416H2.5c2.5 0 3.333-.833 3.333-3.333v-.833" stroke="#42AB44" stroke-width="2" stroke-miterlimit="10" stroke-linecap="round" stroke-linejoin="round"/><path d="M12.5 10c0-1.383-1.117-2.5-2.5-2.5A2.497 2.497 0 0 0 7.5 10c0 1.383 1.117 2.5 2.5 2.5M18.333 7.5H17.5c-2.5 0-3.334-.833-3.334-3.333v-.833M1.667 12.5H2.5c2.5 0 3.333.833 3.333 3.333v.834M18.333 12.5H17.5c-2.5 0-3.334.833-3.334 3.333v.834" stroke="#42AB44" stroke-width="2" stroke-miterlimit="10" stroke-linecap="round" stroke-linejoin="round"/></svg>