<svg id="icon" viewBox="0 0 22 20" fill="none" xmlns="http://www.w3.org/2000/svg"><path d="M3.192 4.792a.902.902 0 0 0-.526.775v2.767c0 .458.376.833.834.833h15a.836.836 0 0 0 .833-.833V5.567a.903.903 0 0 0-.525-.775l-7.5-3a.976.976 0 0 0-.617 0L6.658 3.41M19.333 18.333H2.667v-2.5c0-.458.375-.833.833-.833h15c.458 0 .833.375.833.833v2.5ZM4.333 15V9.165M7.667 15V9.165M11 15V9.165M14.334 15V9.165M17.666 15V9.165M1.833 18.334h18.334" stroke="currentColor" stroke-width="2" stroke-miterlimit="10" stroke-linecap="round" stroke-linejoin="round"/><path d="M11 7.084a1.25 1.25 0 1 0 0-2.5 1.25 1.25 0 0 0 0 2.5Z" stroke="currentColor" stroke-width="2" stroke-miterlimit="10" stroke-linecap="round" stroke-linejoin="round"/></svg>