<?xml version="1.0" encoding="UTF-8"?>
<svg fill="none" viewBox="0 0 268 218" xmlns="http://www.w3.org/2000/svg">
<g filter="url(#f)">
<path d="m144.19 188.15c-7.129 0-12.89-2.286-17.283-6.859-4.349-4.573-6.524-10.581-6.524-18.023v-3.363h10.088v3.363c0 4.438 1.255 8.025 3.766 10.76 2.51 2.69 5.851 4.035 10.02 4.035 4.17 0 7.51-1.345 10.02-4.035 2.511-2.735 3.766-6.322 3.766-10.76v-19.772c0-4.438-1.3-8.003-3.9-10.693-2.556-2.734-5.963-4.102-10.222-4.102-4.215 0-7.51 1.345-9.886 4.035s-3.564 6.254-3.564 10.693v1.412h-10.088v-59.718h46.739v10.088h-41.224l4.573-4.573v38.937l-1.816-2.286c1.659-2.78 3.833-4.909 6.523-6.389 2.69-1.524 5.918-2.286 9.684-2.286 4.528 0 8.541 1.031 12.038 3.093s6.232 4.977 8.205 8.743c2.017 3.721 3.026 8.07 3.026 13.046v19.772c0 7.442-2.175 13.45-6.523 18.023-4.349 4.573-10.155 6.859-17.418 6.859zm28.494 5.245 5.38-24.075h9.751l-5.38 24.075h-9.751zm24.886-7.397 26.833-95.158 3.228 4.3712h-40.417v-10.088h46.604v8.877l-25.488 91.998h-10.76z" fill="url(#c)"/>
</g>
<g filter="url(#e)">
<path d="m221.06 169.31c0-1.009 0.134-1.894 0.403-2.656s0.639-1.401 1.11-1.917c0.493-0.538 1.065-0.941 1.715-1.21s1.356-0.404 2.118-0.404 1.469 0.135 2.119 0.404 1.21 0.672 1.681 1.21c0.493 0.516 0.874 1.155 1.143 1.917s0.404 1.647 0.404 2.656-0.135 1.894-0.404 2.657c-0.269 0.762-0.65 1.412-1.143 1.95-0.471 0.515-1.031 0.908-1.681 1.177s-1.357 0.403-2.119 0.403-1.468-0.134-2.118-0.403-1.222-0.662-1.715-1.177c-0.471-0.538-0.841-1.188-1.11-1.95-0.269-0.763-0.403-1.648-0.403-2.657zm8.07 0c0-1.21-0.236-2.152-0.706-2.824-0.471-0.695-1.144-1.043-2.018-1.043s-1.547 0.348-2.017 1.043c-0.471 0.672-0.706 1.614-0.706 2.824 0 1.211 0.235 2.163 0.706 2.858 0.47 0.673 1.143 1.009 2.017 1.009s1.547-0.336 2.018-1.009c0.47-0.695 0.706-1.647 0.706-2.858zm6.725 11.937c0-1.009 0.134-1.894 0.403-2.656 0.269-0.763 0.639-1.401 1.11-1.917 0.493-0.538 1.065-0.941 1.715-1.21s1.356-0.404 2.118-0.404 1.468 0.135 2.119 0.404c0.65 0.269 1.21 0.672 1.681 1.21 0.493 0.516 0.874 1.154 1.143 1.917 0.269 0.762 0.404 1.647 0.404 2.656s-0.135 1.894-0.404 2.656c-0.269 0.763-0.65 1.413-1.143 1.951-0.471 0.515-1.031 0.908-1.681 1.177-0.651 0.269-1.357 0.403-2.119 0.403s-1.468-0.134-2.118-0.403-1.222-0.662-1.715-1.177c-0.471-0.538-0.841-1.188-1.11-1.951-0.269-0.762-0.403-1.647-0.403-2.656zm8.07 0c0-1.21-0.236-2.152-0.706-2.824-0.471-0.695-1.144-1.043-2.018-1.043s-1.547 0.348-2.017 1.043c-0.471 0.672-0.706 1.614-0.706 2.824 0 1.211 0.235 2.163 0.706 2.858 0.47 0.673 1.143 1.009 2.017 1.009s1.547-0.336 2.018-1.009c0.47-0.695 0.706-1.647 0.706-2.858zm-2.018-17.619-13.147 23.302h-3.06l13.147-23.302h3.06z" fill="#fff"/>
<path d="m221.06 169.31c0-1.009 0.134-1.894 0.403-2.656s0.639-1.401 1.11-1.917c0.493-0.538 1.065-0.941 1.715-1.21s1.356-0.404 2.118-0.404 1.469 0.135 2.119 0.404 1.21 0.672 1.681 1.21c0.493 0.516 0.874 1.155 1.143 1.917s0.404 1.647 0.404 2.656-0.135 1.894-0.404 2.657c-0.269 0.762-0.65 1.412-1.143 1.95-0.471 0.515-1.031 0.908-1.681 1.177s-1.357 0.403-2.119 0.403-1.468-0.134-2.118-0.403-1.222-0.662-1.715-1.177c-0.471-0.538-0.841-1.188-1.11-1.95-0.269-0.763-0.403-1.648-0.403-2.657zm8.07 0c0-1.21-0.236-2.152-0.706-2.824-0.471-0.695-1.144-1.043-2.018-1.043s-1.547 0.348-2.017 1.043c-0.471 0.672-0.706 1.614-0.706 2.824 0 1.211 0.235 2.163 0.706 2.858 0.47 0.673 1.143 1.009 2.017 1.009s1.547-0.336 2.018-1.009c0.47-0.695 0.706-1.647 0.706-2.858zm6.725 11.937c0-1.009 0.134-1.894 0.403-2.656 0.269-0.763 0.639-1.401 1.11-1.917 0.493-0.538 1.065-0.941 1.715-1.21s1.356-0.404 2.118-0.404 1.468 0.135 2.119 0.404c0.65 0.269 1.21 0.672 1.681 1.21 0.493 0.516 0.874 1.154 1.143 1.917 0.269 0.762 0.404 1.647 0.404 2.656s-0.135 1.894-0.404 2.656c-0.269 0.763-0.65 1.413-1.143 1.951-0.471 0.515-1.031 0.908-1.681 1.177-0.651 0.269-1.357 0.403-2.119 0.403s-1.468-0.134-2.118-0.403-1.222-0.662-1.715-1.177c-0.471-0.538-0.841-1.188-1.11-1.951-0.269-0.762-0.403-1.647-0.403-2.656zm8.07 0c0-1.21-0.236-2.152-0.706-2.824-0.471-0.695-1.144-1.043-2.018-1.043s-1.547 0.348-2.017 1.043c-0.471 0.672-0.706 1.614-0.706 2.824 0 1.211 0.235 2.163 0.706 2.858 0.47 0.673 1.143 1.009 2.017 1.009s1.547-0.336 2.018-1.009c0.47-0.695 0.706-1.647 0.706-2.858zm-2.018-17.619-13.147 23.302h-3.06l13.147-23.302h3.06z" fill="url(#b)"/>
</g>
<g filter="url(#d)">
<path d="m94.726 180.26c0 1.389-0.2017 2.645-0.6052 3.766-0.4035 1.12-0.9751 2.084-1.7149 2.891-0.7173 0.807-1.5804 1.435-2.5891 1.883-1.0088 0.426-2.1072 0.639-3.2953 0.639-1.188 0-2.2865-0.213-3.2952-0.639-1.0088-0.448-1.883-1.076-2.6227-1.883-0.7174-0.807-1.2778-1.771-1.6813-2.891-0.4035-1.121-0.6052-2.377-0.6052-3.766 0-1.368 0.2017-2.612 0.6052-3.733 0.4035-1.143 0.9639-2.118 1.6813-2.925 0.7397-0.807 1.6139-1.424 2.6227-1.85 1.0087-0.448 2.1072-0.672 3.2952-0.672 1.1881 0 2.2865 0.224 3.2953 0.672 1.0087 0.426 1.8718 1.043 2.5891 1.85 0.7398 0.807 1.3114 1.782 1.7149 2.925 0.4035 1.121 0.6052 2.365 0.6052 3.733zm-3.2616 0c0-1.973-0.4483-3.531-1.345-4.674-0.8742-1.166-2.0735-1.749-3.5979-1.749-1.5243 0-2.7348 0.583-3.6315 1.749-0.8742 1.143-1.3113 2.701-1.3113 4.674 0 1.972 0.4371 3.541 1.3113 4.707 0.8967 1.143 2.1072 1.715 3.6315 1.715 1.5244 0 2.7237-0.572 3.5979-1.715 0.8967-1.166 1.345-2.735 1.345-4.707zm20.002-8.743v2.623h-5.683v14.862h-3.127v-14.862h-5.6827v-2.623h14.493z" fill="#fff"/>
<path d="m94.726 180.26c0 1.389-0.2017 2.645-0.6052 3.766-0.4035 1.12-0.9751 2.084-1.7149 2.891-0.7173 0.807-1.5804 1.435-2.5891 1.883-1.0088 0.426-2.1072 0.639-3.2953 0.639-1.188 0-2.2865-0.213-3.2952-0.639-1.0088-0.448-1.883-1.076-2.6227-1.883-0.7174-0.807-1.2778-1.771-1.6813-2.891-0.4035-1.121-0.6052-2.377-0.6052-3.766 0-1.368 0.2017-2.612 0.6052-3.733 0.4035-1.143 0.9639-2.118 1.6813-2.925 0.7397-0.807 1.6139-1.424 2.6227-1.85 1.0087-0.448 2.1072-0.672 3.2952-0.672 1.1881 0 2.2865 0.224 3.2953 0.672 1.0087 0.426 1.8718 1.043 2.5891 1.85 0.7398 0.807 1.3114 1.782 1.7149 2.925 0.4035 1.121 0.6052 2.365 0.6052 3.733zm-3.2616 0c0-1.973-0.4483-3.531-1.345-4.674-0.8742-1.166-2.0735-1.749-3.5979-1.749-1.5243 0-2.7348 0.583-3.6315 1.749-0.8742 1.143-1.3113 2.701-1.3113 4.674 0 1.972 0.4371 3.541 1.3113 4.707 0.8967 1.143 2.1072 1.715 3.6315 1.715 1.5244 0 2.7237-0.572 3.5979-1.715 0.8967-1.166 1.345-2.735 1.345-4.707zm20.002-8.743v2.623h-5.683v14.862h-3.127v-14.862h-5.6827v-2.623h14.493z" fill="url(#a)"/>
</g>
<defs>
<filter id="f" x="119.97" y="84.712" width="114.26" height="109.1" color-interpolation-filters="sRGB" filterUnits="userSpaceOnUse">
<feFlood flood-opacity="0" result="BackgroundImageFix"/>
<feBlend in="SourceGraphic" in2="BackgroundImageFix" result="shape"/>
<feColorMatrix in="SourceAlpha" result="hardAlpha" values="0 0 0 0 0 0 0 0 0 0 0 0 0 0 0 0 0 0 127 0"/>
<feOffset dx="-0.413395" dy="-0.413395"/>
<feGaussianBlur stdDeviation="0.413395"/>
<feComposite in2="hardAlpha" k2="-1" k3="1" operator="arithmetic"/>
<feColorMatrix values="0 0 0 0 0.167969 0 0 0 0 0.5375 0 0 0 0 0.175007 0 0 0 1 0"/>
<feBlend in2="shape" result="effect1_innerShadow_10189_210162"/>
<feColorMatrix in="SourceAlpha" result="hardAlpha" values="0 0 0 0 0 0 0 0 0 0 0 0 0 0 0 0 0 0 127 0"/>
<feOffset dx="0.413395" dy="0.413395"/>
<feGaussianBlur stdDeviation="0.413395"/>
<feComposite in2="hardAlpha" k2="-1" k3="1" operator="arithmetic"/>
<feColorMatrix values="0 0 0 0 0.327795 0 0 0 0 0.995833 0 0 0 0 0.34052 0 0 0 1 0"/>
<feBlend in2="effect1_innerShadow_10189_210162" result="effect2_innerShadow_10189_210162"/>
</filter>
<filter id="e" x="220.65" y="162.71" width="26.313" height="25.137" color-interpolation-filters="sRGB" filterUnits="userSpaceOnUse">
<feFlood flood-opacity="0" result="BackgroundImageFix"/>
<feBlend in="SourceGraphic" in2="BackgroundImageFix" result="shape"/>
<feColorMatrix in="SourceAlpha" result="hardAlpha" values="0 0 0 0 0 0 0 0 0 0 0 0 0 0 0 0 0 0 127 0"/>
<feOffset dx="-0.413395" dy="-0.413395"/>
<feGaussianBlur stdDeviation="0.413395"/>
<feComposite in2="hardAlpha" k2="-1" k3="1" operator="arithmetic"/>
<feColorMatrix values="0 0 0 0 0.167969 0 0 0 0 0.5375 0 0 0 0 0.175007 0 0 0 1 0"/>
<feBlend in2="shape" result="effect1_innerShadow_10189_210162"/>
<feColorMatrix in="SourceAlpha" result="hardAlpha" values="0 0 0 0 0 0 0 0 0 0 0 0 0 0 0 0 0 0 127 0"/>
<feOffset dx="0.413395" dy="0.413395"/>
<feGaussianBlur stdDeviation="0.413395"/>
<feComposite in2="hardAlpha" k2="-1" k3="1" operator="arithmetic"/>
<feColorMatrix values="0 0 0 0 0.327795 0 0 0 0 0.995833 0 0 0 0 0.34052 0 0 0 1 0"/>
<feBlend in2="effect1_innerShadow_10189_210162" result="effect2_innerShadow_10189_210162"/>
</filter>
<filter id="d" x="77.903" y="170.66" width="33.975" height="19.186" color-interpolation-filters="sRGB" filterUnits="userSpaceOnUse">
<feFlood flood-opacity="0" result="BackgroundImageFix"/>
<feBlend in="SourceGraphic" in2="BackgroundImageFix" result="shape"/>
<feColorMatrix in="SourceAlpha" result="hardAlpha" values="0 0 0 0 0 0 0 0 0 0 0 0 0 0 0 0 0 0 127 0"/>
<feOffset dx="-0.413395" dy="-0.413395"/>
<feGaussianBlur stdDeviation="0.413395"/>
<feComposite in2="hardAlpha" k2="-1" k3="1" operator="arithmetic"/>
<feColorMatrix values="0 0 0 0 0.167969 0 0 0 0 0.5375 0 0 0 0 0.175007 0 0 0 1 0"/>
<feBlend in2="shape" result="effect1_innerShadow_10189_210162"/>
<feColorMatrix in="SourceAlpha" result="hardAlpha" values="0 0 0 0 0 0 0 0 0 0 0 0 0 0 0 0 0 0 127 0"/>
<feOffset dx="0.413395" dy="0.413395"/>
<feGaussianBlur stdDeviation="0.413395"/>
<feComposite in2="hardAlpha" k2="-1" k3="1" operator="arithmetic"/>
<feColorMatrix values="0 0 0 0 0.327795 0 0 0 0 0.995833 0 0 0 0 0.34052 0 0 0 1 0"/>
<feBlend in2="effect1_innerShadow_10189_210162" result="effect2_innerShadow_10189_210162"/>
</filter>
<linearGradient id="c" x1="174.3" x2="174.3" y1="53" y2="240" gradientUnits="userSpaceOnUse">
<stop stop-color="#42AB44" offset="0"/>
<stop stop-color="#F6DB7D" offset="1"/>
</linearGradient>
<linearGradient id="b" x1="233.74" x2="233.74" y1="154.93" y2="193.93" gradientUnits="userSpaceOnUse">
<stop stop-color="#42AB44" offset="0"/>
<stop stop-color="#F6DB7D" offset="1"/>
</linearGradient>
<linearGradient id="a" x1="94" x2="94" y1="157" y2="196" gradientUnits="userSpaceOnUse">
<stop stop-color="#42AB44" offset="0"/>
<stop stop-color="#F6DB7D" offset="1"/>
</linearGradient>
</defs>
</svg>
