<?xml version="1.0" encoding="utf-8"?>
<!-- Generator: Adobe Illustrator 25.0.1, SVG Export Plug-In . SVG Version: 6.00 Build 0)  -->
<svg version="1.1" id="Слой_1" xmlns="http://www.w3.org/2000/svg" xmlns:xlink="http://www.w3.org/1999/xlink" x="0px" y="0px"
	 viewBox="0 0 451 212.9" style="enable-background:new 0 0 451 212.9;" xml:space="preserve">
<style type="text/css">
	.st0{fill:url(#SVGID_1_);}
	.st1{fill:#42AB44;}
	.st2{fill:url(#SVGID_2_);}
	.st3{fill:url(#SVGID_3_);}
	.st4{fill:none;}
</style>
<g>
	
		<linearGradient id="SVGID_1_" gradientUnits="userSpaceOnUse" x1="241.4855" y1="235.8898" x2="241.4855" y2="-112.1102" gradientTransform="matrix(1 0 0 -1 0 181.8898)">
		<stop  offset="0" style="stop-color:#42AB44"/>
		<stop  offset="1" style="stop-color:#F6DB7D"/>
	</linearGradient>
	<path class="st0" d="M177,197c-13.2,0-24-4.2-32.1-12.8c-8.1-8.5-12.1-19.7-12.1-33.5v-6.2h18.8v6.2c0,8.2,2.3,14.9,7,20
		c4.7,5,10.9,7.5,18.6,7.5s14-2.5,18.6-7.5c4.7-5.1,7-11.8,7-20V114c0-8.2-2.4-14.9-7.2-19.9c-4.8-5.1-11.1-7.6-19-7.6
		c-7.8,0-14,2.5-18.4,7.5s-6.6,11.6-6.6,19.9v2.6h-18.8V5.5h86.9v18.8H143l8.5-8.5v72.4l-3.4-4.2c3.1-5.2,7.1-9.1,12.1-11.9
		c5-2.8,11-4.2,18-4.2c8.4,0,15.9,1.9,22.4,5.8c6.5,3.8,11.6,9.2,15.2,16.2c3.8,6.9,5.6,15,5.6,24.2v36.8c0,13.8-4,25-12.1,33.5
		S190.5,197,177,197z M225,206.8l10-44.8h18.1l-10,44.8H225z M305.7,197c-13.2,0-24-4.2-32.1-12.8c-8.1-8.5-12.1-19.7-12.1-33.5
		v-6.2h18.8v6.2c0,8.2,2.3,14.9,7,20c4.7,5,10.9,7.5,18.6,7.5s14-2.5,18.6-7.5c4.7-5.1,7-11.8,7-20V114c0-8.2-2.4-14.9-7.2-19.9
		c-4.8-5.1-11.1-7.6-19-7.6c-7.8,0-14,2.5-18.4,7.5c-4.4,5-6.6,11.6-6.6,19.9v2.6h-18.8V5.5h86.9v18.8h-76.6l8.5-8.5v72.4l-3.4-4.2
		c3.1-5.2,7.1-9.1,12.1-11.9c5-2.8,11-4.2,18-4.2c8.4,0,15.9,1.9,22.4,5.8c6.5,3.8,11.6,9.2,15.2,16.2c3.8,6.9,5.6,15,5.6,24.2v36.8
		c0,13.8-4,25-12.1,33.5C330,192.8,319.2,197,305.7,197z"/>
</g>
<g>
	<path class="st1" d="M370.2,24.6c0-3,0.4-5.6,1.2-7.9c0.8-2.3,1.9-4.2,3.3-5.7c1.5-1.6,3.2-2.8,5.1-3.6c1.9-0.8,4-1.2,6.3-1.2
		s4.4,0.4,6.3,1.2c1.9,0.8,3.6,2,5,3.6c1.5,1.5,2.6,3.4,3.4,5.7c0.8,2.3,1.2,4.9,1.2,7.9s-0.4,5.6-1.2,7.9c-0.8,2.3-1.9,4.2-3.4,5.8
		c-1.4,1.5-3.1,2.7-5,3.5c-1.9,0.8-4,1.2-6.3,1.2s-4.4-0.4-6.3-1.2c-1.9-0.8-3.6-2-5.1-3.5c-1.4-1.6-2.5-3.5-3.3-5.8
		C370.6,30.2,370.2,27.6,370.2,24.6z M394.2,24.6c0-3.6-0.7-6.4-2.1-8.4c-1.4-2.1-3.4-3.1-6-3.1s-4.6,1-6,3.1
		c-1.4,2-2.1,4.8-2.1,8.4s0.7,6.4,2.1,8.5c1.4,2,3.4,3,6,3s4.6-1,6-3C393.5,31,394.2,28.2,394.2,24.6z M414.2,60.1
		c0-3,0.4-5.6,1.2-7.9c0.8-2.3,1.9-4.2,3.3-5.7c1.5-1.6,3.2-2.8,5.1-3.6c1.9-0.8,4-1.2,6.3-1.2s4.4,0.4,6.3,1.2c1.9,0.8,3.6,2,5,3.6
		c1.5,1.5,2.6,3.4,3.4,5.7c0.8,2.3,1.2,4.9,1.2,7.9s-0.4,5.6-1.2,7.9c-0.8,2.3-1.9,4.2-3.4,5.8c-1.4,1.5-3.1,2.7-5,3.5
		c-1.9,0.8-4,1.2-6.3,1.2s-4.4-0.4-6.3-1.2c-1.9-0.8-3.6-2-5.1-3.5c-1.4-1.6-2.5-3.5-3.3-5.8C414.6,65.7,414.2,63.1,414.2,60.1z
		 M438.2,60.1c0-3.6-0.7-6.4-2.1-8.4c-1.4-2.1-3.4-3.1-6-3.1s-4.6,1-6,3.1c-1.4,2-2.1,4.8-2.1,8.4s0.7,6.4,2.1,8.5c1.4,2,3.4,3,6,3
		s4.6-1,6-3C437.5,66.5,438.2,63.7,438.2,60.1z M432.2,7.7L393.1,77H384l39.1-69.3H432.2z"/>
	
		<linearGradient id="SVGID_2_" gradientUnits="userSpaceOnUse" x1="408.06" y1="199.8898" x2="408.06" y2="84.8898" gradientTransform="matrix(1 0 0 -1 0 181.8898)">
		<stop  offset="0" style="stop-color:#42AB44"/>
		<stop  offset="1" style="stop-color:#F6DB7D"/>
	</linearGradient>
	<path class="st2" d="M370.2,24.6c0-3,0.4-5.6,1.2-7.9c0.8-2.3,1.9-4.2,3.3-5.7c1.5-1.6,3.2-2.8,5.1-3.6c1.9-0.8,4-1.2,6.3-1.2
		s4.4,0.4,6.3,1.2c1.9,0.8,3.6,2,5,3.6c1.5,1.5,2.6,3.4,3.4,5.7c0.8,2.3,1.2,4.9,1.2,7.9s-0.4,5.6-1.2,7.9c-0.8,2.3-1.9,4.2-3.4,5.8
		c-1.4,1.5-3.1,2.7-5,3.5c-1.9,0.8-4,1.2-6.3,1.2s-4.4-0.4-6.3-1.2c-1.9-0.8-3.6-2-5.1-3.5c-1.4-1.6-2.5-3.5-3.3-5.8
		C370.6,30.2,370.2,27.6,370.2,24.6z M394.2,24.6c0-3.6-0.7-6.4-2.1-8.4c-1.4-2.1-3.4-3.1-6-3.1s-4.6,1-6,3.1
		c-1.4,2-2.1,4.8-2.1,8.4s0.7,6.4,2.1,8.5c1.4,2,3.4,3,6,3s4.6-1,6-3C393.5,31,394.2,28.2,394.2,24.6z M414.2,60.1
		c0-3,0.4-5.6,1.2-7.9c0.8-2.3,1.9-4.2,3.3-5.7c1.5-1.6,3.2-2.8,5.1-3.6c1.9-0.8,4-1.2,6.3-1.2s4.4,0.4,6.3,1.2c1.9,0.8,3.6,2,5,3.6
		c1.5,1.5,2.6,3.4,3.4,5.7c0.8,2.3,1.2,4.9,1.2,7.9s-0.4,5.6-1.2,7.9c-0.8,2.3-1.9,4.2-3.4,5.8c-1.4,1.5-3.1,2.7-5,3.5
		c-1.9,0.8-4,1.2-6.3,1.2s-4.4-0.4-6.3-1.2c-1.9-0.8-3.6-2-5.1-3.5c-1.4-1.6-2.5-3.5-3.3-5.8C414.6,65.7,414.2,63.1,414.2,60.1z
		 M438.2,60.1c0-3.6-0.7-6.4-2.1-8.4c-1.4-2.1-3.4-3.1-6-3.1s-4.6,1-6,3.1c-1.4,2-2.1,4.8-2.1,8.4s0.7,6.4,2.1,8.5c1.4,2,3.4,3,6,3
		s4.6-1,6-3C437.5,66.5,438.2,63.7,438.2,60.1z M432.2,7.7L393.1,77H384l39.1-69.3H432.2z"/>
</g>
<g>
	<path class="st1" d="M54.6,169c0,4.1-0.6,7.9-1.8,11.2c-1.2,3.3-2.9,6.2-5.1,8.6c-2.1,2.4-4.7,4.3-7.7,5.6c-3,1.3-6.3,1.9-9.8,1.9
		c-3.5,0-6.8-0.6-9.8-1.9c-3-1.3-5.6-3.2-7.8-5.6c-2.1-2.4-3.8-5.3-5-8.6c-1.2-3.3-1.8-7.1-1.8-11.2c0-4.1,0.6-7.8,1.8-11.1
		c1.2-3.4,2.9-6.3,5-8.7c2.2-2.4,4.8-4.2,7.8-5.5c3-1.3,6.3-2,9.8-2c3.5,0,6.8,0.7,9.8,2c3,1.3,5.6,3.1,7.7,5.5
		c2.2,2.4,3.9,5.3,5.1,8.7C54,161.2,54.6,164.9,54.6,169z M44.9,169c0-5.9-1.3-10.5-4-13.9c-2.6-3.5-6.2-5.2-10.7-5.2
		c-4.5,0-8.1,1.7-10.8,5.2c-2.6,3.4-3.9,8-3.9,13.9s1.3,10.5,3.9,14c2.7,3.4,6.3,5.1,10.8,5.1c4.5,0,8.1-1.7,10.7-5.1
		C43.6,179.5,44.9,174.9,44.9,169z M104.4,143v7.8H87.5V195h-9.3v-44.2H61.3V143H104.4z"/>
	
		<linearGradient id="SVGID_3_" gradientUnits="userSpaceOnUse" x1="55.1188" y1="81.8898" x2="55.1188" y2="-33.1102" gradientTransform="matrix(1 0 0 -1 0 181.8898)">
		<stop  offset="0" style="stop-color:#42AB44"/>
		<stop  offset="1" style="stop-color:#F6DB7D"/>
	</linearGradient>
	<path class="st3" d="M54.6,169c0,4.1-0.6,7.9-1.8,11.2c-1.2,3.3-2.9,6.2-5.1,8.6c-2.1,2.4-4.7,4.3-7.7,5.6c-3,1.3-6.3,1.9-9.8,1.9
		c-3.5,0-6.8-0.6-9.8-1.9c-3-1.3-5.6-3.2-7.8-5.6c-2.1-2.4-3.8-5.3-5-8.6c-1.2-3.3-1.8-7.1-1.8-11.2c0-4.1,0.6-7.8,1.8-11.1
		c1.2-3.4,2.9-6.3,5-8.7c2.2-2.4,4.8-4.2,7.8-5.5c3-1.3,6.3-2,9.8-2c3.5,0,6.8,0.7,9.8,2c3,1.3,5.6,3.1,7.7,5.5
		c2.2,2.4,3.9,5.3,5.1,8.7C54,161.2,54.6,164.9,54.6,169z M44.9,169c0-5.9-1.3-10.5-4-13.9c-2.6-3.5-6.2-5.2-10.7-5.2
		c-4.5,0-8.1,1.7-10.8,5.2c-2.6,3.4-3.9,8-3.9,13.9s1.3,10.5,3.9,14c2.7,3.4,6.3,5.1,10.8,5.1c4.5,0,8.1-1.7,10.7-5.1
		C43.6,179.5,44.9,174.9,44.9,169z M104.4,143v7.8H87.5V195h-9.3v-44.2H61.3V143H104.4z"/>
</g>
<rect x="1" y="-53.1" class="st4" width="449" height="288"/>
</svg>
