<svg width="290" height="257" fill="none" xmlns="http://www.w3.org/2000/svg"><path d="M272.718 172.066h13.502v4.56h1.278v-5.605h-2.154v-15.033h-8.711a165.687 165.687 0 0 1-.093 3.704v.004l-.499-.018a29.087 29.087 0 0 1-.372 4.017l-2.951 8.371Zm0 0v4.56h-1.277v-5.605h1.533l.149-.169a10.942 10.942 0 0 0 2.021-3.302 17.5 17.5 0 0 0 1.019-3.778l-3.445 8.294Zm5.6-11.205c.066-1.134.124-2.243.173-3.327l-.173 3.327Zm0 0a25.65 25.65 0 0 1-.371 3.351l.371-3.351ZM20.301 205.656v-14.533h1.401v16.079H2.625v-16.079h1.401v15.033h7.437v-15.033h1.401v15.033h7.437v-.5Zm258.19-48.622h-.477l-.022.477a275.534 275.534 0 0 1-.173 3.321v.006a25.21 25.21 0 0 1-.365 3.287v.006a20.107 20.107 0 0 1-.798 3.173 12.19 12.19 0 0 1-1.474 2.936l-.532.781h9.293v-13.987h-5.452Z" fill="#fff" stroke="#fff"/><path opacity=".5" d="M35.367 95.204v110.749l139.695-79.372V15.844L35.367 95.204Z" fill="#E0F6E0"/><path opacity=".5" d="M259.941 176.029V65.814l-84.879-49.97v111.962l84.879 48.223Z" fill="#C2E8D6"/><path d="m61.781 172.607 64.504 37.08 108.752-62.218-64.525-37.082-108.73 62.22Z" fill="#fff"/><path d="M61.355 172.637v10.315l64.506 37.082-.002-10.315-64.504-37.082Z" fill="#D9F0E4"/><path d="m125.74 210.133 109.439-62.961v9.905L125.74 220.036v-9.903Zm9.266-60.244-11.326 3.268-3.625-2.065 36.285-10.287 4.221 2.42-17.837 20.882-3.738-2.149 5.629-6.566-9.608-5.503h-.001Zm11.612 3.521 5.146-5.997c1.165-1.359 2.373-2.517 3.538-3.651l-.085-.042a152.838 152.838 0 0 1-6.267 2.036l-10.489 2.972 8.157 4.682Zm9.779 18.564 7.108-4.089-12.139-6.974 2.33-1.345 28.327-2.887 3.823 2.193-16.231 9.338 3.653 2.109-2.771 1.599-3.653-2.109-7.107 4.089-3.34-1.924Zm9.879-5.686 8.727-5.01a96.97 96.97 0 0 1 4.221-2.291l-.13-.071c-2.33.41-4.091.692-6.024.975l-15.266 1.43-.085.042 8.557 4.923v.002Z" fill="#D9F0E4"/><path opacity=".5" d="m118.477 252.599-.884-110.017-82.226-47.527v109.137l83.11 48.407Z" fill="#C2E8D6"/><path opacity=".5" d="M118.473 135.402v117.201l141.463-76.572V66l-141.463 80.832v-11.43Z" fill="#E5F8E8"/><path d="m114.498 149.57 4.665-15.785 4.652 15.785-4.652-2.034-4.665 2.034Zm-70.871 65.501-11.1-12.251 16.021 4.434-4.203 2.828-.718 4.989Zm202.169-36.427 16.166-3.901-11.507 11.875-.544-4.999-4.115-2.975Z" fill="#1C1C1C"/><path d="m38.016 205.949 81.341 47.027m-.884-1.26V139.059v112.657Zm0 1.26 134.39-72.551-134.39 72.551Z" stroke="#1C1C1C"/><path d="M118.808 122.843a28.466 28.466 0 0 1-2.36-.194 8.935 8.935 0 0 1-.651-.102v-15.758c.203-.04.42-.074.651-.102a28.514 28.514 0 0 1 2.359-.194h.003c.388-.017.752-.024 1.092-.024.965 0 1.861.072 2.687.214l.002.001c.829.14 1.522.378 2.086.704l.007.004.007.003c.573.308 1.01.71 1.323 1.206.302.48.468 1.088.468 1.853 0 .854-.202 1.514-.57 2.018-.386.511-.903.901-1.566 1.165l-1.347.536 1.391.408c.939.275 1.654.702 2.176 1.265.483.521.757 1.287.757 2.371 0 1.563-.571 2.689-1.688 3.456-1.129.767-3.001 1.194-5.709 1.194-.338 0-.709-.008-1.118-.024Zm-1.135-8.084h-.5v6.968l.452.043c.189.019.408.035.656.051.219.018.47.034.751.049l.014.001h1.029c.728 0 1.42-.041 2.071-.127l.01-.002a6.468 6.468 0 0 0 1.823-.536h.001c.55-.264.998-.64 1.331-1.124.369-.513.537-1.138.537-1.841 0-.617-.117-1.175-.385-1.647a2.842 2.842 0 0 0-1.131-1.128c-.456-.263-.992-.445-1.596-.551a11.373 11.373 0 0 0-1.968-.156h-3.095Zm-.5-1.422v.5h3.026c.616 0 1.203-.042 1.76-.129.572-.089 1.083-.25 1.526-.5.46-.248.831-.583 1.095-1.005.294-.444.426-.979.426-1.577 0-.569-.133-1.084-.434-1.514a2.844 2.844 0 0 0-1.151-.977 5.256 5.256 0 0 0-1.549-.514 10.174 10.174 0 0 0-1.822-.156c-.614 0-1.101.009-1.459.025h-.002c-.352.018-.678.042-.975.077l-.441.052v5.718Z" fill="#fff" stroke="#fff"/></svg>
